G04 #@! TF.GenerationSoftware,KiCad,Pcbnew,(5.1.4)-1*
G04 #@! TF.CreationDate,2020-10-01T19:52:32+02:00*
G04 #@! TF.ProjectId,distrib,64697374-7269-4622-9e6b-696361645f70,rev?*
G04 #@! TF.SameCoordinates,Original*
G04 #@! TF.FileFunction,Copper,L2,Bot*
G04 #@! TF.FilePolarity,Positive*
%FSLAX46Y46*%
G04 Gerber Fmt 4.6, Leading zero omitted, Abs format (unit mm)*
G04 Created by KiCad (PCBNEW (5.1.4)-1) date 2020-10-01 19:52:32*
%MOMM*%
%LPD*%
G04 APERTURE LIST*
%ADD10R,1.800000X3.600000*%
%ADD11O,1.800000X3.600000*%
%ADD12C,0.100000*%
%ADD13C,6.000000*%
%ADD14C,4.000000*%
%ADD15C,3.000000*%
%ADD16C,6.000000*%
%ADD17C,0.254000*%
G04 APERTURE END LIST*
D10*
X30480000Y-121920000D03*
D11*
X34290000Y-121920000D03*
X38100000Y-121920000D03*
D10*
X30480000Y-160020000D03*
D11*
X34290000Y-160020000D03*
X38100000Y-160020000D03*
D10*
X48260000Y-160020000D03*
D11*
X52070000Y-160020000D03*
X55880000Y-160020000D03*
D10*
X48260000Y-147320000D03*
D11*
X52070000Y-147320000D03*
X55880000Y-147320000D03*
D10*
X30480000Y-147320000D03*
D11*
X34290000Y-147320000D03*
X38100000Y-147320000D03*
D10*
X66040000Y-71120000D03*
D11*
X69850000Y-71120000D03*
X73660000Y-71120000D03*
D10*
X48260000Y-71120000D03*
D11*
X52070000Y-71120000D03*
X55880000Y-71120000D03*
D10*
X30480000Y-71120000D03*
D11*
X34290000Y-71120000D03*
X38100000Y-71120000D03*
D10*
X66040000Y-83820000D03*
D11*
X69850000Y-83820000D03*
X73660000Y-83820000D03*
D10*
X48260000Y-83820000D03*
D11*
X52070000Y-83820000D03*
X55880000Y-83820000D03*
D10*
X30480000Y-83820000D03*
D11*
X34290000Y-83820000D03*
X38100000Y-83820000D03*
D10*
X66040000Y-96520000D03*
D11*
X69850000Y-96520000D03*
X73660000Y-96520000D03*
D10*
X48260000Y-96520000D03*
D11*
X52070000Y-96520000D03*
X55880000Y-96520000D03*
D10*
X30480000Y-96520000D03*
D11*
X34290000Y-96520000D03*
X38100000Y-96520000D03*
D10*
X66040000Y-109220000D03*
D11*
X69850000Y-109220000D03*
X73660000Y-109220000D03*
D10*
X48260000Y-109220000D03*
D11*
X52070000Y-109220000D03*
X55880000Y-109220000D03*
D10*
X30480000Y-109220000D03*
D11*
X34290000Y-109220000D03*
X38100000Y-109220000D03*
D10*
X66040000Y-121920000D03*
D11*
X69850000Y-121920000D03*
X73660000Y-121920000D03*
D10*
X48260000Y-121920000D03*
D11*
X52070000Y-121920000D03*
X55880000Y-121920000D03*
D10*
X66040000Y-134620000D03*
D11*
X69850000Y-134620000D03*
X73660000Y-134620000D03*
D10*
X48260000Y-134620000D03*
D11*
X52070000Y-134620000D03*
X55880000Y-134620000D03*
D10*
X30480000Y-134620000D03*
D11*
X34290000Y-134620000D03*
X38100000Y-134620000D03*
D10*
X66040000Y-147320000D03*
D11*
X69850000Y-147320000D03*
X73660000Y-147320000D03*
D10*
X66040000Y-160020000D03*
D11*
X69850000Y-160020000D03*
X73660000Y-160020000D03*
D10*
X66040000Y-172720000D03*
D11*
X69850000Y-172720000D03*
X73660000Y-172720000D03*
D10*
X48260000Y-172720000D03*
D11*
X52070000Y-172720000D03*
X55880000Y-172720000D03*
D10*
X30480000Y-172720000D03*
D11*
X34290000Y-172720000D03*
X38100000Y-172720000D03*
D10*
X66040000Y-185420000D03*
D11*
X69850000Y-185420000D03*
X73660000Y-185420000D03*
D10*
X48260000Y-185420000D03*
D11*
X52070000Y-185420000D03*
X55880000Y-185420000D03*
D10*
X30480000Y-185420000D03*
D11*
X34290000Y-185420000D03*
X38100000Y-185420000D03*
D10*
X48260000Y-58420000D03*
D11*
X52070000Y-58420000D03*
X55880000Y-58420000D03*
D10*
X30480000Y-58420000D03*
D11*
X34290000Y-58420000D03*
X38100000Y-58420000D03*
D10*
X66040000Y-58420000D03*
D11*
X69850000Y-58420000D03*
X73660000Y-58420000D03*
D12*
G36*
X49907026Y-202747223D02*
G01*
X50052635Y-202768822D01*
X50195427Y-202804589D01*
X50334025Y-202854181D01*
X50467095Y-202917118D01*
X50593355Y-202992796D01*
X50711590Y-203080484D01*
X50820660Y-203179340D01*
X50919516Y-203288410D01*
X51007204Y-203406645D01*
X51082882Y-203532905D01*
X51145819Y-203665975D01*
X51195411Y-203804573D01*
X51231178Y-203947365D01*
X51252777Y-204092974D01*
X51260000Y-204240000D01*
X51260000Y-207240000D01*
X51252777Y-207387026D01*
X51231178Y-207532635D01*
X51195411Y-207675427D01*
X51145819Y-207814025D01*
X51082882Y-207947095D01*
X51007204Y-208073355D01*
X50919516Y-208191590D01*
X50820660Y-208300660D01*
X50711590Y-208399516D01*
X50593355Y-208487204D01*
X50467095Y-208562882D01*
X50334025Y-208625819D01*
X50195427Y-208675411D01*
X50052635Y-208711178D01*
X49907026Y-208732777D01*
X49760000Y-208740000D01*
X46760000Y-208740000D01*
X46612974Y-208732777D01*
X46467365Y-208711178D01*
X46324573Y-208675411D01*
X46185975Y-208625819D01*
X46052905Y-208562882D01*
X45926645Y-208487204D01*
X45808410Y-208399516D01*
X45699340Y-208300660D01*
X45600484Y-208191590D01*
X45512796Y-208073355D01*
X45437118Y-207947095D01*
X45374181Y-207814025D01*
X45324589Y-207675427D01*
X45288822Y-207532635D01*
X45267223Y-207387026D01*
X45260000Y-207240000D01*
X45260000Y-204240000D01*
X45267223Y-204092974D01*
X45288822Y-203947365D01*
X45324589Y-203804573D01*
X45374181Y-203665975D01*
X45437118Y-203532905D01*
X45512796Y-203406645D01*
X45600484Y-203288410D01*
X45699340Y-203179340D01*
X45808410Y-203080484D01*
X45926645Y-202992796D01*
X46052905Y-202917118D01*
X46185975Y-202854181D01*
X46324573Y-202804589D01*
X46467365Y-202768822D01*
X46612974Y-202747223D01*
X46760000Y-202740000D01*
X49760000Y-202740000D01*
X49907026Y-202747223D01*
X49907026Y-202747223D01*
G37*
D13*
X48260000Y-205740000D03*
X55460000Y-205740000D03*
D14*
X60960000Y-198120000D02*
X66040000Y-193040000D01*
D15*
X30480000Y-185420000D02*
X30480000Y-193040000D01*
D14*
X30480000Y-193040000D02*
X35560000Y-198120000D01*
D15*
X48260000Y-185420000D02*
X48260000Y-198120000D01*
D14*
X35560000Y-198120000D02*
X48260000Y-198120000D01*
X48260000Y-198120000D02*
X60960000Y-198120000D01*
D16*
X48260000Y-205740000D02*
X48260000Y-198120000D01*
D15*
X66040000Y-193040000D02*
X66040000Y-55880000D01*
X48260000Y-198120000D02*
X48260000Y-55880000D01*
X30480000Y-193040000D02*
X30480000Y-55880000D01*
D17*
G36*
X84127556Y-46706721D02*
G01*
X84423399Y-46796041D01*
X84696260Y-46941124D01*
X84935742Y-47136440D01*
X85132726Y-47374554D01*
X85279710Y-47646394D01*
X85371093Y-47941607D01*
X85408000Y-48292751D01*
X85408001Y-218393434D01*
X85373279Y-218747556D01*
X85283958Y-219043402D01*
X85138877Y-219316260D01*
X84943560Y-219555742D01*
X84705445Y-219752727D01*
X84433606Y-219899710D01*
X84138395Y-219991093D01*
X83787249Y-220028000D01*
X20366556Y-220028000D01*
X20012444Y-219993279D01*
X19716598Y-219903958D01*
X19443740Y-219758877D01*
X19204258Y-219563560D01*
X19007273Y-219325445D01*
X18860290Y-219053606D01*
X18768907Y-218758395D01*
X18732000Y-218407249D01*
X18732000Y-215651112D01*
X20333000Y-215651112D01*
X20333000Y-216148888D01*
X20430111Y-216637099D01*
X20620602Y-217096983D01*
X20897151Y-217510869D01*
X21249131Y-217862849D01*
X21663017Y-218139398D01*
X22122901Y-218329889D01*
X22611112Y-218427000D01*
X23108888Y-218427000D01*
X23597099Y-218329889D01*
X24056983Y-218139398D01*
X24470869Y-217862849D01*
X24822849Y-217510869D01*
X25099398Y-217096983D01*
X25289889Y-216637099D01*
X25387000Y-216148888D01*
X25387000Y-215651112D01*
X78753000Y-215651112D01*
X78753000Y-216148888D01*
X78850111Y-216637099D01*
X79040602Y-217096983D01*
X79317151Y-217510869D01*
X79669131Y-217862849D01*
X80083017Y-218139398D01*
X80542901Y-218329889D01*
X81031112Y-218427000D01*
X81528888Y-218427000D01*
X82017099Y-218329889D01*
X82476983Y-218139398D01*
X82890869Y-217862849D01*
X83242849Y-217510869D01*
X83519398Y-217096983D01*
X83709889Y-216637099D01*
X83807000Y-216148888D01*
X83807000Y-215651112D01*
X83709889Y-215162901D01*
X83519398Y-214703017D01*
X83242849Y-214289131D01*
X82890869Y-213937151D01*
X82476983Y-213660602D01*
X82017099Y-213470111D01*
X81528888Y-213373000D01*
X81031112Y-213373000D01*
X80542901Y-213470111D01*
X80083017Y-213660602D01*
X79669131Y-213937151D01*
X79317151Y-214289131D01*
X79040602Y-214703017D01*
X78850111Y-215162901D01*
X78753000Y-215651112D01*
X25387000Y-215651112D01*
X25289889Y-215162901D01*
X25099398Y-214703017D01*
X24822849Y-214289131D01*
X24470869Y-213937151D01*
X24056983Y-213660602D01*
X23597099Y-213470111D01*
X23108888Y-213373000D01*
X22611112Y-213373000D01*
X22122901Y-213470111D01*
X21663017Y-213660602D01*
X21249131Y-213937151D01*
X20897151Y-214289131D01*
X20620602Y-214703017D01*
X20430111Y-215162901D01*
X20333000Y-215651112D01*
X18732000Y-215651112D01*
X18732000Y-193040000D01*
X27538838Y-193040000D01*
X27595352Y-193613792D01*
X27762721Y-194165533D01*
X28034514Y-194674021D01*
X28308625Y-195008028D01*
X33388625Y-200088029D01*
X33480284Y-200199716D01*
X33925978Y-200565487D01*
X34434466Y-200837279D01*
X34986207Y-201004648D01*
X35560000Y-201061162D01*
X35703788Y-201047000D01*
X44333001Y-201047000D01*
X44333000Y-204194461D01*
X44328515Y-204240000D01*
X44328515Y-207240000D01*
X44375235Y-207714359D01*
X44513601Y-208170489D01*
X44738294Y-208590861D01*
X45040680Y-208959320D01*
X45409139Y-209261706D01*
X45829511Y-209486399D01*
X46285641Y-209624765D01*
X46760000Y-209671485D01*
X48112616Y-209671485D01*
X48260000Y-209686001D01*
X48407384Y-209671485D01*
X49760000Y-209671485D01*
X50234359Y-209624765D01*
X50690489Y-209486399D01*
X51110861Y-209261706D01*
X51479320Y-208959320D01*
X51781706Y-208590861D01*
X51937876Y-208298686D01*
X53080919Y-208298686D01*
X53417106Y-208767868D01*
X54047068Y-209108237D01*
X54731327Y-209319166D01*
X55443589Y-209392550D01*
X56156482Y-209325569D01*
X56842609Y-209120796D01*
X57475603Y-208786102D01*
X57502894Y-208767868D01*
X57839081Y-208298686D01*
X55460000Y-205919605D01*
X53080919Y-208298686D01*
X51937876Y-208298686D01*
X52006399Y-208170489D01*
X52144765Y-207714359D01*
X52183601Y-207320051D01*
X52413898Y-207755603D01*
X52432132Y-207782894D01*
X52901314Y-208119081D01*
X55280395Y-205740000D01*
X55639605Y-205740000D01*
X58018686Y-208119081D01*
X58487868Y-207782894D01*
X58828237Y-207152932D01*
X59039166Y-206468673D01*
X59112550Y-205756411D01*
X59045569Y-205043518D01*
X58840796Y-204357391D01*
X58506102Y-203724397D01*
X58487868Y-203697106D01*
X58018686Y-203360919D01*
X55639605Y-205740000D01*
X55280395Y-205740000D01*
X52901314Y-203360919D01*
X52432132Y-203697106D01*
X52187000Y-204150801D01*
X52187000Y-203181314D01*
X53080919Y-203181314D01*
X55460000Y-205560395D01*
X57839081Y-203181314D01*
X57502894Y-202712132D01*
X56872932Y-202371763D01*
X56188673Y-202160834D01*
X55476411Y-202087450D01*
X54763518Y-202154431D01*
X54077391Y-202359204D01*
X53444397Y-202693898D01*
X53417106Y-202712132D01*
X53080919Y-203181314D01*
X52187000Y-203181314D01*
X52187000Y-201047000D01*
X60816212Y-201047000D01*
X60960000Y-201061162D01*
X61103788Y-201047000D01*
X61533792Y-201004648D01*
X62085534Y-200837279D01*
X62594022Y-200565487D01*
X63039716Y-200199716D01*
X63131379Y-200088024D01*
X68211375Y-195008029D01*
X68485486Y-194674022D01*
X68757279Y-194165534D01*
X68924648Y-193613793D01*
X68981162Y-193040000D01*
X68924648Y-192466208D01*
X68757279Y-191914467D01*
X68485486Y-191405978D01*
X68467000Y-191383453D01*
X68467000Y-187514725D01*
X68551866Y-187618135D01*
X68830063Y-187846445D01*
X69147455Y-188016095D01*
X69491846Y-188120565D01*
X69850000Y-188155840D01*
X70208155Y-188120565D01*
X70552546Y-188016095D01*
X70869938Y-187846445D01*
X71148135Y-187618135D01*
X71376445Y-187339938D01*
X71546095Y-187022546D01*
X71650565Y-186678155D01*
X71677000Y-186409755D01*
X71677000Y-185547000D01*
X72125000Y-185547000D01*
X72125000Y-186447000D01*
X72179271Y-186744023D01*
X72290446Y-187024751D01*
X72454252Y-187278396D01*
X72664394Y-187495210D01*
X72912796Y-187666862D01*
X73189913Y-187786755D01*
X73295260Y-187811036D01*
X73533000Y-187690378D01*
X73533000Y-185547000D01*
X73787000Y-185547000D01*
X73787000Y-187690378D01*
X74024740Y-187811036D01*
X74130087Y-187786755D01*
X74407204Y-187666862D01*
X74655606Y-187495210D01*
X74865748Y-187278396D01*
X75029554Y-187024751D01*
X75140729Y-186744023D01*
X75195000Y-186447000D01*
X75195000Y-185547000D01*
X73787000Y-185547000D01*
X73533000Y-185547000D01*
X72125000Y-185547000D01*
X71677000Y-185547000D01*
X71677000Y-184430245D01*
X71673332Y-184393000D01*
X72125000Y-184393000D01*
X72125000Y-185293000D01*
X73533000Y-185293000D01*
X73533000Y-183149622D01*
X73787000Y-183149622D01*
X73787000Y-185293000D01*
X75195000Y-185293000D01*
X75195000Y-184393000D01*
X75140729Y-184095977D01*
X75029554Y-183815249D01*
X74865748Y-183561604D01*
X74655606Y-183344790D01*
X74407204Y-183173138D01*
X74130087Y-183053245D01*
X74024740Y-183028964D01*
X73787000Y-183149622D01*
X73533000Y-183149622D01*
X73295260Y-183028964D01*
X73189913Y-183053245D01*
X72912796Y-183173138D01*
X72664394Y-183344790D01*
X72454252Y-183561604D01*
X72290446Y-183815249D01*
X72179271Y-184095977D01*
X72125000Y-184393000D01*
X71673332Y-184393000D01*
X71650565Y-184161845D01*
X71546095Y-183817454D01*
X71376445Y-183500062D01*
X71148135Y-183221865D01*
X70869937Y-182993555D01*
X70552545Y-182823905D01*
X70208154Y-182719435D01*
X69850000Y-182684160D01*
X69491845Y-182719435D01*
X69147454Y-182823905D01*
X68830062Y-182993555D01*
X68551865Y-183221865D01*
X68467000Y-183325274D01*
X68467000Y-174814725D01*
X68551866Y-174918135D01*
X68830063Y-175146445D01*
X69147455Y-175316095D01*
X69491846Y-175420565D01*
X69850000Y-175455840D01*
X70208155Y-175420565D01*
X70552546Y-175316095D01*
X70869938Y-175146445D01*
X71148135Y-174918135D01*
X71376445Y-174639938D01*
X71546095Y-174322546D01*
X71650565Y-173978155D01*
X71677000Y-173709755D01*
X71677000Y-172847000D01*
X72125000Y-172847000D01*
X72125000Y-173747000D01*
X72179271Y-174044023D01*
X72290446Y-174324751D01*
X72454252Y-174578396D01*
X72664394Y-174795210D01*
X72912796Y-174966862D01*
X73189913Y-175086755D01*
X73295260Y-175111036D01*
X73533000Y-174990378D01*
X73533000Y-172847000D01*
X73787000Y-172847000D01*
X73787000Y-174990378D01*
X74024740Y-175111036D01*
X74130087Y-175086755D01*
X74407204Y-174966862D01*
X74655606Y-174795210D01*
X74865748Y-174578396D01*
X75029554Y-174324751D01*
X75140729Y-174044023D01*
X75195000Y-173747000D01*
X75195000Y-172847000D01*
X73787000Y-172847000D01*
X73533000Y-172847000D01*
X72125000Y-172847000D01*
X71677000Y-172847000D01*
X71677000Y-171730245D01*
X71673332Y-171693000D01*
X72125000Y-171693000D01*
X72125000Y-172593000D01*
X73533000Y-172593000D01*
X73533000Y-170449622D01*
X73787000Y-170449622D01*
X73787000Y-172593000D01*
X75195000Y-172593000D01*
X75195000Y-171693000D01*
X75140729Y-171395977D01*
X75029554Y-171115249D01*
X74865748Y-170861604D01*
X74655606Y-170644790D01*
X74407204Y-170473138D01*
X74130087Y-170353245D01*
X74024740Y-170328964D01*
X73787000Y-170449622D01*
X73533000Y-170449622D01*
X73295260Y-170328964D01*
X73189913Y-170353245D01*
X72912796Y-170473138D01*
X72664394Y-170644790D01*
X72454252Y-170861604D01*
X72290446Y-171115249D01*
X72179271Y-171395977D01*
X72125000Y-171693000D01*
X71673332Y-171693000D01*
X71650565Y-171461845D01*
X71546095Y-171117454D01*
X71376445Y-170800062D01*
X71148135Y-170521865D01*
X70869937Y-170293555D01*
X70552545Y-170123905D01*
X70208154Y-170019435D01*
X69850000Y-169984160D01*
X69491845Y-170019435D01*
X69147454Y-170123905D01*
X68830062Y-170293555D01*
X68551865Y-170521865D01*
X68467000Y-170625274D01*
X68467000Y-162114725D01*
X68551866Y-162218135D01*
X68830063Y-162446445D01*
X69147455Y-162616095D01*
X69491846Y-162720565D01*
X69850000Y-162755840D01*
X70208155Y-162720565D01*
X70552546Y-162616095D01*
X70869938Y-162446445D01*
X71148135Y-162218135D01*
X71376445Y-161939938D01*
X71546095Y-161622546D01*
X71650565Y-161278155D01*
X71677000Y-161009755D01*
X71677000Y-160147000D01*
X72125000Y-160147000D01*
X72125000Y-161047000D01*
X72179271Y-161344023D01*
X72290446Y-161624751D01*
X72454252Y-161878396D01*
X72664394Y-162095210D01*
X72912796Y-162266862D01*
X73189913Y-162386755D01*
X73295260Y-162411036D01*
X73533000Y-162290378D01*
X73533000Y-160147000D01*
X73787000Y-160147000D01*
X73787000Y-162290378D01*
X74024740Y-162411036D01*
X74130087Y-162386755D01*
X74407204Y-162266862D01*
X74655606Y-162095210D01*
X74865748Y-161878396D01*
X75029554Y-161624751D01*
X75140729Y-161344023D01*
X75195000Y-161047000D01*
X75195000Y-160147000D01*
X73787000Y-160147000D01*
X73533000Y-160147000D01*
X72125000Y-160147000D01*
X71677000Y-160147000D01*
X71677000Y-159030245D01*
X71673332Y-158993000D01*
X72125000Y-158993000D01*
X72125000Y-159893000D01*
X73533000Y-159893000D01*
X73533000Y-157749622D01*
X73787000Y-157749622D01*
X73787000Y-159893000D01*
X75195000Y-159893000D01*
X75195000Y-158993000D01*
X75140729Y-158695977D01*
X75029554Y-158415249D01*
X74865748Y-158161604D01*
X74655606Y-157944790D01*
X74407204Y-157773138D01*
X74130087Y-157653245D01*
X74024740Y-157628964D01*
X73787000Y-157749622D01*
X73533000Y-157749622D01*
X73295260Y-157628964D01*
X73189913Y-157653245D01*
X72912796Y-157773138D01*
X72664394Y-157944790D01*
X72454252Y-158161604D01*
X72290446Y-158415249D01*
X72179271Y-158695977D01*
X72125000Y-158993000D01*
X71673332Y-158993000D01*
X71650565Y-158761845D01*
X71546095Y-158417454D01*
X71376445Y-158100062D01*
X71148135Y-157821865D01*
X70869937Y-157593555D01*
X70552545Y-157423905D01*
X70208154Y-157319435D01*
X69850000Y-157284160D01*
X69491845Y-157319435D01*
X69147454Y-157423905D01*
X68830062Y-157593555D01*
X68551865Y-157821865D01*
X68467000Y-157925274D01*
X68467000Y-149414725D01*
X68551866Y-149518135D01*
X68830063Y-149746445D01*
X69147455Y-149916095D01*
X69491846Y-150020565D01*
X69850000Y-150055840D01*
X70208155Y-150020565D01*
X70552546Y-149916095D01*
X70869938Y-149746445D01*
X71148135Y-149518135D01*
X71376445Y-149239938D01*
X71546095Y-148922546D01*
X71650565Y-148578155D01*
X71677000Y-148309755D01*
X71677000Y-147447000D01*
X72125000Y-147447000D01*
X72125000Y-148347000D01*
X72179271Y-148644023D01*
X72290446Y-148924751D01*
X72454252Y-149178396D01*
X72664394Y-149395210D01*
X72912796Y-149566862D01*
X73189913Y-149686755D01*
X73295260Y-149711036D01*
X73533000Y-149590378D01*
X73533000Y-147447000D01*
X73787000Y-147447000D01*
X73787000Y-149590378D01*
X74024740Y-149711036D01*
X74130087Y-149686755D01*
X74407204Y-149566862D01*
X74655606Y-149395210D01*
X74865748Y-149178396D01*
X75029554Y-148924751D01*
X75140729Y-148644023D01*
X75195000Y-148347000D01*
X75195000Y-147447000D01*
X73787000Y-147447000D01*
X73533000Y-147447000D01*
X72125000Y-147447000D01*
X71677000Y-147447000D01*
X71677000Y-146330245D01*
X71673332Y-146293000D01*
X72125000Y-146293000D01*
X72125000Y-147193000D01*
X73533000Y-147193000D01*
X73533000Y-145049622D01*
X73787000Y-145049622D01*
X73787000Y-147193000D01*
X75195000Y-147193000D01*
X75195000Y-146293000D01*
X75140729Y-145995977D01*
X75029554Y-145715249D01*
X74865748Y-145461604D01*
X74655606Y-145244790D01*
X74407204Y-145073138D01*
X74130087Y-144953245D01*
X74024740Y-144928964D01*
X73787000Y-145049622D01*
X73533000Y-145049622D01*
X73295260Y-144928964D01*
X73189913Y-144953245D01*
X72912796Y-145073138D01*
X72664394Y-145244790D01*
X72454252Y-145461604D01*
X72290446Y-145715249D01*
X72179271Y-145995977D01*
X72125000Y-146293000D01*
X71673332Y-146293000D01*
X71650565Y-146061845D01*
X71546095Y-145717454D01*
X71376445Y-145400062D01*
X71148135Y-145121865D01*
X70869937Y-144893555D01*
X70552545Y-144723905D01*
X70208154Y-144619435D01*
X69850000Y-144584160D01*
X69491845Y-144619435D01*
X69147454Y-144723905D01*
X68830062Y-144893555D01*
X68551865Y-145121865D01*
X68467000Y-145225274D01*
X68467000Y-136714725D01*
X68551866Y-136818135D01*
X68830063Y-137046445D01*
X69147455Y-137216095D01*
X69491846Y-137320565D01*
X69850000Y-137355840D01*
X70208155Y-137320565D01*
X70552546Y-137216095D01*
X70869938Y-137046445D01*
X71148135Y-136818135D01*
X71376445Y-136539938D01*
X71546095Y-136222546D01*
X71650565Y-135878155D01*
X71677000Y-135609755D01*
X71677000Y-134747000D01*
X72125000Y-134747000D01*
X72125000Y-135647000D01*
X72179271Y-135944023D01*
X72290446Y-136224751D01*
X72454252Y-136478396D01*
X72664394Y-136695210D01*
X72912796Y-136866862D01*
X73189913Y-136986755D01*
X73295260Y-137011036D01*
X73533000Y-136890378D01*
X73533000Y-134747000D01*
X73787000Y-134747000D01*
X73787000Y-136890378D01*
X74024740Y-137011036D01*
X74130087Y-136986755D01*
X74407204Y-136866862D01*
X74655606Y-136695210D01*
X74865748Y-136478396D01*
X75029554Y-136224751D01*
X75140729Y-135944023D01*
X75195000Y-135647000D01*
X75195000Y-134747000D01*
X73787000Y-134747000D01*
X73533000Y-134747000D01*
X72125000Y-134747000D01*
X71677000Y-134747000D01*
X71677000Y-133630245D01*
X71673332Y-133593000D01*
X72125000Y-133593000D01*
X72125000Y-134493000D01*
X73533000Y-134493000D01*
X73533000Y-132349622D01*
X73787000Y-132349622D01*
X73787000Y-134493000D01*
X75195000Y-134493000D01*
X75195000Y-133593000D01*
X75140729Y-133295977D01*
X75029554Y-133015249D01*
X74865748Y-132761604D01*
X74655606Y-132544790D01*
X74407204Y-132373138D01*
X74130087Y-132253245D01*
X74024740Y-132228964D01*
X73787000Y-132349622D01*
X73533000Y-132349622D01*
X73295260Y-132228964D01*
X73189913Y-132253245D01*
X72912796Y-132373138D01*
X72664394Y-132544790D01*
X72454252Y-132761604D01*
X72290446Y-133015249D01*
X72179271Y-133295977D01*
X72125000Y-133593000D01*
X71673332Y-133593000D01*
X71650565Y-133361845D01*
X71546095Y-133017454D01*
X71376445Y-132700062D01*
X71148135Y-132421865D01*
X70869937Y-132193555D01*
X70552545Y-132023905D01*
X70208154Y-131919435D01*
X69850000Y-131884160D01*
X69491845Y-131919435D01*
X69147454Y-132023905D01*
X68830062Y-132193555D01*
X68551865Y-132421865D01*
X68467000Y-132525274D01*
X68467000Y-124014725D01*
X68551866Y-124118135D01*
X68830063Y-124346445D01*
X69147455Y-124516095D01*
X69491846Y-124620565D01*
X69850000Y-124655840D01*
X70208155Y-124620565D01*
X70552546Y-124516095D01*
X70869938Y-124346445D01*
X71148135Y-124118135D01*
X71376445Y-123839938D01*
X71546095Y-123522546D01*
X71650565Y-123178155D01*
X71677000Y-122909755D01*
X71677000Y-122047000D01*
X72125000Y-122047000D01*
X72125000Y-122947000D01*
X72179271Y-123244023D01*
X72290446Y-123524751D01*
X72454252Y-123778396D01*
X72664394Y-123995210D01*
X72912796Y-124166862D01*
X73189913Y-124286755D01*
X73295260Y-124311036D01*
X73533000Y-124190378D01*
X73533000Y-122047000D01*
X73787000Y-122047000D01*
X73787000Y-124190378D01*
X74024740Y-124311036D01*
X74130087Y-124286755D01*
X74407204Y-124166862D01*
X74655606Y-123995210D01*
X74865748Y-123778396D01*
X75029554Y-123524751D01*
X75140729Y-123244023D01*
X75195000Y-122947000D01*
X75195000Y-122047000D01*
X73787000Y-122047000D01*
X73533000Y-122047000D01*
X72125000Y-122047000D01*
X71677000Y-122047000D01*
X71677000Y-120930245D01*
X71673332Y-120893000D01*
X72125000Y-120893000D01*
X72125000Y-121793000D01*
X73533000Y-121793000D01*
X73533000Y-119649622D01*
X73787000Y-119649622D01*
X73787000Y-121793000D01*
X75195000Y-121793000D01*
X75195000Y-120893000D01*
X75140729Y-120595977D01*
X75029554Y-120315249D01*
X74865748Y-120061604D01*
X74655606Y-119844790D01*
X74407204Y-119673138D01*
X74130087Y-119553245D01*
X74024740Y-119528964D01*
X73787000Y-119649622D01*
X73533000Y-119649622D01*
X73295260Y-119528964D01*
X73189913Y-119553245D01*
X72912796Y-119673138D01*
X72664394Y-119844790D01*
X72454252Y-120061604D01*
X72290446Y-120315249D01*
X72179271Y-120595977D01*
X72125000Y-120893000D01*
X71673332Y-120893000D01*
X71650565Y-120661845D01*
X71546095Y-120317454D01*
X71376445Y-120000062D01*
X71148135Y-119721865D01*
X70869937Y-119493555D01*
X70552545Y-119323905D01*
X70208154Y-119219435D01*
X69850000Y-119184160D01*
X69491845Y-119219435D01*
X69147454Y-119323905D01*
X68830062Y-119493555D01*
X68551865Y-119721865D01*
X68467000Y-119825274D01*
X68467000Y-111314725D01*
X68551866Y-111418135D01*
X68830063Y-111646445D01*
X69147455Y-111816095D01*
X69491846Y-111920565D01*
X69850000Y-111955840D01*
X70208155Y-111920565D01*
X70552546Y-111816095D01*
X70869938Y-111646445D01*
X71148135Y-111418135D01*
X71376445Y-111139938D01*
X71546095Y-110822546D01*
X71650565Y-110478155D01*
X71677000Y-110209755D01*
X71677000Y-109347000D01*
X72125000Y-109347000D01*
X72125000Y-110247000D01*
X72179271Y-110544023D01*
X72290446Y-110824751D01*
X72454252Y-111078396D01*
X72664394Y-111295210D01*
X72912796Y-111466862D01*
X73189913Y-111586755D01*
X73295260Y-111611036D01*
X73533000Y-111490378D01*
X73533000Y-109347000D01*
X73787000Y-109347000D01*
X73787000Y-111490378D01*
X74024740Y-111611036D01*
X74130087Y-111586755D01*
X74407204Y-111466862D01*
X74655606Y-111295210D01*
X74865748Y-111078396D01*
X75029554Y-110824751D01*
X75140729Y-110544023D01*
X75195000Y-110247000D01*
X75195000Y-109347000D01*
X73787000Y-109347000D01*
X73533000Y-109347000D01*
X72125000Y-109347000D01*
X71677000Y-109347000D01*
X71677000Y-108230245D01*
X71673332Y-108193000D01*
X72125000Y-108193000D01*
X72125000Y-109093000D01*
X73533000Y-109093000D01*
X73533000Y-106949622D01*
X73787000Y-106949622D01*
X73787000Y-109093000D01*
X75195000Y-109093000D01*
X75195000Y-108193000D01*
X75140729Y-107895977D01*
X75029554Y-107615249D01*
X74865748Y-107361604D01*
X74655606Y-107144790D01*
X74407204Y-106973138D01*
X74130087Y-106853245D01*
X74024740Y-106828964D01*
X73787000Y-106949622D01*
X73533000Y-106949622D01*
X73295260Y-106828964D01*
X73189913Y-106853245D01*
X72912796Y-106973138D01*
X72664394Y-107144790D01*
X72454252Y-107361604D01*
X72290446Y-107615249D01*
X72179271Y-107895977D01*
X72125000Y-108193000D01*
X71673332Y-108193000D01*
X71650565Y-107961845D01*
X71546095Y-107617454D01*
X71376445Y-107300062D01*
X71148135Y-107021865D01*
X70869937Y-106793555D01*
X70552545Y-106623905D01*
X70208154Y-106519435D01*
X69850000Y-106484160D01*
X69491845Y-106519435D01*
X69147454Y-106623905D01*
X68830062Y-106793555D01*
X68551865Y-107021865D01*
X68467000Y-107125274D01*
X68467000Y-98614725D01*
X68551866Y-98718135D01*
X68830063Y-98946445D01*
X69147455Y-99116095D01*
X69491846Y-99220565D01*
X69850000Y-99255840D01*
X70208155Y-99220565D01*
X70552546Y-99116095D01*
X70869938Y-98946445D01*
X71148135Y-98718135D01*
X71376445Y-98439938D01*
X71546095Y-98122546D01*
X71650565Y-97778155D01*
X71677000Y-97509755D01*
X71677000Y-96647000D01*
X72125000Y-96647000D01*
X72125000Y-97547000D01*
X72179271Y-97844023D01*
X72290446Y-98124751D01*
X72454252Y-98378396D01*
X72664394Y-98595210D01*
X72912796Y-98766862D01*
X73189913Y-98886755D01*
X73295260Y-98911036D01*
X73533000Y-98790378D01*
X73533000Y-96647000D01*
X73787000Y-96647000D01*
X73787000Y-98790378D01*
X74024740Y-98911036D01*
X74130087Y-98886755D01*
X74407204Y-98766862D01*
X74655606Y-98595210D01*
X74865748Y-98378396D01*
X75029554Y-98124751D01*
X75140729Y-97844023D01*
X75195000Y-97547000D01*
X75195000Y-96647000D01*
X73787000Y-96647000D01*
X73533000Y-96647000D01*
X72125000Y-96647000D01*
X71677000Y-96647000D01*
X71677000Y-95530245D01*
X71673332Y-95493000D01*
X72125000Y-95493000D01*
X72125000Y-96393000D01*
X73533000Y-96393000D01*
X73533000Y-94249622D01*
X73787000Y-94249622D01*
X73787000Y-96393000D01*
X75195000Y-96393000D01*
X75195000Y-95493000D01*
X75140729Y-95195977D01*
X75029554Y-94915249D01*
X74865748Y-94661604D01*
X74655606Y-94444790D01*
X74407204Y-94273138D01*
X74130087Y-94153245D01*
X74024740Y-94128964D01*
X73787000Y-94249622D01*
X73533000Y-94249622D01*
X73295260Y-94128964D01*
X73189913Y-94153245D01*
X72912796Y-94273138D01*
X72664394Y-94444790D01*
X72454252Y-94661604D01*
X72290446Y-94915249D01*
X72179271Y-95195977D01*
X72125000Y-95493000D01*
X71673332Y-95493000D01*
X71650565Y-95261845D01*
X71546095Y-94917454D01*
X71376445Y-94600062D01*
X71148135Y-94321865D01*
X70869937Y-94093555D01*
X70552545Y-93923905D01*
X70208154Y-93819435D01*
X69850000Y-93784160D01*
X69491845Y-93819435D01*
X69147454Y-93923905D01*
X68830062Y-94093555D01*
X68551865Y-94321865D01*
X68467000Y-94425274D01*
X68467000Y-85914725D01*
X68551866Y-86018135D01*
X68830063Y-86246445D01*
X69147455Y-86416095D01*
X69491846Y-86520565D01*
X69850000Y-86555840D01*
X70208155Y-86520565D01*
X70552546Y-86416095D01*
X70869938Y-86246445D01*
X71148135Y-86018135D01*
X71376445Y-85739938D01*
X71546095Y-85422546D01*
X71650565Y-85078155D01*
X71677000Y-84809755D01*
X71677000Y-83947000D01*
X72125000Y-83947000D01*
X72125000Y-84847000D01*
X72179271Y-85144023D01*
X72290446Y-85424751D01*
X72454252Y-85678396D01*
X72664394Y-85895210D01*
X72912796Y-86066862D01*
X73189913Y-86186755D01*
X73295260Y-86211036D01*
X73533000Y-86090378D01*
X73533000Y-83947000D01*
X73787000Y-83947000D01*
X73787000Y-86090378D01*
X74024740Y-86211036D01*
X74130087Y-86186755D01*
X74407204Y-86066862D01*
X74655606Y-85895210D01*
X74865748Y-85678396D01*
X75029554Y-85424751D01*
X75140729Y-85144023D01*
X75195000Y-84847000D01*
X75195000Y-83947000D01*
X73787000Y-83947000D01*
X73533000Y-83947000D01*
X72125000Y-83947000D01*
X71677000Y-83947000D01*
X71677000Y-82830245D01*
X71673332Y-82793000D01*
X72125000Y-82793000D01*
X72125000Y-83693000D01*
X73533000Y-83693000D01*
X73533000Y-81549622D01*
X73787000Y-81549622D01*
X73787000Y-83693000D01*
X75195000Y-83693000D01*
X75195000Y-82793000D01*
X75140729Y-82495977D01*
X75029554Y-82215249D01*
X74865748Y-81961604D01*
X74655606Y-81744790D01*
X74407204Y-81573138D01*
X74130087Y-81453245D01*
X74024740Y-81428964D01*
X73787000Y-81549622D01*
X73533000Y-81549622D01*
X73295260Y-81428964D01*
X73189913Y-81453245D01*
X72912796Y-81573138D01*
X72664394Y-81744790D01*
X72454252Y-81961604D01*
X72290446Y-82215249D01*
X72179271Y-82495977D01*
X72125000Y-82793000D01*
X71673332Y-82793000D01*
X71650565Y-82561845D01*
X71546095Y-82217454D01*
X71376445Y-81900062D01*
X71148135Y-81621865D01*
X70869937Y-81393555D01*
X70552545Y-81223905D01*
X70208154Y-81119435D01*
X69850000Y-81084160D01*
X69491845Y-81119435D01*
X69147454Y-81223905D01*
X68830062Y-81393555D01*
X68551865Y-81621865D01*
X68467000Y-81725274D01*
X68467000Y-73214725D01*
X68551866Y-73318135D01*
X68830063Y-73546445D01*
X69147455Y-73716095D01*
X69491846Y-73820565D01*
X69850000Y-73855840D01*
X70208155Y-73820565D01*
X70552546Y-73716095D01*
X70869938Y-73546445D01*
X71148135Y-73318135D01*
X71376445Y-73039938D01*
X71546095Y-72722546D01*
X71650565Y-72378155D01*
X71677000Y-72109755D01*
X71677000Y-71247000D01*
X72125000Y-71247000D01*
X72125000Y-72147000D01*
X72179271Y-72444023D01*
X72290446Y-72724751D01*
X72454252Y-72978396D01*
X72664394Y-73195210D01*
X72912796Y-73366862D01*
X73189913Y-73486755D01*
X73295260Y-73511036D01*
X73533000Y-73390378D01*
X73533000Y-71247000D01*
X73787000Y-71247000D01*
X73787000Y-73390378D01*
X74024740Y-73511036D01*
X74130087Y-73486755D01*
X74407204Y-73366862D01*
X74655606Y-73195210D01*
X74865748Y-72978396D01*
X75029554Y-72724751D01*
X75140729Y-72444023D01*
X75195000Y-72147000D01*
X75195000Y-71247000D01*
X73787000Y-71247000D01*
X73533000Y-71247000D01*
X72125000Y-71247000D01*
X71677000Y-71247000D01*
X71677000Y-70130245D01*
X71673332Y-70093000D01*
X72125000Y-70093000D01*
X72125000Y-70993000D01*
X73533000Y-70993000D01*
X73533000Y-68849622D01*
X73787000Y-68849622D01*
X73787000Y-70993000D01*
X75195000Y-70993000D01*
X75195000Y-70093000D01*
X75140729Y-69795977D01*
X75029554Y-69515249D01*
X74865748Y-69261604D01*
X74655606Y-69044790D01*
X74407204Y-68873138D01*
X74130087Y-68753245D01*
X74024740Y-68728964D01*
X73787000Y-68849622D01*
X73533000Y-68849622D01*
X73295260Y-68728964D01*
X73189913Y-68753245D01*
X72912796Y-68873138D01*
X72664394Y-69044790D01*
X72454252Y-69261604D01*
X72290446Y-69515249D01*
X72179271Y-69795977D01*
X72125000Y-70093000D01*
X71673332Y-70093000D01*
X71650565Y-69861845D01*
X71546095Y-69517454D01*
X71376445Y-69200062D01*
X71148135Y-68921865D01*
X70869937Y-68693555D01*
X70552545Y-68523905D01*
X70208154Y-68419435D01*
X69850000Y-68384160D01*
X69491845Y-68419435D01*
X69147454Y-68523905D01*
X68830062Y-68693555D01*
X68551865Y-68921865D01*
X68467000Y-69025274D01*
X68467000Y-60514725D01*
X68551866Y-60618135D01*
X68830063Y-60846445D01*
X69147455Y-61016095D01*
X69491846Y-61120565D01*
X69850000Y-61155840D01*
X70208155Y-61120565D01*
X70552546Y-61016095D01*
X70869938Y-60846445D01*
X71148135Y-60618135D01*
X71376445Y-60339938D01*
X71546095Y-60022546D01*
X71650565Y-59678155D01*
X71677000Y-59409755D01*
X71677000Y-58547000D01*
X72125000Y-58547000D01*
X72125000Y-59447000D01*
X72179271Y-59744023D01*
X72290446Y-60024751D01*
X72454252Y-60278396D01*
X72664394Y-60495210D01*
X72912796Y-60666862D01*
X73189913Y-60786755D01*
X73295260Y-60811036D01*
X73533000Y-60690378D01*
X73533000Y-58547000D01*
X73787000Y-58547000D01*
X73787000Y-60690378D01*
X74024740Y-60811036D01*
X74130087Y-60786755D01*
X74407204Y-60666862D01*
X74655606Y-60495210D01*
X74865748Y-60278396D01*
X75029554Y-60024751D01*
X75140729Y-59744023D01*
X75195000Y-59447000D01*
X75195000Y-58547000D01*
X73787000Y-58547000D01*
X73533000Y-58547000D01*
X72125000Y-58547000D01*
X71677000Y-58547000D01*
X71677000Y-57430245D01*
X71673332Y-57393000D01*
X72125000Y-57393000D01*
X72125000Y-58293000D01*
X73533000Y-58293000D01*
X73533000Y-56149622D01*
X73787000Y-56149622D01*
X73787000Y-58293000D01*
X75195000Y-58293000D01*
X75195000Y-57393000D01*
X75140729Y-57095977D01*
X75029554Y-56815249D01*
X74865748Y-56561604D01*
X74655606Y-56344790D01*
X74407204Y-56173138D01*
X74130087Y-56053245D01*
X74024740Y-56028964D01*
X73787000Y-56149622D01*
X73533000Y-56149622D01*
X73295260Y-56028964D01*
X73189913Y-56053245D01*
X72912796Y-56173138D01*
X72664394Y-56344790D01*
X72454252Y-56561604D01*
X72290446Y-56815249D01*
X72179271Y-57095977D01*
X72125000Y-57393000D01*
X71673332Y-57393000D01*
X71650565Y-57161845D01*
X71546095Y-56817454D01*
X71376445Y-56500062D01*
X71148135Y-56221865D01*
X70869937Y-55993555D01*
X70552545Y-55823905D01*
X70208154Y-55719435D01*
X69850000Y-55684160D01*
X69491845Y-55719435D01*
X69147454Y-55823905D01*
X68830062Y-55993555D01*
X68551865Y-56221865D01*
X68467000Y-56325274D01*
X68467000Y-55760772D01*
X68431883Y-55404225D01*
X68293105Y-54946733D01*
X68067741Y-54525107D01*
X67764452Y-54155548D01*
X67394893Y-53852259D01*
X66973267Y-53626895D01*
X66515775Y-53488117D01*
X66040000Y-53441257D01*
X65564226Y-53488117D01*
X65106734Y-53626895D01*
X64685108Y-53852259D01*
X64315549Y-54155548D01*
X64012260Y-54525107D01*
X63786896Y-54946733D01*
X63648118Y-55404225D01*
X63613001Y-55760772D01*
X63613000Y-191327596D01*
X59747597Y-195193000D01*
X50883606Y-195193000D01*
X50687000Y-195031649D01*
X50687000Y-187514725D01*
X50771866Y-187618135D01*
X51050063Y-187846445D01*
X51367455Y-188016095D01*
X51711846Y-188120565D01*
X52070000Y-188155840D01*
X52428155Y-188120565D01*
X52772546Y-188016095D01*
X53089938Y-187846445D01*
X53368135Y-187618135D01*
X53596445Y-187339938D01*
X53766095Y-187022546D01*
X53870565Y-186678155D01*
X53897000Y-186409755D01*
X53897000Y-185547000D01*
X54345000Y-185547000D01*
X54345000Y-186447000D01*
X54399271Y-186744023D01*
X54510446Y-187024751D01*
X54674252Y-187278396D01*
X54884394Y-187495210D01*
X55132796Y-187666862D01*
X55409913Y-187786755D01*
X55515260Y-187811036D01*
X55753000Y-187690378D01*
X55753000Y-185547000D01*
X56007000Y-185547000D01*
X56007000Y-187690378D01*
X56244740Y-187811036D01*
X56350087Y-187786755D01*
X56627204Y-187666862D01*
X56875606Y-187495210D01*
X57085748Y-187278396D01*
X57249554Y-187024751D01*
X57360729Y-186744023D01*
X57415000Y-186447000D01*
X57415000Y-185547000D01*
X56007000Y-185547000D01*
X55753000Y-185547000D01*
X54345000Y-185547000D01*
X53897000Y-185547000D01*
X53897000Y-184430245D01*
X53893332Y-184393000D01*
X54345000Y-184393000D01*
X54345000Y-185293000D01*
X55753000Y-185293000D01*
X55753000Y-183149622D01*
X56007000Y-183149622D01*
X56007000Y-185293000D01*
X57415000Y-185293000D01*
X57415000Y-184393000D01*
X57360729Y-184095977D01*
X57249554Y-183815249D01*
X57085748Y-183561604D01*
X56875606Y-183344790D01*
X56627204Y-183173138D01*
X56350087Y-183053245D01*
X56244740Y-183028964D01*
X56007000Y-183149622D01*
X55753000Y-183149622D01*
X55515260Y-183028964D01*
X55409913Y-183053245D01*
X55132796Y-183173138D01*
X54884394Y-183344790D01*
X54674252Y-183561604D01*
X54510446Y-183815249D01*
X54399271Y-184095977D01*
X54345000Y-184393000D01*
X53893332Y-184393000D01*
X53870565Y-184161845D01*
X53766095Y-183817454D01*
X53596445Y-183500062D01*
X53368135Y-183221865D01*
X53089937Y-182993555D01*
X52772545Y-182823905D01*
X52428154Y-182719435D01*
X52070000Y-182684160D01*
X51711845Y-182719435D01*
X51367454Y-182823905D01*
X51050062Y-182993555D01*
X50771865Y-183221865D01*
X50687000Y-183325274D01*
X50687000Y-174814725D01*
X50771866Y-174918135D01*
X51050063Y-175146445D01*
X51367455Y-175316095D01*
X51711846Y-175420565D01*
X52070000Y-175455840D01*
X52428155Y-175420565D01*
X52772546Y-175316095D01*
X53089938Y-175146445D01*
X53368135Y-174918135D01*
X53596445Y-174639938D01*
X53766095Y-174322546D01*
X53870565Y-173978155D01*
X53897000Y-173709755D01*
X53897000Y-172847000D01*
X54345000Y-172847000D01*
X54345000Y-173747000D01*
X54399271Y-174044023D01*
X54510446Y-174324751D01*
X54674252Y-174578396D01*
X54884394Y-174795210D01*
X55132796Y-174966862D01*
X55409913Y-175086755D01*
X55515260Y-175111036D01*
X55753000Y-174990378D01*
X55753000Y-172847000D01*
X56007000Y-172847000D01*
X56007000Y-174990378D01*
X56244740Y-175111036D01*
X56350087Y-175086755D01*
X56627204Y-174966862D01*
X56875606Y-174795210D01*
X57085748Y-174578396D01*
X57249554Y-174324751D01*
X57360729Y-174044023D01*
X57415000Y-173747000D01*
X57415000Y-172847000D01*
X56007000Y-172847000D01*
X55753000Y-172847000D01*
X54345000Y-172847000D01*
X53897000Y-172847000D01*
X53897000Y-171730245D01*
X53893332Y-171693000D01*
X54345000Y-171693000D01*
X54345000Y-172593000D01*
X55753000Y-172593000D01*
X55753000Y-170449622D01*
X56007000Y-170449622D01*
X56007000Y-172593000D01*
X57415000Y-172593000D01*
X57415000Y-171693000D01*
X57360729Y-171395977D01*
X57249554Y-171115249D01*
X57085748Y-170861604D01*
X56875606Y-170644790D01*
X56627204Y-170473138D01*
X56350087Y-170353245D01*
X56244740Y-170328964D01*
X56007000Y-170449622D01*
X55753000Y-170449622D01*
X55515260Y-170328964D01*
X55409913Y-170353245D01*
X55132796Y-170473138D01*
X54884394Y-170644790D01*
X54674252Y-170861604D01*
X54510446Y-171115249D01*
X54399271Y-171395977D01*
X54345000Y-171693000D01*
X53893332Y-171693000D01*
X53870565Y-171461845D01*
X53766095Y-171117454D01*
X53596445Y-170800062D01*
X53368135Y-170521865D01*
X53089937Y-170293555D01*
X52772545Y-170123905D01*
X52428154Y-170019435D01*
X52070000Y-169984160D01*
X51711845Y-170019435D01*
X51367454Y-170123905D01*
X51050062Y-170293555D01*
X50771865Y-170521865D01*
X50687000Y-170625274D01*
X50687000Y-162114725D01*
X50771866Y-162218135D01*
X51050063Y-162446445D01*
X51367455Y-162616095D01*
X51711846Y-162720565D01*
X52070000Y-162755840D01*
X52428155Y-162720565D01*
X52772546Y-162616095D01*
X53089938Y-162446445D01*
X53368135Y-162218135D01*
X53596445Y-161939938D01*
X53766095Y-161622546D01*
X53870565Y-161278155D01*
X53897000Y-161009755D01*
X53897000Y-160147000D01*
X54345000Y-160147000D01*
X54345000Y-161047000D01*
X54399271Y-161344023D01*
X54510446Y-161624751D01*
X54674252Y-161878396D01*
X54884394Y-162095210D01*
X55132796Y-162266862D01*
X55409913Y-162386755D01*
X55515260Y-162411036D01*
X55753000Y-162290378D01*
X55753000Y-160147000D01*
X56007000Y-160147000D01*
X56007000Y-162290378D01*
X56244740Y-162411036D01*
X56350087Y-162386755D01*
X56627204Y-162266862D01*
X56875606Y-162095210D01*
X57085748Y-161878396D01*
X57249554Y-161624751D01*
X57360729Y-161344023D01*
X57415000Y-161047000D01*
X57415000Y-160147000D01*
X56007000Y-160147000D01*
X55753000Y-160147000D01*
X54345000Y-160147000D01*
X53897000Y-160147000D01*
X53897000Y-159030245D01*
X53893332Y-158993000D01*
X54345000Y-158993000D01*
X54345000Y-159893000D01*
X55753000Y-159893000D01*
X55753000Y-157749622D01*
X56007000Y-157749622D01*
X56007000Y-159893000D01*
X57415000Y-159893000D01*
X57415000Y-158993000D01*
X57360729Y-158695977D01*
X57249554Y-158415249D01*
X57085748Y-158161604D01*
X56875606Y-157944790D01*
X56627204Y-157773138D01*
X56350087Y-157653245D01*
X56244740Y-157628964D01*
X56007000Y-157749622D01*
X55753000Y-157749622D01*
X55515260Y-157628964D01*
X55409913Y-157653245D01*
X55132796Y-157773138D01*
X54884394Y-157944790D01*
X54674252Y-158161604D01*
X54510446Y-158415249D01*
X54399271Y-158695977D01*
X54345000Y-158993000D01*
X53893332Y-158993000D01*
X53870565Y-158761845D01*
X53766095Y-158417454D01*
X53596445Y-158100062D01*
X53368135Y-157821865D01*
X53089937Y-157593555D01*
X52772545Y-157423905D01*
X52428154Y-157319435D01*
X52070000Y-157284160D01*
X51711845Y-157319435D01*
X51367454Y-157423905D01*
X51050062Y-157593555D01*
X50771865Y-157821865D01*
X50687000Y-157925274D01*
X50687000Y-149414725D01*
X50771866Y-149518135D01*
X51050063Y-149746445D01*
X51367455Y-149916095D01*
X51711846Y-150020565D01*
X52070000Y-150055840D01*
X52428155Y-150020565D01*
X52772546Y-149916095D01*
X53089938Y-149746445D01*
X53368135Y-149518135D01*
X53596445Y-149239938D01*
X53766095Y-148922546D01*
X53870565Y-148578155D01*
X53897000Y-148309755D01*
X53897000Y-147447000D01*
X54345000Y-147447000D01*
X54345000Y-148347000D01*
X54399271Y-148644023D01*
X54510446Y-148924751D01*
X54674252Y-149178396D01*
X54884394Y-149395210D01*
X55132796Y-149566862D01*
X55409913Y-149686755D01*
X55515260Y-149711036D01*
X55753000Y-149590378D01*
X55753000Y-147447000D01*
X56007000Y-147447000D01*
X56007000Y-149590378D01*
X56244740Y-149711036D01*
X56350087Y-149686755D01*
X56627204Y-149566862D01*
X56875606Y-149395210D01*
X57085748Y-149178396D01*
X57249554Y-148924751D01*
X57360729Y-148644023D01*
X57415000Y-148347000D01*
X57415000Y-147447000D01*
X56007000Y-147447000D01*
X55753000Y-147447000D01*
X54345000Y-147447000D01*
X53897000Y-147447000D01*
X53897000Y-146330245D01*
X53893332Y-146293000D01*
X54345000Y-146293000D01*
X54345000Y-147193000D01*
X55753000Y-147193000D01*
X55753000Y-145049622D01*
X56007000Y-145049622D01*
X56007000Y-147193000D01*
X57415000Y-147193000D01*
X57415000Y-146293000D01*
X57360729Y-145995977D01*
X57249554Y-145715249D01*
X57085748Y-145461604D01*
X56875606Y-145244790D01*
X56627204Y-145073138D01*
X56350087Y-144953245D01*
X56244740Y-144928964D01*
X56007000Y-145049622D01*
X55753000Y-145049622D01*
X55515260Y-144928964D01*
X55409913Y-144953245D01*
X55132796Y-145073138D01*
X54884394Y-145244790D01*
X54674252Y-145461604D01*
X54510446Y-145715249D01*
X54399271Y-145995977D01*
X54345000Y-146293000D01*
X53893332Y-146293000D01*
X53870565Y-146061845D01*
X53766095Y-145717454D01*
X53596445Y-145400062D01*
X53368135Y-145121865D01*
X53089937Y-144893555D01*
X52772545Y-144723905D01*
X52428154Y-144619435D01*
X52070000Y-144584160D01*
X51711845Y-144619435D01*
X51367454Y-144723905D01*
X51050062Y-144893555D01*
X50771865Y-145121865D01*
X50687000Y-145225274D01*
X50687000Y-136714725D01*
X50771866Y-136818135D01*
X51050063Y-137046445D01*
X51367455Y-137216095D01*
X51711846Y-137320565D01*
X52070000Y-137355840D01*
X52428155Y-137320565D01*
X52772546Y-137216095D01*
X53089938Y-137046445D01*
X53368135Y-136818135D01*
X53596445Y-136539938D01*
X53766095Y-136222546D01*
X53870565Y-135878155D01*
X53897000Y-135609755D01*
X53897000Y-134747000D01*
X54345000Y-134747000D01*
X54345000Y-135647000D01*
X54399271Y-135944023D01*
X54510446Y-136224751D01*
X54674252Y-136478396D01*
X54884394Y-136695210D01*
X55132796Y-136866862D01*
X55409913Y-136986755D01*
X55515260Y-137011036D01*
X55753000Y-136890378D01*
X55753000Y-134747000D01*
X56007000Y-134747000D01*
X56007000Y-136890378D01*
X56244740Y-137011036D01*
X56350087Y-136986755D01*
X56627204Y-136866862D01*
X56875606Y-136695210D01*
X57085748Y-136478396D01*
X57249554Y-136224751D01*
X57360729Y-135944023D01*
X57415000Y-135647000D01*
X57415000Y-134747000D01*
X56007000Y-134747000D01*
X55753000Y-134747000D01*
X54345000Y-134747000D01*
X53897000Y-134747000D01*
X53897000Y-133630245D01*
X53893332Y-133593000D01*
X54345000Y-133593000D01*
X54345000Y-134493000D01*
X55753000Y-134493000D01*
X55753000Y-132349622D01*
X56007000Y-132349622D01*
X56007000Y-134493000D01*
X57415000Y-134493000D01*
X57415000Y-133593000D01*
X57360729Y-133295977D01*
X57249554Y-133015249D01*
X57085748Y-132761604D01*
X56875606Y-132544790D01*
X56627204Y-132373138D01*
X56350087Y-132253245D01*
X56244740Y-132228964D01*
X56007000Y-132349622D01*
X55753000Y-132349622D01*
X55515260Y-132228964D01*
X55409913Y-132253245D01*
X55132796Y-132373138D01*
X54884394Y-132544790D01*
X54674252Y-132761604D01*
X54510446Y-133015249D01*
X54399271Y-133295977D01*
X54345000Y-133593000D01*
X53893332Y-133593000D01*
X53870565Y-133361845D01*
X53766095Y-133017454D01*
X53596445Y-132700062D01*
X53368135Y-132421865D01*
X53089937Y-132193555D01*
X52772545Y-132023905D01*
X52428154Y-131919435D01*
X52070000Y-131884160D01*
X51711845Y-131919435D01*
X51367454Y-132023905D01*
X51050062Y-132193555D01*
X50771865Y-132421865D01*
X50687000Y-132525274D01*
X50687000Y-124014725D01*
X50771866Y-124118135D01*
X51050063Y-124346445D01*
X51367455Y-124516095D01*
X51711846Y-124620565D01*
X52070000Y-124655840D01*
X52428155Y-124620565D01*
X52772546Y-124516095D01*
X53089938Y-124346445D01*
X53368135Y-124118135D01*
X53596445Y-123839938D01*
X53766095Y-123522546D01*
X53870565Y-123178155D01*
X53897000Y-122909755D01*
X53897000Y-122047000D01*
X54345000Y-122047000D01*
X54345000Y-122947000D01*
X54399271Y-123244023D01*
X54510446Y-123524751D01*
X54674252Y-123778396D01*
X54884394Y-123995210D01*
X55132796Y-124166862D01*
X55409913Y-124286755D01*
X55515260Y-124311036D01*
X55753000Y-124190378D01*
X55753000Y-122047000D01*
X56007000Y-122047000D01*
X56007000Y-124190378D01*
X56244740Y-124311036D01*
X56350087Y-124286755D01*
X56627204Y-124166862D01*
X56875606Y-123995210D01*
X57085748Y-123778396D01*
X57249554Y-123524751D01*
X57360729Y-123244023D01*
X57415000Y-122947000D01*
X57415000Y-122047000D01*
X56007000Y-122047000D01*
X55753000Y-122047000D01*
X54345000Y-122047000D01*
X53897000Y-122047000D01*
X53897000Y-120930245D01*
X53893332Y-120893000D01*
X54345000Y-120893000D01*
X54345000Y-121793000D01*
X55753000Y-121793000D01*
X55753000Y-119649622D01*
X56007000Y-119649622D01*
X56007000Y-121793000D01*
X57415000Y-121793000D01*
X57415000Y-120893000D01*
X57360729Y-120595977D01*
X57249554Y-120315249D01*
X57085748Y-120061604D01*
X56875606Y-119844790D01*
X56627204Y-119673138D01*
X56350087Y-119553245D01*
X56244740Y-119528964D01*
X56007000Y-119649622D01*
X55753000Y-119649622D01*
X55515260Y-119528964D01*
X55409913Y-119553245D01*
X55132796Y-119673138D01*
X54884394Y-119844790D01*
X54674252Y-120061604D01*
X54510446Y-120315249D01*
X54399271Y-120595977D01*
X54345000Y-120893000D01*
X53893332Y-120893000D01*
X53870565Y-120661845D01*
X53766095Y-120317454D01*
X53596445Y-120000062D01*
X53368135Y-119721865D01*
X53089937Y-119493555D01*
X52772545Y-119323905D01*
X52428154Y-119219435D01*
X52070000Y-119184160D01*
X51711845Y-119219435D01*
X51367454Y-119323905D01*
X51050062Y-119493555D01*
X50771865Y-119721865D01*
X50687000Y-119825274D01*
X50687000Y-111314725D01*
X50771866Y-111418135D01*
X51050063Y-111646445D01*
X51367455Y-111816095D01*
X51711846Y-111920565D01*
X52070000Y-111955840D01*
X52428155Y-111920565D01*
X52772546Y-111816095D01*
X53089938Y-111646445D01*
X53368135Y-111418135D01*
X53596445Y-111139938D01*
X53766095Y-110822546D01*
X53870565Y-110478155D01*
X53897000Y-110209755D01*
X53897000Y-109347000D01*
X54345000Y-109347000D01*
X54345000Y-110247000D01*
X54399271Y-110544023D01*
X54510446Y-110824751D01*
X54674252Y-111078396D01*
X54884394Y-111295210D01*
X55132796Y-111466862D01*
X55409913Y-111586755D01*
X55515260Y-111611036D01*
X55753000Y-111490378D01*
X55753000Y-109347000D01*
X56007000Y-109347000D01*
X56007000Y-111490378D01*
X56244740Y-111611036D01*
X56350087Y-111586755D01*
X56627204Y-111466862D01*
X56875606Y-111295210D01*
X57085748Y-111078396D01*
X57249554Y-110824751D01*
X57360729Y-110544023D01*
X57415000Y-110247000D01*
X57415000Y-109347000D01*
X56007000Y-109347000D01*
X55753000Y-109347000D01*
X54345000Y-109347000D01*
X53897000Y-109347000D01*
X53897000Y-108230245D01*
X53893332Y-108193000D01*
X54345000Y-108193000D01*
X54345000Y-109093000D01*
X55753000Y-109093000D01*
X55753000Y-106949622D01*
X56007000Y-106949622D01*
X56007000Y-109093000D01*
X57415000Y-109093000D01*
X57415000Y-108193000D01*
X57360729Y-107895977D01*
X57249554Y-107615249D01*
X57085748Y-107361604D01*
X56875606Y-107144790D01*
X56627204Y-106973138D01*
X56350087Y-106853245D01*
X56244740Y-106828964D01*
X56007000Y-106949622D01*
X55753000Y-106949622D01*
X55515260Y-106828964D01*
X55409913Y-106853245D01*
X55132796Y-106973138D01*
X54884394Y-107144790D01*
X54674252Y-107361604D01*
X54510446Y-107615249D01*
X54399271Y-107895977D01*
X54345000Y-108193000D01*
X53893332Y-108193000D01*
X53870565Y-107961845D01*
X53766095Y-107617454D01*
X53596445Y-107300062D01*
X53368135Y-107021865D01*
X53089937Y-106793555D01*
X52772545Y-106623905D01*
X52428154Y-106519435D01*
X52070000Y-106484160D01*
X51711845Y-106519435D01*
X51367454Y-106623905D01*
X51050062Y-106793555D01*
X50771865Y-107021865D01*
X50687000Y-107125274D01*
X50687000Y-98614725D01*
X50771866Y-98718135D01*
X51050063Y-98946445D01*
X51367455Y-99116095D01*
X51711846Y-99220565D01*
X52070000Y-99255840D01*
X52428155Y-99220565D01*
X52772546Y-99116095D01*
X53089938Y-98946445D01*
X53368135Y-98718135D01*
X53596445Y-98439938D01*
X53766095Y-98122546D01*
X53870565Y-97778155D01*
X53897000Y-97509755D01*
X53897000Y-96647000D01*
X54345000Y-96647000D01*
X54345000Y-97547000D01*
X54399271Y-97844023D01*
X54510446Y-98124751D01*
X54674252Y-98378396D01*
X54884394Y-98595210D01*
X55132796Y-98766862D01*
X55409913Y-98886755D01*
X55515260Y-98911036D01*
X55753000Y-98790378D01*
X55753000Y-96647000D01*
X56007000Y-96647000D01*
X56007000Y-98790378D01*
X56244740Y-98911036D01*
X56350087Y-98886755D01*
X56627204Y-98766862D01*
X56875606Y-98595210D01*
X57085748Y-98378396D01*
X57249554Y-98124751D01*
X57360729Y-97844023D01*
X57415000Y-97547000D01*
X57415000Y-96647000D01*
X56007000Y-96647000D01*
X55753000Y-96647000D01*
X54345000Y-96647000D01*
X53897000Y-96647000D01*
X53897000Y-95530245D01*
X53893332Y-95493000D01*
X54345000Y-95493000D01*
X54345000Y-96393000D01*
X55753000Y-96393000D01*
X55753000Y-94249622D01*
X56007000Y-94249622D01*
X56007000Y-96393000D01*
X57415000Y-96393000D01*
X57415000Y-95493000D01*
X57360729Y-95195977D01*
X57249554Y-94915249D01*
X57085748Y-94661604D01*
X56875606Y-94444790D01*
X56627204Y-94273138D01*
X56350087Y-94153245D01*
X56244740Y-94128964D01*
X56007000Y-94249622D01*
X55753000Y-94249622D01*
X55515260Y-94128964D01*
X55409913Y-94153245D01*
X55132796Y-94273138D01*
X54884394Y-94444790D01*
X54674252Y-94661604D01*
X54510446Y-94915249D01*
X54399271Y-95195977D01*
X54345000Y-95493000D01*
X53893332Y-95493000D01*
X53870565Y-95261845D01*
X53766095Y-94917454D01*
X53596445Y-94600062D01*
X53368135Y-94321865D01*
X53089937Y-94093555D01*
X52772545Y-93923905D01*
X52428154Y-93819435D01*
X52070000Y-93784160D01*
X51711845Y-93819435D01*
X51367454Y-93923905D01*
X51050062Y-94093555D01*
X50771865Y-94321865D01*
X50687000Y-94425274D01*
X50687000Y-85914725D01*
X50771866Y-86018135D01*
X51050063Y-86246445D01*
X51367455Y-86416095D01*
X51711846Y-86520565D01*
X52070000Y-86555840D01*
X52428155Y-86520565D01*
X52772546Y-86416095D01*
X53089938Y-86246445D01*
X53368135Y-86018135D01*
X53596445Y-85739938D01*
X53766095Y-85422546D01*
X53870565Y-85078155D01*
X53897000Y-84809755D01*
X53897000Y-83947000D01*
X54345000Y-83947000D01*
X54345000Y-84847000D01*
X54399271Y-85144023D01*
X54510446Y-85424751D01*
X54674252Y-85678396D01*
X54884394Y-85895210D01*
X55132796Y-86066862D01*
X55409913Y-86186755D01*
X55515260Y-86211036D01*
X55753000Y-86090378D01*
X55753000Y-83947000D01*
X56007000Y-83947000D01*
X56007000Y-86090378D01*
X56244740Y-86211036D01*
X56350087Y-86186755D01*
X56627204Y-86066862D01*
X56875606Y-85895210D01*
X57085748Y-85678396D01*
X57249554Y-85424751D01*
X57360729Y-85144023D01*
X57415000Y-84847000D01*
X57415000Y-83947000D01*
X56007000Y-83947000D01*
X55753000Y-83947000D01*
X54345000Y-83947000D01*
X53897000Y-83947000D01*
X53897000Y-82830245D01*
X53893332Y-82793000D01*
X54345000Y-82793000D01*
X54345000Y-83693000D01*
X55753000Y-83693000D01*
X55753000Y-81549622D01*
X56007000Y-81549622D01*
X56007000Y-83693000D01*
X57415000Y-83693000D01*
X57415000Y-82793000D01*
X57360729Y-82495977D01*
X57249554Y-82215249D01*
X57085748Y-81961604D01*
X56875606Y-81744790D01*
X56627204Y-81573138D01*
X56350087Y-81453245D01*
X56244740Y-81428964D01*
X56007000Y-81549622D01*
X55753000Y-81549622D01*
X55515260Y-81428964D01*
X55409913Y-81453245D01*
X55132796Y-81573138D01*
X54884394Y-81744790D01*
X54674252Y-81961604D01*
X54510446Y-82215249D01*
X54399271Y-82495977D01*
X54345000Y-82793000D01*
X53893332Y-82793000D01*
X53870565Y-82561845D01*
X53766095Y-82217454D01*
X53596445Y-81900062D01*
X53368135Y-81621865D01*
X53089937Y-81393555D01*
X52772545Y-81223905D01*
X52428154Y-81119435D01*
X52070000Y-81084160D01*
X51711845Y-81119435D01*
X51367454Y-81223905D01*
X51050062Y-81393555D01*
X50771865Y-81621865D01*
X50687000Y-81725274D01*
X50687000Y-73214725D01*
X50771866Y-73318135D01*
X51050063Y-73546445D01*
X51367455Y-73716095D01*
X51711846Y-73820565D01*
X52070000Y-73855840D01*
X52428155Y-73820565D01*
X52772546Y-73716095D01*
X53089938Y-73546445D01*
X53368135Y-73318135D01*
X53596445Y-73039938D01*
X53766095Y-72722546D01*
X53870565Y-72378155D01*
X53897000Y-72109755D01*
X53897000Y-71247000D01*
X54345000Y-71247000D01*
X54345000Y-72147000D01*
X54399271Y-72444023D01*
X54510446Y-72724751D01*
X54674252Y-72978396D01*
X54884394Y-73195210D01*
X55132796Y-73366862D01*
X55409913Y-73486755D01*
X55515260Y-73511036D01*
X55753000Y-73390378D01*
X55753000Y-71247000D01*
X56007000Y-71247000D01*
X56007000Y-73390378D01*
X56244740Y-73511036D01*
X56350087Y-73486755D01*
X56627204Y-73366862D01*
X56875606Y-73195210D01*
X57085748Y-72978396D01*
X57249554Y-72724751D01*
X57360729Y-72444023D01*
X57415000Y-72147000D01*
X57415000Y-71247000D01*
X56007000Y-71247000D01*
X55753000Y-71247000D01*
X54345000Y-71247000D01*
X53897000Y-71247000D01*
X53897000Y-70130245D01*
X53893332Y-70093000D01*
X54345000Y-70093000D01*
X54345000Y-70993000D01*
X55753000Y-70993000D01*
X55753000Y-68849622D01*
X56007000Y-68849622D01*
X56007000Y-70993000D01*
X57415000Y-70993000D01*
X57415000Y-70093000D01*
X57360729Y-69795977D01*
X57249554Y-69515249D01*
X57085748Y-69261604D01*
X56875606Y-69044790D01*
X56627204Y-68873138D01*
X56350087Y-68753245D01*
X56244740Y-68728964D01*
X56007000Y-68849622D01*
X55753000Y-68849622D01*
X55515260Y-68728964D01*
X55409913Y-68753245D01*
X55132796Y-68873138D01*
X54884394Y-69044790D01*
X54674252Y-69261604D01*
X54510446Y-69515249D01*
X54399271Y-69795977D01*
X54345000Y-70093000D01*
X53893332Y-70093000D01*
X53870565Y-69861845D01*
X53766095Y-69517454D01*
X53596445Y-69200062D01*
X53368135Y-68921865D01*
X53089937Y-68693555D01*
X52772545Y-68523905D01*
X52428154Y-68419435D01*
X52070000Y-68384160D01*
X51711845Y-68419435D01*
X51367454Y-68523905D01*
X51050062Y-68693555D01*
X50771865Y-68921865D01*
X50687000Y-69025274D01*
X50687000Y-60514725D01*
X50771866Y-60618135D01*
X51050063Y-60846445D01*
X51367455Y-61016095D01*
X51711846Y-61120565D01*
X52070000Y-61155840D01*
X52428155Y-61120565D01*
X52772546Y-61016095D01*
X53089938Y-60846445D01*
X53368135Y-60618135D01*
X53596445Y-60339938D01*
X53766095Y-60022546D01*
X53870565Y-59678155D01*
X53897000Y-59409755D01*
X53897000Y-58547000D01*
X54345000Y-58547000D01*
X54345000Y-59447000D01*
X54399271Y-59744023D01*
X54510446Y-60024751D01*
X54674252Y-60278396D01*
X54884394Y-60495210D01*
X55132796Y-60666862D01*
X55409913Y-60786755D01*
X55515260Y-60811036D01*
X55753000Y-60690378D01*
X55753000Y-58547000D01*
X56007000Y-58547000D01*
X56007000Y-60690378D01*
X56244740Y-60811036D01*
X56350087Y-60786755D01*
X56627204Y-60666862D01*
X56875606Y-60495210D01*
X57085748Y-60278396D01*
X57249554Y-60024751D01*
X57360729Y-59744023D01*
X57415000Y-59447000D01*
X57415000Y-58547000D01*
X56007000Y-58547000D01*
X55753000Y-58547000D01*
X54345000Y-58547000D01*
X53897000Y-58547000D01*
X53897000Y-57430245D01*
X53893332Y-57393000D01*
X54345000Y-57393000D01*
X54345000Y-58293000D01*
X55753000Y-58293000D01*
X55753000Y-56149622D01*
X56007000Y-56149622D01*
X56007000Y-58293000D01*
X57415000Y-58293000D01*
X57415000Y-57393000D01*
X57360729Y-57095977D01*
X57249554Y-56815249D01*
X57085748Y-56561604D01*
X56875606Y-56344790D01*
X56627204Y-56173138D01*
X56350087Y-56053245D01*
X56244740Y-56028964D01*
X56007000Y-56149622D01*
X55753000Y-56149622D01*
X55515260Y-56028964D01*
X55409913Y-56053245D01*
X55132796Y-56173138D01*
X54884394Y-56344790D01*
X54674252Y-56561604D01*
X54510446Y-56815249D01*
X54399271Y-57095977D01*
X54345000Y-57393000D01*
X53893332Y-57393000D01*
X53870565Y-57161845D01*
X53766095Y-56817454D01*
X53596445Y-56500062D01*
X53368135Y-56221865D01*
X53089937Y-55993555D01*
X52772545Y-55823905D01*
X52428154Y-55719435D01*
X52070000Y-55684160D01*
X51711845Y-55719435D01*
X51367454Y-55823905D01*
X51050062Y-55993555D01*
X50771865Y-56221865D01*
X50687000Y-56325274D01*
X50687000Y-55760772D01*
X50651883Y-55404225D01*
X50513105Y-54946733D01*
X50287741Y-54525107D01*
X49984452Y-54155548D01*
X49614893Y-53852259D01*
X49193267Y-53626895D01*
X48735775Y-53488117D01*
X48260000Y-53441257D01*
X47784226Y-53488117D01*
X47326734Y-53626895D01*
X46905108Y-53852259D01*
X46535549Y-54155548D01*
X46232260Y-54525107D01*
X46006896Y-54946733D01*
X45868118Y-55404225D01*
X45833001Y-55760772D01*
X45833000Y-195031650D01*
X45636395Y-195193000D01*
X36772404Y-195193000D01*
X32907000Y-191327597D01*
X32907000Y-187514725D01*
X32991866Y-187618135D01*
X33270063Y-187846445D01*
X33587455Y-188016095D01*
X33931846Y-188120565D01*
X34290000Y-188155840D01*
X34648155Y-188120565D01*
X34992546Y-188016095D01*
X35309938Y-187846445D01*
X35588135Y-187618135D01*
X35816445Y-187339938D01*
X35986095Y-187022546D01*
X36090565Y-186678155D01*
X36117000Y-186409755D01*
X36117000Y-185547000D01*
X36565000Y-185547000D01*
X36565000Y-186447000D01*
X36619271Y-186744023D01*
X36730446Y-187024751D01*
X36894252Y-187278396D01*
X37104394Y-187495210D01*
X37352796Y-187666862D01*
X37629913Y-187786755D01*
X37735260Y-187811036D01*
X37973000Y-187690378D01*
X37973000Y-185547000D01*
X38227000Y-185547000D01*
X38227000Y-187690378D01*
X38464740Y-187811036D01*
X38570087Y-187786755D01*
X38847204Y-187666862D01*
X39095606Y-187495210D01*
X39305748Y-187278396D01*
X39469554Y-187024751D01*
X39580729Y-186744023D01*
X39635000Y-186447000D01*
X39635000Y-185547000D01*
X38227000Y-185547000D01*
X37973000Y-185547000D01*
X36565000Y-185547000D01*
X36117000Y-185547000D01*
X36117000Y-184430245D01*
X36113332Y-184393000D01*
X36565000Y-184393000D01*
X36565000Y-185293000D01*
X37973000Y-185293000D01*
X37973000Y-183149622D01*
X38227000Y-183149622D01*
X38227000Y-185293000D01*
X39635000Y-185293000D01*
X39635000Y-184393000D01*
X39580729Y-184095977D01*
X39469554Y-183815249D01*
X39305748Y-183561604D01*
X39095606Y-183344790D01*
X38847204Y-183173138D01*
X38570087Y-183053245D01*
X38464740Y-183028964D01*
X38227000Y-183149622D01*
X37973000Y-183149622D01*
X37735260Y-183028964D01*
X37629913Y-183053245D01*
X37352796Y-183173138D01*
X37104394Y-183344790D01*
X36894252Y-183561604D01*
X36730446Y-183815249D01*
X36619271Y-184095977D01*
X36565000Y-184393000D01*
X36113332Y-184393000D01*
X36090565Y-184161845D01*
X35986095Y-183817454D01*
X35816445Y-183500062D01*
X35588135Y-183221865D01*
X35309937Y-182993555D01*
X34992545Y-182823905D01*
X34648154Y-182719435D01*
X34290000Y-182684160D01*
X33931845Y-182719435D01*
X33587454Y-182823905D01*
X33270062Y-182993555D01*
X32991865Y-183221865D01*
X32907000Y-183325274D01*
X32907000Y-174814725D01*
X32991866Y-174918135D01*
X33270063Y-175146445D01*
X33587455Y-175316095D01*
X33931846Y-175420565D01*
X34290000Y-175455840D01*
X34648155Y-175420565D01*
X34992546Y-175316095D01*
X35309938Y-175146445D01*
X35588135Y-174918135D01*
X35816445Y-174639938D01*
X35986095Y-174322546D01*
X36090565Y-173978155D01*
X36117000Y-173709755D01*
X36117000Y-172847000D01*
X36565000Y-172847000D01*
X36565000Y-173747000D01*
X36619271Y-174044023D01*
X36730446Y-174324751D01*
X36894252Y-174578396D01*
X37104394Y-174795210D01*
X37352796Y-174966862D01*
X37629913Y-175086755D01*
X37735260Y-175111036D01*
X37973000Y-174990378D01*
X37973000Y-172847000D01*
X38227000Y-172847000D01*
X38227000Y-174990378D01*
X38464740Y-175111036D01*
X38570087Y-175086755D01*
X38847204Y-174966862D01*
X39095606Y-174795210D01*
X39305748Y-174578396D01*
X39469554Y-174324751D01*
X39580729Y-174044023D01*
X39635000Y-173747000D01*
X39635000Y-172847000D01*
X38227000Y-172847000D01*
X37973000Y-172847000D01*
X36565000Y-172847000D01*
X36117000Y-172847000D01*
X36117000Y-171730245D01*
X36113332Y-171693000D01*
X36565000Y-171693000D01*
X36565000Y-172593000D01*
X37973000Y-172593000D01*
X37973000Y-170449622D01*
X38227000Y-170449622D01*
X38227000Y-172593000D01*
X39635000Y-172593000D01*
X39635000Y-171693000D01*
X39580729Y-171395977D01*
X39469554Y-171115249D01*
X39305748Y-170861604D01*
X39095606Y-170644790D01*
X38847204Y-170473138D01*
X38570087Y-170353245D01*
X38464740Y-170328964D01*
X38227000Y-170449622D01*
X37973000Y-170449622D01*
X37735260Y-170328964D01*
X37629913Y-170353245D01*
X37352796Y-170473138D01*
X37104394Y-170644790D01*
X36894252Y-170861604D01*
X36730446Y-171115249D01*
X36619271Y-171395977D01*
X36565000Y-171693000D01*
X36113332Y-171693000D01*
X36090565Y-171461845D01*
X35986095Y-171117454D01*
X35816445Y-170800062D01*
X35588135Y-170521865D01*
X35309937Y-170293555D01*
X34992545Y-170123905D01*
X34648154Y-170019435D01*
X34290000Y-169984160D01*
X33931845Y-170019435D01*
X33587454Y-170123905D01*
X33270062Y-170293555D01*
X32991865Y-170521865D01*
X32907000Y-170625274D01*
X32907000Y-162114725D01*
X32991866Y-162218135D01*
X33270063Y-162446445D01*
X33587455Y-162616095D01*
X33931846Y-162720565D01*
X34290000Y-162755840D01*
X34648155Y-162720565D01*
X34992546Y-162616095D01*
X35309938Y-162446445D01*
X35588135Y-162218135D01*
X35816445Y-161939938D01*
X35986095Y-161622546D01*
X36090565Y-161278155D01*
X36117000Y-161009755D01*
X36117000Y-160147000D01*
X36565000Y-160147000D01*
X36565000Y-161047000D01*
X36619271Y-161344023D01*
X36730446Y-161624751D01*
X36894252Y-161878396D01*
X37104394Y-162095210D01*
X37352796Y-162266862D01*
X37629913Y-162386755D01*
X37735260Y-162411036D01*
X37973000Y-162290378D01*
X37973000Y-160147000D01*
X38227000Y-160147000D01*
X38227000Y-162290378D01*
X38464740Y-162411036D01*
X38570087Y-162386755D01*
X38847204Y-162266862D01*
X39095606Y-162095210D01*
X39305748Y-161878396D01*
X39469554Y-161624751D01*
X39580729Y-161344023D01*
X39635000Y-161047000D01*
X39635000Y-160147000D01*
X38227000Y-160147000D01*
X37973000Y-160147000D01*
X36565000Y-160147000D01*
X36117000Y-160147000D01*
X36117000Y-159030245D01*
X36113332Y-158993000D01*
X36565000Y-158993000D01*
X36565000Y-159893000D01*
X37973000Y-159893000D01*
X37973000Y-157749622D01*
X38227000Y-157749622D01*
X38227000Y-159893000D01*
X39635000Y-159893000D01*
X39635000Y-158993000D01*
X39580729Y-158695977D01*
X39469554Y-158415249D01*
X39305748Y-158161604D01*
X39095606Y-157944790D01*
X38847204Y-157773138D01*
X38570087Y-157653245D01*
X38464740Y-157628964D01*
X38227000Y-157749622D01*
X37973000Y-157749622D01*
X37735260Y-157628964D01*
X37629913Y-157653245D01*
X37352796Y-157773138D01*
X37104394Y-157944790D01*
X36894252Y-158161604D01*
X36730446Y-158415249D01*
X36619271Y-158695977D01*
X36565000Y-158993000D01*
X36113332Y-158993000D01*
X36090565Y-158761845D01*
X35986095Y-158417454D01*
X35816445Y-158100062D01*
X35588135Y-157821865D01*
X35309937Y-157593555D01*
X34992545Y-157423905D01*
X34648154Y-157319435D01*
X34290000Y-157284160D01*
X33931845Y-157319435D01*
X33587454Y-157423905D01*
X33270062Y-157593555D01*
X32991865Y-157821865D01*
X32907000Y-157925274D01*
X32907000Y-149414725D01*
X32991866Y-149518135D01*
X33270063Y-149746445D01*
X33587455Y-149916095D01*
X33931846Y-150020565D01*
X34290000Y-150055840D01*
X34648155Y-150020565D01*
X34992546Y-149916095D01*
X35309938Y-149746445D01*
X35588135Y-149518135D01*
X35816445Y-149239938D01*
X35986095Y-148922546D01*
X36090565Y-148578155D01*
X36117000Y-148309755D01*
X36117000Y-147447000D01*
X36565000Y-147447000D01*
X36565000Y-148347000D01*
X36619271Y-148644023D01*
X36730446Y-148924751D01*
X36894252Y-149178396D01*
X37104394Y-149395210D01*
X37352796Y-149566862D01*
X37629913Y-149686755D01*
X37735260Y-149711036D01*
X37973000Y-149590378D01*
X37973000Y-147447000D01*
X38227000Y-147447000D01*
X38227000Y-149590378D01*
X38464740Y-149711036D01*
X38570087Y-149686755D01*
X38847204Y-149566862D01*
X39095606Y-149395210D01*
X39305748Y-149178396D01*
X39469554Y-148924751D01*
X39580729Y-148644023D01*
X39635000Y-148347000D01*
X39635000Y-147447000D01*
X38227000Y-147447000D01*
X37973000Y-147447000D01*
X36565000Y-147447000D01*
X36117000Y-147447000D01*
X36117000Y-146330245D01*
X36113332Y-146293000D01*
X36565000Y-146293000D01*
X36565000Y-147193000D01*
X37973000Y-147193000D01*
X37973000Y-145049622D01*
X38227000Y-145049622D01*
X38227000Y-147193000D01*
X39635000Y-147193000D01*
X39635000Y-146293000D01*
X39580729Y-145995977D01*
X39469554Y-145715249D01*
X39305748Y-145461604D01*
X39095606Y-145244790D01*
X38847204Y-145073138D01*
X38570087Y-144953245D01*
X38464740Y-144928964D01*
X38227000Y-145049622D01*
X37973000Y-145049622D01*
X37735260Y-144928964D01*
X37629913Y-144953245D01*
X37352796Y-145073138D01*
X37104394Y-145244790D01*
X36894252Y-145461604D01*
X36730446Y-145715249D01*
X36619271Y-145995977D01*
X36565000Y-146293000D01*
X36113332Y-146293000D01*
X36090565Y-146061845D01*
X35986095Y-145717454D01*
X35816445Y-145400062D01*
X35588135Y-145121865D01*
X35309937Y-144893555D01*
X34992545Y-144723905D01*
X34648154Y-144619435D01*
X34290000Y-144584160D01*
X33931845Y-144619435D01*
X33587454Y-144723905D01*
X33270062Y-144893555D01*
X32991865Y-145121865D01*
X32907000Y-145225274D01*
X32907000Y-136714725D01*
X32991866Y-136818135D01*
X33270063Y-137046445D01*
X33587455Y-137216095D01*
X33931846Y-137320565D01*
X34290000Y-137355840D01*
X34648155Y-137320565D01*
X34992546Y-137216095D01*
X35309938Y-137046445D01*
X35588135Y-136818135D01*
X35816445Y-136539938D01*
X35986095Y-136222546D01*
X36090565Y-135878155D01*
X36117000Y-135609755D01*
X36117000Y-134747000D01*
X36565000Y-134747000D01*
X36565000Y-135647000D01*
X36619271Y-135944023D01*
X36730446Y-136224751D01*
X36894252Y-136478396D01*
X37104394Y-136695210D01*
X37352796Y-136866862D01*
X37629913Y-136986755D01*
X37735260Y-137011036D01*
X37973000Y-136890378D01*
X37973000Y-134747000D01*
X38227000Y-134747000D01*
X38227000Y-136890378D01*
X38464740Y-137011036D01*
X38570087Y-136986755D01*
X38847204Y-136866862D01*
X39095606Y-136695210D01*
X39305748Y-136478396D01*
X39469554Y-136224751D01*
X39580729Y-135944023D01*
X39635000Y-135647000D01*
X39635000Y-134747000D01*
X38227000Y-134747000D01*
X37973000Y-134747000D01*
X36565000Y-134747000D01*
X36117000Y-134747000D01*
X36117000Y-133630245D01*
X36113332Y-133593000D01*
X36565000Y-133593000D01*
X36565000Y-134493000D01*
X37973000Y-134493000D01*
X37973000Y-132349622D01*
X38227000Y-132349622D01*
X38227000Y-134493000D01*
X39635000Y-134493000D01*
X39635000Y-133593000D01*
X39580729Y-133295977D01*
X39469554Y-133015249D01*
X39305748Y-132761604D01*
X39095606Y-132544790D01*
X38847204Y-132373138D01*
X38570087Y-132253245D01*
X38464740Y-132228964D01*
X38227000Y-132349622D01*
X37973000Y-132349622D01*
X37735260Y-132228964D01*
X37629913Y-132253245D01*
X37352796Y-132373138D01*
X37104394Y-132544790D01*
X36894252Y-132761604D01*
X36730446Y-133015249D01*
X36619271Y-133295977D01*
X36565000Y-133593000D01*
X36113332Y-133593000D01*
X36090565Y-133361845D01*
X35986095Y-133017454D01*
X35816445Y-132700062D01*
X35588135Y-132421865D01*
X35309937Y-132193555D01*
X34992545Y-132023905D01*
X34648154Y-131919435D01*
X34290000Y-131884160D01*
X33931845Y-131919435D01*
X33587454Y-132023905D01*
X33270062Y-132193555D01*
X32991865Y-132421865D01*
X32907000Y-132525274D01*
X32907000Y-124014725D01*
X32991866Y-124118135D01*
X33270063Y-124346445D01*
X33587455Y-124516095D01*
X33931846Y-124620565D01*
X34290000Y-124655840D01*
X34648155Y-124620565D01*
X34992546Y-124516095D01*
X35309938Y-124346445D01*
X35588135Y-124118135D01*
X35816445Y-123839938D01*
X35986095Y-123522546D01*
X36090565Y-123178155D01*
X36117000Y-122909755D01*
X36117000Y-122047000D01*
X36565000Y-122047000D01*
X36565000Y-122947000D01*
X36619271Y-123244023D01*
X36730446Y-123524751D01*
X36894252Y-123778396D01*
X37104394Y-123995210D01*
X37352796Y-124166862D01*
X37629913Y-124286755D01*
X37735260Y-124311036D01*
X37973000Y-124190378D01*
X37973000Y-122047000D01*
X38227000Y-122047000D01*
X38227000Y-124190378D01*
X38464740Y-124311036D01*
X38570087Y-124286755D01*
X38847204Y-124166862D01*
X39095606Y-123995210D01*
X39305748Y-123778396D01*
X39469554Y-123524751D01*
X39580729Y-123244023D01*
X39635000Y-122947000D01*
X39635000Y-122047000D01*
X38227000Y-122047000D01*
X37973000Y-122047000D01*
X36565000Y-122047000D01*
X36117000Y-122047000D01*
X36117000Y-120930245D01*
X36113332Y-120893000D01*
X36565000Y-120893000D01*
X36565000Y-121793000D01*
X37973000Y-121793000D01*
X37973000Y-119649622D01*
X38227000Y-119649622D01*
X38227000Y-121793000D01*
X39635000Y-121793000D01*
X39635000Y-120893000D01*
X39580729Y-120595977D01*
X39469554Y-120315249D01*
X39305748Y-120061604D01*
X39095606Y-119844790D01*
X38847204Y-119673138D01*
X38570087Y-119553245D01*
X38464740Y-119528964D01*
X38227000Y-119649622D01*
X37973000Y-119649622D01*
X37735260Y-119528964D01*
X37629913Y-119553245D01*
X37352796Y-119673138D01*
X37104394Y-119844790D01*
X36894252Y-120061604D01*
X36730446Y-120315249D01*
X36619271Y-120595977D01*
X36565000Y-120893000D01*
X36113332Y-120893000D01*
X36090565Y-120661845D01*
X35986095Y-120317454D01*
X35816445Y-120000062D01*
X35588135Y-119721865D01*
X35309937Y-119493555D01*
X34992545Y-119323905D01*
X34648154Y-119219435D01*
X34290000Y-119184160D01*
X33931845Y-119219435D01*
X33587454Y-119323905D01*
X33270062Y-119493555D01*
X32991865Y-119721865D01*
X32907000Y-119825274D01*
X32907000Y-111314725D01*
X32991866Y-111418135D01*
X33270063Y-111646445D01*
X33587455Y-111816095D01*
X33931846Y-111920565D01*
X34290000Y-111955840D01*
X34648155Y-111920565D01*
X34992546Y-111816095D01*
X35309938Y-111646445D01*
X35588135Y-111418135D01*
X35816445Y-111139938D01*
X35986095Y-110822546D01*
X36090565Y-110478155D01*
X36117000Y-110209755D01*
X36117000Y-109347000D01*
X36565000Y-109347000D01*
X36565000Y-110247000D01*
X36619271Y-110544023D01*
X36730446Y-110824751D01*
X36894252Y-111078396D01*
X37104394Y-111295210D01*
X37352796Y-111466862D01*
X37629913Y-111586755D01*
X37735260Y-111611036D01*
X37973000Y-111490378D01*
X37973000Y-109347000D01*
X38227000Y-109347000D01*
X38227000Y-111490378D01*
X38464740Y-111611036D01*
X38570087Y-111586755D01*
X38847204Y-111466862D01*
X39095606Y-111295210D01*
X39305748Y-111078396D01*
X39469554Y-110824751D01*
X39580729Y-110544023D01*
X39635000Y-110247000D01*
X39635000Y-109347000D01*
X38227000Y-109347000D01*
X37973000Y-109347000D01*
X36565000Y-109347000D01*
X36117000Y-109347000D01*
X36117000Y-108230245D01*
X36113332Y-108193000D01*
X36565000Y-108193000D01*
X36565000Y-109093000D01*
X37973000Y-109093000D01*
X37973000Y-106949622D01*
X38227000Y-106949622D01*
X38227000Y-109093000D01*
X39635000Y-109093000D01*
X39635000Y-108193000D01*
X39580729Y-107895977D01*
X39469554Y-107615249D01*
X39305748Y-107361604D01*
X39095606Y-107144790D01*
X38847204Y-106973138D01*
X38570087Y-106853245D01*
X38464740Y-106828964D01*
X38227000Y-106949622D01*
X37973000Y-106949622D01*
X37735260Y-106828964D01*
X37629913Y-106853245D01*
X37352796Y-106973138D01*
X37104394Y-107144790D01*
X36894252Y-107361604D01*
X36730446Y-107615249D01*
X36619271Y-107895977D01*
X36565000Y-108193000D01*
X36113332Y-108193000D01*
X36090565Y-107961845D01*
X35986095Y-107617454D01*
X35816445Y-107300062D01*
X35588135Y-107021865D01*
X35309937Y-106793555D01*
X34992545Y-106623905D01*
X34648154Y-106519435D01*
X34290000Y-106484160D01*
X33931845Y-106519435D01*
X33587454Y-106623905D01*
X33270062Y-106793555D01*
X32991865Y-107021865D01*
X32907000Y-107125274D01*
X32907000Y-98614725D01*
X32991866Y-98718135D01*
X33270063Y-98946445D01*
X33587455Y-99116095D01*
X33931846Y-99220565D01*
X34290000Y-99255840D01*
X34648155Y-99220565D01*
X34992546Y-99116095D01*
X35309938Y-98946445D01*
X35588135Y-98718135D01*
X35816445Y-98439938D01*
X35986095Y-98122546D01*
X36090565Y-97778155D01*
X36117000Y-97509755D01*
X36117000Y-96647000D01*
X36565000Y-96647000D01*
X36565000Y-97547000D01*
X36619271Y-97844023D01*
X36730446Y-98124751D01*
X36894252Y-98378396D01*
X37104394Y-98595210D01*
X37352796Y-98766862D01*
X37629913Y-98886755D01*
X37735260Y-98911036D01*
X37973000Y-98790378D01*
X37973000Y-96647000D01*
X38227000Y-96647000D01*
X38227000Y-98790378D01*
X38464740Y-98911036D01*
X38570087Y-98886755D01*
X38847204Y-98766862D01*
X39095606Y-98595210D01*
X39305748Y-98378396D01*
X39469554Y-98124751D01*
X39580729Y-97844023D01*
X39635000Y-97547000D01*
X39635000Y-96647000D01*
X38227000Y-96647000D01*
X37973000Y-96647000D01*
X36565000Y-96647000D01*
X36117000Y-96647000D01*
X36117000Y-95530245D01*
X36113332Y-95493000D01*
X36565000Y-95493000D01*
X36565000Y-96393000D01*
X37973000Y-96393000D01*
X37973000Y-94249622D01*
X38227000Y-94249622D01*
X38227000Y-96393000D01*
X39635000Y-96393000D01*
X39635000Y-95493000D01*
X39580729Y-95195977D01*
X39469554Y-94915249D01*
X39305748Y-94661604D01*
X39095606Y-94444790D01*
X38847204Y-94273138D01*
X38570087Y-94153245D01*
X38464740Y-94128964D01*
X38227000Y-94249622D01*
X37973000Y-94249622D01*
X37735260Y-94128964D01*
X37629913Y-94153245D01*
X37352796Y-94273138D01*
X37104394Y-94444790D01*
X36894252Y-94661604D01*
X36730446Y-94915249D01*
X36619271Y-95195977D01*
X36565000Y-95493000D01*
X36113332Y-95493000D01*
X36090565Y-95261845D01*
X35986095Y-94917454D01*
X35816445Y-94600062D01*
X35588135Y-94321865D01*
X35309937Y-94093555D01*
X34992545Y-93923905D01*
X34648154Y-93819435D01*
X34290000Y-93784160D01*
X33931845Y-93819435D01*
X33587454Y-93923905D01*
X33270062Y-94093555D01*
X32991865Y-94321865D01*
X32907000Y-94425274D01*
X32907000Y-85914725D01*
X32991866Y-86018135D01*
X33270063Y-86246445D01*
X33587455Y-86416095D01*
X33931846Y-86520565D01*
X34290000Y-86555840D01*
X34648155Y-86520565D01*
X34992546Y-86416095D01*
X35309938Y-86246445D01*
X35588135Y-86018135D01*
X35816445Y-85739938D01*
X35986095Y-85422546D01*
X36090565Y-85078155D01*
X36117000Y-84809755D01*
X36117000Y-83947000D01*
X36565000Y-83947000D01*
X36565000Y-84847000D01*
X36619271Y-85144023D01*
X36730446Y-85424751D01*
X36894252Y-85678396D01*
X37104394Y-85895210D01*
X37352796Y-86066862D01*
X37629913Y-86186755D01*
X37735260Y-86211036D01*
X37973000Y-86090378D01*
X37973000Y-83947000D01*
X38227000Y-83947000D01*
X38227000Y-86090378D01*
X38464740Y-86211036D01*
X38570087Y-86186755D01*
X38847204Y-86066862D01*
X39095606Y-85895210D01*
X39305748Y-85678396D01*
X39469554Y-85424751D01*
X39580729Y-85144023D01*
X39635000Y-84847000D01*
X39635000Y-83947000D01*
X38227000Y-83947000D01*
X37973000Y-83947000D01*
X36565000Y-83947000D01*
X36117000Y-83947000D01*
X36117000Y-82830245D01*
X36113332Y-82793000D01*
X36565000Y-82793000D01*
X36565000Y-83693000D01*
X37973000Y-83693000D01*
X37973000Y-81549622D01*
X38227000Y-81549622D01*
X38227000Y-83693000D01*
X39635000Y-83693000D01*
X39635000Y-82793000D01*
X39580729Y-82495977D01*
X39469554Y-82215249D01*
X39305748Y-81961604D01*
X39095606Y-81744790D01*
X38847204Y-81573138D01*
X38570087Y-81453245D01*
X38464740Y-81428964D01*
X38227000Y-81549622D01*
X37973000Y-81549622D01*
X37735260Y-81428964D01*
X37629913Y-81453245D01*
X37352796Y-81573138D01*
X37104394Y-81744790D01*
X36894252Y-81961604D01*
X36730446Y-82215249D01*
X36619271Y-82495977D01*
X36565000Y-82793000D01*
X36113332Y-82793000D01*
X36090565Y-82561845D01*
X35986095Y-82217454D01*
X35816445Y-81900062D01*
X35588135Y-81621865D01*
X35309937Y-81393555D01*
X34992545Y-81223905D01*
X34648154Y-81119435D01*
X34290000Y-81084160D01*
X33931845Y-81119435D01*
X33587454Y-81223905D01*
X33270062Y-81393555D01*
X32991865Y-81621865D01*
X32907000Y-81725274D01*
X32907000Y-73214725D01*
X32991866Y-73318135D01*
X33270063Y-73546445D01*
X33587455Y-73716095D01*
X33931846Y-73820565D01*
X34290000Y-73855840D01*
X34648155Y-73820565D01*
X34992546Y-73716095D01*
X35309938Y-73546445D01*
X35588135Y-73318135D01*
X35816445Y-73039938D01*
X35986095Y-72722546D01*
X36090565Y-72378155D01*
X36117000Y-72109755D01*
X36117000Y-71247000D01*
X36565000Y-71247000D01*
X36565000Y-72147000D01*
X36619271Y-72444023D01*
X36730446Y-72724751D01*
X36894252Y-72978396D01*
X37104394Y-73195210D01*
X37352796Y-73366862D01*
X37629913Y-73486755D01*
X37735260Y-73511036D01*
X37973000Y-73390378D01*
X37973000Y-71247000D01*
X38227000Y-71247000D01*
X38227000Y-73390378D01*
X38464740Y-73511036D01*
X38570087Y-73486755D01*
X38847204Y-73366862D01*
X39095606Y-73195210D01*
X39305748Y-72978396D01*
X39469554Y-72724751D01*
X39580729Y-72444023D01*
X39635000Y-72147000D01*
X39635000Y-71247000D01*
X38227000Y-71247000D01*
X37973000Y-71247000D01*
X36565000Y-71247000D01*
X36117000Y-71247000D01*
X36117000Y-70130245D01*
X36113332Y-70093000D01*
X36565000Y-70093000D01*
X36565000Y-70993000D01*
X37973000Y-70993000D01*
X37973000Y-68849622D01*
X38227000Y-68849622D01*
X38227000Y-70993000D01*
X39635000Y-70993000D01*
X39635000Y-70093000D01*
X39580729Y-69795977D01*
X39469554Y-69515249D01*
X39305748Y-69261604D01*
X39095606Y-69044790D01*
X38847204Y-68873138D01*
X38570087Y-68753245D01*
X38464740Y-68728964D01*
X38227000Y-68849622D01*
X37973000Y-68849622D01*
X37735260Y-68728964D01*
X37629913Y-68753245D01*
X37352796Y-68873138D01*
X37104394Y-69044790D01*
X36894252Y-69261604D01*
X36730446Y-69515249D01*
X36619271Y-69795977D01*
X36565000Y-70093000D01*
X36113332Y-70093000D01*
X36090565Y-69861845D01*
X35986095Y-69517454D01*
X35816445Y-69200062D01*
X35588135Y-68921865D01*
X35309937Y-68693555D01*
X34992545Y-68523905D01*
X34648154Y-68419435D01*
X34290000Y-68384160D01*
X33931845Y-68419435D01*
X33587454Y-68523905D01*
X33270062Y-68693555D01*
X32991865Y-68921865D01*
X32907000Y-69025274D01*
X32907000Y-60514725D01*
X32991866Y-60618135D01*
X33270063Y-60846445D01*
X33587455Y-61016095D01*
X33931846Y-61120565D01*
X34290000Y-61155840D01*
X34648155Y-61120565D01*
X34992546Y-61016095D01*
X35309938Y-60846445D01*
X35588135Y-60618135D01*
X35816445Y-60339938D01*
X35986095Y-60022546D01*
X36090565Y-59678155D01*
X36117000Y-59409755D01*
X36117000Y-58547000D01*
X36565000Y-58547000D01*
X36565000Y-59447000D01*
X36619271Y-59744023D01*
X36730446Y-60024751D01*
X36894252Y-60278396D01*
X37104394Y-60495210D01*
X37352796Y-60666862D01*
X37629913Y-60786755D01*
X37735260Y-60811036D01*
X37973000Y-60690378D01*
X37973000Y-58547000D01*
X38227000Y-58547000D01*
X38227000Y-60690378D01*
X38464740Y-60811036D01*
X38570087Y-60786755D01*
X38847204Y-60666862D01*
X39095606Y-60495210D01*
X39305748Y-60278396D01*
X39469554Y-60024751D01*
X39580729Y-59744023D01*
X39635000Y-59447000D01*
X39635000Y-58547000D01*
X38227000Y-58547000D01*
X37973000Y-58547000D01*
X36565000Y-58547000D01*
X36117000Y-58547000D01*
X36117000Y-57430245D01*
X36113332Y-57393000D01*
X36565000Y-57393000D01*
X36565000Y-58293000D01*
X37973000Y-58293000D01*
X37973000Y-56149622D01*
X38227000Y-56149622D01*
X38227000Y-58293000D01*
X39635000Y-58293000D01*
X39635000Y-57393000D01*
X39580729Y-57095977D01*
X39469554Y-56815249D01*
X39305748Y-56561604D01*
X39095606Y-56344790D01*
X38847204Y-56173138D01*
X38570087Y-56053245D01*
X38464740Y-56028964D01*
X38227000Y-56149622D01*
X37973000Y-56149622D01*
X37735260Y-56028964D01*
X37629913Y-56053245D01*
X37352796Y-56173138D01*
X37104394Y-56344790D01*
X36894252Y-56561604D01*
X36730446Y-56815249D01*
X36619271Y-57095977D01*
X36565000Y-57393000D01*
X36113332Y-57393000D01*
X36090565Y-57161845D01*
X35986095Y-56817454D01*
X35816445Y-56500062D01*
X35588135Y-56221865D01*
X35309937Y-55993555D01*
X34992545Y-55823905D01*
X34648154Y-55719435D01*
X34290000Y-55684160D01*
X33931845Y-55719435D01*
X33587454Y-55823905D01*
X33270062Y-55993555D01*
X32991865Y-56221865D01*
X32907000Y-56325274D01*
X32907000Y-55760772D01*
X32871883Y-55404225D01*
X32733105Y-54946733D01*
X32507741Y-54525107D01*
X32204452Y-54155548D01*
X31834893Y-53852259D01*
X31413267Y-53626895D01*
X30955775Y-53488117D01*
X30480000Y-53441257D01*
X30004226Y-53488117D01*
X29546734Y-53626895D01*
X29125108Y-53852259D01*
X28755549Y-54155548D01*
X28452260Y-54525107D01*
X28226896Y-54946733D01*
X28088118Y-55404225D01*
X28053001Y-55760772D01*
X28053000Y-191383454D01*
X28034514Y-191405979D01*
X27762721Y-191914467D01*
X27595352Y-192466208D01*
X27538838Y-193040000D01*
X18732000Y-193040000D01*
X18732000Y-50551112D01*
X20333000Y-50551112D01*
X20333000Y-51048888D01*
X20430111Y-51537099D01*
X20620602Y-51996983D01*
X20897151Y-52410869D01*
X21249131Y-52762849D01*
X21663017Y-53039398D01*
X22122901Y-53229889D01*
X22611112Y-53327000D01*
X23108888Y-53327000D01*
X23597099Y-53229889D01*
X24056983Y-53039398D01*
X24470869Y-52762849D01*
X24822849Y-52410869D01*
X25099398Y-51996983D01*
X25289889Y-51537099D01*
X25387000Y-51048888D01*
X25387000Y-50551112D01*
X78753000Y-50551112D01*
X78753000Y-51048888D01*
X78850111Y-51537099D01*
X79040602Y-51996983D01*
X79317151Y-52410869D01*
X79669131Y-52762849D01*
X80083017Y-53039398D01*
X80542901Y-53229889D01*
X81031112Y-53327000D01*
X81528888Y-53327000D01*
X82017099Y-53229889D01*
X82476983Y-53039398D01*
X82890869Y-52762849D01*
X83242849Y-52410869D01*
X83519398Y-51996983D01*
X83709889Y-51537099D01*
X83807000Y-51048888D01*
X83807000Y-50551112D01*
X83709889Y-50062901D01*
X83519398Y-49603017D01*
X83242849Y-49189131D01*
X82890869Y-48837151D01*
X82476983Y-48560602D01*
X82017099Y-48370111D01*
X81528888Y-48273000D01*
X81031112Y-48273000D01*
X80542901Y-48370111D01*
X80083017Y-48560602D01*
X79669131Y-48837151D01*
X79317151Y-49189131D01*
X79040602Y-49603017D01*
X78850111Y-50062901D01*
X78753000Y-50551112D01*
X25387000Y-50551112D01*
X25289889Y-50062901D01*
X25099398Y-49603017D01*
X24822849Y-49189131D01*
X24470869Y-48837151D01*
X24056983Y-48560602D01*
X23597099Y-48370111D01*
X23108888Y-48273000D01*
X22611112Y-48273000D01*
X22122901Y-48370111D01*
X21663017Y-48560602D01*
X21249131Y-48837151D01*
X20897151Y-49189131D01*
X20620602Y-49603017D01*
X20430111Y-50062901D01*
X20333000Y-50551112D01*
X18732000Y-50551112D01*
X18732000Y-48306556D01*
X18766721Y-47952444D01*
X18856041Y-47656601D01*
X19001124Y-47383740D01*
X19196440Y-47144258D01*
X19434554Y-46947274D01*
X19706394Y-46800290D01*
X20001607Y-46708907D01*
X20352751Y-46672000D01*
X83773444Y-46672000D01*
X84127556Y-46706721D01*
X84127556Y-46706721D01*
G37*
X84127556Y-46706721D02*
X84423399Y-46796041D01*
X84696260Y-46941124D01*
X84935742Y-47136440D01*
X85132726Y-47374554D01*
X85279710Y-47646394D01*
X85371093Y-47941607D01*
X85408000Y-48292751D01*
X85408001Y-218393434D01*
X85373279Y-218747556D01*
X85283958Y-219043402D01*
X85138877Y-219316260D01*
X84943560Y-219555742D01*
X84705445Y-219752727D01*
X84433606Y-219899710D01*
X84138395Y-219991093D01*
X83787249Y-220028000D01*
X20366556Y-220028000D01*
X20012444Y-219993279D01*
X19716598Y-219903958D01*
X19443740Y-219758877D01*
X19204258Y-219563560D01*
X19007273Y-219325445D01*
X18860290Y-219053606D01*
X18768907Y-218758395D01*
X18732000Y-218407249D01*
X18732000Y-215651112D01*
X20333000Y-215651112D01*
X20333000Y-216148888D01*
X20430111Y-216637099D01*
X20620602Y-217096983D01*
X20897151Y-217510869D01*
X21249131Y-217862849D01*
X21663017Y-218139398D01*
X22122901Y-218329889D01*
X22611112Y-218427000D01*
X23108888Y-218427000D01*
X23597099Y-218329889D01*
X24056983Y-218139398D01*
X24470869Y-217862849D01*
X24822849Y-217510869D01*
X25099398Y-217096983D01*
X25289889Y-216637099D01*
X25387000Y-216148888D01*
X25387000Y-215651112D01*
X78753000Y-215651112D01*
X78753000Y-216148888D01*
X78850111Y-216637099D01*
X79040602Y-217096983D01*
X79317151Y-217510869D01*
X79669131Y-217862849D01*
X80083017Y-218139398D01*
X80542901Y-218329889D01*
X81031112Y-218427000D01*
X81528888Y-218427000D01*
X82017099Y-218329889D01*
X82476983Y-218139398D01*
X82890869Y-217862849D01*
X83242849Y-217510869D01*
X83519398Y-217096983D01*
X83709889Y-216637099D01*
X83807000Y-216148888D01*
X83807000Y-215651112D01*
X83709889Y-215162901D01*
X83519398Y-214703017D01*
X83242849Y-214289131D01*
X82890869Y-213937151D01*
X82476983Y-213660602D01*
X82017099Y-213470111D01*
X81528888Y-213373000D01*
X81031112Y-213373000D01*
X80542901Y-213470111D01*
X80083017Y-213660602D01*
X79669131Y-213937151D01*
X79317151Y-214289131D01*
X79040602Y-214703017D01*
X78850111Y-215162901D01*
X78753000Y-215651112D01*
X25387000Y-215651112D01*
X25289889Y-215162901D01*
X25099398Y-214703017D01*
X24822849Y-214289131D01*
X24470869Y-213937151D01*
X24056983Y-213660602D01*
X23597099Y-213470111D01*
X23108888Y-213373000D01*
X22611112Y-213373000D01*
X22122901Y-213470111D01*
X21663017Y-213660602D01*
X21249131Y-213937151D01*
X20897151Y-214289131D01*
X20620602Y-214703017D01*
X20430111Y-215162901D01*
X20333000Y-215651112D01*
X18732000Y-215651112D01*
X18732000Y-193040000D01*
X27538838Y-193040000D01*
X27595352Y-193613792D01*
X27762721Y-194165533D01*
X28034514Y-194674021D01*
X28308625Y-195008028D01*
X33388625Y-200088029D01*
X33480284Y-200199716D01*
X33925978Y-200565487D01*
X34434466Y-200837279D01*
X34986207Y-201004648D01*
X35560000Y-201061162D01*
X35703788Y-201047000D01*
X44333001Y-201047000D01*
X44333000Y-204194461D01*
X44328515Y-204240000D01*
X44328515Y-207240000D01*
X44375235Y-207714359D01*
X44513601Y-208170489D01*
X44738294Y-208590861D01*
X45040680Y-208959320D01*
X45409139Y-209261706D01*
X45829511Y-209486399D01*
X46285641Y-209624765D01*
X46760000Y-209671485D01*
X48112616Y-209671485D01*
X48260000Y-209686001D01*
X48407384Y-209671485D01*
X49760000Y-209671485D01*
X50234359Y-209624765D01*
X50690489Y-209486399D01*
X51110861Y-209261706D01*
X51479320Y-208959320D01*
X51781706Y-208590861D01*
X51937876Y-208298686D01*
X53080919Y-208298686D01*
X53417106Y-208767868D01*
X54047068Y-209108237D01*
X54731327Y-209319166D01*
X55443589Y-209392550D01*
X56156482Y-209325569D01*
X56842609Y-209120796D01*
X57475603Y-208786102D01*
X57502894Y-208767868D01*
X57839081Y-208298686D01*
X55460000Y-205919605D01*
X53080919Y-208298686D01*
X51937876Y-208298686D01*
X52006399Y-208170489D01*
X52144765Y-207714359D01*
X52183601Y-207320051D01*
X52413898Y-207755603D01*
X52432132Y-207782894D01*
X52901314Y-208119081D01*
X55280395Y-205740000D01*
X55639605Y-205740000D01*
X58018686Y-208119081D01*
X58487868Y-207782894D01*
X58828237Y-207152932D01*
X59039166Y-206468673D01*
X59112550Y-205756411D01*
X59045569Y-205043518D01*
X58840796Y-204357391D01*
X58506102Y-203724397D01*
X58487868Y-203697106D01*
X58018686Y-203360919D01*
X55639605Y-205740000D01*
X55280395Y-205740000D01*
X52901314Y-203360919D01*
X52432132Y-203697106D01*
X52187000Y-204150801D01*
X52187000Y-203181314D01*
X53080919Y-203181314D01*
X55460000Y-205560395D01*
X57839081Y-203181314D01*
X57502894Y-202712132D01*
X56872932Y-202371763D01*
X56188673Y-202160834D01*
X55476411Y-202087450D01*
X54763518Y-202154431D01*
X54077391Y-202359204D01*
X53444397Y-202693898D01*
X53417106Y-202712132D01*
X53080919Y-203181314D01*
X52187000Y-203181314D01*
X52187000Y-201047000D01*
X60816212Y-201047000D01*
X60960000Y-201061162D01*
X61103788Y-201047000D01*
X61533792Y-201004648D01*
X62085534Y-200837279D01*
X62594022Y-200565487D01*
X63039716Y-200199716D01*
X63131379Y-200088024D01*
X68211375Y-195008029D01*
X68485486Y-194674022D01*
X68757279Y-194165534D01*
X68924648Y-193613793D01*
X68981162Y-193040000D01*
X68924648Y-192466208D01*
X68757279Y-191914467D01*
X68485486Y-191405978D01*
X68467000Y-191383453D01*
X68467000Y-187514725D01*
X68551866Y-187618135D01*
X68830063Y-187846445D01*
X69147455Y-188016095D01*
X69491846Y-188120565D01*
X69850000Y-188155840D01*
X70208155Y-188120565D01*
X70552546Y-188016095D01*
X70869938Y-187846445D01*
X71148135Y-187618135D01*
X71376445Y-187339938D01*
X71546095Y-187022546D01*
X71650565Y-186678155D01*
X71677000Y-186409755D01*
X71677000Y-185547000D01*
X72125000Y-185547000D01*
X72125000Y-186447000D01*
X72179271Y-186744023D01*
X72290446Y-187024751D01*
X72454252Y-187278396D01*
X72664394Y-187495210D01*
X72912796Y-187666862D01*
X73189913Y-187786755D01*
X73295260Y-187811036D01*
X73533000Y-187690378D01*
X73533000Y-185547000D01*
X73787000Y-185547000D01*
X73787000Y-187690378D01*
X74024740Y-187811036D01*
X74130087Y-187786755D01*
X74407204Y-187666862D01*
X74655606Y-187495210D01*
X74865748Y-187278396D01*
X75029554Y-187024751D01*
X75140729Y-186744023D01*
X75195000Y-186447000D01*
X75195000Y-185547000D01*
X73787000Y-185547000D01*
X73533000Y-185547000D01*
X72125000Y-185547000D01*
X71677000Y-185547000D01*
X71677000Y-184430245D01*
X71673332Y-184393000D01*
X72125000Y-184393000D01*
X72125000Y-185293000D01*
X73533000Y-185293000D01*
X73533000Y-183149622D01*
X73787000Y-183149622D01*
X73787000Y-185293000D01*
X75195000Y-185293000D01*
X75195000Y-184393000D01*
X75140729Y-184095977D01*
X75029554Y-183815249D01*
X74865748Y-183561604D01*
X74655606Y-183344790D01*
X74407204Y-183173138D01*
X74130087Y-183053245D01*
X74024740Y-183028964D01*
X73787000Y-183149622D01*
X73533000Y-183149622D01*
X73295260Y-183028964D01*
X73189913Y-183053245D01*
X72912796Y-183173138D01*
X72664394Y-183344790D01*
X72454252Y-183561604D01*
X72290446Y-183815249D01*
X72179271Y-184095977D01*
X72125000Y-184393000D01*
X71673332Y-184393000D01*
X71650565Y-184161845D01*
X71546095Y-183817454D01*
X71376445Y-183500062D01*
X71148135Y-183221865D01*
X70869937Y-182993555D01*
X70552545Y-182823905D01*
X70208154Y-182719435D01*
X69850000Y-182684160D01*
X69491845Y-182719435D01*
X69147454Y-182823905D01*
X68830062Y-182993555D01*
X68551865Y-183221865D01*
X68467000Y-183325274D01*
X68467000Y-174814725D01*
X68551866Y-174918135D01*
X68830063Y-175146445D01*
X69147455Y-175316095D01*
X69491846Y-175420565D01*
X69850000Y-175455840D01*
X70208155Y-175420565D01*
X70552546Y-175316095D01*
X70869938Y-175146445D01*
X71148135Y-174918135D01*
X71376445Y-174639938D01*
X71546095Y-174322546D01*
X71650565Y-173978155D01*
X71677000Y-173709755D01*
X71677000Y-172847000D01*
X72125000Y-172847000D01*
X72125000Y-173747000D01*
X72179271Y-174044023D01*
X72290446Y-174324751D01*
X72454252Y-174578396D01*
X72664394Y-174795210D01*
X72912796Y-174966862D01*
X73189913Y-175086755D01*
X73295260Y-175111036D01*
X73533000Y-174990378D01*
X73533000Y-172847000D01*
X73787000Y-172847000D01*
X73787000Y-174990378D01*
X74024740Y-175111036D01*
X74130087Y-175086755D01*
X74407204Y-174966862D01*
X74655606Y-174795210D01*
X74865748Y-174578396D01*
X75029554Y-174324751D01*
X75140729Y-174044023D01*
X75195000Y-173747000D01*
X75195000Y-172847000D01*
X73787000Y-172847000D01*
X73533000Y-172847000D01*
X72125000Y-172847000D01*
X71677000Y-172847000D01*
X71677000Y-171730245D01*
X71673332Y-171693000D01*
X72125000Y-171693000D01*
X72125000Y-172593000D01*
X73533000Y-172593000D01*
X73533000Y-170449622D01*
X73787000Y-170449622D01*
X73787000Y-172593000D01*
X75195000Y-172593000D01*
X75195000Y-171693000D01*
X75140729Y-171395977D01*
X75029554Y-171115249D01*
X74865748Y-170861604D01*
X74655606Y-170644790D01*
X74407204Y-170473138D01*
X74130087Y-170353245D01*
X74024740Y-170328964D01*
X73787000Y-170449622D01*
X73533000Y-170449622D01*
X73295260Y-170328964D01*
X73189913Y-170353245D01*
X72912796Y-170473138D01*
X72664394Y-170644790D01*
X72454252Y-170861604D01*
X72290446Y-171115249D01*
X72179271Y-171395977D01*
X72125000Y-171693000D01*
X71673332Y-171693000D01*
X71650565Y-171461845D01*
X71546095Y-171117454D01*
X71376445Y-170800062D01*
X71148135Y-170521865D01*
X70869937Y-170293555D01*
X70552545Y-170123905D01*
X70208154Y-170019435D01*
X69850000Y-169984160D01*
X69491845Y-170019435D01*
X69147454Y-170123905D01*
X68830062Y-170293555D01*
X68551865Y-170521865D01*
X68467000Y-170625274D01*
X68467000Y-162114725D01*
X68551866Y-162218135D01*
X68830063Y-162446445D01*
X69147455Y-162616095D01*
X69491846Y-162720565D01*
X69850000Y-162755840D01*
X70208155Y-162720565D01*
X70552546Y-162616095D01*
X70869938Y-162446445D01*
X71148135Y-162218135D01*
X71376445Y-161939938D01*
X71546095Y-161622546D01*
X71650565Y-161278155D01*
X71677000Y-161009755D01*
X71677000Y-160147000D01*
X72125000Y-160147000D01*
X72125000Y-161047000D01*
X72179271Y-161344023D01*
X72290446Y-161624751D01*
X72454252Y-161878396D01*
X72664394Y-162095210D01*
X72912796Y-162266862D01*
X73189913Y-162386755D01*
X73295260Y-162411036D01*
X73533000Y-162290378D01*
X73533000Y-160147000D01*
X73787000Y-160147000D01*
X73787000Y-162290378D01*
X74024740Y-162411036D01*
X74130087Y-162386755D01*
X74407204Y-162266862D01*
X74655606Y-162095210D01*
X74865748Y-161878396D01*
X75029554Y-161624751D01*
X75140729Y-161344023D01*
X75195000Y-161047000D01*
X75195000Y-160147000D01*
X73787000Y-160147000D01*
X73533000Y-160147000D01*
X72125000Y-160147000D01*
X71677000Y-160147000D01*
X71677000Y-159030245D01*
X71673332Y-158993000D01*
X72125000Y-158993000D01*
X72125000Y-159893000D01*
X73533000Y-159893000D01*
X73533000Y-157749622D01*
X73787000Y-157749622D01*
X73787000Y-159893000D01*
X75195000Y-159893000D01*
X75195000Y-158993000D01*
X75140729Y-158695977D01*
X75029554Y-158415249D01*
X74865748Y-158161604D01*
X74655606Y-157944790D01*
X74407204Y-157773138D01*
X74130087Y-157653245D01*
X74024740Y-157628964D01*
X73787000Y-157749622D01*
X73533000Y-157749622D01*
X73295260Y-157628964D01*
X73189913Y-157653245D01*
X72912796Y-157773138D01*
X72664394Y-157944790D01*
X72454252Y-158161604D01*
X72290446Y-158415249D01*
X72179271Y-158695977D01*
X72125000Y-158993000D01*
X71673332Y-158993000D01*
X71650565Y-158761845D01*
X71546095Y-158417454D01*
X71376445Y-158100062D01*
X71148135Y-157821865D01*
X70869937Y-157593555D01*
X70552545Y-157423905D01*
X70208154Y-157319435D01*
X69850000Y-157284160D01*
X69491845Y-157319435D01*
X69147454Y-157423905D01*
X68830062Y-157593555D01*
X68551865Y-157821865D01*
X68467000Y-157925274D01*
X68467000Y-149414725D01*
X68551866Y-149518135D01*
X68830063Y-149746445D01*
X69147455Y-149916095D01*
X69491846Y-150020565D01*
X69850000Y-150055840D01*
X70208155Y-150020565D01*
X70552546Y-149916095D01*
X70869938Y-149746445D01*
X71148135Y-149518135D01*
X71376445Y-149239938D01*
X71546095Y-148922546D01*
X71650565Y-148578155D01*
X71677000Y-148309755D01*
X71677000Y-147447000D01*
X72125000Y-147447000D01*
X72125000Y-148347000D01*
X72179271Y-148644023D01*
X72290446Y-148924751D01*
X72454252Y-149178396D01*
X72664394Y-149395210D01*
X72912796Y-149566862D01*
X73189913Y-149686755D01*
X73295260Y-149711036D01*
X73533000Y-149590378D01*
X73533000Y-147447000D01*
X73787000Y-147447000D01*
X73787000Y-149590378D01*
X74024740Y-149711036D01*
X74130087Y-149686755D01*
X74407204Y-149566862D01*
X74655606Y-149395210D01*
X74865748Y-149178396D01*
X75029554Y-148924751D01*
X75140729Y-148644023D01*
X75195000Y-148347000D01*
X75195000Y-147447000D01*
X73787000Y-147447000D01*
X73533000Y-147447000D01*
X72125000Y-147447000D01*
X71677000Y-147447000D01*
X71677000Y-146330245D01*
X71673332Y-146293000D01*
X72125000Y-146293000D01*
X72125000Y-147193000D01*
X73533000Y-147193000D01*
X73533000Y-145049622D01*
X73787000Y-145049622D01*
X73787000Y-147193000D01*
X75195000Y-147193000D01*
X75195000Y-146293000D01*
X75140729Y-145995977D01*
X75029554Y-145715249D01*
X74865748Y-145461604D01*
X74655606Y-145244790D01*
X74407204Y-145073138D01*
X74130087Y-144953245D01*
X74024740Y-144928964D01*
X73787000Y-145049622D01*
X73533000Y-145049622D01*
X73295260Y-144928964D01*
X73189913Y-144953245D01*
X72912796Y-145073138D01*
X72664394Y-145244790D01*
X72454252Y-145461604D01*
X72290446Y-145715249D01*
X72179271Y-145995977D01*
X72125000Y-146293000D01*
X71673332Y-146293000D01*
X71650565Y-146061845D01*
X71546095Y-145717454D01*
X71376445Y-145400062D01*
X71148135Y-145121865D01*
X70869937Y-144893555D01*
X70552545Y-144723905D01*
X70208154Y-144619435D01*
X69850000Y-144584160D01*
X69491845Y-144619435D01*
X69147454Y-144723905D01*
X68830062Y-144893555D01*
X68551865Y-145121865D01*
X68467000Y-145225274D01*
X68467000Y-136714725D01*
X68551866Y-136818135D01*
X68830063Y-137046445D01*
X69147455Y-137216095D01*
X69491846Y-137320565D01*
X69850000Y-137355840D01*
X70208155Y-137320565D01*
X70552546Y-137216095D01*
X70869938Y-137046445D01*
X71148135Y-136818135D01*
X71376445Y-136539938D01*
X71546095Y-136222546D01*
X71650565Y-135878155D01*
X71677000Y-135609755D01*
X71677000Y-134747000D01*
X72125000Y-134747000D01*
X72125000Y-135647000D01*
X72179271Y-135944023D01*
X72290446Y-136224751D01*
X72454252Y-136478396D01*
X72664394Y-136695210D01*
X72912796Y-136866862D01*
X73189913Y-136986755D01*
X73295260Y-137011036D01*
X73533000Y-136890378D01*
X73533000Y-134747000D01*
X73787000Y-134747000D01*
X73787000Y-136890378D01*
X74024740Y-137011036D01*
X74130087Y-136986755D01*
X74407204Y-136866862D01*
X74655606Y-136695210D01*
X74865748Y-136478396D01*
X75029554Y-136224751D01*
X75140729Y-135944023D01*
X75195000Y-135647000D01*
X75195000Y-134747000D01*
X73787000Y-134747000D01*
X73533000Y-134747000D01*
X72125000Y-134747000D01*
X71677000Y-134747000D01*
X71677000Y-133630245D01*
X71673332Y-133593000D01*
X72125000Y-133593000D01*
X72125000Y-134493000D01*
X73533000Y-134493000D01*
X73533000Y-132349622D01*
X73787000Y-132349622D01*
X73787000Y-134493000D01*
X75195000Y-134493000D01*
X75195000Y-133593000D01*
X75140729Y-133295977D01*
X75029554Y-133015249D01*
X74865748Y-132761604D01*
X74655606Y-132544790D01*
X74407204Y-132373138D01*
X74130087Y-132253245D01*
X74024740Y-132228964D01*
X73787000Y-132349622D01*
X73533000Y-132349622D01*
X73295260Y-132228964D01*
X73189913Y-132253245D01*
X72912796Y-132373138D01*
X72664394Y-132544790D01*
X72454252Y-132761604D01*
X72290446Y-133015249D01*
X72179271Y-133295977D01*
X72125000Y-133593000D01*
X71673332Y-133593000D01*
X71650565Y-133361845D01*
X71546095Y-133017454D01*
X71376445Y-132700062D01*
X71148135Y-132421865D01*
X70869937Y-132193555D01*
X70552545Y-132023905D01*
X70208154Y-131919435D01*
X69850000Y-131884160D01*
X69491845Y-131919435D01*
X69147454Y-132023905D01*
X68830062Y-132193555D01*
X68551865Y-132421865D01*
X68467000Y-132525274D01*
X68467000Y-124014725D01*
X68551866Y-124118135D01*
X68830063Y-124346445D01*
X69147455Y-124516095D01*
X69491846Y-124620565D01*
X69850000Y-124655840D01*
X70208155Y-124620565D01*
X70552546Y-124516095D01*
X70869938Y-124346445D01*
X71148135Y-124118135D01*
X71376445Y-123839938D01*
X71546095Y-123522546D01*
X71650565Y-123178155D01*
X71677000Y-122909755D01*
X71677000Y-122047000D01*
X72125000Y-122047000D01*
X72125000Y-122947000D01*
X72179271Y-123244023D01*
X72290446Y-123524751D01*
X72454252Y-123778396D01*
X72664394Y-123995210D01*
X72912796Y-124166862D01*
X73189913Y-124286755D01*
X73295260Y-124311036D01*
X73533000Y-124190378D01*
X73533000Y-122047000D01*
X73787000Y-122047000D01*
X73787000Y-124190378D01*
X74024740Y-124311036D01*
X74130087Y-124286755D01*
X74407204Y-124166862D01*
X74655606Y-123995210D01*
X74865748Y-123778396D01*
X75029554Y-123524751D01*
X75140729Y-123244023D01*
X75195000Y-122947000D01*
X75195000Y-122047000D01*
X73787000Y-122047000D01*
X73533000Y-122047000D01*
X72125000Y-122047000D01*
X71677000Y-122047000D01*
X71677000Y-120930245D01*
X71673332Y-120893000D01*
X72125000Y-120893000D01*
X72125000Y-121793000D01*
X73533000Y-121793000D01*
X73533000Y-119649622D01*
X73787000Y-119649622D01*
X73787000Y-121793000D01*
X75195000Y-121793000D01*
X75195000Y-120893000D01*
X75140729Y-120595977D01*
X75029554Y-120315249D01*
X74865748Y-120061604D01*
X74655606Y-119844790D01*
X74407204Y-119673138D01*
X74130087Y-119553245D01*
X74024740Y-119528964D01*
X73787000Y-119649622D01*
X73533000Y-119649622D01*
X73295260Y-119528964D01*
X73189913Y-119553245D01*
X72912796Y-119673138D01*
X72664394Y-119844790D01*
X72454252Y-120061604D01*
X72290446Y-120315249D01*
X72179271Y-120595977D01*
X72125000Y-120893000D01*
X71673332Y-120893000D01*
X71650565Y-120661845D01*
X71546095Y-120317454D01*
X71376445Y-120000062D01*
X71148135Y-119721865D01*
X70869937Y-119493555D01*
X70552545Y-119323905D01*
X70208154Y-119219435D01*
X69850000Y-119184160D01*
X69491845Y-119219435D01*
X69147454Y-119323905D01*
X68830062Y-119493555D01*
X68551865Y-119721865D01*
X68467000Y-119825274D01*
X68467000Y-111314725D01*
X68551866Y-111418135D01*
X68830063Y-111646445D01*
X69147455Y-111816095D01*
X69491846Y-111920565D01*
X69850000Y-111955840D01*
X70208155Y-111920565D01*
X70552546Y-111816095D01*
X70869938Y-111646445D01*
X71148135Y-111418135D01*
X71376445Y-111139938D01*
X71546095Y-110822546D01*
X71650565Y-110478155D01*
X71677000Y-110209755D01*
X71677000Y-109347000D01*
X72125000Y-109347000D01*
X72125000Y-110247000D01*
X72179271Y-110544023D01*
X72290446Y-110824751D01*
X72454252Y-111078396D01*
X72664394Y-111295210D01*
X72912796Y-111466862D01*
X73189913Y-111586755D01*
X73295260Y-111611036D01*
X73533000Y-111490378D01*
X73533000Y-109347000D01*
X73787000Y-109347000D01*
X73787000Y-111490378D01*
X74024740Y-111611036D01*
X74130087Y-111586755D01*
X74407204Y-111466862D01*
X74655606Y-111295210D01*
X74865748Y-111078396D01*
X75029554Y-110824751D01*
X75140729Y-110544023D01*
X75195000Y-110247000D01*
X75195000Y-109347000D01*
X73787000Y-109347000D01*
X73533000Y-109347000D01*
X72125000Y-109347000D01*
X71677000Y-109347000D01*
X71677000Y-108230245D01*
X71673332Y-108193000D01*
X72125000Y-108193000D01*
X72125000Y-109093000D01*
X73533000Y-109093000D01*
X73533000Y-106949622D01*
X73787000Y-106949622D01*
X73787000Y-109093000D01*
X75195000Y-109093000D01*
X75195000Y-108193000D01*
X75140729Y-107895977D01*
X75029554Y-107615249D01*
X74865748Y-107361604D01*
X74655606Y-107144790D01*
X74407204Y-106973138D01*
X74130087Y-106853245D01*
X74024740Y-106828964D01*
X73787000Y-106949622D01*
X73533000Y-106949622D01*
X73295260Y-106828964D01*
X73189913Y-106853245D01*
X72912796Y-106973138D01*
X72664394Y-107144790D01*
X72454252Y-107361604D01*
X72290446Y-107615249D01*
X72179271Y-107895977D01*
X72125000Y-108193000D01*
X71673332Y-108193000D01*
X71650565Y-107961845D01*
X71546095Y-107617454D01*
X71376445Y-107300062D01*
X71148135Y-107021865D01*
X70869937Y-106793555D01*
X70552545Y-106623905D01*
X70208154Y-106519435D01*
X69850000Y-106484160D01*
X69491845Y-106519435D01*
X69147454Y-106623905D01*
X68830062Y-106793555D01*
X68551865Y-107021865D01*
X68467000Y-107125274D01*
X68467000Y-98614725D01*
X68551866Y-98718135D01*
X68830063Y-98946445D01*
X69147455Y-99116095D01*
X69491846Y-99220565D01*
X69850000Y-99255840D01*
X70208155Y-99220565D01*
X70552546Y-99116095D01*
X70869938Y-98946445D01*
X71148135Y-98718135D01*
X71376445Y-98439938D01*
X71546095Y-98122546D01*
X71650565Y-97778155D01*
X71677000Y-97509755D01*
X71677000Y-96647000D01*
X72125000Y-96647000D01*
X72125000Y-97547000D01*
X72179271Y-97844023D01*
X72290446Y-98124751D01*
X72454252Y-98378396D01*
X72664394Y-98595210D01*
X72912796Y-98766862D01*
X73189913Y-98886755D01*
X73295260Y-98911036D01*
X73533000Y-98790378D01*
X73533000Y-96647000D01*
X73787000Y-96647000D01*
X73787000Y-98790378D01*
X74024740Y-98911036D01*
X74130087Y-98886755D01*
X74407204Y-98766862D01*
X74655606Y-98595210D01*
X74865748Y-98378396D01*
X75029554Y-98124751D01*
X75140729Y-97844023D01*
X75195000Y-97547000D01*
X75195000Y-96647000D01*
X73787000Y-96647000D01*
X73533000Y-96647000D01*
X72125000Y-96647000D01*
X71677000Y-96647000D01*
X71677000Y-95530245D01*
X71673332Y-95493000D01*
X72125000Y-95493000D01*
X72125000Y-96393000D01*
X73533000Y-96393000D01*
X73533000Y-94249622D01*
X73787000Y-94249622D01*
X73787000Y-96393000D01*
X75195000Y-96393000D01*
X75195000Y-95493000D01*
X75140729Y-95195977D01*
X75029554Y-94915249D01*
X74865748Y-94661604D01*
X74655606Y-94444790D01*
X74407204Y-94273138D01*
X74130087Y-94153245D01*
X74024740Y-94128964D01*
X73787000Y-94249622D01*
X73533000Y-94249622D01*
X73295260Y-94128964D01*
X73189913Y-94153245D01*
X72912796Y-94273138D01*
X72664394Y-94444790D01*
X72454252Y-94661604D01*
X72290446Y-94915249D01*
X72179271Y-95195977D01*
X72125000Y-95493000D01*
X71673332Y-95493000D01*
X71650565Y-95261845D01*
X71546095Y-94917454D01*
X71376445Y-94600062D01*
X71148135Y-94321865D01*
X70869937Y-94093555D01*
X70552545Y-93923905D01*
X70208154Y-93819435D01*
X69850000Y-93784160D01*
X69491845Y-93819435D01*
X69147454Y-93923905D01*
X68830062Y-94093555D01*
X68551865Y-94321865D01*
X68467000Y-94425274D01*
X68467000Y-85914725D01*
X68551866Y-86018135D01*
X68830063Y-86246445D01*
X69147455Y-86416095D01*
X69491846Y-86520565D01*
X69850000Y-86555840D01*
X70208155Y-86520565D01*
X70552546Y-86416095D01*
X70869938Y-86246445D01*
X71148135Y-86018135D01*
X71376445Y-85739938D01*
X71546095Y-85422546D01*
X71650565Y-85078155D01*
X71677000Y-84809755D01*
X71677000Y-83947000D01*
X72125000Y-83947000D01*
X72125000Y-84847000D01*
X72179271Y-85144023D01*
X72290446Y-85424751D01*
X72454252Y-85678396D01*
X72664394Y-85895210D01*
X72912796Y-86066862D01*
X73189913Y-86186755D01*
X73295260Y-86211036D01*
X73533000Y-86090378D01*
X73533000Y-83947000D01*
X73787000Y-83947000D01*
X73787000Y-86090378D01*
X74024740Y-86211036D01*
X74130087Y-86186755D01*
X74407204Y-86066862D01*
X74655606Y-85895210D01*
X74865748Y-85678396D01*
X75029554Y-85424751D01*
X75140729Y-85144023D01*
X75195000Y-84847000D01*
X75195000Y-83947000D01*
X73787000Y-83947000D01*
X73533000Y-83947000D01*
X72125000Y-83947000D01*
X71677000Y-83947000D01*
X71677000Y-82830245D01*
X71673332Y-82793000D01*
X72125000Y-82793000D01*
X72125000Y-83693000D01*
X73533000Y-83693000D01*
X73533000Y-81549622D01*
X73787000Y-81549622D01*
X73787000Y-83693000D01*
X75195000Y-83693000D01*
X75195000Y-82793000D01*
X75140729Y-82495977D01*
X75029554Y-82215249D01*
X74865748Y-81961604D01*
X74655606Y-81744790D01*
X74407204Y-81573138D01*
X74130087Y-81453245D01*
X74024740Y-81428964D01*
X73787000Y-81549622D01*
X73533000Y-81549622D01*
X73295260Y-81428964D01*
X73189913Y-81453245D01*
X72912796Y-81573138D01*
X72664394Y-81744790D01*
X72454252Y-81961604D01*
X72290446Y-82215249D01*
X72179271Y-82495977D01*
X72125000Y-82793000D01*
X71673332Y-82793000D01*
X71650565Y-82561845D01*
X71546095Y-82217454D01*
X71376445Y-81900062D01*
X71148135Y-81621865D01*
X70869937Y-81393555D01*
X70552545Y-81223905D01*
X70208154Y-81119435D01*
X69850000Y-81084160D01*
X69491845Y-81119435D01*
X69147454Y-81223905D01*
X68830062Y-81393555D01*
X68551865Y-81621865D01*
X68467000Y-81725274D01*
X68467000Y-73214725D01*
X68551866Y-73318135D01*
X68830063Y-73546445D01*
X69147455Y-73716095D01*
X69491846Y-73820565D01*
X69850000Y-73855840D01*
X70208155Y-73820565D01*
X70552546Y-73716095D01*
X70869938Y-73546445D01*
X71148135Y-73318135D01*
X71376445Y-73039938D01*
X71546095Y-72722546D01*
X71650565Y-72378155D01*
X71677000Y-72109755D01*
X71677000Y-71247000D01*
X72125000Y-71247000D01*
X72125000Y-72147000D01*
X72179271Y-72444023D01*
X72290446Y-72724751D01*
X72454252Y-72978396D01*
X72664394Y-73195210D01*
X72912796Y-73366862D01*
X73189913Y-73486755D01*
X73295260Y-73511036D01*
X73533000Y-73390378D01*
X73533000Y-71247000D01*
X73787000Y-71247000D01*
X73787000Y-73390378D01*
X74024740Y-73511036D01*
X74130087Y-73486755D01*
X74407204Y-73366862D01*
X74655606Y-73195210D01*
X74865748Y-72978396D01*
X75029554Y-72724751D01*
X75140729Y-72444023D01*
X75195000Y-72147000D01*
X75195000Y-71247000D01*
X73787000Y-71247000D01*
X73533000Y-71247000D01*
X72125000Y-71247000D01*
X71677000Y-71247000D01*
X71677000Y-70130245D01*
X71673332Y-70093000D01*
X72125000Y-70093000D01*
X72125000Y-70993000D01*
X73533000Y-70993000D01*
X73533000Y-68849622D01*
X73787000Y-68849622D01*
X73787000Y-70993000D01*
X75195000Y-70993000D01*
X75195000Y-70093000D01*
X75140729Y-69795977D01*
X75029554Y-69515249D01*
X74865748Y-69261604D01*
X74655606Y-69044790D01*
X74407204Y-68873138D01*
X74130087Y-68753245D01*
X74024740Y-68728964D01*
X73787000Y-68849622D01*
X73533000Y-68849622D01*
X73295260Y-68728964D01*
X73189913Y-68753245D01*
X72912796Y-68873138D01*
X72664394Y-69044790D01*
X72454252Y-69261604D01*
X72290446Y-69515249D01*
X72179271Y-69795977D01*
X72125000Y-70093000D01*
X71673332Y-70093000D01*
X71650565Y-69861845D01*
X71546095Y-69517454D01*
X71376445Y-69200062D01*
X71148135Y-68921865D01*
X70869937Y-68693555D01*
X70552545Y-68523905D01*
X70208154Y-68419435D01*
X69850000Y-68384160D01*
X69491845Y-68419435D01*
X69147454Y-68523905D01*
X68830062Y-68693555D01*
X68551865Y-68921865D01*
X68467000Y-69025274D01*
X68467000Y-60514725D01*
X68551866Y-60618135D01*
X68830063Y-60846445D01*
X69147455Y-61016095D01*
X69491846Y-61120565D01*
X69850000Y-61155840D01*
X70208155Y-61120565D01*
X70552546Y-61016095D01*
X70869938Y-60846445D01*
X71148135Y-60618135D01*
X71376445Y-60339938D01*
X71546095Y-60022546D01*
X71650565Y-59678155D01*
X71677000Y-59409755D01*
X71677000Y-58547000D01*
X72125000Y-58547000D01*
X72125000Y-59447000D01*
X72179271Y-59744023D01*
X72290446Y-60024751D01*
X72454252Y-60278396D01*
X72664394Y-60495210D01*
X72912796Y-60666862D01*
X73189913Y-60786755D01*
X73295260Y-60811036D01*
X73533000Y-60690378D01*
X73533000Y-58547000D01*
X73787000Y-58547000D01*
X73787000Y-60690378D01*
X74024740Y-60811036D01*
X74130087Y-60786755D01*
X74407204Y-60666862D01*
X74655606Y-60495210D01*
X74865748Y-60278396D01*
X75029554Y-60024751D01*
X75140729Y-59744023D01*
X75195000Y-59447000D01*
X75195000Y-58547000D01*
X73787000Y-58547000D01*
X73533000Y-58547000D01*
X72125000Y-58547000D01*
X71677000Y-58547000D01*
X71677000Y-57430245D01*
X71673332Y-57393000D01*
X72125000Y-57393000D01*
X72125000Y-58293000D01*
X73533000Y-58293000D01*
X73533000Y-56149622D01*
X73787000Y-56149622D01*
X73787000Y-58293000D01*
X75195000Y-58293000D01*
X75195000Y-57393000D01*
X75140729Y-57095977D01*
X75029554Y-56815249D01*
X74865748Y-56561604D01*
X74655606Y-56344790D01*
X74407204Y-56173138D01*
X74130087Y-56053245D01*
X74024740Y-56028964D01*
X73787000Y-56149622D01*
X73533000Y-56149622D01*
X73295260Y-56028964D01*
X73189913Y-56053245D01*
X72912796Y-56173138D01*
X72664394Y-56344790D01*
X72454252Y-56561604D01*
X72290446Y-56815249D01*
X72179271Y-57095977D01*
X72125000Y-57393000D01*
X71673332Y-57393000D01*
X71650565Y-57161845D01*
X71546095Y-56817454D01*
X71376445Y-56500062D01*
X71148135Y-56221865D01*
X70869937Y-55993555D01*
X70552545Y-55823905D01*
X70208154Y-55719435D01*
X69850000Y-55684160D01*
X69491845Y-55719435D01*
X69147454Y-55823905D01*
X68830062Y-55993555D01*
X68551865Y-56221865D01*
X68467000Y-56325274D01*
X68467000Y-55760772D01*
X68431883Y-55404225D01*
X68293105Y-54946733D01*
X68067741Y-54525107D01*
X67764452Y-54155548D01*
X67394893Y-53852259D01*
X66973267Y-53626895D01*
X66515775Y-53488117D01*
X66040000Y-53441257D01*
X65564226Y-53488117D01*
X65106734Y-53626895D01*
X64685108Y-53852259D01*
X64315549Y-54155548D01*
X64012260Y-54525107D01*
X63786896Y-54946733D01*
X63648118Y-55404225D01*
X63613001Y-55760772D01*
X63613000Y-191327596D01*
X59747597Y-195193000D01*
X50883606Y-195193000D01*
X50687000Y-195031649D01*
X50687000Y-187514725D01*
X50771866Y-187618135D01*
X51050063Y-187846445D01*
X51367455Y-188016095D01*
X51711846Y-188120565D01*
X52070000Y-188155840D01*
X52428155Y-188120565D01*
X52772546Y-188016095D01*
X53089938Y-187846445D01*
X53368135Y-187618135D01*
X53596445Y-187339938D01*
X53766095Y-187022546D01*
X53870565Y-186678155D01*
X53897000Y-186409755D01*
X53897000Y-185547000D01*
X54345000Y-185547000D01*
X54345000Y-186447000D01*
X54399271Y-186744023D01*
X54510446Y-187024751D01*
X54674252Y-187278396D01*
X54884394Y-187495210D01*
X55132796Y-187666862D01*
X55409913Y-187786755D01*
X55515260Y-187811036D01*
X55753000Y-187690378D01*
X55753000Y-185547000D01*
X56007000Y-185547000D01*
X56007000Y-187690378D01*
X56244740Y-187811036D01*
X56350087Y-187786755D01*
X56627204Y-187666862D01*
X56875606Y-187495210D01*
X57085748Y-187278396D01*
X57249554Y-187024751D01*
X57360729Y-186744023D01*
X57415000Y-186447000D01*
X57415000Y-185547000D01*
X56007000Y-185547000D01*
X55753000Y-185547000D01*
X54345000Y-185547000D01*
X53897000Y-185547000D01*
X53897000Y-184430245D01*
X53893332Y-184393000D01*
X54345000Y-184393000D01*
X54345000Y-185293000D01*
X55753000Y-185293000D01*
X55753000Y-183149622D01*
X56007000Y-183149622D01*
X56007000Y-185293000D01*
X57415000Y-185293000D01*
X57415000Y-184393000D01*
X57360729Y-184095977D01*
X57249554Y-183815249D01*
X57085748Y-183561604D01*
X56875606Y-183344790D01*
X56627204Y-183173138D01*
X56350087Y-183053245D01*
X56244740Y-183028964D01*
X56007000Y-183149622D01*
X55753000Y-183149622D01*
X55515260Y-183028964D01*
X55409913Y-183053245D01*
X55132796Y-183173138D01*
X54884394Y-183344790D01*
X54674252Y-183561604D01*
X54510446Y-183815249D01*
X54399271Y-184095977D01*
X54345000Y-184393000D01*
X53893332Y-184393000D01*
X53870565Y-184161845D01*
X53766095Y-183817454D01*
X53596445Y-183500062D01*
X53368135Y-183221865D01*
X53089937Y-182993555D01*
X52772545Y-182823905D01*
X52428154Y-182719435D01*
X52070000Y-182684160D01*
X51711845Y-182719435D01*
X51367454Y-182823905D01*
X51050062Y-182993555D01*
X50771865Y-183221865D01*
X50687000Y-183325274D01*
X50687000Y-174814725D01*
X50771866Y-174918135D01*
X51050063Y-175146445D01*
X51367455Y-175316095D01*
X51711846Y-175420565D01*
X52070000Y-175455840D01*
X52428155Y-175420565D01*
X52772546Y-175316095D01*
X53089938Y-175146445D01*
X53368135Y-174918135D01*
X53596445Y-174639938D01*
X53766095Y-174322546D01*
X53870565Y-173978155D01*
X53897000Y-173709755D01*
X53897000Y-172847000D01*
X54345000Y-172847000D01*
X54345000Y-173747000D01*
X54399271Y-174044023D01*
X54510446Y-174324751D01*
X54674252Y-174578396D01*
X54884394Y-174795210D01*
X55132796Y-174966862D01*
X55409913Y-175086755D01*
X55515260Y-175111036D01*
X55753000Y-174990378D01*
X55753000Y-172847000D01*
X56007000Y-172847000D01*
X56007000Y-174990378D01*
X56244740Y-175111036D01*
X56350087Y-175086755D01*
X56627204Y-174966862D01*
X56875606Y-174795210D01*
X57085748Y-174578396D01*
X57249554Y-174324751D01*
X57360729Y-174044023D01*
X57415000Y-173747000D01*
X57415000Y-172847000D01*
X56007000Y-172847000D01*
X55753000Y-172847000D01*
X54345000Y-172847000D01*
X53897000Y-172847000D01*
X53897000Y-171730245D01*
X53893332Y-171693000D01*
X54345000Y-171693000D01*
X54345000Y-172593000D01*
X55753000Y-172593000D01*
X55753000Y-170449622D01*
X56007000Y-170449622D01*
X56007000Y-172593000D01*
X57415000Y-172593000D01*
X57415000Y-171693000D01*
X57360729Y-171395977D01*
X57249554Y-171115249D01*
X57085748Y-170861604D01*
X56875606Y-170644790D01*
X56627204Y-170473138D01*
X56350087Y-170353245D01*
X56244740Y-170328964D01*
X56007000Y-170449622D01*
X55753000Y-170449622D01*
X55515260Y-170328964D01*
X55409913Y-170353245D01*
X55132796Y-170473138D01*
X54884394Y-170644790D01*
X54674252Y-170861604D01*
X54510446Y-171115249D01*
X54399271Y-171395977D01*
X54345000Y-171693000D01*
X53893332Y-171693000D01*
X53870565Y-171461845D01*
X53766095Y-171117454D01*
X53596445Y-170800062D01*
X53368135Y-170521865D01*
X53089937Y-170293555D01*
X52772545Y-170123905D01*
X52428154Y-170019435D01*
X52070000Y-169984160D01*
X51711845Y-170019435D01*
X51367454Y-170123905D01*
X51050062Y-170293555D01*
X50771865Y-170521865D01*
X50687000Y-170625274D01*
X50687000Y-162114725D01*
X50771866Y-162218135D01*
X51050063Y-162446445D01*
X51367455Y-162616095D01*
X51711846Y-162720565D01*
X52070000Y-162755840D01*
X52428155Y-162720565D01*
X52772546Y-162616095D01*
X53089938Y-162446445D01*
X53368135Y-162218135D01*
X53596445Y-161939938D01*
X53766095Y-161622546D01*
X53870565Y-161278155D01*
X53897000Y-161009755D01*
X53897000Y-160147000D01*
X54345000Y-160147000D01*
X54345000Y-161047000D01*
X54399271Y-161344023D01*
X54510446Y-161624751D01*
X54674252Y-161878396D01*
X54884394Y-162095210D01*
X55132796Y-162266862D01*
X55409913Y-162386755D01*
X55515260Y-162411036D01*
X55753000Y-162290378D01*
X55753000Y-160147000D01*
X56007000Y-160147000D01*
X56007000Y-162290378D01*
X56244740Y-162411036D01*
X56350087Y-162386755D01*
X56627204Y-162266862D01*
X56875606Y-162095210D01*
X57085748Y-161878396D01*
X57249554Y-161624751D01*
X57360729Y-161344023D01*
X57415000Y-161047000D01*
X57415000Y-160147000D01*
X56007000Y-160147000D01*
X55753000Y-160147000D01*
X54345000Y-160147000D01*
X53897000Y-160147000D01*
X53897000Y-159030245D01*
X53893332Y-158993000D01*
X54345000Y-158993000D01*
X54345000Y-159893000D01*
X55753000Y-159893000D01*
X55753000Y-157749622D01*
X56007000Y-157749622D01*
X56007000Y-159893000D01*
X57415000Y-159893000D01*
X57415000Y-158993000D01*
X57360729Y-158695977D01*
X57249554Y-158415249D01*
X57085748Y-158161604D01*
X56875606Y-157944790D01*
X56627204Y-157773138D01*
X56350087Y-157653245D01*
X56244740Y-157628964D01*
X56007000Y-157749622D01*
X55753000Y-157749622D01*
X55515260Y-157628964D01*
X55409913Y-157653245D01*
X55132796Y-157773138D01*
X54884394Y-157944790D01*
X54674252Y-158161604D01*
X54510446Y-158415249D01*
X54399271Y-158695977D01*
X54345000Y-158993000D01*
X53893332Y-158993000D01*
X53870565Y-158761845D01*
X53766095Y-158417454D01*
X53596445Y-158100062D01*
X53368135Y-157821865D01*
X53089937Y-157593555D01*
X52772545Y-157423905D01*
X52428154Y-157319435D01*
X52070000Y-157284160D01*
X51711845Y-157319435D01*
X51367454Y-157423905D01*
X51050062Y-157593555D01*
X50771865Y-157821865D01*
X50687000Y-157925274D01*
X50687000Y-149414725D01*
X50771866Y-149518135D01*
X51050063Y-149746445D01*
X51367455Y-149916095D01*
X51711846Y-150020565D01*
X52070000Y-150055840D01*
X52428155Y-150020565D01*
X52772546Y-149916095D01*
X53089938Y-149746445D01*
X53368135Y-149518135D01*
X53596445Y-149239938D01*
X53766095Y-148922546D01*
X53870565Y-148578155D01*
X53897000Y-148309755D01*
X53897000Y-147447000D01*
X54345000Y-147447000D01*
X54345000Y-148347000D01*
X54399271Y-148644023D01*
X54510446Y-148924751D01*
X54674252Y-149178396D01*
X54884394Y-149395210D01*
X55132796Y-149566862D01*
X55409913Y-149686755D01*
X55515260Y-149711036D01*
X55753000Y-149590378D01*
X55753000Y-147447000D01*
X56007000Y-147447000D01*
X56007000Y-149590378D01*
X56244740Y-149711036D01*
X56350087Y-149686755D01*
X56627204Y-149566862D01*
X56875606Y-149395210D01*
X57085748Y-149178396D01*
X57249554Y-148924751D01*
X57360729Y-148644023D01*
X57415000Y-148347000D01*
X57415000Y-147447000D01*
X56007000Y-147447000D01*
X55753000Y-147447000D01*
X54345000Y-147447000D01*
X53897000Y-147447000D01*
X53897000Y-146330245D01*
X53893332Y-146293000D01*
X54345000Y-146293000D01*
X54345000Y-147193000D01*
X55753000Y-147193000D01*
X55753000Y-145049622D01*
X56007000Y-145049622D01*
X56007000Y-147193000D01*
X57415000Y-147193000D01*
X57415000Y-146293000D01*
X57360729Y-145995977D01*
X57249554Y-145715249D01*
X57085748Y-145461604D01*
X56875606Y-145244790D01*
X56627204Y-145073138D01*
X56350087Y-144953245D01*
X56244740Y-144928964D01*
X56007000Y-145049622D01*
X55753000Y-145049622D01*
X55515260Y-144928964D01*
X55409913Y-144953245D01*
X55132796Y-145073138D01*
X54884394Y-145244790D01*
X54674252Y-145461604D01*
X54510446Y-145715249D01*
X54399271Y-145995977D01*
X54345000Y-146293000D01*
X53893332Y-146293000D01*
X53870565Y-146061845D01*
X53766095Y-145717454D01*
X53596445Y-145400062D01*
X53368135Y-145121865D01*
X53089937Y-144893555D01*
X52772545Y-144723905D01*
X52428154Y-144619435D01*
X52070000Y-144584160D01*
X51711845Y-144619435D01*
X51367454Y-144723905D01*
X51050062Y-144893555D01*
X50771865Y-145121865D01*
X50687000Y-145225274D01*
X50687000Y-136714725D01*
X50771866Y-136818135D01*
X51050063Y-137046445D01*
X51367455Y-137216095D01*
X51711846Y-137320565D01*
X52070000Y-137355840D01*
X52428155Y-137320565D01*
X52772546Y-137216095D01*
X53089938Y-137046445D01*
X53368135Y-136818135D01*
X53596445Y-136539938D01*
X53766095Y-136222546D01*
X53870565Y-135878155D01*
X53897000Y-135609755D01*
X53897000Y-134747000D01*
X54345000Y-134747000D01*
X54345000Y-135647000D01*
X54399271Y-135944023D01*
X54510446Y-136224751D01*
X54674252Y-136478396D01*
X54884394Y-136695210D01*
X55132796Y-136866862D01*
X55409913Y-136986755D01*
X55515260Y-137011036D01*
X55753000Y-136890378D01*
X55753000Y-134747000D01*
X56007000Y-134747000D01*
X56007000Y-136890378D01*
X56244740Y-137011036D01*
X56350087Y-136986755D01*
X56627204Y-136866862D01*
X56875606Y-136695210D01*
X57085748Y-136478396D01*
X57249554Y-136224751D01*
X57360729Y-135944023D01*
X57415000Y-135647000D01*
X57415000Y-134747000D01*
X56007000Y-134747000D01*
X55753000Y-134747000D01*
X54345000Y-134747000D01*
X53897000Y-134747000D01*
X53897000Y-133630245D01*
X53893332Y-133593000D01*
X54345000Y-133593000D01*
X54345000Y-134493000D01*
X55753000Y-134493000D01*
X55753000Y-132349622D01*
X56007000Y-132349622D01*
X56007000Y-134493000D01*
X57415000Y-134493000D01*
X57415000Y-133593000D01*
X57360729Y-133295977D01*
X57249554Y-133015249D01*
X57085748Y-132761604D01*
X56875606Y-132544790D01*
X56627204Y-132373138D01*
X56350087Y-132253245D01*
X56244740Y-132228964D01*
X56007000Y-132349622D01*
X55753000Y-132349622D01*
X55515260Y-132228964D01*
X55409913Y-132253245D01*
X55132796Y-132373138D01*
X54884394Y-132544790D01*
X54674252Y-132761604D01*
X54510446Y-133015249D01*
X54399271Y-133295977D01*
X54345000Y-133593000D01*
X53893332Y-133593000D01*
X53870565Y-133361845D01*
X53766095Y-133017454D01*
X53596445Y-132700062D01*
X53368135Y-132421865D01*
X53089937Y-132193555D01*
X52772545Y-132023905D01*
X52428154Y-131919435D01*
X52070000Y-131884160D01*
X51711845Y-131919435D01*
X51367454Y-132023905D01*
X51050062Y-132193555D01*
X50771865Y-132421865D01*
X50687000Y-132525274D01*
X50687000Y-124014725D01*
X50771866Y-124118135D01*
X51050063Y-124346445D01*
X51367455Y-124516095D01*
X51711846Y-124620565D01*
X52070000Y-124655840D01*
X52428155Y-124620565D01*
X52772546Y-124516095D01*
X53089938Y-124346445D01*
X53368135Y-124118135D01*
X53596445Y-123839938D01*
X53766095Y-123522546D01*
X53870565Y-123178155D01*
X53897000Y-122909755D01*
X53897000Y-122047000D01*
X54345000Y-122047000D01*
X54345000Y-122947000D01*
X54399271Y-123244023D01*
X54510446Y-123524751D01*
X54674252Y-123778396D01*
X54884394Y-123995210D01*
X55132796Y-124166862D01*
X55409913Y-124286755D01*
X55515260Y-124311036D01*
X55753000Y-124190378D01*
X55753000Y-122047000D01*
X56007000Y-122047000D01*
X56007000Y-124190378D01*
X56244740Y-124311036D01*
X56350087Y-124286755D01*
X56627204Y-124166862D01*
X56875606Y-123995210D01*
X57085748Y-123778396D01*
X57249554Y-123524751D01*
X57360729Y-123244023D01*
X57415000Y-122947000D01*
X57415000Y-122047000D01*
X56007000Y-122047000D01*
X55753000Y-122047000D01*
X54345000Y-122047000D01*
X53897000Y-122047000D01*
X53897000Y-120930245D01*
X53893332Y-120893000D01*
X54345000Y-120893000D01*
X54345000Y-121793000D01*
X55753000Y-121793000D01*
X55753000Y-119649622D01*
X56007000Y-119649622D01*
X56007000Y-121793000D01*
X57415000Y-121793000D01*
X57415000Y-120893000D01*
X57360729Y-120595977D01*
X57249554Y-120315249D01*
X57085748Y-120061604D01*
X56875606Y-119844790D01*
X56627204Y-119673138D01*
X56350087Y-119553245D01*
X56244740Y-119528964D01*
X56007000Y-119649622D01*
X55753000Y-119649622D01*
X55515260Y-119528964D01*
X55409913Y-119553245D01*
X55132796Y-119673138D01*
X54884394Y-119844790D01*
X54674252Y-120061604D01*
X54510446Y-120315249D01*
X54399271Y-120595977D01*
X54345000Y-120893000D01*
X53893332Y-120893000D01*
X53870565Y-120661845D01*
X53766095Y-120317454D01*
X53596445Y-120000062D01*
X53368135Y-119721865D01*
X53089937Y-119493555D01*
X52772545Y-119323905D01*
X52428154Y-119219435D01*
X52070000Y-119184160D01*
X51711845Y-119219435D01*
X51367454Y-119323905D01*
X51050062Y-119493555D01*
X50771865Y-119721865D01*
X50687000Y-119825274D01*
X50687000Y-111314725D01*
X50771866Y-111418135D01*
X51050063Y-111646445D01*
X51367455Y-111816095D01*
X51711846Y-111920565D01*
X52070000Y-111955840D01*
X52428155Y-111920565D01*
X52772546Y-111816095D01*
X53089938Y-111646445D01*
X53368135Y-111418135D01*
X53596445Y-111139938D01*
X53766095Y-110822546D01*
X53870565Y-110478155D01*
X53897000Y-110209755D01*
X53897000Y-109347000D01*
X54345000Y-109347000D01*
X54345000Y-110247000D01*
X54399271Y-110544023D01*
X54510446Y-110824751D01*
X54674252Y-111078396D01*
X54884394Y-111295210D01*
X55132796Y-111466862D01*
X55409913Y-111586755D01*
X55515260Y-111611036D01*
X55753000Y-111490378D01*
X55753000Y-109347000D01*
X56007000Y-109347000D01*
X56007000Y-111490378D01*
X56244740Y-111611036D01*
X56350087Y-111586755D01*
X56627204Y-111466862D01*
X56875606Y-111295210D01*
X57085748Y-111078396D01*
X57249554Y-110824751D01*
X57360729Y-110544023D01*
X57415000Y-110247000D01*
X57415000Y-109347000D01*
X56007000Y-109347000D01*
X55753000Y-109347000D01*
X54345000Y-109347000D01*
X53897000Y-109347000D01*
X53897000Y-108230245D01*
X53893332Y-108193000D01*
X54345000Y-108193000D01*
X54345000Y-109093000D01*
X55753000Y-109093000D01*
X55753000Y-106949622D01*
X56007000Y-106949622D01*
X56007000Y-109093000D01*
X57415000Y-109093000D01*
X57415000Y-108193000D01*
X57360729Y-107895977D01*
X57249554Y-107615249D01*
X57085748Y-107361604D01*
X56875606Y-107144790D01*
X56627204Y-106973138D01*
X56350087Y-106853245D01*
X56244740Y-106828964D01*
X56007000Y-106949622D01*
X55753000Y-106949622D01*
X55515260Y-106828964D01*
X55409913Y-106853245D01*
X55132796Y-106973138D01*
X54884394Y-107144790D01*
X54674252Y-107361604D01*
X54510446Y-107615249D01*
X54399271Y-107895977D01*
X54345000Y-108193000D01*
X53893332Y-108193000D01*
X53870565Y-107961845D01*
X53766095Y-107617454D01*
X53596445Y-107300062D01*
X53368135Y-107021865D01*
X53089937Y-106793555D01*
X52772545Y-106623905D01*
X52428154Y-106519435D01*
X52070000Y-106484160D01*
X51711845Y-106519435D01*
X51367454Y-106623905D01*
X51050062Y-106793555D01*
X50771865Y-107021865D01*
X50687000Y-107125274D01*
X50687000Y-98614725D01*
X50771866Y-98718135D01*
X51050063Y-98946445D01*
X51367455Y-99116095D01*
X51711846Y-99220565D01*
X52070000Y-99255840D01*
X52428155Y-99220565D01*
X52772546Y-99116095D01*
X53089938Y-98946445D01*
X53368135Y-98718135D01*
X53596445Y-98439938D01*
X53766095Y-98122546D01*
X53870565Y-97778155D01*
X53897000Y-97509755D01*
X53897000Y-96647000D01*
X54345000Y-96647000D01*
X54345000Y-97547000D01*
X54399271Y-97844023D01*
X54510446Y-98124751D01*
X54674252Y-98378396D01*
X54884394Y-98595210D01*
X55132796Y-98766862D01*
X55409913Y-98886755D01*
X55515260Y-98911036D01*
X55753000Y-98790378D01*
X55753000Y-96647000D01*
X56007000Y-96647000D01*
X56007000Y-98790378D01*
X56244740Y-98911036D01*
X56350087Y-98886755D01*
X56627204Y-98766862D01*
X56875606Y-98595210D01*
X57085748Y-98378396D01*
X57249554Y-98124751D01*
X57360729Y-97844023D01*
X57415000Y-97547000D01*
X57415000Y-96647000D01*
X56007000Y-96647000D01*
X55753000Y-96647000D01*
X54345000Y-96647000D01*
X53897000Y-96647000D01*
X53897000Y-95530245D01*
X53893332Y-95493000D01*
X54345000Y-95493000D01*
X54345000Y-96393000D01*
X55753000Y-96393000D01*
X55753000Y-94249622D01*
X56007000Y-94249622D01*
X56007000Y-96393000D01*
X57415000Y-96393000D01*
X57415000Y-95493000D01*
X57360729Y-95195977D01*
X57249554Y-94915249D01*
X57085748Y-94661604D01*
X56875606Y-94444790D01*
X56627204Y-94273138D01*
X56350087Y-94153245D01*
X56244740Y-94128964D01*
X56007000Y-94249622D01*
X55753000Y-94249622D01*
X55515260Y-94128964D01*
X55409913Y-94153245D01*
X55132796Y-94273138D01*
X54884394Y-94444790D01*
X54674252Y-94661604D01*
X54510446Y-94915249D01*
X54399271Y-95195977D01*
X54345000Y-95493000D01*
X53893332Y-95493000D01*
X53870565Y-95261845D01*
X53766095Y-94917454D01*
X53596445Y-94600062D01*
X53368135Y-94321865D01*
X53089937Y-94093555D01*
X52772545Y-93923905D01*
X52428154Y-93819435D01*
X52070000Y-93784160D01*
X51711845Y-93819435D01*
X51367454Y-93923905D01*
X51050062Y-94093555D01*
X50771865Y-94321865D01*
X50687000Y-94425274D01*
X50687000Y-85914725D01*
X50771866Y-86018135D01*
X51050063Y-86246445D01*
X51367455Y-86416095D01*
X51711846Y-86520565D01*
X52070000Y-86555840D01*
X52428155Y-86520565D01*
X52772546Y-86416095D01*
X53089938Y-86246445D01*
X53368135Y-86018135D01*
X53596445Y-85739938D01*
X53766095Y-85422546D01*
X53870565Y-85078155D01*
X53897000Y-84809755D01*
X53897000Y-83947000D01*
X54345000Y-83947000D01*
X54345000Y-84847000D01*
X54399271Y-85144023D01*
X54510446Y-85424751D01*
X54674252Y-85678396D01*
X54884394Y-85895210D01*
X55132796Y-86066862D01*
X55409913Y-86186755D01*
X55515260Y-86211036D01*
X55753000Y-86090378D01*
X55753000Y-83947000D01*
X56007000Y-83947000D01*
X56007000Y-86090378D01*
X56244740Y-86211036D01*
X56350087Y-86186755D01*
X56627204Y-86066862D01*
X56875606Y-85895210D01*
X57085748Y-85678396D01*
X57249554Y-85424751D01*
X57360729Y-85144023D01*
X57415000Y-84847000D01*
X57415000Y-83947000D01*
X56007000Y-83947000D01*
X55753000Y-83947000D01*
X54345000Y-83947000D01*
X53897000Y-83947000D01*
X53897000Y-82830245D01*
X53893332Y-82793000D01*
X54345000Y-82793000D01*
X54345000Y-83693000D01*
X55753000Y-83693000D01*
X55753000Y-81549622D01*
X56007000Y-81549622D01*
X56007000Y-83693000D01*
X57415000Y-83693000D01*
X57415000Y-82793000D01*
X57360729Y-82495977D01*
X57249554Y-82215249D01*
X57085748Y-81961604D01*
X56875606Y-81744790D01*
X56627204Y-81573138D01*
X56350087Y-81453245D01*
X56244740Y-81428964D01*
X56007000Y-81549622D01*
X55753000Y-81549622D01*
X55515260Y-81428964D01*
X55409913Y-81453245D01*
X55132796Y-81573138D01*
X54884394Y-81744790D01*
X54674252Y-81961604D01*
X54510446Y-82215249D01*
X54399271Y-82495977D01*
X54345000Y-82793000D01*
X53893332Y-82793000D01*
X53870565Y-82561845D01*
X53766095Y-82217454D01*
X53596445Y-81900062D01*
X53368135Y-81621865D01*
X53089937Y-81393555D01*
X52772545Y-81223905D01*
X52428154Y-81119435D01*
X52070000Y-81084160D01*
X51711845Y-81119435D01*
X51367454Y-81223905D01*
X51050062Y-81393555D01*
X50771865Y-81621865D01*
X50687000Y-81725274D01*
X50687000Y-73214725D01*
X50771866Y-73318135D01*
X51050063Y-73546445D01*
X51367455Y-73716095D01*
X51711846Y-73820565D01*
X52070000Y-73855840D01*
X52428155Y-73820565D01*
X52772546Y-73716095D01*
X53089938Y-73546445D01*
X53368135Y-73318135D01*
X53596445Y-73039938D01*
X53766095Y-72722546D01*
X53870565Y-72378155D01*
X53897000Y-72109755D01*
X53897000Y-71247000D01*
X54345000Y-71247000D01*
X54345000Y-72147000D01*
X54399271Y-72444023D01*
X54510446Y-72724751D01*
X54674252Y-72978396D01*
X54884394Y-73195210D01*
X55132796Y-73366862D01*
X55409913Y-73486755D01*
X55515260Y-73511036D01*
X55753000Y-73390378D01*
X55753000Y-71247000D01*
X56007000Y-71247000D01*
X56007000Y-73390378D01*
X56244740Y-73511036D01*
X56350087Y-73486755D01*
X56627204Y-73366862D01*
X56875606Y-73195210D01*
X57085748Y-72978396D01*
X57249554Y-72724751D01*
X57360729Y-72444023D01*
X57415000Y-72147000D01*
X57415000Y-71247000D01*
X56007000Y-71247000D01*
X55753000Y-71247000D01*
X54345000Y-71247000D01*
X53897000Y-71247000D01*
X53897000Y-70130245D01*
X53893332Y-70093000D01*
X54345000Y-70093000D01*
X54345000Y-70993000D01*
X55753000Y-70993000D01*
X55753000Y-68849622D01*
X56007000Y-68849622D01*
X56007000Y-70993000D01*
X57415000Y-70993000D01*
X57415000Y-70093000D01*
X57360729Y-69795977D01*
X57249554Y-69515249D01*
X57085748Y-69261604D01*
X56875606Y-69044790D01*
X56627204Y-68873138D01*
X56350087Y-68753245D01*
X56244740Y-68728964D01*
X56007000Y-68849622D01*
X55753000Y-68849622D01*
X55515260Y-68728964D01*
X55409913Y-68753245D01*
X55132796Y-68873138D01*
X54884394Y-69044790D01*
X54674252Y-69261604D01*
X54510446Y-69515249D01*
X54399271Y-69795977D01*
X54345000Y-70093000D01*
X53893332Y-70093000D01*
X53870565Y-69861845D01*
X53766095Y-69517454D01*
X53596445Y-69200062D01*
X53368135Y-68921865D01*
X53089937Y-68693555D01*
X52772545Y-68523905D01*
X52428154Y-68419435D01*
X52070000Y-68384160D01*
X51711845Y-68419435D01*
X51367454Y-68523905D01*
X51050062Y-68693555D01*
X50771865Y-68921865D01*
X50687000Y-69025274D01*
X50687000Y-60514725D01*
X50771866Y-60618135D01*
X51050063Y-60846445D01*
X51367455Y-61016095D01*
X51711846Y-61120565D01*
X52070000Y-61155840D01*
X52428155Y-61120565D01*
X52772546Y-61016095D01*
X53089938Y-60846445D01*
X53368135Y-60618135D01*
X53596445Y-60339938D01*
X53766095Y-60022546D01*
X53870565Y-59678155D01*
X53897000Y-59409755D01*
X53897000Y-58547000D01*
X54345000Y-58547000D01*
X54345000Y-59447000D01*
X54399271Y-59744023D01*
X54510446Y-60024751D01*
X54674252Y-60278396D01*
X54884394Y-60495210D01*
X55132796Y-60666862D01*
X55409913Y-60786755D01*
X55515260Y-60811036D01*
X55753000Y-60690378D01*
X55753000Y-58547000D01*
X56007000Y-58547000D01*
X56007000Y-60690378D01*
X56244740Y-60811036D01*
X56350087Y-60786755D01*
X56627204Y-60666862D01*
X56875606Y-60495210D01*
X57085748Y-60278396D01*
X57249554Y-60024751D01*
X57360729Y-59744023D01*
X57415000Y-59447000D01*
X57415000Y-58547000D01*
X56007000Y-58547000D01*
X55753000Y-58547000D01*
X54345000Y-58547000D01*
X53897000Y-58547000D01*
X53897000Y-57430245D01*
X53893332Y-57393000D01*
X54345000Y-57393000D01*
X54345000Y-58293000D01*
X55753000Y-58293000D01*
X55753000Y-56149622D01*
X56007000Y-56149622D01*
X56007000Y-58293000D01*
X57415000Y-58293000D01*
X57415000Y-57393000D01*
X57360729Y-57095977D01*
X57249554Y-56815249D01*
X57085748Y-56561604D01*
X56875606Y-56344790D01*
X56627204Y-56173138D01*
X56350087Y-56053245D01*
X56244740Y-56028964D01*
X56007000Y-56149622D01*
X55753000Y-56149622D01*
X55515260Y-56028964D01*
X55409913Y-56053245D01*
X55132796Y-56173138D01*
X54884394Y-56344790D01*
X54674252Y-56561604D01*
X54510446Y-56815249D01*
X54399271Y-57095977D01*
X54345000Y-57393000D01*
X53893332Y-57393000D01*
X53870565Y-57161845D01*
X53766095Y-56817454D01*
X53596445Y-56500062D01*
X53368135Y-56221865D01*
X53089937Y-55993555D01*
X52772545Y-55823905D01*
X52428154Y-55719435D01*
X52070000Y-55684160D01*
X51711845Y-55719435D01*
X51367454Y-55823905D01*
X51050062Y-55993555D01*
X50771865Y-56221865D01*
X50687000Y-56325274D01*
X50687000Y-55760772D01*
X50651883Y-55404225D01*
X50513105Y-54946733D01*
X50287741Y-54525107D01*
X49984452Y-54155548D01*
X49614893Y-53852259D01*
X49193267Y-53626895D01*
X48735775Y-53488117D01*
X48260000Y-53441257D01*
X47784226Y-53488117D01*
X47326734Y-53626895D01*
X46905108Y-53852259D01*
X46535549Y-54155548D01*
X46232260Y-54525107D01*
X46006896Y-54946733D01*
X45868118Y-55404225D01*
X45833001Y-55760772D01*
X45833000Y-195031650D01*
X45636395Y-195193000D01*
X36772404Y-195193000D01*
X32907000Y-191327597D01*
X32907000Y-187514725D01*
X32991866Y-187618135D01*
X33270063Y-187846445D01*
X33587455Y-188016095D01*
X33931846Y-188120565D01*
X34290000Y-188155840D01*
X34648155Y-188120565D01*
X34992546Y-188016095D01*
X35309938Y-187846445D01*
X35588135Y-187618135D01*
X35816445Y-187339938D01*
X35986095Y-187022546D01*
X36090565Y-186678155D01*
X36117000Y-186409755D01*
X36117000Y-185547000D01*
X36565000Y-185547000D01*
X36565000Y-186447000D01*
X36619271Y-186744023D01*
X36730446Y-187024751D01*
X36894252Y-187278396D01*
X37104394Y-187495210D01*
X37352796Y-187666862D01*
X37629913Y-187786755D01*
X37735260Y-187811036D01*
X37973000Y-187690378D01*
X37973000Y-185547000D01*
X38227000Y-185547000D01*
X38227000Y-187690378D01*
X38464740Y-187811036D01*
X38570087Y-187786755D01*
X38847204Y-187666862D01*
X39095606Y-187495210D01*
X39305748Y-187278396D01*
X39469554Y-187024751D01*
X39580729Y-186744023D01*
X39635000Y-186447000D01*
X39635000Y-185547000D01*
X38227000Y-185547000D01*
X37973000Y-185547000D01*
X36565000Y-185547000D01*
X36117000Y-185547000D01*
X36117000Y-184430245D01*
X36113332Y-184393000D01*
X36565000Y-184393000D01*
X36565000Y-185293000D01*
X37973000Y-185293000D01*
X37973000Y-183149622D01*
X38227000Y-183149622D01*
X38227000Y-185293000D01*
X39635000Y-185293000D01*
X39635000Y-184393000D01*
X39580729Y-184095977D01*
X39469554Y-183815249D01*
X39305748Y-183561604D01*
X39095606Y-183344790D01*
X38847204Y-183173138D01*
X38570087Y-183053245D01*
X38464740Y-183028964D01*
X38227000Y-183149622D01*
X37973000Y-183149622D01*
X37735260Y-183028964D01*
X37629913Y-183053245D01*
X37352796Y-183173138D01*
X37104394Y-183344790D01*
X36894252Y-183561604D01*
X36730446Y-183815249D01*
X36619271Y-184095977D01*
X36565000Y-184393000D01*
X36113332Y-184393000D01*
X36090565Y-184161845D01*
X35986095Y-183817454D01*
X35816445Y-183500062D01*
X35588135Y-183221865D01*
X35309937Y-182993555D01*
X34992545Y-182823905D01*
X34648154Y-182719435D01*
X34290000Y-182684160D01*
X33931845Y-182719435D01*
X33587454Y-182823905D01*
X33270062Y-182993555D01*
X32991865Y-183221865D01*
X32907000Y-183325274D01*
X32907000Y-174814725D01*
X32991866Y-174918135D01*
X33270063Y-175146445D01*
X33587455Y-175316095D01*
X33931846Y-175420565D01*
X34290000Y-175455840D01*
X34648155Y-175420565D01*
X34992546Y-175316095D01*
X35309938Y-175146445D01*
X35588135Y-174918135D01*
X35816445Y-174639938D01*
X35986095Y-174322546D01*
X36090565Y-173978155D01*
X36117000Y-173709755D01*
X36117000Y-172847000D01*
X36565000Y-172847000D01*
X36565000Y-173747000D01*
X36619271Y-174044023D01*
X36730446Y-174324751D01*
X36894252Y-174578396D01*
X37104394Y-174795210D01*
X37352796Y-174966862D01*
X37629913Y-175086755D01*
X37735260Y-175111036D01*
X37973000Y-174990378D01*
X37973000Y-172847000D01*
X38227000Y-172847000D01*
X38227000Y-174990378D01*
X38464740Y-175111036D01*
X38570087Y-175086755D01*
X38847204Y-174966862D01*
X39095606Y-174795210D01*
X39305748Y-174578396D01*
X39469554Y-174324751D01*
X39580729Y-174044023D01*
X39635000Y-173747000D01*
X39635000Y-172847000D01*
X38227000Y-172847000D01*
X37973000Y-172847000D01*
X36565000Y-172847000D01*
X36117000Y-172847000D01*
X36117000Y-171730245D01*
X36113332Y-171693000D01*
X36565000Y-171693000D01*
X36565000Y-172593000D01*
X37973000Y-172593000D01*
X37973000Y-170449622D01*
X38227000Y-170449622D01*
X38227000Y-172593000D01*
X39635000Y-172593000D01*
X39635000Y-171693000D01*
X39580729Y-171395977D01*
X39469554Y-171115249D01*
X39305748Y-170861604D01*
X39095606Y-170644790D01*
X38847204Y-170473138D01*
X38570087Y-170353245D01*
X38464740Y-170328964D01*
X38227000Y-170449622D01*
X37973000Y-170449622D01*
X37735260Y-170328964D01*
X37629913Y-170353245D01*
X37352796Y-170473138D01*
X37104394Y-170644790D01*
X36894252Y-170861604D01*
X36730446Y-171115249D01*
X36619271Y-171395977D01*
X36565000Y-171693000D01*
X36113332Y-171693000D01*
X36090565Y-171461845D01*
X35986095Y-171117454D01*
X35816445Y-170800062D01*
X35588135Y-170521865D01*
X35309937Y-170293555D01*
X34992545Y-170123905D01*
X34648154Y-170019435D01*
X34290000Y-169984160D01*
X33931845Y-170019435D01*
X33587454Y-170123905D01*
X33270062Y-170293555D01*
X32991865Y-170521865D01*
X32907000Y-170625274D01*
X32907000Y-162114725D01*
X32991866Y-162218135D01*
X33270063Y-162446445D01*
X33587455Y-162616095D01*
X33931846Y-162720565D01*
X34290000Y-162755840D01*
X34648155Y-162720565D01*
X34992546Y-162616095D01*
X35309938Y-162446445D01*
X35588135Y-162218135D01*
X35816445Y-161939938D01*
X35986095Y-161622546D01*
X36090565Y-161278155D01*
X36117000Y-161009755D01*
X36117000Y-160147000D01*
X36565000Y-160147000D01*
X36565000Y-161047000D01*
X36619271Y-161344023D01*
X36730446Y-161624751D01*
X36894252Y-161878396D01*
X37104394Y-162095210D01*
X37352796Y-162266862D01*
X37629913Y-162386755D01*
X37735260Y-162411036D01*
X37973000Y-162290378D01*
X37973000Y-160147000D01*
X38227000Y-160147000D01*
X38227000Y-162290378D01*
X38464740Y-162411036D01*
X38570087Y-162386755D01*
X38847204Y-162266862D01*
X39095606Y-162095210D01*
X39305748Y-161878396D01*
X39469554Y-161624751D01*
X39580729Y-161344023D01*
X39635000Y-161047000D01*
X39635000Y-160147000D01*
X38227000Y-160147000D01*
X37973000Y-160147000D01*
X36565000Y-160147000D01*
X36117000Y-160147000D01*
X36117000Y-159030245D01*
X36113332Y-158993000D01*
X36565000Y-158993000D01*
X36565000Y-159893000D01*
X37973000Y-159893000D01*
X37973000Y-157749622D01*
X38227000Y-157749622D01*
X38227000Y-159893000D01*
X39635000Y-159893000D01*
X39635000Y-158993000D01*
X39580729Y-158695977D01*
X39469554Y-158415249D01*
X39305748Y-158161604D01*
X39095606Y-157944790D01*
X38847204Y-157773138D01*
X38570087Y-157653245D01*
X38464740Y-157628964D01*
X38227000Y-157749622D01*
X37973000Y-157749622D01*
X37735260Y-157628964D01*
X37629913Y-157653245D01*
X37352796Y-157773138D01*
X37104394Y-157944790D01*
X36894252Y-158161604D01*
X36730446Y-158415249D01*
X36619271Y-158695977D01*
X36565000Y-158993000D01*
X36113332Y-158993000D01*
X36090565Y-158761845D01*
X35986095Y-158417454D01*
X35816445Y-158100062D01*
X35588135Y-157821865D01*
X35309937Y-157593555D01*
X34992545Y-157423905D01*
X34648154Y-157319435D01*
X34290000Y-157284160D01*
X33931845Y-157319435D01*
X33587454Y-157423905D01*
X33270062Y-157593555D01*
X32991865Y-157821865D01*
X32907000Y-157925274D01*
X32907000Y-149414725D01*
X32991866Y-149518135D01*
X33270063Y-149746445D01*
X33587455Y-149916095D01*
X33931846Y-150020565D01*
X34290000Y-150055840D01*
X34648155Y-150020565D01*
X34992546Y-149916095D01*
X35309938Y-149746445D01*
X35588135Y-149518135D01*
X35816445Y-149239938D01*
X35986095Y-148922546D01*
X36090565Y-148578155D01*
X36117000Y-148309755D01*
X36117000Y-147447000D01*
X36565000Y-147447000D01*
X36565000Y-148347000D01*
X36619271Y-148644023D01*
X36730446Y-148924751D01*
X36894252Y-149178396D01*
X37104394Y-149395210D01*
X37352796Y-149566862D01*
X37629913Y-149686755D01*
X37735260Y-149711036D01*
X37973000Y-149590378D01*
X37973000Y-147447000D01*
X38227000Y-147447000D01*
X38227000Y-149590378D01*
X38464740Y-149711036D01*
X38570087Y-149686755D01*
X38847204Y-149566862D01*
X39095606Y-149395210D01*
X39305748Y-149178396D01*
X39469554Y-148924751D01*
X39580729Y-148644023D01*
X39635000Y-148347000D01*
X39635000Y-147447000D01*
X38227000Y-147447000D01*
X37973000Y-147447000D01*
X36565000Y-147447000D01*
X36117000Y-147447000D01*
X36117000Y-146330245D01*
X36113332Y-146293000D01*
X36565000Y-146293000D01*
X36565000Y-147193000D01*
X37973000Y-147193000D01*
X37973000Y-145049622D01*
X38227000Y-145049622D01*
X38227000Y-147193000D01*
X39635000Y-147193000D01*
X39635000Y-146293000D01*
X39580729Y-145995977D01*
X39469554Y-145715249D01*
X39305748Y-145461604D01*
X39095606Y-145244790D01*
X38847204Y-145073138D01*
X38570087Y-144953245D01*
X38464740Y-144928964D01*
X38227000Y-145049622D01*
X37973000Y-145049622D01*
X37735260Y-144928964D01*
X37629913Y-144953245D01*
X37352796Y-145073138D01*
X37104394Y-145244790D01*
X36894252Y-145461604D01*
X36730446Y-145715249D01*
X36619271Y-145995977D01*
X36565000Y-146293000D01*
X36113332Y-146293000D01*
X36090565Y-146061845D01*
X35986095Y-145717454D01*
X35816445Y-145400062D01*
X35588135Y-145121865D01*
X35309937Y-144893555D01*
X34992545Y-144723905D01*
X34648154Y-144619435D01*
X34290000Y-144584160D01*
X33931845Y-144619435D01*
X33587454Y-144723905D01*
X33270062Y-144893555D01*
X32991865Y-145121865D01*
X32907000Y-145225274D01*
X32907000Y-136714725D01*
X32991866Y-136818135D01*
X33270063Y-137046445D01*
X33587455Y-137216095D01*
X33931846Y-137320565D01*
X34290000Y-137355840D01*
X34648155Y-137320565D01*
X34992546Y-137216095D01*
X35309938Y-137046445D01*
X35588135Y-136818135D01*
X35816445Y-136539938D01*
X35986095Y-136222546D01*
X36090565Y-135878155D01*
X36117000Y-135609755D01*
X36117000Y-134747000D01*
X36565000Y-134747000D01*
X36565000Y-135647000D01*
X36619271Y-135944023D01*
X36730446Y-136224751D01*
X36894252Y-136478396D01*
X37104394Y-136695210D01*
X37352796Y-136866862D01*
X37629913Y-136986755D01*
X37735260Y-137011036D01*
X37973000Y-136890378D01*
X37973000Y-134747000D01*
X38227000Y-134747000D01*
X38227000Y-136890378D01*
X38464740Y-137011036D01*
X38570087Y-136986755D01*
X38847204Y-136866862D01*
X39095606Y-136695210D01*
X39305748Y-136478396D01*
X39469554Y-136224751D01*
X39580729Y-135944023D01*
X39635000Y-135647000D01*
X39635000Y-134747000D01*
X38227000Y-134747000D01*
X37973000Y-134747000D01*
X36565000Y-134747000D01*
X36117000Y-134747000D01*
X36117000Y-133630245D01*
X36113332Y-133593000D01*
X36565000Y-133593000D01*
X36565000Y-134493000D01*
X37973000Y-134493000D01*
X37973000Y-132349622D01*
X38227000Y-132349622D01*
X38227000Y-134493000D01*
X39635000Y-134493000D01*
X39635000Y-133593000D01*
X39580729Y-133295977D01*
X39469554Y-133015249D01*
X39305748Y-132761604D01*
X39095606Y-132544790D01*
X38847204Y-132373138D01*
X38570087Y-132253245D01*
X38464740Y-132228964D01*
X38227000Y-132349622D01*
X37973000Y-132349622D01*
X37735260Y-132228964D01*
X37629913Y-132253245D01*
X37352796Y-132373138D01*
X37104394Y-132544790D01*
X36894252Y-132761604D01*
X36730446Y-133015249D01*
X36619271Y-133295977D01*
X36565000Y-133593000D01*
X36113332Y-133593000D01*
X36090565Y-133361845D01*
X35986095Y-133017454D01*
X35816445Y-132700062D01*
X35588135Y-132421865D01*
X35309937Y-132193555D01*
X34992545Y-132023905D01*
X34648154Y-131919435D01*
X34290000Y-131884160D01*
X33931845Y-131919435D01*
X33587454Y-132023905D01*
X33270062Y-132193555D01*
X32991865Y-132421865D01*
X32907000Y-132525274D01*
X32907000Y-124014725D01*
X32991866Y-124118135D01*
X33270063Y-124346445D01*
X33587455Y-124516095D01*
X33931846Y-124620565D01*
X34290000Y-124655840D01*
X34648155Y-124620565D01*
X34992546Y-124516095D01*
X35309938Y-124346445D01*
X35588135Y-124118135D01*
X35816445Y-123839938D01*
X35986095Y-123522546D01*
X36090565Y-123178155D01*
X36117000Y-122909755D01*
X36117000Y-122047000D01*
X36565000Y-122047000D01*
X36565000Y-122947000D01*
X36619271Y-123244023D01*
X36730446Y-123524751D01*
X36894252Y-123778396D01*
X37104394Y-123995210D01*
X37352796Y-124166862D01*
X37629913Y-124286755D01*
X37735260Y-124311036D01*
X37973000Y-124190378D01*
X37973000Y-122047000D01*
X38227000Y-122047000D01*
X38227000Y-124190378D01*
X38464740Y-124311036D01*
X38570087Y-124286755D01*
X38847204Y-124166862D01*
X39095606Y-123995210D01*
X39305748Y-123778396D01*
X39469554Y-123524751D01*
X39580729Y-123244023D01*
X39635000Y-122947000D01*
X39635000Y-122047000D01*
X38227000Y-122047000D01*
X37973000Y-122047000D01*
X36565000Y-122047000D01*
X36117000Y-122047000D01*
X36117000Y-120930245D01*
X36113332Y-120893000D01*
X36565000Y-120893000D01*
X36565000Y-121793000D01*
X37973000Y-121793000D01*
X37973000Y-119649622D01*
X38227000Y-119649622D01*
X38227000Y-121793000D01*
X39635000Y-121793000D01*
X39635000Y-120893000D01*
X39580729Y-120595977D01*
X39469554Y-120315249D01*
X39305748Y-120061604D01*
X39095606Y-119844790D01*
X38847204Y-119673138D01*
X38570087Y-119553245D01*
X38464740Y-119528964D01*
X38227000Y-119649622D01*
X37973000Y-119649622D01*
X37735260Y-119528964D01*
X37629913Y-119553245D01*
X37352796Y-119673138D01*
X37104394Y-119844790D01*
X36894252Y-120061604D01*
X36730446Y-120315249D01*
X36619271Y-120595977D01*
X36565000Y-120893000D01*
X36113332Y-120893000D01*
X36090565Y-120661845D01*
X35986095Y-120317454D01*
X35816445Y-120000062D01*
X35588135Y-119721865D01*
X35309937Y-119493555D01*
X34992545Y-119323905D01*
X34648154Y-119219435D01*
X34290000Y-119184160D01*
X33931845Y-119219435D01*
X33587454Y-119323905D01*
X33270062Y-119493555D01*
X32991865Y-119721865D01*
X32907000Y-119825274D01*
X32907000Y-111314725D01*
X32991866Y-111418135D01*
X33270063Y-111646445D01*
X33587455Y-111816095D01*
X33931846Y-111920565D01*
X34290000Y-111955840D01*
X34648155Y-111920565D01*
X34992546Y-111816095D01*
X35309938Y-111646445D01*
X35588135Y-111418135D01*
X35816445Y-111139938D01*
X35986095Y-110822546D01*
X36090565Y-110478155D01*
X36117000Y-110209755D01*
X36117000Y-109347000D01*
X36565000Y-109347000D01*
X36565000Y-110247000D01*
X36619271Y-110544023D01*
X36730446Y-110824751D01*
X36894252Y-111078396D01*
X37104394Y-111295210D01*
X37352796Y-111466862D01*
X37629913Y-111586755D01*
X37735260Y-111611036D01*
X37973000Y-111490378D01*
X37973000Y-109347000D01*
X38227000Y-109347000D01*
X38227000Y-111490378D01*
X38464740Y-111611036D01*
X38570087Y-111586755D01*
X38847204Y-111466862D01*
X39095606Y-111295210D01*
X39305748Y-111078396D01*
X39469554Y-110824751D01*
X39580729Y-110544023D01*
X39635000Y-110247000D01*
X39635000Y-109347000D01*
X38227000Y-109347000D01*
X37973000Y-109347000D01*
X36565000Y-109347000D01*
X36117000Y-109347000D01*
X36117000Y-108230245D01*
X36113332Y-108193000D01*
X36565000Y-108193000D01*
X36565000Y-109093000D01*
X37973000Y-109093000D01*
X37973000Y-106949622D01*
X38227000Y-106949622D01*
X38227000Y-109093000D01*
X39635000Y-109093000D01*
X39635000Y-108193000D01*
X39580729Y-107895977D01*
X39469554Y-107615249D01*
X39305748Y-107361604D01*
X39095606Y-107144790D01*
X38847204Y-106973138D01*
X38570087Y-106853245D01*
X38464740Y-106828964D01*
X38227000Y-106949622D01*
X37973000Y-106949622D01*
X37735260Y-106828964D01*
X37629913Y-106853245D01*
X37352796Y-106973138D01*
X37104394Y-107144790D01*
X36894252Y-107361604D01*
X36730446Y-107615249D01*
X36619271Y-107895977D01*
X36565000Y-108193000D01*
X36113332Y-108193000D01*
X36090565Y-107961845D01*
X35986095Y-107617454D01*
X35816445Y-107300062D01*
X35588135Y-107021865D01*
X35309937Y-106793555D01*
X34992545Y-106623905D01*
X34648154Y-106519435D01*
X34290000Y-106484160D01*
X33931845Y-106519435D01*
X33587454Y-106623905D01*
X33270062Y-106793555D01*
X32991865Y-107021865D01*
X32907000Y-107125274D01*
X32907000Y-98614725D01*
X32991866Y-98718135D01*
X33270063Y-98946445D01*
X33587455Y-99116095D01*
X33931846Y-99220565D01*
X34290000Y-99255840D01*
X34648155Y-99220565D01*
X34992546Y-99116095D01*
X35309938Y-98946445D01*
X35588135Y-98718135D01*
X35816445Y-98439938D01*
X35986095Y-98122546D01*
X36090565Y-97778155D01*
X36117000Y-97509755D01*
X36117000Y-96647000D01*
X36565000Y-96647000D01*
X36565000Y-97547000D01*
X36619271Y-97844023D01*
X36730446Y-98124751D01*
X36894252Y-98378396D01*
X37104394Y-98595210D01*
X37352796Y-98766862D01*
X37629913Y-98886755D01*
X37735260Y-98911036D01*
X37973000Y-98790378D01*
X37973000Y-96647000D01*
X38227000Y-96647000D01*
X38227000Y-98790378D01*
X38464740Y-98911036D01*
X38570087Y-98886755D01*
X38847204Y-98766862D01*
X39095606Y-98595210D01*
X39305748Y-98378396D01*
X39469554Y-98124751D01*
X39580729Y-97844023D01*
X39635000Y-97547000D01*
X39635000Y-96647000D01*
X38227000Y-96647000D01*
X37973000Y-96647000D01*
X36565000Y-96647000D01*
X36117000Y-96647000D01*
X36117000Y-95530245D01*
X36113332Y-95493000D01*
X36565000Y-95493000D01*
X36565000Y-96393000D01*
X37973000Y-96393000D01*
X37973000Y-94249622D01*
X38227000Y-94249622D01*
X38227000Y-96393000D01*
X39635000Y-96393000D01*
X39635000Y-95493000D01*
X39580729Y-95195977D01*
X39469554Y-94915249D01*
X39305748Y-94661604D01*
X39095606Y-94444790D01*
X38847204Y-94273138D01*
X38570087Y-94153245D01*
X38464740Y-94128964D01*
X38227000Y-94249622D01*
X37973000Y-94249622D01*
X37735260Y-94128964D01*
X37629913Y-94153245D01*
X37352796Y-94273138D01*
X37104394Y-94444790D01*
X36894252Y-94661604D01*
X36730446Y-94915249D01*
X36619271Y-95195977D01*
X36565000Y-95493000D01*
X36113332Y-95493000D01*
X36090565Y-95261845D01*
X35986095Y-94917454D01*
X35816445Y-94600062D01*
X35588135Y-94321865D01*
X35309937Y-94093555D01*
X34992545Y-93923905D01*
X34648154Y-93819435D01*
X34290000Y-93784160D01*
X33931845Y-93819435D01*
X33587454Y-93923905D01*
X33270062Y-94093555D01*
X32991865Y-94321865D01*
X32907000Y-94425274D01*
X32907000Y-85914725D01*
X32991866Y-86018135D01*
X33270063Y-86246445D01*
X33587455Y-86416095D01*
X33931846Y-86520565D01*
X34290000Y-86555840D01*
X34648155Y-86520565D01*
X34992546Y-86416095D01*
X35309938Y-86246445D01*
X35588135Y-86018135D01*
X35816445Y-85739938D01*
X35986095Y-85422546D01*
X36090565Y-85078155D01*
X36117000Y-84809755D01*
X36117000Y-83947000D01*
X36565000Y-83947000D01*
X36565000Y-84847000D01*
X36619271Y-85144023D01*
X36730446Y-85424751D01*
X36894252Y-85678396D01*
X37104394Y-85895210D01*
X37352796Y-86066862D01*
X37629913Y-86186755D01*
X37735260Y-86211036D01*
X37973000Y-86090378D01*
X37973000Y-83947000D01*
X38227000Y-83947000D01*
X38227000Y-86090378D01*
X38464740Y-86211036D01*
X38570087Y-86186755D01*
X38847204Y-86066862D01*
X39095606Y-85895210D01*
X39305748Y-85678396D01*
X39469554Y-85424751D01*
X39580729Y-85144023D01*
X39635000Y-84847000D01*
X39635000Y-83947000D01*
X38227000Y-83947000D01*
X37973000Y-83947000D01*
X36565000Y-83947000D01*
X36117000Y-83947000D01*
X36117000Y-82830245D01*
X36113332Y-82793000D01*
X36565000Y-82793000D01*
X36565000Y-83693000D01*
X37973000Y-83693000D01*
X37973000Y-81549622D01*
X38227000Y-81549622D01*
X38227000Y-83693000D01*
X39635000Y-83693000D01*
X39635000Y-82793000D01*
X39580729Y-82495977D01*
X39469554Y-82215249D01*
X39305748Y-81961604D01*
X39095606Y-81744790D01*
X38847204Y-81573138D01*
X38570087Y-81453245D01*
X38464740Y-81428964D01*
X38227000Y-81549622D01*
X37973000Y-81549622D01*
X37735260Y-81428964D01*
X37629913Y-81453245D01*
X37352796Y-81573138D01*
X37104394Y-81744790D01*
X36894252Y-81961604D01*
X36730446Y-82215249D01*
X36619271Y-82495977D01*
X36565000Y-82793000D01*
X36113332Y-82793000D01*
X36090565Y-82561845D01*
X35986095Y-82217454D01*
X35816445Y-81900062D01*
X35588135Y-81621865D01*
X35309937Y-81393555D01*
X34992545Y-81223905D01*
X34648154Y-81119435D01*
X34290000Y-81084160D01*
X33931845Y-81119435D01*
X33587454Y-81223905D01*
X33270062Y-81393555D01*
X32991865Y-81621865D01*
X32907000Y-81725274D01*
X32907000Y-73214725D01*
X32991866Y-73318135D01*
X33270063Y-73546445D01*
X33587455Y-73716095D01*
X33931846Y-73820565D01*
X34290000Y-73855840D01*
X34648155Y-73820565D01*
X34992546Y-73716095D01*
X35309938Y-73546445D01*
X35588135Y-73318135D01*
X35816445Y-73039938D01*
X35986095Y-72722546D01*
X36090565Y-72378155D01*
X36117000Y-72109755D01*
X36117000Y-71247000D01*
X36565000Y-71247000D01*
X36565000Y-72147000D01*
X36619271Y-72444023D01*
X36730446Y-72724751D01*
X36894252Y-72978396D01*
X37104394Y-73195210D01*
X37352796Y-73366862D01*
X37629913Y-73486755D01*
X37735260Y-73511036D01*
X37973000Y-73390378D01*
X37973000Y-71247000D01*
X38227000Y-71247000D01*
X38227000Y-73390378D01*
X38464740Y-73511036D01*
X38570087Y-73486755D01*
X38847204Y-73366862D01*
X39095606Y-73195210D01*
X39305748Y-72978396D01*
X39469554Y-72724751D01*
X39580729Y-72444023D01*
X39635000Y-72147000D01*
X39635000Y-71247000D01*
X38227000Y-71247000D01*
X37973000Y-71247000D01*
X36565000Y-71247000D01*
X36117000Y-71247000D01*
X36117000Y-70130245D01*
X36113332Y-70093000D01*
X36565000Y-70093000D01*
X36565000Y-70993000D01*
X37973000Y-70993000D01*
X37973000Y-68849622D01*
X38227000Y-68849622D01*
X38227000Y-70993000D01*
X39635000Y-70993000D01*
X39635000Y-70093000D01*
X39580729Y-69795977D01*
X39469554Y-69515249D01*
X39305748Y-69261604D01*
X39095606Y-69044790D01*
X38847204Y-68873138D01*
X38570087Y-68753245D01*
X38464740Y-68728964D01*
X38227000Y-68849622D01*
X37973000Y-68849622D01*
X37735260Y-68728964D01*
X37629913Y-68753245D01*
X37352796Y-68873138D01*
X37104394Y-69044790D01*
X36894252Y-69261604D01*
X36730446Y-69515249D01*
X36619271Y-69795977D01*
X36565000Y-70093000D01*
X36113332Y-70093000D01*
X36090565Y-69861845D01*
X35986095Y-69517454D01*
X35816445Y-69200062D01*
X35588135Y-68921865D01*
X35309937Y-68693555D01*
X34992545Y-68523905D01*
X34648154Y-68419435D01*
X34290000Y-68384160D01*
X33931845Y-68419435D01*
X33587454Y-68523905D01*
X33270062Y-68693555D01*
X32991865Y-68921865D01*
X32907000Y-69025274D01*
X32907000Y-60514725D01*
X32991866Y-60618135D01*
X33270063Y-60846445D01*
X33587455Y-61016095D01*
X33931846Y-61120565D01*
X34290000Y-61155840D01*
X34648155Y-61120565D01*
X34992546Y-61016095D01*
X35309938Y-60846445D01*
X35588135Y-60618135D01*
X35816445Y-60339938D01*
X35986095Y-60022546D01*
X36090565Y-59678155D01*
X36117000Y-59409755D01*
X36117000Y-58547000D01*
X36565000Y-58547000D01*
X36565000Y-59447000D01*
X36619271Y-59744023D01*
X36730446Y-60024751D01*
X36894252Y-60278396D01*
X37104394Y-60495210D01*
X37352796Y-60666862D01*
X37629913Y-60786755D01*
X37735260Y-60811036D01*
X37973000Y-60690378D01*
X37973000Y-58547000D01*
X38227000Y-58547000D01*
X38227000Y-60690378D01*
X38464740Y-60811036D01*
X38570087Y-60786755D01*
X38847204Y-60666862D01*
X39095606Y-60495210D01*
X39305748Y-60278396D01*
X39469554Y-60024751D01*
X39580729Y-59744023D01*
X39635000Y-59447000D01*
X39635000Y-58547000D01*
X38227000Y-58547000D01*
X37973000Y-58547000D01*
X36565000Y-58547000D01*
X36117000Y-58547000D01*
X36117000Y-57430245D01*
X36113332Y-57393000D01*
X36565000Y-57393000D01*
X36565000Y-58293000D01*
X37973000Y-58293000D01*
X37973000Y-56149622D01*
X38227000Y-56149622D01*
X38227000Y-58293000D01*
X39635000Y-58293000D01*
X39635000Y-57393000D01*
X39580729Y-57095977D01*
X39469554Y-56815249D01*
X39305748Y-56561604D01*
X39095606Y-56344790D01*
X38847204Y-56173138D01*
X38570087Y-56053245D01*
X38464740Y-56028964D01*
X38227000Y-56149622D01*
X37973000Y-56149622D01*
X37735260Y-56028964D01*
X37629913Y-56053245D01*
X37352796Y-56173138D01*
X37104394Y-56344790D01*
X36894252Y-56561604D01*
X36730446Y-56815249D01*
X36619271Y-57095977D01*
X36565000Y-57393000D01*
X36113332Y-57393000D01*
X36090565Y-57161845D01*
X35986095Y-56817454D01*
X35816445Y-56500062D01*
X35588135Y-56221865D01*
X35309937Y-55993555D01*
X34992545Y-55823905D01*
X34648154Y-55719435D01*
X34290000Y-55684160D01*
X33931845Y-55719435D01*
X33587454Y-55823905D01*
X33270062Y-55993555D01*
X32991865Y-56221865D01*
X32907000Y-56325274D01*
X32907000Y-55760772D01*
X32871883Y-55404225D01*
X32733105Y-54946733D01*
X32507741Y-54525107D01*
X32204452Y-54155548D01*
X31834893Y-53852259D01*
X31413267Y-53626895D01*
X30955775Y-53488117D01*
X30480000Y-53441257D01*
X30004226Y-53488117D01*
X29546734Y-53626895D01*
X29125108Y-53852259D01*
X28755549Y-54155548D01*
X28452260Y-54525107D01*
X28226896Y-54946733D01*
X28088118Y-55404225D01*
X28053001Y-55760772D01*
X28053000Y-191383454D01*
X28034514Y-191405979D01*
X27762721Y-191914467D01*
X27595352Y-192466208D01*
X27538838Y-193040000D01*
X18732000Y-193040000D01*
X18732000Y-50551112D01*
X20333000Y-50551112D01*
X20333000Y-51048888D01*
X20430111Y-51537099D01*
X20620602Y-51996983D01*
X20897151Y-52410869D01*
X21249131Y-52762849D01*
X21663017Y-53039398D01*
X22122901Y-53229889D01*
X22611112Y-53327000D01*
X23108888Y-53327000D01*
X23597099Y-53229889D01*
X24056983Y-53039398D01*
X24470869Y-52762849D01*
X24822849Y-52410869D01*
X25099398Y-51996983D01*
X25289889Y-51537099D01*
X25387000Y-51048888D01*
X25387000Y-50551112D01*
X78753000Y-50551112D01*
X78753000Y-51048888D01*
X78850111Y-51537099D01*
X79040602Y-51996983D01*
X79317151Y-52410869D01*
X79669131Y-52762849D01*
X80083017Y-53039398D01*
X80542901Y-53229889D01*
X81031112Y-53327000D01*
X81528888Y-53327000D01*
X82017099Y-53229889D01*
X82476983Y-53039398D01*
X82890869Y-52762849D01*
X83242849Y-52410869D01*
X83519398Y-51996983D01*
X83709889Y-51537099D01*
X83807000Y-51048888D01*
X83807000Y-50551112D01*
X83709889Y-50062901D01*
X83519398Y-49603017D01*
X83242849Y-49189131D01*
X82890869Y-48837151D01*
X82476983Y-48560602D01*
X82017099Y-48370111D01*
X81528888Y-48273000D01*
X81031112Y-48273000D01*
X80542901Y-48370111D01*
X80083017Y-48560602D01*
X79669131Y-48837151D01*
X79317151Y-49189131D01*
X79040602Y-49603017D01*
X78850111Y-50062901D01*
X78753000Y-50551112D01*
X25387000Y-50551112D01*
X25289889Y-50062901D01*
X25099398Y-49603017D01*
X24822849Y-49189131D01*
X24470869Y-48837151D01*
X24056983Y-48560602D01*
X23597099Y-48370111D01*
X23108888Y-48273000D01*
X22611112Y-48273000D01*
X22122901Y-48370111D01*
X21663017Y-48560602D01*
X21249131Y-48837151D01*
X20897151Y-49189131D01*
X20620602Y-49603017D01*
X20430111Y-50062901D01*
X20333000Y-50551112D01*
X18732000Y-50551112D01*
X18732000Y-48306556D01*
X18766721Y-47952444D01*
X18856041Y-47656601D01*
X19001124Y-47383740D01*
X19196440Y-47144258D01*
X19434554Y-46947274D01*
X19706394Y-46800290D01*
X20001607Y-46708907D01*
X20352751Y-46672000D01*
X83773444Y-46672000D01*
X84127556Y-46706721D01*
M02*
