G04 #@! TF.GenerationSoftware,KiCad,Pcbnew,(5.1.4)-1*
G04 #@! TF.CreationDate,2020-10-01T19:52:32+02:00*
G04 #@! TF.ProjectId,distrib,64697374-7269-4622-9e6b-696361645f70,rev?*
G04 #@! TF.SameCoordinates,Original*
G04 #@! TF.FileFunction,Soldermask,Top*
G04 #@! TF.FilePolarity,Negative*
%FSLAX46Y46*%
G04 Gerber Fmt 4.6, Leading zero omitted, Abs format (unit mm)*
G04 Created by KiCad (PCBNEW (5.1.4)-1) date 2020-10-01 19:52:32*
%MOMM*%
%LPD*%
G04 APERTURE LIST*
%ADD10C,0.100000*%
G04 APERTURE END LIST*
D10*
G36*
X81655256Y-214291298D02*
G01*
X81761579Y-214312447D01*
X82062042Y-214436903D01*
X82332451Y-214617585D01*
X82562415Y-214847549D01*
X82743097Y-215117958D01*
X82867553Y-215418421D01*
X82931000Y-215737391D01*
X82931000Y-216062609D01*
X82867553Y-216381579D01*
X82743097Y-216682042D01*
X82562415Y-216952451D01*
X82332451Y-217182415D01*
X82062042Y-217363097D01*
X81761579Y-217487553D01*
X81655256Y-217508702D01*
X81442611Y-217551000D01*
X81117389Y-217551000D01*
X80904744Y-217508702D01*
X80798421Y-217487553D01*
X80497958Y-217363097D01*
X80227549Y-217182415D01*
X79997585Y-216952451D01*
X79816903Y-216682042D01*
X79692447Y-216381579D01*
X79629000Y-216062609D01*
X79629000Y-215737391D01*
X79692447Y-215418421D01*
X79816903Y-215117958D01*
X79997585Y-214847549D01*
X80227549Y-214617585D01*
X80497958Y-214436903D01*
X80798421Y-214312447D01*
X80904744Y-214291298D01*
X81117389Y-214249000D01*
X81442611Y-214249000D01*
X81655256Y-214291298D01*
X81655256Y-214291298D01*
G37*
G36*
X23235256Y-214291298D02*
G01*
X23341579Y-214312447D01*
X23642042Y-214436903D01*
X23912451Y-214617585D01*
X24142415Y-214847549D01*
X24323097Y-215117958D01*
X24447553Y-215418421D01*
X24511000Y-215737391D01*
X24511000Y-216062609D01*
X24447553Y-216381579D01*
X24323097Y-216682042D01*
X24142415Y-216952451D01*
X23912451Y-217182415D01*
X23642042Y-217363097D01*
X23341579Y-217487553D01*
X23235256Y-217508702D01*
X23022611Y-217551000D01*
X22697389Y-217551000D01*
X22484744Y-217508702D01*
X22378421Y-217487553D01*
X22077958Y-217363097D01*
X21807549Y-217182415D01*
X21577585Y-216952451D01*
X21396903Y-216682042D01*
X21272447Y-216381579D01*
X21209000Y-216062609D01*
X21209000Y-215737391D01*
X21272447Y-215418421D01*
X21396903Y-215117958D01*
X21577585Y-214847549D01*
X21807549Y-214617585D01*
X22077958Y-214436903D01*
X22378421Y-214312447D01*
X22484744Y-214291298D01*
X22697389Y-214249000D01*
X23022611Y-214249000D01*
X23235256Y-214291298D01*
X23235256Y-214291298D01*
G37*
G36*
X56349943Y-202806248D02*
G01*
X56905189Y-203036238D01*
X56905190Y-203036239D01*
X57404899Y-203370134D01*
X57829866Y-203795101D01*
X57829867Y-203795103D01*
X58163762Y-204294811D01*
X58393752Y-204850057D01*
X58511000Y-205439501D01*
X58511000Y-206040499D01*
X58393752Y-206629943D01*
X58163762Y-207185189D01*
X58163761Y-207185190D01*
X57829866Y-207684899D01*
X57404899Y-208109866D01*
X57153347Y-208277948D01*
X56905189Y-208443762D01*
X56349943Y-208673752D01*
X55760499Y-208791000D01*
X55159501Y-208791000D01*
X54570057Y-208673752D01*
X54014811Y-208443762D01*
X53766653Y-208277948D01*
X53515101Y-208109866D01*
X53090134Y-207684899D01*
X52756239Y-207185190D01*
X52756238Y-207185189D01*
X52526248Y-206629943D01*
X52409000Y-206040499D01*
X52409000Y-205439501D01*
X52526248Y-204850057D01*
X52756238Y-204294811D01*
X53090133Y-203795103D01*
X53090134Y-203795101D01*
X53515101Y-203370134D01*
X54014810Y-203036239D01*
X54014811Y-203036238D01*
X54570057Y-202806248D01*
X55159501Y-202689000D01*
X55760499Y-202689000D01*
X56349943Y-202806248D01*
X56349943Y-202806248D01*
G37*
G36*
X50133297Y-202717704D02*
G01*
X50407637Y-202800924D01*
X50660462Y-202936062D01*
X50882070Y-203117930D01*
X51063938Y-203339538D01*
X51199076Y-203592363D01*
X51282296Y-203866703D01*
X51311000Y-204158140D01*
X51311000Y-207321860D01*
X51282296Y-207613297D01*
X51199076Y-207887637D01*
X51063938Y-208140462D01*
X50882070Y-208362070D01*
X50660462Y-208543938D01*
X50407637Y-208679076D01*
X50133297Y-208762296D01*
X49841860Y-208791000D01*
X46678140Y-208791000D01*
X46386703Y-208762296D01*
X46112363Y-208679076D01*
X45859538Y-208543938D01*
X45637930Y-208362070D01*
X45456062Y-208140462D01*
X45320924Y-207887637D01*
X45237704Y-207613297D01*
X45209000Y-207321860D01*
X45209000Y-204158140D01*
X45237704Y-203866703D01*
X45320924Y-203592363D01*
X45456062Y-203339538D01*
X45637930Y-203117930D01*
X45859538Y-202936062D01*
X46112363Y-202800924D01*
X46386703Y-202717704D01*
X46678140Y-202689000D01*
X49841860Y-202689000D01*
X50133297Y-202717704D01*
X50133297Y-202717704D01*
G37*
G36*
X38286424Y-183582760D02*
G01*
X38286427Y-183582761D01*
X38286428Y-183582761D01*
X38465692Y-183637140D01*
X38465695Y-183637142D01*
X38465696Y-183637142D01*
X38630903Y-183725446D01*
X38775712Y-183844288D01*
X38894554Y-183989097D01*
X38982858Y-184154303D01*
X38982860Y-184154307D01*
X38982860Y-184154308D01*
X39037240Y-184333575D01*
X39051000Y-184473282D01*
X39051000Y-186366718D01*
X39037240Y-186506425D01*
X39037239Y-186506428D01*
X39037239Y-186506429D01*
X38982860Y-186685693D01*
X38982858Y-186685696D01*
X38982858Y-186685697D01*
X38894554Y-186850903D01*
X38775712Y-186995712D01*
X38630903Y-187114554D01*
X38465697Y-187202858D01*
X38465693Y-187202860D01*
X38286429Y-187257239D01*
X38286428Y-187257239D01*
X38286425Y-187257240D01*
X38100000Y-187275601D01*
X37913576Y-187257240D01*
X37913573Y-187257239D01*
X37913572Y-187257239D01*
X37734308Y-187202860D01*
X37734304Y-187202858D01*
X37569098Y-187114554D01*
X37424289Y-186995712D01*
X37305447Y-186850903D01*
X37217143Y-186685697D01*
X37217143Y-186685696D01*
X37217141Y-186685693D01*
X37162762Y-186506429D01*
X37162762Y-186506428D01*
X37162761Y-186506425D01*
X37149000Y-186366717D01*
X37149000Y-184473283D01*
X37162760Y-184333576D01*
X37162761Y-184333572D01*
X37217140Y-184154308D01*
X37217143Y-184154303D01*
X37305446Y-183989097D01*
X37424288Y-183844288D01*
X37569097Y-183725446D01*
X37734303Y-183637142D01*
X37734304Y-183637142D01*
X37734307Y-183637140D01*
X37913571Y-183582761D01*
X37913572Y-183582761D01*
X37913575Y-183582760D01*
X38100000Y-183564399D01*
X38286424Y-183582760D01*
X38286424Y-183582760D01*
G37*
G36*
X70036424Y-183582760D02*
G01*
X70036427Y-183582761D01*
X70036428Y-183582761D01*
X70215692Y-183637140D01*
X70215695Y-183637142D01*
X70215696Y-183637142D01*
X70380903Y-183725446D01*
X70525712Y-183844288D01*
X70644554Y-183989097D01*
X70732858Y-184154303D01*
X70732860Y-184154307D01*
X70732860Y-184154308D01*
X70787240Y-184333575D01*
X70801000Y-184473282D01*
X70801000Y-186366718D01*
X70787240Y-186506425D01*
X70787239Y-186506428D01*
X70787239Y-186506429D01*
X70732860Y-186685693D01*
X70732858Y-186685696D01*
X70732858Y-186685697D01*
X70644554Y-186850903D01*
X70525712Y-186995712D01*
X70380903Y-187114554D01*
X70215697Y-187202858D01*
X70215693Y-187202860D01*
X70036429Y-187257239D01*
X70036428Y-187257239D01*
X70036425Y-187257240D01*
X69850000Y-187275601D01*
X69663576Y-187257240D01*
X69663573Y-187257239D01*
X69663572Y-187257239D01*
X69484308Y-187202860D01*
X69484304Y-187202858D01*
X69319098Y-187114554D01*
X69174289Y-186995712D01*
X69055447Y-186850903D01*
X68967143Y-186685697D01*
X68967143Y-186685696D01*
X68967141Y-186685693D01*
X68912762Y-186506429D01*
X68912762Y-186506428D01*
X68912761Y-186506425D01*
X68899000Y-186366717D01*
X68899000Y-184473283D01*
X68912760Y-184333576D01*
X68912761Y-184333572D01*
X68967140Y-184154308D01*
X68967143Y-184154303D01*
X69055446Y-183989097D01*
X69174288Y-183844288D01*
X69319097Y-183725446D01*
X69484303Y-183637142D01*
X69484304Y-183637142D01*
X69484307Y-183637140D01*
X69663571Y-183582761D01*
X69663572Y-183582761D01*
X69663575Y-183582760D01*
X69850000Y-183564399D01*
X70036424Y-183582760D01*
X70036424Y-183582760D01*
G37*
G36*
X73846424Y-183582760D02*
G01*
X73846427Y-183582761D01*
X73846428Y-183582761D01*
X74025692Y-183637140D01*
X74025695Y-183637142D01*
X74025696Y-183637142D01*
X74190903Y-183725446D01*
X74335712Y-183844288D01*
X74454554Y-183989097D01*
X74542858Y-184154303D01*
X74542860Y-184154307D01*
X74542860Y-184154308D01*
X74597240Y-184333575D01*
X74611000Y-184473282D01*
X74611000Y-186366718D01*
X74597240Y-186506425D01*
X74597239Y-186506428D01*
X74597239Y-186506429D01*
X74542860Y-186685693D01*
X74542858Y-186685696D01*
X74542858Y-186685697D01*
X74454554Y-186850903D01*
X74335712Y-186995712D01*
X74190903Y-187114554D01*
X74025697Y-187202858D01*
X74025693Y-187202860D01*
X73846429Y-187257239D01*
X73846428Y-187257239D01*
X73846425Y-187257240D01*
X73660000Y-187275601D01*
X73473576Y-187257240D01*
X73473573Y-187257239D01*
X73473572Y-187257239D01*
X73294308Y-187202860D01*
X73294304Y-187202858D01*
X73129098Y-187114554D01*
X72984289Y-186995712D01*
X72865447Y-186850903D01*
X72777143Y-186685697D01*
X72777143Y-186685696D01*
X72777141Y-186685693D01*
X72722762Y-186506429D01*
X72722762Y-186506428D01*
X72722761Y-186506425D01*
X72709000Y-186366717D01*
X72709000Y-184473283D01*
X72722760Y-184333576D01*
X72722761Y-184333572D01*
X72777140Y-184154308D01*
X72777143Y-184154303D01*
X72865446Y-183989097D01*
X72984288Y-183844288D01*
X73129097Y-183725446D01*
X73294303Y-183637142D01*
X73294304Y-183637142D01*
X73294307Y-183637140D01*
X73473571Y-183582761D01*
X73473572Y-183582761D01*
X73473575Y-183582760D01*
X73660000Y-183564399D01*
X73846424Y-183582760D01*
X73846424Y-183582760D01*
G37*
G36*
X52256424Y-183582760D02*
G01*
X52256427Y-183582761D01*
X52256428Y-183582761D01*
X52435692Y-183637140D01*
X52435695Y-183637142D01*
X52435696Y-183637142D01*
X52600903Y-183725446D01*
X52745712Y-183844288D01*
X52864554Y-183989097D01*
X52952858Y-184154303D01*
X52952860Y-184154307D01*
X52952860Y-184154308D01*
X53007240Y-184333575D01*
X53021000Y-184473282D01*
X53021000Y-186366718D01*
X53007240Y-186506425D01*
X53007239Y-186506428D01*
X53007239Y-186506429D01*
X52952860Y-186685693D01*
X52952858Y-186685696D01*
X52952858Y-186685697D01*
X52864554Y-186850903D01*
X52745712Y-186995712D01*
X52600903Y-187114554D01*
X52435697Y-187202858D01*
X52435693Y-187202860D01*
X52256429Y-187257239D01*
X52256428Y-187257239D01*
X52256425Y-187257240D01*
X52070000Y-187275601D01*
X51883576Y-187257240D01*
X51883573Y-187257239D01*
X51883572Y-187257239D01*
X51704308Y-187202860D01*
X51704304Y-187202858D01*
X51539098Y-187114554D01*
X51394289Y-186995712D01*
X51275447Y-186850903D01*
X51187143Y-186685697D01*
X51187143Y-186685696D01*
X51187141Y-186685693D01*
X51132762Y-186506429D01*
X51132762Y-186506428D01*
X51132761Y-186506425D01*
X51119000Y-186366717D01*
X51119000Y-184473283D01*
X51132760Y-184333576D01*
X51132761Y-184333572D01*
X51187140Y-184154308D01*
X51187143Y-184154303D01*
X51275446Y-183989097D01*
X51394288Y-183844288D01*
X51539097Y-183725446D01*
X51704303Y-183637142D01*
X51704304Y-183637142D01*
X51704307Y-183637140D01*
X51883571Y-183582761D01*
X51883572Y-183582761D01*
X51883575Y-183582760D01*
X52070000Y-183564399D01*
X52256424Y-183582760D01*
X52256424Y-183582760D01*
G37*
G36*
X56066424Y-183582760D02*
G01*
X56066427Y-183582761D01*
X56066428Y-183582761D01*
X56245692Y-183637140D01*
X56245695Y-183637142D01*
X56245696Y-183637142D01*
X56410903Y-183725446D01*
X56555712Y-183844288D01*
X56674554Y-183989097D01*
X56762858Y-184154303D01*
X56762860Y-184154307D01*
X56762860Y-184154308D01*
X56817240Y-184333575D01*
X56831000Y-184473282D01*
X56831000Y-186366718D01*
X56817240Y-186506425D01*
X56817239Y-186506428D01*
X56817239Y-186506429D01*
X56762860Y-186685693D01*
X56762858Y-186685696D01*
X56762858Y-186685697D01*
X56674554Y-186850903D01*
X56555712Y-186995712D01*
X56410903Y-187114554D01*
X56245697Y-187202858D01*
X56245693Y-187202860D01*
X56066429Y-187257239D01*
X56066428Y-187257239D01*
X56066425Y-187257240D01*
X55880000Y-187275601D01*
X55693576Y-187257240D01*
X55693573Y-187257239D01*
X55693572Y-187257239D01*
X55514308Y-187202860D01*
X55514304Y-187202858D01*
X55349098Y-187114554D01*
X55204289Y-186995712D01*
X55085447Y-186850903D01*
X54997143Y-186685697D01*
X54997143Y-186685696D01*
X54997141Y-186685693D01*
X54942762Y-186506429D01*
X54942762Y-186506428D01*
X54942761Y-186506425D01*
X54929000Y-186366717D01*
X54929000Y-184473283D01*
X54942760Y-184333576D01*
X54942761Y-184333572D01*
X54997140Y-184154308D01*
X54997143Y-184154303D01*
X55085446Y-183989097D01*
X55204288Y-183844288D01*
X55349097Y-183725446D01*
X55514303Y-183637142D01*
X55514304Y-183637142D01*
X55514307Y-183637140D01*
X55693571Y-183582761D01*
X55693572Y-183582761D01*
X55693575Y-183582760D01*
X55880000Y-183564399D01*
X56066424Y-183582760D01*
X56066424Y-183582760D01*
G37*
G36*
X34476424Y-183582760D02*
G01*
X34476427Y-183582761D01*
X34476428Y-183582761D01*
X34655692Y-183637140D01*
X34655695Y-183637142D01*
X34655696Y-183637142D01*
X34820903Y-183725446D01*
X34965712Y-183844288D01*
X35084554Y-183989097D01*
X35172858Y-184154303D01*
X35172860Y-184154307D01*
X35172860Y-184154308D01*
X35227240Y-184333575D01*
X35241000Y-184473282D01*
X35241000Y-186366718D01*
X35227240Y-186506425D01*
X35227239Y-186506428D01*
X35227239Y-186506429D01*
X35172860Y-186685693D01*
X35172858Y-186685696D01*
X35172858Y-186685697D01*
X35084554Y-186850903D01*
X34965712Y-186995712D01*
X34820903Y-187114554D01*
X34655697Y-187202858D01*
X34655693Y-187202860D01*
X34476429Y-187257239D01*
X34476428Y-187257239D01*
X34476425Y-187257240D01*
X34290000Y-187275601D01*
X34103576Y-187257240D01*
X34103573Y-187257239D01*
X34103572Y-187257239D01*
X33924308Y-187202860D01*
X33924304Y-187202858D01*
X33759098Y-187114554D01*
X33614289Y-186995712D01*
X33495447Y-186850903D01*
X33407143Y-186685697D01*
X33407143Y-186685696D01*
X33407141Y-186685693D01*
X33352762Y-186506429D01*
X33352762Y-186506428D01*
X33352761Y-186506425D01*
X33339000Y-186366717D01*
X33339000Y-184473283D01*
X33352760Y-184333576D01*
X33352761Y-184333572D01*
X33407140Y-184154308D01*
X33407143Y-184154303D01*
X33495446Y-183989097D01*
X33614288Y-183844288D01*
X33759097Y-183725446D01*
X33924303Y-183637142D01*
X33924304Y-183637142D01*
X33924307Y-183637140D01*
X34103571Y-183582761D01*
X34103572Y-183582761D01*
X34103575Y-183582760D01*
X34290000Y-183564399D01*
X34476424Y-183582760D01*
X34476424Y-183582760D01*
G37*
G36*
X31431000Y-187271000D02*
G01*
X29529000Y-187271000D01*
X29529000Y-183569000D01*
X31431000Y-183569000D01*
X31431000Y-187271000D01*
X31431000Y-187271000D01*
G37*
G36*
X49211000Y-187271000D02*
G01*
X47309000Y-187271000D01*
X47309000Y-183569000D01*
X49211000Y-183569000D01*
X49211000Y-187271000D01*
X49211000Y-187271000D01*
G37*
G36*
X66991000Y-187271000D02*
G01*
X65089000Y-187271000D01*
X65089000Y-183569000D01*
X66991000Y-183569000D01*
X66991000Y-187271000D01*
X66991000Y-187271000D01*
G37*
G36*
X38286424Y-170882760D02*
G01*
X38286427Y-170882761D01*
X38286428Y-170882761D01*
X38465692Y-170937140D01*
X38465695Y-170937142D01*
X38465696Y-170937142D01*
X38630903Y-171025446D01*
X38775712Y-171144288D01*
X38894554Y-171289097D01*
X38982858Y-171454303D01*
X38982860Y-171454307D01*
X38982860Y-171454308D01*
X39037240Y-171633575D01*
X39051000Y-171773282D01*
X39051000Y-173666718D01*
X39037240Y-173806425D01*
X39037239Y-173806428D01*
X39037239Y-173806429D01*
X38982860Y-173985693D01*
X38982858Y-173985696D01*
X38982858Y-173985697D01*
X38894554Y-174150903D01*
X38775712Y-174295712D01*
X38630903Y-174414554D01*
X38465697Y-174502858D01*
X38465693Y-174502860D01*
X38286429Y-174557239D01*
X38286428Y-174557239D01*
X38286425Y-174557240D01*
X38100000Y-174575601D01*
X37913576Y-174557240D01*
X37913573Y-174557239D01*
X37913572Y-174557239D01*
X37734308Y-174502860D01*
X37734304Y-174502858D01*
X37569098Y-174414554D01*
X37424289Y-174295712D01*
X37305447Y-174150903D01*
X37217143Y-173985697D01*
X37217143Y-173985696D01*
X37217141Y-173985693D01*
X37162762Y-173806429D01*
X37162762Y-173806428D01*
X37162761Y-173806425D01*
X37149000Y-173666717D01*
X37149000Y-171773283D01*
X37162760Y-171633576D01*
X37162761Y-171633572D01*
X37217140Y-171454308D01*
X37217143Y-171454303D01*
X37305446Y-171289097D01*
X37424288Y-171144288D01*
X37569097Y-171025446D01*
X37734303Y-170937142D01*
X37734304Y-170937142D01*
X37734307Y-170937140D01*
X37913571Y-170882761D01*
X37913572Y-170882761D01*
X37913575Y-170882760D01*
X38100000Y-170864399D01*
X38286424Y-170882760D01*
X38286424Y-170882760D01*
G37*
G36*
X70036424Y-170882760D02*
G01*
X70036427Y-170882761D01*
X70036428Y-170882761D01*
X70215692Y-170937140D01*
X70215695Y-170937142D01*
X70215696Y-170937142D01*
X70380903Y-171025446D01*
X70525712Y-171144288D01*
X70644554Y-171289097D01*
X70732858Y-171454303D01*
X70732860Y-171454307D01*
X70732860Y-171454308D01*
X70787240Y-171633575D01*
X70801000Y-171773282D01*
X70801000Y-173666718D01*
X70787240Y-173806425D01*
X70787239Y-173806428D01*
X70787239Y-173806429D01*
X70732860Y-173985693D01*
X70732858Y-173985696D01*
X70732858Y-173985697D01*
X70644554Y-174150903D01*
X70525712Y-174295712D01*
X70380903Y-174414554D01*
X70215697Y-174502858D01*
X70215693Y-174502860D01*
X70036429Y-174557239D01*
X70036428Y-174557239D01*
X70036425Y-174557240D01*
X69850000Y-174575601D01*
X69663576Y-174557240D01*
X69663573Y-174557239D01*
X69663572Y-174557239D01*
X69484308Y-174502860D01*
X69484304Y-174502858D01*
X69319098Y-174414554D01*
X69174289Y-174295712D01*
X69055447Y-174150903D01*
X68967143Y-173985697D01*
X68967143Y-173985696D01*
X68967141Y-173985693D01*
X68912762Y-173806429D01*
X68912762Y-173806428D01*
X68912761Y-173806425D01*
X68899000Y-173666717D01*
X68899000Y-171773283D01*
X68912760Y-171633576D01*
X68912761Y-171633572D01*
X68967140Y-171454308D01*
X68967143Y-171454303D01*
X69055446Y-171289097D01*
X69174288Y-171144288D01*
X69319097Y-171025446D01*
X69484303Y-170937142D01*
X69484304Y-170937142D01*
X69484307Y-170937140D01*
X69663571Y-170882761D01*
X69663572Y-170882761D01*
X69663575Y-170882760D01*
X69850000Y-170864399D01*
X70036424Y-170882760D01*
X70036424Y-170882760D01*
G37*
G36*
X73846424Y-170882760D02*
G01*
X73846427Y-170882761D01*
X73846428Y-170882761D01*
X74025692Y-170937140D01*
X74025695Y-170937142D01*
X74025696Y-170937142D01*
X74190903Y-171025446D01*
X74335712Y-171144288D01*
X74454554Y-171289097D01*
X74542858Y-171454303D01*
X74542860Y-171454307D01*
X74542860Y-171454308D01*
X74597240Y-171633575D01*
X74611000Y-171773282D01*
X74611000Y-173666718D01*
X74597240Y-173806425D01*
X74597239Y-173806428D01*
X74597239Y-173806429D01*
X74542860Y-173985693D01*
X74542858Y-173985696D01*
X74542858Y-173985697D01*
X74454554Y-174150903D01*
X74335712Y-174295712D01*
X74190903Y-174414554D01*
X74025697Y-174502858D01*
X74025693Y-174502860D01*
X73846429Y-174557239D01*
X73846428Y-174557239D01*
X73846425Y-174557240D01*
X73660000Y-174575601D01*
X73473576Y-174557240D01*
X73473573Y-174557239D01*
X73473572Y-174557239D01*
X73294308Y-174502860D01*
X73294304Y-174502858D01*
X73129098Y-174414554D01*
X72984289Y-174295712D01*
X72865447Y-174150903D01*
X72777143Y-173985697D01*
X72777143Y-173985696D01*
X72777141Y-173985693D01*
X72722762Y-173806429D01*
X72722762Y-173806428D01*
X72722761Y-173806425D01*
X72709000Y-173666717D01*
X72709000Y-171773283D01*
X72722760Y-171633576D01*
X72722761Y-171633572D01*
X72777140Y-171454308D01*
X72777143Y-171454303D01*
X72865446Y-171289097D01*
X72984288Y-171144288D01*
X73129097Y-171025446D01*
X73294303Y-170937142D01*
X73294304Y-170937142D01*
X73294307Y-170937140D01*
X73473571Y-170882761D01*
X73473572Y-170882761D01*
X73473575Y-170882760D01*
X73660000Y-170864399D01*
X73846424Y-170882760D01*
X73846424Y-170882760D01*
G37*
G36*
X52256424Y-170882760D02*
G01*
X52256427Y-170882761D01*
X52256428Y-170882761D01*
X52435692Y-170937140D01*
X52435695Y-170937142D01*
X52435696Y-170937142D01*
X52600903Y-171025446D01*
X52745712Y-171144288D01*
X52864554Y-171289097D01*
X52952858Y-171454303D01*
X52952860Y-171454307D01*
X52952860Y-171454308D01*
X53007240Y-171633575D01*
X53021000Y-171773282D01*
X53021000Y-173666718D01*
X53007240Y-173806425D01*
X53007239Y-173806428D01*
X53007239Y-173806429D01*
X52952860Y-173985693D01*
X52952858Y-173985696D01*
X52952858Y-173985697D01*
X52864554Y-174150903D01*
X52745712Y-174295712D01*
X52600903Y-174414554D01*
X52435697Y-174502858D01*
X52435693Y-174502860D01*
X52256429Y-174557239D01*
X52256428Y-174557239D01*
X52256425Y-174557240D01*
X52070000Y-174575601D01*
X51883576Y-174557240D01*
X51883573Y-174557239D01*
X51883572Y-174557239D01*
X51704308Y-174502860D01*
X51704304Y-174502858D01*
X51539098Y-174414554D01*
X51394289Y-174295712D01*
X51275447Y-174150903D01*
X51187143Y-173985697D01*
X51187143Y-173985696D01*
X51187141Y-173985693D01*
X51132762Y-173806429D01*
X51132762Y-173806428D01*
X51132761Y-173806425D01*
X51119000Y-173666717D01*
X51119000Y-171773283D01*
X51132760Y-171633576D01*
X51132761Y-171633572D01*
X51187140Y-171454308D01*
X51187143Y-171454303D01*
X51275446Y-171289097D01*
X51394288Y-171144288D01*
X51539097Y-171025446D01*
X51704303Y-170937142D01*
X51704304Y-170937142D01*
X51704307Y-170937140D01*
X51883571Y-170882761D01*
X51883572Y-170882761D01*
X51883575Y-170882760D01*
X52070000Y-170864399D01*
X52256424Y-170882760D01*
X52256424Y-170882760D01*
G37*
G36*
X34476424Y-170882760D02*
G01*
X34476427Y-170882761D01*
X34476428Y-170882761D01*
X34655692Y-170937140D01*
X34655695Y-170937142D01*
X34655696Y-170937142D01*
X34820903Y-171025446D01*
X34965712Y-171144288D01*
X35084554Y-171289097D01*
X35172858Y-171454303D01*
X35172860Y-171454307D01*
X35172860Y-171454308D01*
X35227240Y-171633575D01*
X35241000Y-171773282D01*
X35241000Y-173666718D01*
X35227240Y-173806425D01*
X35227239Y-173806428D01*
X35227239Y-173806429D01*
X35172860Y-173985693D01*
X35172858Y-173985696D01*
X35172858Y-173985697D01*
X35084554Y-174150903D01*
X34965712Y-174295712D01*
X34820903Y-174414554D01*
X34655697Y-174502858D01*
X34655693Y-174502860D01*
X34476429Y-174557239D01*
X34476428Y-174557239D01*
X34476425Y-174557240D01*
X34290000Y-174575601D01*
X34103576Y-174557240D01*
X34103573Y-174557239D01*
X34103572Y-174557239D01*
X33924308Y-174502860D01*
X33924304Y-174502858D01*
X33759098Y-174414554D01*
X33614289Y-174295712D01*
X33495447Y-174150903D01*
X33407143Y-173985697D01*
X33407143Y-173985696D01*
X33407141Y-173985693D01*
X33352762Y-173806429D01*
X33352762Y-173806428D01*
X33352761Y-173806425D01*
X33339000Y-173666717D01*
X33339000Y-171773283D01*
X33352760Y-171633576D01*
X33352761Y-171633572D01*
X33407140Y-171454308D01*
X33407143Y-171454303D01*
X33495446Y-171289097D01*
X33614288Y-171144288D01*
X33759097Y-171025446D01*
X33924303Y-170937142D01*
X33924304Y-170937142D01*
X33924307Y-170937140D01*
X34103571Y-170882761D01*
X34103572Y-170882761D01*
X34103575Y-170882760D01*
X34290000Y-170864399D01*
X34476424Y-170882760D01*
X34476424Y-170882760D01*
G37*
G36*
X56066424Y-170882760D02*
G01*
X56066427Y-170882761D01*
X56066428Y-170882761D01*
X56245692Y-170937140D01*
X56245695Y-170937142D01*
X56245696Y-170937142D01*
X56410903Y-171025446D01*
X56555712Y-171144288D01*
X56674554Y-171289097D01*
X56762858Y-171454303D01*
X56762860Y-171454307D01*
X56762860Y-171454308D01*
X56817240Y-171633575D01*
X56831000Y-171773282D01*
X56831000Y-173666718D01*
X56817240Y-173806425D01*
X56817239Y-173806428D01*
X56817239Y-173806429D01*
X56762860Y-173985693D01*
X56762858Y-173985696D01*
X56762858Y-173985697D01*
X56674554Y-174150903D01*
X56555712Y-174295712D01*
X56410903Y-174414554D01*
X56245697Y-174502858D01*
X56245693Y-174502860D01*
X56066429Y-174557239D01*
X56066428Y-174557239D01*
X56066425Y-174557240D01*
X55880000Y-174575601D01*
X55693576Y-174557240D01*
X55693573Y-174557239D01*
X55693572Y-174557239D01*
X55514308Y-174502860D01*
X55514304Y-174502858D01*
X55349098Y-174414554D01*
X55204289Y-174295712D01*
X55085447Y-174150903D01*
X54997143Y-173985697D01*
X54997143Y-173985696D01*
X54997141Y-173985693D01*
X54942762Y-173806429D01*
X54942762Y-173806428D01*
X54942761Y-173806425D01*
X54929000Y-173666717D01*
X54929000Y-171773283D01*
X54942760Y-171633576D01*
X54942761Y-171633572D01*
X54997140Y-171454308D01*
X54997143Y-171454303D01*
X55085446Y-171289097D01*
X55204288Y-171144288D01*
X55349097Y-171025446D01*
X55514303Y-170937142D01*
X55514304Y-170937142D01*
X55514307Y-170937140D01*
X55693571Y-170882761D01*
X55693572Y-170882761D01*
X55693575Y-170882760D01*
X55880000Y-170864399D01*
X56066424Y-170882760D01*
X56066424Y-170882760D01*
G37*
G36*
X66991000Y-174571000D02*
G01*
X65089000Y-174571000D01*
X65089000Y-170869000D01*
X66991000Y-170869000D01*
X66991000Y-174571000D01*
X66991000Y-174571000D01*
G37*
G36*
X49211000Y-174571000D02*
G01*
X47309000Y-174571000D01*
X47309000Y-170869000D01*
X49211000Y-170869000D01*
X49211000Y-174571000D01*
X49211000Y-174571000D01*
G37*
G36*
X31431000Y-174571000D02*
G01*
X29529000Y-174571000D01*
X29529000Y-170869000D01*
X31431000Y-170869000D01*
X31431000Y-174571000D01*
X31431000Y-174571000D01*
G37*
G36*
X34476424Y-158182760D02*
G01*
X34476427Y-158182761D01*
X34476428Y-158182761D01*
X34655692Y-158237140D01*
X34655695Y-158237142D01*
X34655696Y-158237142D01*
X34820903Y-158325446D01*
X34965712Y-158444288D01*
X35084554Y-158589097D01*
X35172858Y-158754303D01*
X35172860Y-158754307D01*
X35172860Y-158754308D01*
X35227240Y-158933575D01*
X35241000Y-159073282D01*
X35241000Y-160966718D01*
X35227240Y-161106425D01*
X35227239Y-161106428D01*
X35227239Y-161106429D01*
X35172860Y-161285693D01*
X35172858Y-161285696D01*
X35172858Y-161285697D01*
X35084554Y-161450903D01*
X34965712Y-161595712D01*
X34820903Y-161714554D01*
X34655697Y-161802858D01*
X34655693Y-161802860D01*
X34476429Y-161857239D01*
X34476428Y-161857239D01*
X34476425Y-161857240D01*
X34290000Y-161875601D01*
X34103576Y-161857240D01*
X34103573Y-161857239D01*
X34103572Y-161857239D01*
X33924308Y-161802860D01*
X33924304Y-161802858D01*
X33759098Y-161714554D01*
X33614289Y-161595712D01*
X33495447Y-161450903D01*
X33407143Y-161285697D01*
X33407143Y-161285696D01*
X33407141Y-161285693D01*
X33352762Y-161106429D01*
X33352762Y-161106428D01*
X33352761Y-161106425D01*
X33339000Y-160966717D01*
X33339000Y-159073283D01*
X33352760Y-158933576D01*
X33352761Y-158933572D01*
X33407140Y-158754308D01*
X33407143Y-158754303D01*
X33495446Y-158589097D01*
X33614288Y-158444288D01*
X33759097Y-158325446D01*
X33924303Y-158237142D01*
X33924304Y-158237142D01*
X33924307Y-158237140D01*
X34103571Y-158182761D01*
X34103572Y-158182761D01*
X34103575Y-158182760D01*
X34290000Y-158164399D01*
X34476424Y-158182760D01*
X34476424Y-158182760D01*
G37*
G36*
X38286424Y-158182760D02*
G01*
X38286427Y-158182761D01*
X38286428Y-158182761D01*
X38465692Y-158237140D01*
X38465695Y-158237142D01*
X38465696Y-158237142D01*
X38630903Y-158325446D01*
X38775712Y-158444288D01*
X38894554Y-158589097D01*
X38982858Y-158754303D01*
X38982860Y-158754307D01*
X38982860Y-158754308D01*
X39037240Y-158933575D01*
X39051000Y-159073282D01*
X39051000Y-160966718D01*
X39037240Y-161106425D01*
X39037239Y-161106428D01*
X39037239Y-161106429D01*
X38982860Y-161285693D01*
X38982858Y-161285696D01*
X38982858Y-161285697D01*
X38894554Y-161450903D01*
X38775712Y-161595712D01*
X38630903Y-161714554D01*
X38465697Y-161802858D01*
X38465693Y-161802860D01*
X38286429Y-161857239D01*
X38286428Y-161857239D01*
X38286425Y-161857240D01*
X38100000Y-161875601D01*
X37913576Y-161857240D01*
X37913573Y-161857239D01*
X37913572Y-161857239D01*
X37734308Y-161802860D01*
X37734304Y-161802858D01*
X37569098Y-161714554D01*
X37424289Y-161595712D01*
X37305447Y-161450903D01*
X37217143Y-161285697D01*
X37217143Y-161285696D01*
X37217141Y-161285693D01*
X37162762Y-161106429D01*
X37162762Y-161106428D01*
X37162761Y-161106425D01*
X37149000Y-160966717D01*
X37149000Y-159073283D01*
X37162760Y-158933576D01*
X37162761Y-158933572D01*
X37217140Y-158754308D01*
X37217143Y-158754303D01*
X37305446Y-158589097D01*
X37424288Y-158444288D01*
X37569097Y-158325446D01*
X37734303Y-158237142D01*
X37734304Y-158237142D01*
X37734307Y-158237140D01*
X37913571Y-158182761D01*
X37913572Y-158182761D01*
X37913575Y-158182760D01*
X38100000Y-158164399D01*
X38286424Y-158182760D01*
X38286424Y-158182760D01*
G37*
G36*
X56066424Y-158182760D02*
G01*
X56066427Y-158182761D01*
X56066428Y-158182761D01*
X56245692Y-158237140D01*
X56245695Y-158237142D01*
X56245696Y-158237142D01*
X56410903Y-158325446D01*
X56555712Y-158444288D01*
X56674554Y-158589097D01*
X56762858Y-158754303D01*
X56762860Y-158754307D01*
X56762860Y-158754308D01*
X56817240Y-158933575D01*
X56831000Y-159073282D01*
X56831000Y-160966718D01*
X56817240Y-161106425D01*
X56817239Y-161106428D01*
X56817239Y-161106429D01*
X56762860Y-161285693D01*
X56762858Y-161285696D01*
X56762858Y-161285697D01*
X56674554Y-161450903D01*
X56555712Y-161595712D01*
X56410903Y-161714554D01*
X56245697Y-161802858D01*
X56245693Y-161802860D01*
X56066429Y-161857239D01*
X56066428Y-161857239D01*
X56066425Y-161857240D01*
X55880000Y-161875601D01*
X55693576Y-161857240D01*
X55693573Y-161857239D01*
X55693572Y-161857239D01*
X55514308Y-161802860D01*
X55514304Y-161802858D01*
X55349098Y-161714554D01*
X55204289Y-161595712D01*
X55085447Y-161450903D01*
X54997143Y-161285697D01*
X54997143Y-161285696D01*
X54997141Y-161285693D01*
X54942762Y-161106429D01*
X54942762Y-161106428D01*
X54942761Y-161106425D01*
X54929000Y-160966717D01*
X54929000Y-159073283D01*
X54942760Y-158933576D01*
X54942761Y-158933572D01*
X54997140Y-158754308D01*
X54997143Y-158754303D01*
X55085446Y-158589097D01*
X55204288Y-158444288D01*
X55349097Y-158325446D01*
X55514303Y-158237142D01*
X55514304Y-158237142D01*
X55514307Y-158237140D01*
X55693571Y-158182761D01*
X55693572Y-158182761D01*
X55693575Y-158182760D01*
X55880000Y-158164399D01*
X56066424Y-158182760D01*
X56066424Y-158182760D01*
G37*
G36*
X52256424Y-158182760D02*
G01*
X52256427Y-158182761D01*
X52256428Y-158182761D01*
X52435692Y-158237140D01*
X52435695Y-158237142D01*
X52435696Y-158237142D01*
X52600903Y-158325446D01*
X52745712Y-158444288D01*
X52864554Y-158589097D01*
X52952858Y-158754303D01*
X52952860Y-158754307D01*
X52952860Y-158754308D01*
X53007240Y-158933575D01*
X53021000Y-159073282D01*
X53021000Y-160966718D01*
X53007240Y-161106425D01*
X53007239Y-161106428D01*
X53007239Y-161106429D01*
X52952860Y-161285693D01*
X52952858Y-161285696D01*
X52952858Y-161285697D01*
X52864554Y-161450903D01*
X52745712Y-161595712D01*
X52600903Y-161714554D01*
X52435697Y-161802858D01*
X52435693Y-161802860D01*
X52256429Y-161857239D01*
X52256428Y-161857239D01*
X52256425Y-161857240D01*
X52070000Y-161875601D01*
X51883576Y-161857240D01*
X51883573Y-161857239D01*
X51883572Y-161857239D01*
X51704308Y-161802860D01*
X51704304Y-161802858D01*
X51539098Y-161714554D01*
X51394289Y-161595712D01*
X51275447Y-161450903D01*
X51187143Y-161285697D01*
X51187143Y-161285696D01*
X51187141Y-161285693D01*
X51132762Y-161106429D01*
X51132762Y-161106428D01*
X51132761Y-161106425D01*
X51119000Y-160966717D01*
X51119000Y-159073283D01*
X51132760Y-158933576D01*
X51132761Y-158933572D01*
X51187140Y-158754308D01*
X51187143Y-158754303D01*
X51275446Y-158589097D01*
X51394288Y-158444288D01*
X51539097Y-158325446D01*
X51704303Y-158237142D01*
X51704304Y-158237142D01*
X51704307Y-158237140D01*
X51883571Y-158182761D01*
X51883572Y-158182761D01*
X51883575Y-158182760D01*
X52070000Y-158164399D01*
X52256424Y-158182760D01*
X52256424Y-158182760D01*
G37*
G36*
X73846424Y-158182760D02*
G01*
X73846427Y-158182761D01*
X73846428Y-158182761D01*
X74025692Y-158237140D01*
X74025695Y-158237142D01*
X74025696Y-158237142D01*
X74190903Y-158325446D01*
X74335712Y-158444288D01*
X74454554Y-158589097D01*
X74542858Y-158754303D01*
X74542860Y-158754307D01*
X74542860Y-158754308D01*
X74597240Y-158933575D01*
X74611000Y-159073282D01*
X74611000Y-160966718D01*
X74597240Y-161106425D01*
X74597239Y-161106428D01*
X74597239Y-161106429D01*
X74542860Y-161285693D01*
X74542858Y-161285696D01*
X74542858Y-161285697D01*
X74454554Y-161450903D01*
X74335712Y-161595712D01*
X74190903Y-161714554D01*
X74025697Y-161802858D01*
X74025693Y-161802860D01*
X73846429Y-161857239D01*
X73846428Y-161857239D01*
X73846425Y-161857240D01*
X73660000Y-161875601D01*
X73473576Y-161857240D01*
X73473573Y-161857239D01*
X73473572Y-161857239D01*
X73294308Y-161802860D01*
X73294304Y-161802858D01*
X73129098Y-161714554D01*
X72984289Y-161595712D01*
X72865447Y-161450903D01*
X72777143Y-161285697D01*
X72777143Y-161285696D01*
X72777141Y-161285693D01*
X72722762Y-161106429D01*
X72722762Y-161106428D01*
X72722761Y-161106425D01*
X72709000Y-160966717D01*
X72709000Y-159073283D01*
X72722760Y-158933576D01*
X72722761Y-158933572D01*
X72777140Y-158754308D01*
X72777143Y-158754303D01*
X72865446Y-158589097D01*
X72984288Y-158444288D01*
X73129097Y-158325446D01*
X73294303Y-158237142D01*
X73294304Y-158237142D01*
X73294307Y-158237140D01*
X73473571Y-158182761D01*
X73473572Y-158182761D01*
X73473575Y-158182760D01*
X73660000Y-158164399D01*
X73846424Y-158182760D01*
X73846424Y-158182760D01*
G37*
G36*
X70036424Y-158182760D02*
G01*
X70036427Y-158182761D01*
X70036428Y-158182761D01*
X70215692Y-158237140D01*
X70215695Y-158237142D01*
X70215696Y-158237142D01*
X70380903Y-158325446D01*
X70525712Y-158444288D01*
X70644554Y-158589097D01*
X70732858Y-158754303D01*
X70732860Y-158754307D01*
X70732860Y-158754308D01*
X70787240Y-158933575D01*
X70801000Y-159073282D01*
X70801000Y-160966718D01*
X70787240Y-161106425D01*
X70787239Y-161106428D01*
X70787239Y-161106429D01*
X70732860Y-161285693D01*
X70732858Y-161285696D01*
X70732858Y-161285697D01*
X70644554Y-161450903D01*
X70525712Y-161595712D01*
X70380903Y-161714554D01*
X70215697Y-161802858D01*
X70215693Y-161802860D01*
X70036429Y-161857239D01*
X70036428Y-161857239D01*
X70036425Y-161857240D01*
X69850000Y-161875601D01*
X69663576Y-161857240D01*
X69663573Y-161857239D01*
X69663572Y-161857239D01*
X69484308Y-161802860D01*
X69484304Y-161802858D01*
X69319098Y-161714554D01*
X69174289Y-161595712D01*
X69055447Y-161450903D01*
X68967143Y-161285697D01*
X68967143Y-161285696D01*
X68967141Y-161285693D01*
X68912762Y-161106429D01*
X68912762Y-161106428D01*
X68912761Y-161106425D01*
X68899000Y-160966717D01*
X68899000Y-159073283D01*
X68912760Y-158933576D01*
X68912761Y-158933572D01*
X68967140Y-158754308D01*
X68967143Y-158754303D01*
X69055446Y-158589097D01*
X69174288Y-158444288D01*
X69319097Y-158325446D01*
X69484303Y-158237142D01*
X69484304Y-158237142D01*
X69484307Y-158237140D01*
X69663571Y-158182761D01*
X69663572Y-158182761D01*
X69663575Y-158182760D01*
X69850000Y-158164399D01*
X70036424Y-158182760D01*
X70036424Y-158182760D01*
G37*
G36*
X49211000Y-161871000D02*
G01*
X47309000Y-161871000D01*
X47309000Y-158169000D01*
X49211000Y-158169000D01*
X49211000Y-161871000D01*
X49211000Y-161871000D01*
G37*
G36*
X31431000Y-161871000D02*
G01*
X29529000Y-161871000D01*
X29529000Y-158169000D01*
X31431000Y-158169000D01*
X31431000Y-161871000D01*
X31431000Y-161871000D01*
G37*
G36*
X66991000Y-161871000D02*
G01*
X65089000Y-161871000D01*
X65089000Y-158169000D01*
X66991000Y-158169000D01*
X66991000Y-161871000D01*
X66991000Y-161871000D01*
G37*
G36*
X38286424Y-145482760D02*
G01*
X38286427Y-145482761D01*
X38286428Y-145482761D01*
X38465692Y-145537140D01*
X38465695Y-145537142D01*
X38465696Y-145537142D01*
X38630903Y-145625446D01*
X38775712Y-145744288D01*
X38894554Y-145889097D01*
X38982858Y-146054303D01*
X38982860Y-146054307D01*
X38982860Y-146054308D01*
X39037240Y-146233575D01*
X39051000Y-146373282D01*
X39051000Y-148266718D01*
X39037240Y-148406425D01*
X39037239Y-148406428D01*
X39037239Y-148406429D01*
X38982860Y-148585693D01*
X38982858Y-148585696D01*
X38982858Y-148585697D01*
X38894554Y-148750903D01*
X38775712Y-148895712D01*
X38630903Y-149014554D01*
X38465697Y-149102858D01*
X38465693Y-149102860D01*
X38286429Y-149157239D01*
X38286428Y-149157239D01*
X38286425Y-149157240D01*
X38100000Y-149175601D01*
X37913576Y-149157240D01*
X37913573Y-149157239D01*
X37913572Y-149157239D01*
X37734308Y-149102860D01*
X37734304Y-149102858D01*
X37569098Y-149014554D01*
X37424289Y-148895712D01*
X37305447Y-148750903D01*
X37217143Y-148585697D01*
X37217143Y-148585696D01*
X37217141Y-148585693D01*
X37162762Y-148406429D01*
X37162762Y-148406428D01*
X37162761Y-148406425D01*
X37149000Y-148266717D01*
X37149000Y-146373283D01*
X37162760Y-146233576D01*
X37162761Y-146233572D01*
X37217140Y-146054308D01*
X37217143Y-146054303D01*
X37305446Y-145889097D01*
X37424288Y-145744288D01*
X37569097Y-145625446D01*
X37734303Y-145537142D01*
X37734304Y-145537142D01*
X37734307Y-145537140D01*
X37913571Y-145482761D01*
X37913572Y-145482761D01*
X37913575Y-145482760D01*
X38100000Y-145464399D01*
X38286424Y-145482760D01*
X38286424Y-145482760D01*
G37*
G36*
X70036424Y-145482760D02*
G01*
X70036427Y-145482761D01*
X70036428Y-145482761D01*
X70215692Y-145537140D01*
X70215695Y-145537142D01*
X70215696Y-145537142D01*
X70380903Y-145625446D01*
X70525712Y-145744288D01*
X70644554Y-145889097D01*
X70732858Y-146054303D01*
X70732860Y-146054307D01*
X70732860Y-146054308D01*
X70787240Y-146233575D01*
X70801000Y-146373282D01*
X70801000Y-148266718D01*
X70787240Y-148406425D01*
X70787239Y-148406428D01*
X70787239Y-148406429D01*
X70732860Y-148585693D01*
X70732858Y-148585696D01*
X70732858Y-148585697D01*
X70644554Y-148750903D01*
X70525712Y-148895712D01*
X70380903Y-149014554D01*
X70215697Y-149102858D01*
X70215693Y-149102860D01*
X70036429Y-149157239D01*
X70036428Y-149157239D01*
X70036425Y-149157240D01*
X69850000Y-149175601D01*
X69663576Y-149157240D01*
X69663573Y-149157239D01*
X69663572Y-149157239D01*
X69484308Y-149102860D01*
X69484304Y-149102858D01*
X69319098Y-149014554D01*
X69174289Y-148895712D01*
X69055447Y-148750903D01*
X68967143Y-148585697D01*
X68967143Y-148585696D01*
X68967141Y-148585693D01*
X68912762Y-148406429D01*
X68912762Y-148406428D01*
X68912761Y-148406425D01*
X68899000Y-148266717D01*
X68899000Y-146373283D01*
X68912760Y-146233576D01*
X68912761Y-146233572D01*
X68967140Y-146054308D01*
X68967143Y-146054303D01*
X69055446Y-145889097D01*
X69174288Y-145744288D01*
X69319097Y-145625446D01*
X69484303Y-145537142D01*
X69484304Y-145537142D01*
X69484307Y-145537140D01*
X69663571Y-145482761D01*
X69663572Y-145482761D01*
X69663575Y-145482760D01*
X69850000Y-145464399D01*
X70036424Y-145482760D01*
X70036424Y-145482760D01*
G37*
G36*
X73846424Y-145482760D02*
G01*
X73846427Y-145482761D01*
X73846428Y-145482761D01*
X74025692Y-145537140D01*
X74025695Y-145537142D01*
X74025696Y-145537142D01*
X74190903Y-145625446D01*
X74335712Y-145744288D01*
X74454554Y-145889097D01*
X74542858Y-146054303D01*
X74542860Y-146054307D01*
X74542860Y-146054308D01*
X74597240Y-146233575D01*
X74611000Y-146373282D01*
X74611000Y-148266718D01*
X74597240Y-148406425D01*
X74597239Y-148406428D01*
X74597239Y-148406429D01*
X74542860Y-148585693D01*
X74542858Y-148585696D01*
X74542858Y-148585697D01*
X74454554Y-148750903D01*
X74335712Y-148895712D01*
X74190903Y-149014554D01*
X74025697Y-149102858D01*
X74025693Y-149102860D01*
X73846429Y-149157239D01*
X73846428Y-149157239D01*
X73846425Y-149157240D01*
X73660000Y-149175601D01*
X73473576Y-149157240D01*
X73473573Y-149157239D01*
X73473572Y-149157239D01*
X73294308Y-149102860D01*
X73294304Y-149102858D01*
X73129098Y-149014554D01*
X72984289Y-148895712D01*
X72865447Y-148750903D01*
X72777143Y-148585697D01*
X72777143Y-148585696D01*
X72777141Y-148585693D01*
X72722762Y-148406429D01*
X72722762Y-148406428D01*
X72722761Y-148406425D01*
X72709000Y-148266717D01*
X72709000Y-146373283D01*
X72722760Y-146233576D01*
X72722761Y-146233572D01*
X72777140Y-146054308D01*
X72777143Y-146054303D01*
X72865446Y-145889097D01*
X72984288Y-145744288D01*
X73129097Y-145625446D01*
X73294303Y-145537142D01*
X73294304Y-145537142D01*
X73294307Y-145537140D01*
X73473571Y-145482761D01*
X73473572Y-145482761D01*
X73473575Y-145482760D01*
X73660000Y-145464399D01*
X73846424Y-145482760D01*
X73846424Y-145482760D01*
G37*
G36*
X52256424Y-145482760D02*
G01*
X52256427Y-145482761D01*
X52256428Y-145482761D01*
X52435692Y-145537140D01*
X52435695Y-145537142D01*
X52435696Y-145537142D01*
X52600903Y-145625446D01*
X52745712Y-145744288D01*
X52864554Y-145889097D01*
X52952858Y-146054303D01*
X52952860Y-146054307D01*
X52952860Y-146054308D01*
X53007240Y-146233575D01*
X53021000Y-146373282D01*
X53021000Y-148266718D01*
X53007240Y-148406425D01*
X53007239Y-148406428D01*
X53007239Y-148406429D01*
X52952860Y-148585693D01*
X52952858Y-148585696D01*
X52952858Y-148585697D01*
X52864554Y-148750903D01*
X52745712Y-148895712D01*
X52600903Y-149014554D01*
X52435697Y-149102858D01*
X52435693Y-149102860D01*
X52256429Y-149157239D01*
X52256428Y-149157239D01*
X52256425Y-149157240D01*
X52070000Y-149175601D01*
X51883576Y-149157240D01*
X51883573Y-149157239D01*
X51883572Y-149157239D01*
X51704308Y-149102860D01*
X51704304Y-149102858D01*
X51539098Y-149014554D01*
X51394289Y-148895712D01*
X51275447Y-148750903D01*
X51187143Y-148585697D01*
X51187143Y-148585696D01*
X51187141Y-148585693D01*
X51132762Y-148406429D01*
X51132762Y-148406428D01*
X51132761Y-148406425D01*
X51119000Y-148266717D01*
X51119000Y-146373283D01*
X51132760Y-146233576D01*
X51132761Y-146233572D01*
X51187140Y-146054308D01*
X51187143Y-146054303D01*
X51275446Y-145889097D01*
X51394288Y-145744288D01*
X51539097Y-145625446D01*
X51704303Y-145537142D01*
X51704304Y-145537142D01*
X51704307Y-145537140D01*
X51883571Y-145482761D01*
X51883572Y-145482761D01*
X51883575Y-145482760D01*
X52070000Y-145464399D01*
X52256424Y-145482760D01*
X52256424Y-145482760D01*
G37*
G36*
X56066424Y-145482760D02*
G01*
X56066427Y-145482761D01*
X56066428Y-145482761D01*
X56245692Y-145537140D01*
X56245695Y-145537142D01*
X56245696Y-145537142D01*
X56410903Y-145625446D01*
X56555712Y-145744288D01*
X56674554Y-145889097D01*
X56762858Y-146054303D01*
X56762860Y-146054307D01*
X56762860Y-146054308D01*
X56817240Y-146233575D01*
X56831000Y-146373282D01*
X56831000Y-148266718D01*
X56817240Y-148406425D01*
X56817239Y-148406428D01*
X56817239Y-148406429D01*
X56762860Y-148585693D01*
X56762858Y-148585696D01*
X56762858Y-148585697D01*
X56674554Y-148750903D01*
X56555712Y-148895712D01*
X56410903Y-149014554D01*
X56245697Y-149102858D01*
X56245693Y-149102860D01*
X56066429Y-149157239D01*
X56066428Y-149157239D01*
X56066425Y-149157240D01*
X55880000Y-149175601D01*
X55693576Y-149157240D01*
X55693573Y-149157239D01*
X55693572Y-149157239D01*
X55514308Y-149102860D01*
X55514304Y-149102858D01*
X55349098Y-149014554D01*
X55204289Y-148895712D01*
X55085447Y-148750903D01*
X54997143Y-148585697D01*
X54997143Y-148585696D01*
X54997141Y-148585693D01*
X54942762Y-148406429D01*
X54942762Y-148406428D01*
X54942761Y-148406425D01*
X54929000Y-148266717D01*
X54929000Y-146373283D01*
X54942760Y-146233576D01*
X54942761Y-146233572D01*
X54997140Y-146054308D01*
X54997143Y-146054303D01*
X55085446Y-145889097D01*
X55204288Y-145744288D01*
X55349097Y-145625446D01*
X55514303Y-145537142D01*
X55514304Y-145537142D01*
X55514307Y-145537140D01*
X55693571Y-145482761D01*
X55693572Y-145482761D01*
X55693575Y-145482760D01*
X55880000Y-145464399D01*
X56066424Y-145482760D01*
X56066424Y-145482760D01*
G37*
G36*
X34476424Y-145482760D02*
G01*
X34476427Y-145482761D01*
X34476428Y-145482761D01*
X34655692Y-145537140D01*
X34655695Y-145537142D01*
X34655696Y-145537142D01*
X34820903Y-145625446D01*
X34965712Y-145744288D01*
X35084554Y-145889097D01*
X35172858Y-146054303D01*
X35172860Y-146054307D01*
X35172860Y-146054308D01*
X35227240Y-146233575D01*
X35241000Y-146373282D01*
X35241000Y-148266718D01*
X35227240Y-148406425D01*
X35227239Y-148406428D01*
X35227239Y-148406429D01*
X35172860Y-148585693D01*
X35172858Y-148585696D01*
X35172858Y-148585697D01*
X35084554Y-148750903D01*
X34965712Y-148895712D01*
X34820903Y-149014554D01*
X34655697Y-149102858D01*
X34655693Y-149102860D01*
X34476429Y-149157239D01*
X34476428Y-149157239D01*
X34476425Y-149157240D01*
X34290000Y-149175601D01*
X34103576Y-149157240D01*
X34103573Y-149157239D01*
X34103572Y-149157239D01*
X33924308Y-149102860D01*
X33924304Y-149102858D01*
X33759098Y-149014554D01*
X33614289Y-148895712D01*
X33495447Y-148750903D01*
X33407143Y-148585697D01*
X33407143Y-148585696D01*
X33407141Y-148585693D01*
X33352762Y-148406429D01*
X33352762Y-148406428D01*
X33352761Y-148406425D01*
X33339000Y-148266717D01*
X33339000Y-146373283D01*
X33352760Y-146233576D01*
X33352761Y-146233572D01*
X33407140Y-146054308D01*
X33407143Y-146054303D01*
X33495446Y-145889097D01*
X33614288Y-145744288D01*
X33759097Y-145625446D01*
X33924303Y-145537142D01*
X33924304Y-145537142D01*
X33924307Y-145537140D01*
X34103571Y-145482761D01*
X34103572Y-145482761D01*
X34103575Y-145482760D01*
X34290000Y-145464399D01*
X34476424Y-145482760D01*
X34476424Y-145482760D01*
G37*
G36*
X49211000Y-149171000D02*
G01*
X47309000Y-149171000D01*
X47309000Y-145469000D01*
X49211000Y-145469000D01*
X49211000Y-149171000D01*
X49211000Y-149171000D01*
G37*
G36*
X31431000Y-149171000D02*
G01*
X29529000Y-149171000D01*
X29529000Y-145469000D01*
X31431000Y-145469000D01*
X31431000Y-149171000D01*
X31431000Y-149171000D01*
G37*
G36*
X66991000Y-149171000D02*
G01*
X65089000Y-149171000D01*
X65089000Y-145469000D01*
X66991000Y-145469000D01*
X66991000Y-149171000D01*
X66991000Y-149171000D01*
G37*
G36*
X73846424Y-132782760D02*
G01*
X73846427Y-132782761D01*
X73846428Y-132782761D01*
X74025692Y-132837140D01*
X74025695Y-132837142D01*
X74025696Y-132837142D01*
X74190903Y-132925446D01*
X74335712Y-133044288D01*
X74454554Y-133189097D01*
X74542858Y-133354303D01*
X74542860Y-133354307D01*
X74542860Y-133354308D01*
X74597240Y-133533575D01*
X74611000Y-133673282D01*
X74611000Y-135566718D01*
X74597240Y-135706425D01*
X74597239Y-135706428D01*
X74597239Y-135706429D01*
X74542860Y-135885693D01*
X74542858Y-135885696D01*
X74542858Y-135885697D01*
X74454554Y-136050903D01*
X74335712Y-136195712D01*
X74190903Y-136314554D01*
X74025697Y-136402858D01*
X74025693Y-136402860D01*
X73846429Y-136457239D01*
X73846428Y-136457239D01*
X73846425Y-136457240D01*
X73660000Y-136475601D01*
X73473576Y-136457240D01*
X73473573Y-136457239D01*
X73473572Y-136457239D01*
X73294308Y-136402860D01*
X73294304Y-136402858D01*
X73129098Y-136314554D01*
X72984289Y-136195712D01*
X72865447Y-136050903D01*
X72777143Y-135885697D01*
X72777143Y-135885696D01*
X72777141Y-135885693D01*
X72722762Y-135706429D01*
X72722762Y-135706428D01*
X72722761Y-135706425D01*
X72709000Y-135566717D01*
X72709000Y-133673283D01*
X72722760Y-133533576D01*
X72722761Y-133533572D01*
X72777140Y-133354308D01*
X72777143Y-133354303D01*
X72865446Y-133189097D01*
X72984288Y-133044288D01*
X73129097Y-132925446D01*
X73294303Y-132837142D01*
X73294304Y-132837142D01*
X73294307Y-132837140D01*
X73473571Y-132782761D01*
X73473572Y-132782761D01*
X73473575Y-132782760D01*
X73660000Y-132764399D01*
X73846424Y-132782760D01*
X73846424Y-132782760D01*
G37*
G36*
X70036424Y-132782760D02*
G01*
X70036427Y-132782761D01*
X70036428Y-132782761D01*
X70215692Y-132837140D01*
X70215695Y-132837142D01*
X70215696Y-132837142D01*
X70380903Y-132925446D01*
X70525712Y-133044288D01*
X70644554Y-133189097D01*
X70732858Y-133354303D01*
X70732860Y-133354307D01*
X70732860Y-133354308D01*
X70787240Y-133533575D01*
X70801000Y-133673282D01*
X70801000Y-135566718D01*
X70787240Y-135706425D01*
X70787239Y-135706428D01*
X70787239Y-135706429D01*
X70732860Y-135885693D01*
X70732858Y-135885696D01*
X70732858Y-135885697D01*
X70644554Y-136050903D01*
X70525712Y-136195712D01*
X70380903Y-136314554D01*
X70215697Y-136402858D01*
X70215693Y-136402860D01*
X70036429Y-136457239D01*
X70036428Y-136457239D01*
X70036425Y-136457240D01*
X69850000Y-136475601D01*
X69663576Y-136457240D01*
X69663573Y-136457239D01*
X69663572Y-136457239D01*
X69484308Y-136402860D01*
X69484304Y-136402858D01*
X69319098Y-136314554D01*
X69174289Y-136195712D01*
X69055447Y-136050903D01*
X68967143Y-135885697D01*
X68967143Y-135885696D01*
X68967141Y-135885693D01*
X68912762Y-135706429D01*
X68912762Y-135706428D01*
X68912761Y-135706425D01*
X68899000Y-135566717D01*
X68899000Y-133673283D01*
X68912760Y-133533576D01*
X68912761Y-133533572D01*
X68967140Y-133354308D01*
X68967143Y-133354303D01*
X69055446Y-133189097D01*
X69174288Y-133044288D01*
X69319097Y-132925446D01*
X69484303Y-132837142D01*
X69484304Y-132837142D01*
X69484307Y-132837140D01*
X69663571Y-132782761D01*
X69663572Y-132782761D01*
X69663575Y-132782760D01*
X69850000Y-132764399D01*
X70036424Y-132782760D01*
X70036424Y-132782760D01*
G37*
G36*
X52256424Y-132782760D02*
G01*
X52256427Y-132782761D01*
X52256428Y-132782761D01*
X52435692Y-132837140D01*
X52435695Y-132837142D01*
X52435696Y-132837142D01*
X52600903Y-132925446D01*
X52745712Y-133044288D01*
X52864554Y-133189097D01*
X52952858Y-133354303D01*
X52952860Y-133354307D01*
X52952860Y-133354308D01*
X53007240Y-133533575D01*
X53021000Y-133673282D01*
X53021000Y-135566718D01*
X53007240Y-135706425D01*
X53007239Y-135706428D01*
X53007239Y-135706429D01*
X52952860Y-135885693D01*
X52952858Y-135885696D01*
X52952858Y-135885697D01*
X52864554Y-136050903D01*
X52745712Y-136195712D01*
X52600903Y-136314554D01*
X52435697Y-136402858D01*
X52435693Y-136402860D01*
X52256429Y-136457239D01*
X52256428Y-136457239D01*
X52256425Y-136457240D01*
X52070000Y-136475601D01*
X51883576Y-136457240D01*
X51883573Y-136457239D01*
X51883572Y-136457239D01*
X51704308Y-136402860D01*
X51704304Y-136402858D01*
X51539098Y-136314554D01*
X51394289Y-136195712D01*
X51275447Y-136050903D01*
X51187143Y-135885697D01*
X51187143Y-135885696D01*
X51187141Y-135885693D01*
X51132762Y-135706429D01*
X51132762Y-135706428D01*
X51132761Y-135706425D01*
X51119000Y-135566717D01*
X51119000Y-133673283D01*
X51132760Y-133533576D01*
X51132761Y-133533572D01*
X51187140Y-133354308D01*
X51187143Y-133354303D01*
X51275446Y-133189097D01*
X51394288Y-133044288D01*
X51539097Y-132925446D01*
X51704303Y-132837142D01*
X51704304Y-132837142D01*
X51704307Y-132837140D01*
X51883571Y-132782761D01*
X51883572Y-132782761D01*
X51883575Y-132782760D01*
X52070000Y-132764399D01*
X52256424Y-132782760D01*
X52256424Y-132782760D01*
G37*
G36*
X56066424Y-132782760D02*
G01*
X56066427Y-132782761D01*
X56066428Y-132782761D01*
X56245692Y-132837140D01*
X56245695Y-132837142D01*
X56245696Y-132837142D01*
X56410903Y-132925446D01*
X56555712Y-133044288D01*
X56674554Y-133189097D01*
X56762858Y-133354303D01*
X56762860Y-133354307D01*
X56762860Y-133354308D01*
X56817240Y-133533575D01*
X56831000Y-133673282D01*
X56831000Y-135566718D01*
X56817240Y-135706425D01*
X56817239Y-135706428D01*
X56817239Y-135706429D01*
X56762860Y-135885693D01*
X56762858Y-135885696D01*
X56762858Y-135885697D01*
X56674554Y-136050903D01*
X56555712Y-136195712D01*
X56410903Y-136314554D01*
X56245697Y-136402858D01*
X56245693Y-136402860D01*
X56066429Y-136457239D01*
X56066428Y-136457239D01*
X56066425Y-136457240D01*
X55880000Y-136475601D01*
X55693576Y-136457240D01*
X55693573Y-136457239D01*
X55693572Y-136457239D01*
X55514308Y-136402860D01*
X55514304Y-136402858D01*
X55349098Y-136314554D01*
X55204289Y-136195712D01*
X55085447Y-136050903D01*
X54997143Y-135885697D01*
X54997143Y-135885696D01*
X54997141Y-135885693D01*
X54942762Y-135706429D01*
X54942762Y-135706428D01*
X54942761Y-135706425D01*
X54929000Y-135566717D01*
X54929000Y-133673283D01*
X54942760Y-133533576D01*
X54942761Y-133533572D01*
X54997140Y-133354308D01*
X54997143Y-133354303D01*
X55085446Y-133189097D01*
X55204288Y-133044288D01*
X55349097Y-132925446D01*
X55514303Y-132837142D01*
X55514304Y-132837142D01*
X55514307Y-132837140D01*
X55693571Y-132782761D01*
X55693572Y-132782761D01*
X55693575Y-132782760D01*
X55880000Y-132764399D01*
X56066424Y-132782760D01*
X56066424Y-132782760D01*
G37*
G36*
X34476424Y-132782760D02*
G01*
X34476427Y-132782761D01*
X34476428Y-132782761D01*
X34655692Y-132837140D01*
X34655695Y-132837142D01*
X34655696Y-132837142D01*
X34820903Y-132925446D01*
X34965712Y-133044288D01*
X35084554Y-133189097D01*
X35172858Y-133354303D01*
X35172860Y-133354307D01*
X35172860Y-133354308D01*
X35227240Y-133533575D01*
X35241000Y-133673282D01*
X35241000Y-135566718D01*
X35227240Y-135706425D01*
X35227239Y-135706428D01*
X35227239Y-135706429D01*
X35172860Y-135885693D01*
X35172858Y-135885696D01*
X35172858Y-135885697D01*
X35084554Y-136050903D01*
X34965712Y-136195712D01*
X34820903Y-136314554D01*
X34655697Y-136402858D01*
X34655693Y-136402860D01*
X34476429Y-136457239D01*
X34476428Y-136457239D01*
X34476425Y-136457240D01*
X34290000Y-136475601D01*
X34103576Y-136457240D01*
X34103573Y-136457239D01*
X34103572Y-136457239D01*
X33924308Y-136402860D01*
X33924304Y-136402858D01*
X33759098Y-136314554D01*
X33614289Y-136195712D01*
X33495447Y-136050903D01*
X33407143Y-135885697D01*
X33407143Y-135885696D01*
X33407141Y-135885693D01*
X33352762Y-135706429D01*
X33352762Y-135706428D01*
X33352761Y-135706425D01*
X33339000Y-135566717D01*
X33339000Y-133673283D01*
X33352760Y-133533576D01*
X33352761Y-133533572D01*
X33407140Y-133354308D01*
X33407143Y-133354303D01*
X33495446Y-133189097D01*
X33614288Y-133044288D01*
X33759097Y-132925446D01*
X33924303Y-132837142D01*
X33924304Y-132837142D01*
X33924307Y-132837140D01*
X34103571Y-132782761D01*
X34103572Y-132782761D01*
X34103575Y-132782760D01*
X34290000Y-132764399D01*
X34476424Y-132782760D01*
X34476424Y-132782760D01*
G37*
G36*
X38286424Y-132782760D02*
G01*
X38286427Y-132782761D01*
X38286428Y-132782761D01*
X38465692Y-132837140D01*
X38465695Y-132837142D01*
X38465696Y-132837142D01*
X38630903Y-132925446D01*
X38775712Y-133044288D01*
X38894554Y-133189097D01*
X38982858Y-133354303D01*
X38982860Y-133354307D01*
X38982860Y-133354308D01*
X39037240Y-133533575D01*
X39051000Y-133673282D01*
X39051000Y-135566718D01*
X39037240Y-135706425D01*
X39037239Y-135706428D01*
X39037239Y-135706429D01*
X38982860Y-135885693D01*
X38982858Y-135885696D01*
X38982858Y-135885697D01*
X38894554Y-136050903D01*
X38775712Y-136195712D01*
X38630903Y-136314554D01*
X38465697Y-136402858D01*
X38465693Y-136402860D01*
X38286429Y-136457239D01*
X38286428Y-136457239D01*
X38286425Y-136457240D01*
X38100000Y-136475601D01*
X37913576Y-136457240D01*
X37913573Y-136457239D01*
X37913572Y-136457239D01*
X37734308Y-136402860D01*
X37734304Y-136402858D01*
X37569098Y-136314554D01*
X37424289Y-136195712D01*
X37305447Y-136050903D01*
X37217143Y-135885697D01*
X37217143Y-135885696D01*
X37217141Y-135885693D01*
X37162762Y-135706429D01*
X37162762Y-135706428D01*
X37162761Y-135706425D01*
X37149000Y-135566717D01*
X37149000Y-133673283D01*
X37162760Y-133533576D01*
X37162761Y-133533572D01*
X37217140Y-133354308D01*
X37217143Y-133354303D01*
X37305446Y-133189097D01*
X37424288Y-133044288D01*
X37569097Y-132925446D01*
X37734303Y-132837142D01*
X37734304Y-132837142D01*
X37734307Y-132837140D01*
X37913571Y-132782761D01*
X37913572Y-132782761D01*
X37913575Y-132782760D01*
X38100000Y-132764399D01*
X38286424Y-132782760D01*
X38286424Y-132782760D01*
G37*
G36*
X66991000Y-136471000D02*
G01*
X65089000Y-136471000D01*
X65089000Y-132769000D01*
X66991000Y-132769000D01*
X66991000Y-136471000D01*
X66991000Y-136471000D01*
G37*
G36*
X31431000Y-136471000D02*
G01*
X29529000Y-136471000D01*
X29529000Y-132769000D01*
X31431000Y-132769000D01*
X31431000Y-136471000D01*
X31431000Y-136471000D01*
G37*
G36*
X49211000Y-136471000D02*
G01*
X47309000Y-136471000D01*
X47309000Y-132769000D01*
X49211000Y-132769000D01*
X49211000Y-136471000D01*
X49211000Y-136471000D01*
G37*
G36*
X70036424Y-120082760D02*
G01*
X70036427Y-120082761D01*
X70036428Y-120082761D01*
X70215692Y-120137140D01*
X70215695Y-120137142D01*
X70215696Y-120137142D01*
X70380903Y-120225446D01*
X70525712Y-120344288D01*
X70644554Y-120489097D01*
X70732858Y-120654303D01*
X70732860Y-120654307D01*
X70732860Y-120654308D01*
X70787240Y-120833575D01*
X70801000Y-120973282D01*
X70801000Y-122866718D01*
X70787240Y-123006425D01*
X70787239Y-123006428D01*
X70787239Y-123006429D01*
X70732860Y-123185693D01*
X70732858Y-123185696D01*
X70732858Y-123185697D01*
X70644554Y-123350903D01*
X70525712Y-123495712D01*
X70380903Y-123614554D01*
X70215697Y-123702858D01*
X70215693Y-123702860D01*
X70036429Y-123757239D01*
X70036428Y-123757239D01*
X70036425Y-123757240D01*
X69850000Y-123775601D01*
X69663576Y-123757240D01*
X69663573Y-123757239D01*
X69663572Y-123757239D01*
X69484308Y-123702860D01*
X69484304Y-123702858D01*
X69319098Y-123614554D01*
X69174289Y-123495712D01*
X69055447Y-123350903D01*
X68967143Y-123185697D01*
X68967143Y-123185696D01*
X68967141Y-123185693D01*
X68912762Y-123006429D01*
X68912762Y-123006428D01*
X68912761Y-123006425D01*
X68899000Y-122866717D01*
X68899000Y-120973283D01*
X68912760Y-120833576D01*
X68912761Y-120833572D01*
X68967140Y-120654308D01*
X68967143Y-120654303D01*
X69055446Y-120489097D01*
X69174288Y-120344288D01*
X69319097Y-120225446D01*
X69484303Y-120137142D01*
X69484304Y-120137142D01*
X69484307Y-120137140D01*
X69663571Y-120082761D01*
X69663572Y-120082761D01*
X69663575Y-120082760D01*
X69850000Y-120064399D01*
X70036424Y-120082760D01*
X70036424Y-120082760D01*
G37*
G36*
X52256424Y-120082760D02*
G01*
X52256427Y-120082761D01*
X52256428Y-120082761D01*
X52435692Y-120137140D01*
X52435695Y-120137142D01*
X52435696Y-120137142D01*
X52600903Y-120225446D01*
X52745712Y-120344288D01*
X52864554Y-120489097D01*
X52952858Y-120654303D01*
X52952860Y-120654307D01*
X52952860Y-120654308D01*
X53007240Y-120833575D01*
X53021000Y-120973282D01*
X53021000Y-122866718D01*
X53007240Y-123006425D01*
X53007239Y-123006428D01*
X53007239Y-123006429D01*
X52952860Y-123185693D01*
X52952858Y-123185696D01*
X52952858Y-123185697D01*
X52864554Y-123350903D01*
X52745712Y-123495712D01*
X52600903Y-123614554D01*
X52435697Y-123702858D01*
X52435693Y-123702860D01*
X52256429Y-123757239D01*
X52256428Y-123757239D01*
X52256425Y-123757240D01*
X52070000Y-123775601D01*
X51883576Y-123757240D01*
X51883573Y-123757239D01*
X51883572Y-123757239D01*
X51704308Y-123702860D01*
X51704304Y-123702858D01*
X51539098Y-123614554D01*
X51394289Y-123495712D01*
X51275447Y-123350903D01*
X51187143Y-123185697D01*
X51187143Y-123185696D01*
X51187141Y-123185693D01*
X51132762Y-123006429D01*
X51132762Y-123006428D01*
X51132761Y-123006425D01*
X51119000Y-122866717D01*
X51119000Y-120973283D01*
X51132760Y-120833576D01*
X51132761Y-120833572D01*
X51187140Y-120654308D01*
X51187143Y-120654303D01*
X51275446Y-120489097D01*
X51394288Y-120344288D01*
X51539097Y-120225446D01*
X51704303Y-120137142D01*
X51704304Y-120137142D01*
X51704307Y-120137140D01*
X51883571Y-120082761D01*
X51883572Y-120082761D01*
X51883575Y-120082760D01*
X52070000Y-120064399D01*
X52256424Y-120082760D01*
X52256424Y-120082760D01*
G37*
G36*
X38286424Y-120082760D02*
G01*
X38286427Y-120082761D01*
X38286428Y-120082761D01*
X38465692Y-120137140D01*
X38465695Y-120137142D01*
X38465696Y-120137142D01*
X38630903Y-120225446D01*
X38775712Y-120344288D01*
X38894554Y-120489097D01*
X38982858Y-120654303D01*
X38982860Y-120654307D01*
X38982860Y-120654308D01*
X39037240Y-120833575D01*
X39051000Y-120973282D01*
X39051000Y-122866718D01*
X39037240Y-123006425D01*
X39037239Y-123006428D01*
X39037239Y-123006429D01*
X38982860Y-123185693D01*
X38982858Y-123185696D01*
X38982858Y-123185697D01*
X38894554Y-123350903D01*
X38775712Y-123495712D01*
X38630903Y-123614554D01*
X38465697Y-123702858D01*
X38465693Y-123702860D01*
X38286429Y-123757239D01*
X38286428Y-123757239D01*
X38286425Y-123757240D01*
X38100000Y-123775601D01*
X37913576Y-123757240D01*
X37913573Y-123757239D01*
X37913572Y-123757239D01*
X37734308Y-123702860D01*
X37734304Y-123702858D01*
X37569098Y-123614554D01*
X37424289Y-123495712D01*
X37305447Y-123350903D01*
X37217143Y-123185697D01*
X37217143Y-123185696D01*
X37217141Y-123185693D01*
X37162762Y-123006429D01*
X37162762Y-123006428D01*
X37162761Y-123006425D01*
X37149000Y-122866717D01*
X37149000Y-120973283D01*
X37162760Y-120833576D01*
X37162761Y-120833572D01*
X37217140Y-120654308D01*
X37217143Y-120654303D01*
X37305446Y-120489097D01*
X37424288Y-120344288D01*
X37569097Y-120225446D01*
X37734303Y-120137142D01*
X37734304Y-120137142D01*
X37734307Y-120137140D01*
X37913571Y-120082761D01*
X37913572Y-120082761D01*
X37913575Y-120082760D01*
X38100000Y-120064399D01*
X38286424Y-120082760D01*
X38286424Y-120082760D01*
G37*
G36*
X34476424Y-120082760D02*
G01*
X34476427Y-120082761D01*
X34476428Y-120082761D01*
X34655692Y-120137140D01*
X34655695Y-120137142D01*
X34655696Y-120137142D01*
X34820903Y-120225446D01*
X34965712Y-120344288D01*
X35084554Y-120489097D01*
X35172858Y-120654303D01*
X35172860Y-120654307D01*
X35172860Y-120654308D01*
X35227240Y-120833575D01*
X35241000Y-120973282D01*
X35241000Y-122866718D01*
X35227240Y-123006425D01*
X35227239Y-123006428D01*
X35227239Y-123006429D01*
X35172860Y-123185693D01*
X35172858Y-123185696D01*
X35172858Y-123185697D01*
X35084554Y-123350903D01*
X34965712Y-123495712D01*
X34820903Y-123614554D01*
X34655697Y-123702858D01*
X34655693Y-123702860D01*
X34476429Y-123757239D01*
X34476428Y-123757239D01*
X34476425Y-123757240D01*
X34290000Y-123775601D01*
X34103576Y-123757240D01*
X34103573Y-123757239D01*
X34103572Y-123757239D01*
X33924308Y-123702860D01*
X33924304Y-123702858D01*
X33759098Y-123614554D01*
X33614289Y-123495712D01*
X33495447Y-123350903D01*
X33407143Y-123185697D01*
X33407143Y-123185696D01*
X33407141Y-123185693D01*
X33352762Y-123006429D01*
X33352762Y-123006428D01*
X33352761Y-123006425D01*
X33339000Y-122866717D01*
X33339000Y-120973283D01*
X33352760Y-120833576D01*
X33352761Y-120833572D01*
X33407140Y-120654308D01*
X33407143Y-120654303D01*
X33495446Y-120489097D01*
X33614288Y-120344288D01*
X33759097Y-120225446D01*
X33924303Y-120137142D01*
X33924304Y-120137142D01*
X33924307Y-120137140D01*
X34103571Y-120082761D01*
X34103572Y-120082761D01*
X34103575Y-120082760D01*
X34290000Y-120064399D01*
X34476424Y-120082760D01*
X34476424Y-120082760D01*
G37*
G36*
X73846424Y-120082760D02*
G01*
X73846427Y-120082761D01*
X73846428Y-120082761D01*
X74025692Y-120137140D01*
X74025695Y-120137142D01*
X74025696Y-120137142D01*
X74190903Y-120225446D01*
X74335712Y-120344288D01*
X74454554Y-120489097D01*
X74542858Y-120654303D01*
X74542860Y-120654307D01*
X74542860Y-120654308D01*
X74597240Y-120833575D01*
X74611000Y-120973282D01*
X74611000Y-122866718D01*
X74597240Y-123006425D01*
X74597239Y-123006428D01*
X74597239Y-123006429D01*
X74542860Y-123185693D01*
X74542858Y-123185696D01*
X74542858Y-123185697D01*
X74454554Y-123350903D01*
X74335712Y-123495712D01*
X74190903Y-123614554D01*
X74025697Y-123702858D01*
X74025693Y-123702860D01*
X73846429Y-123757239D01*
X73846428Y-123757239D01*
X73846425Y-123757240D01*
X73660000Y-123775601D01*
X73473576Y-123757240D01*
X73473573Y-123757239D01*
X73473572Y-123757239D01*
X73294308Y-123702860D01*
X73294304Y-123702858D01*
X73129098Y-123614554D01*
X72984289Y-123495712D01*
X72865447Y-123350903D01*
X72777143Y-123185697D01*
X72777143Y-123185696D01*
X72777141Y-123185693D01*
X72722762Y-123006429D01*
X72722762Y-123006428D01*
X72722761Y-123006425D01*
X72709000Y-122866717D01*
X72709000Y-120973283D01*
X72722760Y-120833576D01*
X72722761Y-120833572D01*
X72777140Y-120654308D01*
X72777143Y-120654303D01*
X72865446Y-120489097D01*
X72984288Y-120344288D01*
X73129097Y-120225446D01*
X73294303Y-120137142D01*
X73294304Y-120137142D01*
X73294307Y-120137140D01*
X73473571Y-120082761D01*
X73473572Y-120082761D01*
X73473575Y-120082760D01*
X73660000Y-120064399D01*
X73846424Y-120082760D01*
X73846424Y-120082760D01*
G37*
G36*
X56066424Y-120082760D02*
G01*
X56066427Y-120082761D01*
X56066428Y-120082761D01*
X56245692Y-120137140D01*
X56245695Y-120137142D01*
X56245696Y-120137142D01*
X56410903Y-120225446D01*
X56555712Y-120344288D01*
X56674554Y-120489097D01*
X56762858Y-120654303D01*
X56762860Y-120654307D01*
X56762860Y-120654308D01*
X56817240Y-120833575D01*
X56831000Y-120973282D01*
X56831000Y-122866718D01*
X56817240Y-123006425D01*
X56817239Y-123006428D01*
X56817239Y-123006429D01*
X56762860Y-123185693D01*
X56762858Y-123185696D01*
X56762858Y-123185697D01*
X56674554Y-123350903D01*
X56555712Y-123495712D01*
X56410903Y-123614554D01*
X56245697Y-123702858D01*
X56245693Y-123702860D01*
X56066429Y-123757239D01*
X56066428Y-123757239D01*
X56066425Y-123757240D01*
X55880000Y-123775601D01*
X55693576Y-123757240D01*
X55693573Y-123757239D01*
X55693572Y-123757239D01*
X55514308Y-123702860D01*
X55514304Y-123702858D01*
X55349098Y-123614554D01*
X55204289Y-123495712D01*
X55085447Y-123350903D01*
X54997143Y-123185697D01*
X54997143Y-123185696D01*
X54997141Y-123185693D01*
X54942762Y-123006429D01*
X54942762Y-123006428D01*
X54942761Y-123006425D01*
X54929000Y-122866717D01*
X54929000Y-120973283D01*
X54942760Y-120833576D01*
X54942761Y-120833572D01*
X54997140Y-120654308D01*
X54997143Y-120654303D01*
X55085446Y-120489097D01*
X55204288Y-120344288D01*
X55349097Y-120225446D01*
X55514303Y-120137142D01*
X55514304Y-120137142D01*
X55514307Y-120137140D01*
X55693571Y-120082761D01*
X55693572Y-120082761D01*
X55693575Y-120082760D01*
X55880000Y-120064399D01*
X56066424Y-120082760D01*
X56066424Y-120082760D01*
G37*
G36*
X31431000Y-123771000D02*
G01*
X29529000Y-123771000D01*
X29529000Y-120069000D01*
X31431000Y-120069000D01*
X31431000Y-123771000D01*
X31431000Y-123771000D01*
G37*
G36*
X49211000Y-123771000D02*
G01*
X47309000Y-123771000D01*
X47309000Y-120069000D01*
X49211000Y-120069000D01*
X49211000Y-123771000D01*
X49211000Y-123771000D01*
G37*
G36*
X66991000Y-123771000D02*
G01*
X65089000Y-123771000D01*
X65089000Y-120069000D01*
X66991000Y-120069000D01*
X66991000Y-123771000D01*
X66991000Y-123771000D01*
G37*
G36*
X70036424Y-107382760D02*
G01*
X70036427Y-107382761D01*
X70036428Y-107382761D01*
X70215692Y-107437140D01*
X70215695Y-107437142D01*
X70215696Y-107437142D01*
X70380903Y-107525446D01*
X70525712Y-107644288D01*
X70644554Y-107789097D01*
X70732858Y-107954303D01*
X70732860Y-107954307D01*
X70732860Y-107954308D01*
X70787240Y-108133575D01*
X70801000Y-108273282D01*
X70801000Y-110166718D01*
X70787240Y-110306425D01*
X70787239Y-110306428D01*
X70787239Y-110306429D01*
X70732860Y-110485693D01*
X70732858Y-110485696D01*
X70732858Y-110485697D01*
X70644554Y-110650903D01*
X70525712Y-110795712D01*
X70380903Y-110914554D01*
X70215697Y-111002858D01*
X70215693Y-111002860D01*
X70036429Y-111057239D01*
X70036428Y-111057239D01*
X70036425Y-111057240D01*
X69850000Y-111075601D01*
X69663576Y-111057240D01*
X69663573Y-111057239D01*
X69663572Y-111057239D01*
X69484308Y-111002860D01*
X69484304Y-111002858D01*
X69319098Y-110914554D01*
X69174289Y-110795712D01*
X69055447Y-110650903D01*
X68967143Y-110485697D01*
X68967143Y-110485696D01*
X68967141Y-110485693D01*
X68912762Y-110306429D01*
X68912762Y-110306428D01*
X68912761Y-110306425D01*
X68899000Y-110166717D01*
X68899000Y-108273283D01*
X68912760Y-108133576D01*
X68912761Y-108133572D01*
X68967140Y-107954308D01*
X68967143Y-107954303D01*
X69055446Y-107789097D01*
X69174288Y-107644288D01*
X69319097Y-107525446D01*
X69484303Y-107437142D01*
X69484304Y-107437142D01*
X69484307Y-107437140D01*
X69663571Y-107382761D01*
X69663572Y-107382761D01*
X69663575Y-107382760D01*
X69850000Y-107364399D01*
X70036424Y-107382760D01*
X70036424Y-107382760D01*
G37*
G36*
X38286424Y-107382760D02*
G01*
X38286427Y-107382761D01*
X38286428Y-107382761D01*
X38465692Y-107437140D01*
X38465695Y-107437142D01*
X38465696Y-107437142D01*
X38630903Y-107525446D01*
X38775712Y-107644288D01*
X38894554Y-107789097D01*
X38982858Y-107954303D01*
X38982860Y-107954307D01*
X38982860Y-107954308D01*
X39037240Y-108133575D01*
X39051000Y-108273282D01*
X39051000Y-110166718D01*
X39037240Y-110306425D01*
X39037239Y-110306428D01*
X39037239Y-110306429D01*
X38982860Y-110485693D01*
X38982858Y-110485696D01*
X38982858Y-110485697D01*
X38894554Y-110650903D01*
X38775712Y-110795712D01*
X38630903Y-110914554D01*
X38465697Y-111002858D01*
X38465693Y-111002860D01*
X38286429Y-111057239D01*
X38286428Y-111057239D01*
X38286425Y-111057240D01*
X38100000Y-111075601D01*
X37913576Y-111057240D01*
X37913573Y-111057239D01*
X37913572Y-111057239D01*
X37734308Y-111002860D01*
X37734304Y-111002858D01*
X37569098Y-110914554D01*
X37424289Y-110795712D01*
X37305447Y-110650903D01*
X37217143Y-110485697D01*
X37217143Y-110485696D01*
X37217141Y-110485693D01*
X37162762Y-110306429D01*
X37162762Y-110306428D01*
X37162761Y-110306425D01*
X37149000Y-110166717D01*
X37149000Y-108273283D01*
X37162760Y-108133576D01*
X37162761Y-108133572D01*
X37217140Y-107954308D01*
X37217143Y-107954303D01*
X37305446Y-107789097D01*
X37424288Y-107644288D01*
X37569097Y-107525446D01*
X37734303Y-107437142D01*
X37734304Y-107437142D01*
X37734307Y-107437140D01*
X37913571Y-107382761D01*
X37913572Y-107382761D01*
X37913575Y-107382760D01*
X38100000Y-107364399D01*
X38286424Y-107382760D01*
X38286424Y-107382760D01*
G37*
G36*
X34476424Y-107382760D02*
G01*
X34476427Y-107382761D01*
X34476428Y-107382761D01*
X34655692Y-107437140D01*
X34655695Y-107437142D01*
X34655696Y-107437142D01*
X34820903Y-107525446D01*
X34965712Y-107644288D01*
X35084554Y-107789097D01*
X35172858Y-107954303D01*
X35172860Y-107954307D01*
X35172860Y-107954308D01*
X35227240Y-108133575D01*
X35241000Y-108273282D01*
X35241000Y-110166718D01*
X35227240Y-110306425D01*
X35227239Y-110306428D01*
X35227239Y-110306429D01*
X35172860Y-110485693D01*
X35172858Y-110485696D01*
X35172858Y-110485697D01*
X35084554Y-110650903D01*
X34965712Y-110795712D01*
X34820903Y-110914554D01*
X34655697Y-111002858D01*
X34655693Y-111002860D01*
X34476429Y-111057239D01*
X34476428Y-111057239D01*
X34476425Y-111057240D01*
X34290000Y-111075601D01*
X34103576Y-111057240D01*
X34103573Y-111057239D01*
X34103572Y-111057239D01*
X33924308Y-111002860D01*
X33924304Y-111002858D01*
X33759098Y-110914554D01*
X33614289Y-110795712D01*
X33495447Y-110650903D01*
X33407143Y-110485697D01*
X33407143Y-110485696D01*
X33407141Y-110485693D01*
X33352762Y-110306429D01*
X33352762Y-110306428D01*
X33352761Y-110306425D01*
X33339000Y-110166717D01*
X33339000Y-108273283D01*
X33352760Y-108133576D01*
X33352761Y-108133572D01*
X33407140Y-107954308D01*
X33407143Y-107954303D01*
X33495446Y-107789097D01*
X33614288Y-107644288D01*
X33759097Y-107525446D01*
X33924303Y-107437142D01*
X33924304Y-107437142D01*
X33924307Y-107437140D01*
X34103571Y-107382761D01*
X34103572Y-107382761D01*
X34103575Y-107382760D01*
X34290000Y-107364399D01*
X34476424Y-107382760D01*
X34476424Y-107382760D01*
G37*
G36*
X56066424Y-107382760D02*
G01*
X56066427Y-107382761D01*
X56066428Y-107382761D01*
X56245692Y-107437140D01*
X56245695Y-107437142D01*
X56245696Y-107437142D01*
X56410903Y-107525446D01*
X56555712Y-107644288D01*
X56674554Y-107789097D01*
X56762858Y-107954303D01*
X56762860Y-107954307D01*
X56762860Y-107954308D01*
X56817240Y-108133575D01*
X56831000Y-108273282D01*
X56831000Y-110166718D01*
X56817240Y-110306425D01*
X56817239Y-110306428D01*
X56817239Y-110306429D01*
X56762860Y-110485693D01*
X56762858Y-110485696D01*
X56762858Y-110485697D01*
X56674554Y-110650903D01*
X56555712Y-110795712D01*
X56410903Y-110914554D01*
X56245697Y-111002858D01*
X56245693Y-111002860D01*
X56066429Y-111057239D01*
X56066428Y-111057239D01*
X56066425Y-111057240D01*
X55880000Y-111075601D01*
X55693576Y-111057240D01*
X55693573Y-111057239D01*
X55693572Y-111057239D01*
X55514308Y-111002860D01*
X55514304Y-111002858D01*
X55349098Y-110914554D01*
X55204289Y-110795712D01*
X55085447Y-110650903D01*
X54997143Y-110485697D01*
X54997143Y-110485696D01*
X54997141Y-110485693D01*
X54942762Y-110306429D01*
X54942762Y-110306428D01*
X54942761Y-110306425D01*
X54929000Y-110166717D01*
X54929000Y-108273283D01*
X54942760Y-108133576D01*
X54942761Y-108133572D01*
X54997140Y-107954308D01*
X54997143Y-107954303D01*
X55085446Y-107789097D01*
X55204288Y-107644288D01*
X55349097Y-107525446D01*
X55514303Y-107437142D01*
X55514304Y-107437142D01*
X55514307Y-107437140D01*
X55693571Y-107382761D01*
X55693572Y-107382761D01*
X55693575Y-107382760D01*
X55880000Y-107364399D01*
X56066424Y-107382760D01*
X56066424Y-107382760D01*
G37*
G36*
X52256424Y-107382760D02*
G01*
X52256427Y-107382761D01*
X52256428Y-107382761D01*
X52435692Y-107437140D01*
X52435695Y-107437142D01*
X52435696Y-107437142D01*
X52600903Y-107525446D01*
X52745712Y-107644288D01*
X52864554Y-107789097D01*
X52952858Y-107954303D01*
X52952860Y-107954307D01*
X52952860Y-107954308D01*
X53007240Y-108133575D01*
X53021000Y-108273282D01*
X53021000Y-110166718D01*
X53007240Y-110306425D01*
X53007239Y-110306428D01*
X53007239Y-110306429D01*
X52952860Y-110485693D01*
X52952858Y-110485696D01*
X52952858Y-110485697D01*
X52864554Y-110650903D01*
X52745712Y-110795712D01*
X52600903Y-110914554D01*
X52435697Y-111002858D01*
X52435693Y-111002860D01*
X52256429Y-111057239D01*
X52256428Y-111057239D01*
X52256425Y-111057240D01*
X52070000Y-111075601D01*
X51883576Y-111057240D01*
X51883573Y-111057239D01*
X51883572Y-111057239D01*
X51704308Y-111002860D01*
X51704304Y-111002858D01*
X51539098Y-110914554D01*
X51394289Y-110795712D01*
X51275447Y-110650903D01*
X51187143Y-110485697D01*
X51187143Y-110485696D01*
X51187141Y-110485693D01*
X51132762Y-110306429D01*
X51132762Y-110306428D01*
X51132761Y-110306425D01*
X51119000Y-110166717D01*
X51119000Y-108273283D01*
X51132760Y-108133576D01*
X51132761Y-108133572D01*
X51187140Y-107954308D01*
X51187143Y-107954303D01*
X51275446Y-107789097D01*
X51394288Y-107644288D01*
X51539097Y-107525446D01*
X51704303Y-107437142D01*
X51704304Y-107437142D01*
X51704307Y-107437140D01*
X51883571Y-107382761D01*
X51883572Y-107382761D01*
X51883575Y-107382760D01*
X52070000Y-107364399D01*
X52256424Y-107382760D01*
X52256424Y-107382760D01*
G37*
G36*
X73846424Y-107382760D02*
G01*
X73846427Y-107382761D01*
X73846428Y-107382761D01*
X74025692Y-107437140D01*
X74025695Y-107437142D01*
X74025696Y-107437142D01*
X74190903Y-107525446D01*
X74335712Y-107644288D01*
X74454554Y-107789097D01*
X74542858Y-107954303D01*
X74542860Y-107954307D01*
X74542860Y-107954308D01*
X74597240Y-108133575D01*
X74611000Y-108273282D01*
X74611000Y-110166718D01*
X74597240Y-110306425D01*
X74597239Y-110306428D01*
X74597239Y-110306429D01*
X74542860Y-110485693D01*
X74542858Y-110485696D01*
X74542858Y-110485697D01*
X74454554Y-110650903D01*
X74335712Y-110795712D01*
X74190903Y-110914554D01*
X74025697Y-111002858D01*
X74025693Y-111002860D01*
X73846429Y-111057239D01*
X73846428Y-111057239D01*
X73846425Y-111057240D01*
X73660000Y-111075601D01*
X73473576Y-111057240D01*
X73473573Y-111057239D01*
X73473572Y-111057239D01*
X73294308Y-111002860D01*
X73294304Y-111002858D01*
X73129098Y-110914554D01*
X72984289Y-110795712D01*
X72865447Y-110650903D01*
X72777143Y-110485697D01*
X72777143Y-110485696D01*
X72777141Y-110485693D01*
X72722762Y-110306429D01*
X72722762Y-110306428D01*
X72722761Y-110306425D01*
X72709000Y-110166717D01*
X72709000Y-108273283D01*
X72722760Y-108133576D01*
X72722761Y-108133572D01*
X72777140Y-107954308D01*
X72777143Y-107954303D01*
X72865446Y-107789097D01*
X72984288Y-107644288D01*
X73129097Y-107525446D01*
X73294303Y-107437142D01*
X73294304Y-107437142D01*
X73294307Y-107437140D01*
X73473571Y-107382761D01*
X73473572Y-107382761D01*
X73473575Y-107382760D01*
X73660000Y-107364399D01*
X73846424Y-107382760D01*
X73846424Y-107382760D01*
G37*
G36*
X66991000Y-111071000D02*
G01*
X65089000Y-111071000D01*
X65089000Y-107369000D01*
X66991000Y-107369000D01*
X66991000Y-111071000D01*
X66991000Y-111071000D01*
G37*
G36*
X49211000Y-111071000D02*
G01*
X47309000Y-111071000D01*
X47309000Y-107369000D01*
X49211000Y-107369000D01*
X49211000Y-111071000D01*
X49211000Y-111071000D01*
G37*
G36*
X31431000Y-111071000D02*
G01*
X29529000Y-111071000D01*
X29529000Y-107369000D01*
X31431000Y-107369000D01*
X31431000Y-111071000D01*
X31431000Y-111071000D01*
G37*
G36*
X38286424Y-94682760D02*
G01*
X38286427Y-94682761D01*
X38286428Y-94682761D01*
X38465692Y-94737140D01*
X38465695Y-94737142D01*
X38465696Y-94737142D01*
X38630903Y-94825446D01*
X38775712Y-94944288D01*
X38894554Y-95089097D01*
X38982858Y-95254303D01*
X38982860Y-95254307D01*
X38982860Y-95254308D01*
X39037240Y-95433575D01*
X39051000Y-95573282D01*
X39051000Y-97466718D01*
X39037240Y-97606425D01*
X39037239Y-97606428D01*
X39037239Y-97606429D01*
X38982860Y-97785693D01*
X38982858Y-97785696D01*
X38982858Y-97785697D01*
X38894554Y-97950903D01*
X38775712Y-98095712D01*
X38630903Y-98214554D01*
X38465697Y-98302858D01*
X38465693Y-98302860D01*
X38286429Y-98357239D01*
X38286428Y-98357239D01*
X38286425Y-98357240D01*
X38100000Y-98375601D01*
X37913576Y-98357240D01*
X37913573Y-98357239D01*
X37913572Y-98357239D01*
X37734308Y-98302860D01*
X37734304Y-98302858D01*
X37569098Y-98214554D01*
X37424289Y-98095712D01*
X37305447Y-97950903D01*
X37217143Y-97785697D01*
X37217143Y-97785696D01*
X37217141Y-97785693D01*
X37162762Y-97606429D01*
X37162762Y-97606428D01*
X37162761Y-97606425D01*
X37149000Y-97466717D01*
X37149000Y-95573283D01*
X37162760Y-95433576D01*
X37162761Y-95433572D01*
X37217140Y-95254308D01*
X37217143Y-95254303D01*
X37305446Y-95089097D01*
X37424288Y-94944288D01*
X37569097Y-94825446D01*
X37734303Y-94737142D01*
X37734304Y-94737142D01*
X37734307Y-94737140D01*
X37913571Y-94682761D01*
X37913572Y-94682761D01*
X37913575Y-94682760D01*
X38100000Y-94664399D01*
X38286424Y-94682760D01*
X38286424Y-94682760D01*
G37*
G36*
X34476424Y-94682760D02*
G01*
X34476427Y-94682761D01*
X34476428Y-94682761D01*
X34655692Y-94737140D01*
X34655695Y-94737142D01*
X34655696Y-94737142D01*
X34820903Y-94825446D01*
X34965712Y-94944288D01*
X35084554Y-95089097D01*
X35172858Y-95254303D01*
X35172860Y-95254307D01*
X35172860Y-95254308D01*
X35227240Y-95433575D01*
X35241000Y-95573282D01*
X35241000Y-97466718D01*
X35227240Y-97606425D01*
X35227239Y-97606428D01*
X35227239Y-97606429D01*
X35172860Y-97785693D01*
X35172858Y-97785696D01*
X35172858Y-97785697D01*
X35084554Y-97950903D01*
X34965712Y-98095712D01*
X34820903Y-98214554D01*
X34655697Y-98302858D01*
X34655693Y-98302860D01*
X34476429Y-98357239D01*
X34476428Y-98357239D01*
X34476425Y-98357240D01*
X34290000Y-98375601D01*
X34103576Y-98357240D01*
X34103573Y-98357239D01*
X34103572Y-98357239D01*
X33924308Y-98302860D01*
X33924304Y-98302858D01*
X33759098Y-98214554D01*
X33614289Y-98095712D01*
X33495447Y-97950903D01*
X33407143Y-97785697D01*
X33407143Y-97785696D01*
X33407141Y-97785693D01*
X33352762Y-97606429D01*
X33352762Y-97606428D01*
X33352761Y-97606425D01*
X33339000Y-97466717D01*
X33339000Y-95573283D01*
X33352760Y-95433576D01*
X33352761Y-95433572D01*
X33407140Y-95254308D01*
X33407143Y-95254303D01*
X33495446Y-95089097D01*
X33614288Y-94944288D01*
X33759097Y-94825446D01*
X33924303Y-94737142D01*
X33924304Y-94737142D01*
X33924307Y-94737140D01*
X34103571Y-94682761D01*
X34103572Y-94682761D01*
X34103575Y-94682760D01*
X34290000Y-94664399D01*
X34476424Y-94682760D01*
X34476424Y-94682760D01*
G37*
G36*
X52256424Y-94682760D02*
G01*
X52256427Y-94682761D01*
X52256428Y-94682761D01*
X52435692Y-94737140D01*
X52435695Y-94737142D01*
X52435696Y-94737142D01*
X52600903Y-94825446D01*
X52745712Y-94944288D01*
X52864554Y-95089097D01*
X52952858Y-95254303D01*
X52952860Y-95254307D01*
X52952860Y-95254308D01*
X53007240Y-95433575D01*
X53021000Y-95573282D01*
X53021000Y-97466718D01*
X53007240Y-97606425D01*
X53007239Y-97606428D01*
X53007239Y-97606429D01*
X52952860Y-97785693D01*
X52952858Y-97785696D01*
X52952858Y-97785697D01*
X52864554Y-97950903D01*
X52745712Y-98095712D01*
X52600903Y-98214554D01*
X52435697Y-98302858D01*
X52435693Y-98302860D01*
X52256429Y-98357239D01*
X52256428Y-98357239D01*
X52256425Y-98357240D01*
X52070000Y-98375601D01*
X51883576Y-98357240D01*
X51883573Y-98357239D01*
X51883572Y-98357239D01*
X51704308Y-98302860D01*
X51704304Y-98302858D01*
X51539098Y-98214554D01*
X51394289Y-98095712D01*
X51275447Y-97950903D01*
X51187143Y-97785697D01*
X51187143Y-97785696D01*
X51187141Y-97785693D01*
X51132762Y-97606429D01*
X51132762Y-97606428D01*
X51132761Y-97606425D01*
X51119000Y-97466717D01*
X51119000Y-95573283D01*
X51132760Y-95433576D01*
X51132761Y-95433572D01*
X51187140Y-95254308D01*
X51187143Y-95254303D01*
X51275446Y-95089097D01*
X51394288Y-94944288D01*
X51539097Y-94825446D01*
X51704303Y-94737142D01*
X51704304Y-94737142D01*
X51704307Y-94737140D01*
X51883571Y-94682761D01*
X51883572Y-94682761D01*
X51883575Y-94682760D01*
X52070000Y-94664399D01*
X52256424Y-94682760D01*
X52256424Y-94682760D01*
G37*
G36*
X56066424Y-94682760D02*
G01*
X56066427Y-94682761D01*
X56066428Y-94682761D01*
X56245692Y-94737140D01*
X56245695Y-94737142D01*
X56245696Y-94737142D01*
X56410903Y-94825446D01*
X56555712Y-94944288D01*
X56674554Y-95089097D01*
X56762858Y-95254303D01*
X56762860Y-95254307D01*
X56762860Y-95254308D01*
X56817240Y-95433575D01*
X56831000Y-95573282D01*
X56831000Y-97466718D01*
X56817240Y-97606425D01*
X56817239Y-97606428D01*
X56817239Y-97606429D01*
X56762860Y-97785693D01*
X56762858Y-97785696D01*
X56762858Y-97785697D01*
X56674554Y-97950903D01*
X56555712Y-98095712D01*
X56410903Y-98214554D01*
X56245697Y-98302858D01*
X56245693Y-98302860D01*
X56066429Y-98357239D01*
X56066428Y-98357239D01*
X56066425Y-98357240D01*
X55880000Y-98375601D01*
X55693576Y-98357240D01*
X55693573Y-98357239D01*
X55693572Y-98357239D01*
X55514308Y-98302860D01*
X55514304Y-98302858D01*
X55349098Y-98214554D01*
X55204289Y-98095712D01*
X55085447Y-97950903D01*
X54997143Y-97785697D01*
X54997143Y-97785696D01*
X54997141Y-97785693D01*
X54942762Y-97606429D01*
X54942762Y-97606428D01*
X54942761Y-97606425D01*
X54929000Y-97466717D01*
X54929000Y-95573283D01*
X54942760Y-95433576D01*
X54942761Y-95433572D01*
X54997140Y-95254308D01*
X54997143Y-95254303D01*
X55085446Y-95089097D01*
X55204288Y-94944288D01*
X55349097Y-94825446D01*
X55514303Y-94737142D01*
X55514304Y-94737142D01*
X55514307Y-94737140D01*
X55693571Y-94682761D01*
X55693572Y-94682761D01*
X55693575Y-94682760D01*
X55880000Y-94664399D01*
X56066424Y-94682760D01*
X56066424Y-94682760D01*
G37*
G36*
X73846424Y-94682760D02*
G01*
X73846427Y-94682761D01*
X73846428Y-94682761D01*
X74025692Y-94737140D01*
X74025695Y-94737142D01*
X74025696Y-94737142D01*
X74190903Y-94825446D01*
X74335712Y-94944288D01*
X74454554Y-95089097D01*
X74542858Y-95254303D01*
X74542860Y-95254307D01*
X74542860Y-95254308D01*
X74597240Y-95433575D01*
X74611000Y-95573282D01*
X74611000Y-97466718D01*
X74597240Y-97606425D01*
X74597239Y-97606428D01*
X74597239Y-97606429D01*
X74542860Y-97785693D01*
X74542858Y-97785696D01*
X74542858Y-97785697D01*
X74454554Y-97950903D01*
X74335712Y-98095712D01*
X74190903Y-98214554D01*
X74025697Y-98302858D01*
X74025693Y-98302860D01*
X73846429Y-98357239D01*
X73846428Y-98357239D01*
X73846425Y-98357240D01*
X73660000Y-98375601D01*
X73473576Y-98357240D01*
X73473573Y-98357239D01*
X73473572Y-98357239D01*
X73294308Y-98302860D01*
X73294304Y-98302858D01*
X73129098Y-98214554D01*
X72984289Y-98095712D01*
X72865447Y-97950903D01*
X72777143Y-97785697D01*
X72777143Y-97785696D01*
X72777141Y-97785693D01*
X72722762Y-97606429D01*
X72722762Y-97606428D01*
X72722761Y-97606425D01*
X72709000Y-97466717D01*
X72709000Y-95573283D01*
X72722760Y-95433576D01*
X72722761Y-95433572D01*
X72777140Y-95254308D01*
X72777143Y-95254303D01*
X72865446Y-95089097D01*
X72984288Y-94944288D01*
X73129097Y-94825446D01*
X73294303Y-94737142D01*
X73294304Y-94737142D01*
X73294307Y-94737140D01*
X73473571Y-94682761D01*
X73473572Y-94682761D01*
X73473575Y-94682760D01*
X73660000Y-94664399D01*
X73846424Y-94682760D01*
X73846424Y-94682760D01*
G37*
G36*
X70036424Y-94682760D02*
G01*
X70036427Y-94682761D01*
X70036428Y-94682761D01*
X70215692Y-94737140D01*
X70215695Y-94737142D01*
X70215696Y-94737142D01*
X70380903Y-94825446D01*
X70525712Y-94944288D01*
X70644554Y-95089097D01*
X70732858Y-95254303D01*
X70732860Y-95254307D01*
X70732860Y-95254308D01*
X70787240Y-95433575D01*
X70801000Y-95573282D01*
X70801000Y-97466718D01*
X70787240Y-97606425D01*
X70787239Y-97606428D01*
X70787239Y-97606429D01*
X70732860Y-97785693D01*
X70732858Y-97785696D01*
X70732858Y-97785697D01*
X70644554Y-97950903D01*
X70525712Y-98095712D01*
X70380903Y-98214554D01*
X70215697Y-98302858D01*
X70215693Y-98302860D01*
X70036429Y-98357239D01*
X70036428Y-98357239D01*
X70036425Y-98357240D01*
X69850000Y-98375601D01*
X69663576Y-98357240D01*
X69663573Y-98357239D01*
X69663572Y-98357239D01*
X69484308Y-98302860D01*
X69484304Y-98302858D01*
X69319098Y-98214554D01*
X69174289Y-98095712D01*
X69055447Y-97950903D01*
X68967143Y-97785697D01*
X68967143Y-97785696D01*
X68967141Y-97785693D01*
X68912762Y-97606429D01*
X68912762Y-97606428D01*
X68912761Y-97606425D01*
X68899000Y-97466717D01*
X68899000Y-95573283D01*
X68912760Y-95433576D01*
X68912761Y-95433572D01*
X68967140Y-95254308D01*
X68967143Y-95254303D01*
X69055446Y-95089097D01*
X69174288Y-94944288D01*
X69319097Y-94825446D01*
X69484303Y-94737142D01*
X69484304Y-94737142D01*
X69484307Y-94737140D01*
X69663571Y-94682761D01*
X69663572Y-94682761D01*
X69663575Y-94682760D01*
X69850000Y-94664399D01*
X70036424Y-94682760D01*
X70036424Y-94682760D01*
G37*
G36*
X31431000Y-98371000D02*
G01*
X29529000Y-98371000D01*
X29529000Y-94669000D01*
X31431000Y-94669000D01*
X31431000Y-98371000D01*
X31431000Y-98371000D01*
G37*
G36*
X49211000Y-98371000D02*
G01*
X47309000Y-98371000D01*
X47309000Y-94669000D01*
X49211000Y-94669000D01*
X49211000Y-98371000D01*
X49211000Y-98371000D01*
G37*
G36*
X66991000Y-98371000D02*
G01*
X65089000Y-98371000D01*
X65089000Y-94669000D01*
X66991000Y-94669000D01*
X66991000Y-98371000D01*
X66991000Y-98371000D01*
G37*
G36*
X34476424Y-81982760D02*
G01*
X34476427Y-81982761D01*
X34476428Y-81982761D01*
X34655692Y-82037140D01*
X34655695Y-82037142D01*
X34655696Y-82037142D01*
X34820903Y-82125446D01*
X34965712Y-82244288D01*
X35084554Y-82389097D01*
X35172858Y-82554303D01*
X35172860Y-82554307D01*
X35172860Y-82554308D01*
X35227240Y-82733575D01*
X35241000Y-82873282D01*
X35241000Y-84766718D01*
X35227240Y-84906425D01*
X35227239Y-84906428D01*
X35227239Y-84906429D01*
X35172860Y-85085693D01*
X35172858Y-85085696D01*
X35172858Y-85085697D01*
X35084554Y-85250903D01*
X34965712Y-85395712D01*
X34820903Y-85514554D01*
X34655697Y-85602858D01*
X34655693Y-85602860D01*
X34476429Y-85657239D01*
X34476428Y-85657239D01*
X34476425Y-85657240D01*
X34290000Y-85675601D01*
X34103576Y-85657240D01*
X34103573Y-85657239D01*
X34103572Y-85657239D01*
X33924308Y-85602860D01*
X33924304Y-85602858D01*
X33759098Y-85514554D01*
X33614289Y-85395712D01*
X33495447Y-85250903D01*
X33407143Y-85085697D01*
X33407143Y-85085696D01*
X33407141Y-85085693D01*
X33352762Y-84906429D01*
X33352762Y-84906428D01*
X33352761Y-84906425D01*
X33339000Y-84766717D01*
X33339000Y-82873283D01*
X33352760Y-82733576D01*
X33352761Y-82733572D01*
X33407140Y-82554308D01*
X33407143Y-82554303D01*
X33495446Y-82389097D01*
X33614288Y-82244288D01*
X33759097Y-82125446D01*
X33924303Y-82037142D01*
X33924304Y-82037142D01*
X33924307Y-82037140D01*
X34103571Y-81982761D01*
X34103572Y-81982761D01*
X34103575Y-81982760D01*
X34290000Y-81964399D01*
X34476424Y-81982760D01*
X34476424Y-81982760D01*
G37*
G36*
X38286424Y-81982760D02*
G01*
X38286427Y-81982761D01*
X38286428Y-81982761D01*
X38465692Y-82037140D01*
X38465695Y-82037142D01*
X38465696Y-82037142D01*
X38630903Y-82125446D01*
X38775712Y-82244288D01*
X38894554Y-82389097D01*
X38982858Y-82554303D01*
X38982860Y-82554307D01*
X38982860Y-82554308D01*
X39037240Y-82733575D01*
X39051000Y-82873282D01*
X39051000Y-84766718D01*
X39037240Y-84906425D01*
X39037239Y-84906428D01*
X39037239Y-84906429D01*
X38982860Y-85085693D01*
X38982858Y-85085696D01*
X38982858Y-85085697D01*
X38894554Y-85250903D01*
X38775712Y-85395712D01*
X38630903Y-85514554D01*
X38465697Y-85602858D01*
X38465693Y-85602860D01*
X38286429Y-85657239D01*
X38286428Y-85657239D01*
X38286425Y-85657240D01*
X38100000Y-85675601D01*
X37913576Y-85657240D01*
X37913573Y-85657239D01*
X37913572Y-85657239D01*
X37734308Y-85602860D01*
X37734304Y-85602858D01*
X37569098Y-85514554D01*
X37424289Y-85395712D01*
X37305447Y-85250903D01*
X37217143Y-85085697D01*
X37217143Y-85085696D01*
X37217141Y-85085693D01*
X37162762Y-84906429D01*
X37162762Y-84906428D01*
X37162761Y-84906425D01*
X37149000Y-84766717D01*
X37149000Y-82873283D01*
X37162760Y-82733576D01*
X37162761Y-82733572D01*
X37217140Y-82554308D01*
X37217143Y-82554303D01*
X37305446Y-82389097D01*
X37424288Y-82244288D01*
X37569097Y-82125446D01*
X37734303Y-82037142D01*
X37734304Y-82037142D01*
X37734307Y-82037140D01*
X37913571Y-81982761D01*
X37913572Y-81982761D01*
X37913575Y-81982760D01*
X38100000Y-81964399D01*
X38286424Y-81982760D01*
X38286424Y-81982760D01*
G37*
G36*
X56066424Y-81982760D02*
G01*
X56066427Y-81982761D01*
X56066428Y-81982761D01*
X56245692Y-82037140D01*
X56245695Y-82037142D01*
X56245696Y-82037142D01*
X56410903Y-82125446D01*
X56555712Y-82244288D01*
X56674554Y-82389097D01*
X56762858Y-82554303D01*
X56762860Y-82554307D01*
X56762860Y-82554308D01*
X56817240Y-82733575D01*
X56831000Y-82873282D01*
X56831000Y-84766718D01*
X56817240Y-84906425D01*
X56817239Y-84906428D01*
X56817239Y-84906429D01*
X56762860Y-85085693D01*
X56762858Y-85085696D01*
X56762858Y-85085697D01*
X56674554Y-85250903D01*
X56555712Y-85395712D01*
X56410903Y-85514554D01*
X56245697Y-85602858D01*
X56245693Y-85602860D01*
X56066429Y-85657239D01*
X56066428Y-85657239D01*
X56066425Y-85657240D01*
X55880000Y-85675601D01*
X55693576Y-85657240D01*
X55693573Y-85657239D01*
X55693572Y-85657239D01*
X55514308Y-85602860D01*
X55514304Y-85602858D01*
X55349098Y-85514554D01*
X55204289Y-85395712D01*
X55085447Y-85250903D01*
X54997143Y-85085697D01*
X54997143Y-85085696D01*
X54997141Y-85085693D01*
X54942762Y-84906429D01*
X54942762Y-84906428D01*
X54942761Y-84906425D01*
X54929000Y-84766717D01*
X54929000Y-82873283D01*
X54942760Y-82733576D01*
X54942761Y-82733572D01*
X54997140Y-82554308D01*
X54997143Y-82554303D01*
X55085446Y-82389097D01*
X55204288Y-82244288D01*
X55349097Y-82125446D01*
X55514303Y-82037142D01*
X55514304Y-82037142D01*
X55514307Y-82037140D01*
X55693571Y-81982761D01*
X55693572Y-81982761D01*
X55693575Y-81982760D01*
X55880000Y-81964399D01*
X56066424Y-81982760D01*
X56066424Y-81982760D01*
G37*
G36*
X70036424Y-81982760D02*
G01*
X70036427Y-81982761D01*
X70036428Y-81982761D01*
X70215692Y-82037140D01*
X70215695Y-82037142D01*
X70215696Y-82037142D01*
X70380903Y-82125446D01*
X70525712Y-82244288D01*
X70644554Y-82389097D01*
X70732858Y-82554303D01*
X70732860Y-82554307D01*
X70732860Y-82554308D01*
X70787240Y-82733575D01*
X70801000Y-82873282D01*
X70801000Y-84766718D01*
X70787240Y-84906425D01*
X70787239Y-84906428D01*
X70787239Y-84906429D01*
X70732860Y-85085693D01*
X70732858Y-85085696D01*
X70732858Y-85085697D01*
X70644554Y-85250903D01*
X70525712Y-85395712D01*
X70380903Y-85514554D01*
X70215697Y-85602858D01*
X70215693Y-85602860D01*
X70036429Y-85657239D01*
X70036428Y-85657239D01*
X70036425Y-85657240D01*
X69850000Y-85675601D01*
X69663576Y-85657240D01*
X69663573Y-85657239D01*
X69663572Y-85657239D01*
X69484308Y-85602860D01*
X69484304Y-85602858D01*
X69319098Y-85514554D01*
X69174289Y-85395712D01*
X69055447Y-85250903D01*
X68967143Y-85085697D01*
X68967143Y-85085696D01*
X68967141Y-85085693D01*
X68912762Y-84906429D01*
X68912762Y-84906428D01*
X68912761Y-84906425D01*
X68899000Y-84766717D01*
X68899000Y-82873283D01*
X68912760Y-82733576D01*
X68912761Y-82733572D01*
X68967140Y-82554308D01*
X68967143Y-82554303D01*
X69055446Y-82389097D01*
X69174288Y-82244288D01*
X69319097Y-82125446D01*
X69484303Y-82037142D01*
X69484304Y-82037142D01*
X69484307Y-82037140D01*
X69663571Y-81982761D01*
X69663572Y-81982761D01*
X69663575Y-81982760D01*
X69850000Y-81964399D01*
X70036424Y-81982760D01*
X70036424Y-81982760D01*
G37*
G36*
X73846424Y-81982760D02*
G01*
X73846427Y-81982761D01*
X73846428Y-81982761D01*
X74025692Y-82037140D01*
X74025695Y-82037142D01*
X74025696Y-82037142D01*
X74190903Y-82125446D01*
X74335712Y-82244288D01*
X74454554Y-82389097D01*
X74542858Y-82554303D01*
X74542860Y-82554307D01*
X74542860Y-82554308D01*
X74597240Y-82733575D01*
X74611000Y-82873282D01*
X74611000Y-84766718D01*
X74597240Y-84906425D01*
X74597239Y-84906428D01*
X74597239Y-84906429D01*
X74542860Y-85085693D01*
X74542858Y-85085696D01*
X74542858Y-85085697D01*
X74454554Y-85250903D01*
X74335712Y-85395712D01*
X74190903Y-85514554D01*
X74025697Y-85602858D01*
X74025693Y-85602860D01*
X73846429Y-85657239D01*
X73846428Y-85657239D01*
X73846425Y-85657240D01*
X73660000Y-85675601D01*
X73473576Y-85657240D01*
X73473573Y-85657239D01*
X73473572Y-85657239D01*
X73294308Y-85602860D01*
X73294304Y-85602858D01*
X73129098Y-85514554D01*
X72984289Y-85395712D01*
X72865447Y-85250903D01*
X72777143Y-85085697D01*
X72777143Y-85085696D01*
X72777141Y-85085693D01*
X72722762Y-84906429D01*
X72722762Y-84906428D01*
X72722761Y-84906425D01*
X72709000Y-84766717D01*
X72709000Y-82873283D01*
X72722760Y-82733576D01*
X72722761Y-82733572D01*
X72777140Y-82554308D01*
X72777143Y-82554303D01*
X72865446Y-82389097D01*
X72984288Y-82244288D01*
X73129097Y-82125446D01*
X73294303Y-82037142D01*
X73294304Y-82037142D01*
X73294307Y-82037140D01*
X73473571Y-81982761D01*
X73473572Y-81982761D01*
X73473575Y-81982760D01*
X73660000Y-81964399D01*
X73846424Y-81982760D01*
X73846424Y-81982760D01*
G37*
G36*
X52256424Y-81982760D02*
G01*
X52256427Y-81982761D01*
X52256428Y-81982761D01*
X52435692Y-82037140D01*
X52435695Y-82037142D01*
X52435696Y-82037142D01*
X52600903Y-82125446D01*
X52745712Y-82244288D01*
X52864554Y-82389097D01*
X52952858Y-82554303D01*
X52952860Y-82554307D01*
X52952860Y-82554308D01*
X53007240Y-82733575D01*
X53021000Y-82873282D01*
X53021000Y-84766718D01*
X53007240Y-84906425D01*
X53007239Y-84906428D01*
X53007239Y-84906429D01*
X52952860Y-85085693D01*
X52952858Y-85085696D01*
X52952858Y-85085697D01*
X52864554Y-85250903D01*
X52745712Y-85395712D01*
X52600903Y-85514554D01*
X52435697Y-85602858D01*
X52435693Y-85602860D01*
X52256429Y-85657239D01*
X52256428Y-85657239D01*
X52256425Y-85657240D01*
X52070000Y-85675601D01*
X51883576Y-85657240D01*
X51883573Y-85657239D01*
X51883572Y-85657239D01*
X51704308Y-85602860D01*
X51704304Y-85602858D01*
X51539098Y-85514554D01*
X51394289Y-85395712D01*
X51275447Y-85250903D01*
X51187143Y-85085697D01*
X51187143Y-85085696D01*
X51187141Y-85085693D01*
X51132762Y-84906429D01*
X51132762Y-84906428D01*
X51132761Y-84906425D01*
X51119000Y-84766717D01*
X51119000Y-82873283D01*
X51132760Y-82733576D01*
X51132761Y-82733572D01*
X51187140Y-82554308D01*
X51187143Y-82554303D01*
X51275446Y-82389097D01*
X51394288Y-82244288D01*
X51539097Y-82125446D01*
X51704303Y-82037142D01*
X51704304Y-82037142D01*
X51704307Y-82037140D01*
X51883571Y-81982761D01*
X51883572Y-81982761D01*
X51883575Y-81982760D01*
X52070000Y-81964399D01*
X52256424Y-81982760D01*
X52256424Y-81982760D01*
G37*
G36*
X66991000Y-85671000D02*
G01*
X65089000Y-85671000D01*
X65089000Y-81969000D01*
X66991000Y-81969000D01*
X66991000Y-85671000D01*
X66991000Y-85671000D01*
G37*
G36*
X49211000Y-85671000D02*
G01*
X47309000Y-85671000D01*
X47309000Y-81969000D01*
X49211000Y-81969000D01*
X49211000Y-85671000D01*
X49211000Y-85671000D01*
G37*
G36*
X31431000Y-85671000D02*
G01*
X29529000Y-85671000D01*
X29529000Y-81969000D01*
X31431000Y-81969000D01*
X31431000Y-85671000D01*
X31431000Y-85671000D01*
G37*
G36*
X52256424Y-69282760D02*
G01*
X52256427Y-69282761D01*
X52256428Y-69282761D01*
X52435692Y-69337140D01*
X52435695Y-69337142D01*
X52435696Y-69337142D01*
X52600903Y-69425446D01*
X52745712Y-69544288D01*
X52864554Y-69689097D01*
X52952858Y-69854303D01*
X52952860Y-69854307D01*
X52952860Y-69854308D01*
X53007240Y-70033575D01*
X53021000Y-70173282D01*
X53021000Y-72066718D01*
X53007240Y-72206425D01*
X53007239Y-72206428D01*
X53007239Y-72206429D01*
X52952860Y-72385693D01*
X52952858Y-72385696D01*
X52952858Y-72385697D01*
X52864554Y-72550903D01*
X52745712Y-72695712D01*
X52600903Y-72814554D01*
X52435697Y-72902858D01*
X52435693Y-72902860D01*
X52256429Y-72957239D01*
X52256428Y-72957239D01*
X52256425Y-72957240D01*
X52070000Y-72975601D01*
X51883576Y-72957240D01*
X51883573Y-72957239D01*
X51883572Y-72957239D01*
X51704308Y-72902860D01*
X51704304Y-72902858D01*
X51539098Y-72814554D01*
X51394289Y-72695712D01*
X51275447Y-72550903D01*
X51187143Y-72385697D01*
X51187143Y-72385696D01*
X51187141Y-72385693D01*
X51132762Y-72206429D01*
X51132762Y-72206428D01*
X51132761Y-72206425D01*
X51119000Y-72066717D01*
X51119000Y-70173283D01*
X51132760Y-70033576D01*
X51132761Y-70033572D01*
X51187140Y-69854308D01*
X51187143Y-69854303D01*
X51275446Y-69689097D01*
X51394288Y-69544288D01*
X51539097Y-69425446D01*
X51704303Y-69337142D01*
X51704304Y-69337142D01*
X51704307Y-69337140D01*
X51883571Y-69282761D01*
X51883572Y-69282761D01*
X51883575Y-69282760D01*
X52070000Y-69264399D01*
X52256424Y-69282760D01*
X52256424Y-69282760D01*
G37*
G36*
X56066424Y-69282760D02*
G01*
X56066427Y-69282761D01*
X56066428Y-69282761D01*
X56245692Y-69337140D01*
X56245695Y-69337142D01*
X56245696Y-69337142D01*
X56410903Y-69425446D01*
X56555712Y-69544288D01*
X56674554Y-69689097D01*
X56762858Y-69854303D01*
X56762860Y-69854307D01*
X56762860Y-69854308D01*
X56817240Y-70033575D01*
X56831000Y-70173282D01*
X56831000Y-72066718D01*
X56817240Y-72206425D01*
X56817239Y-72206428D01*
X56817239Y-72206429D01*
X56762860Y-72385693D01*
X56762858Y-72385696D01*
X56762858Y-72385697D01*
X56674554Y-72550903D01*
X56555712Y-72695712D01*
X56410903Y-72814554D01*
X56245697Y-72902858D01*
X56245693Y-72902860D01*
X56066429Y-72957239D01*
X56066428Y-72957239D01*
X56066425Y-72957240D01*
X55880000Y-72975601D01*
X55693576Y-72957240D01*
X55693573Y-72957239D01*
X55693572Y-72957239D01*
X55514308Y-72902860D01*
X55514304Y-72902858D01*
X55349098Y-72814554D01*
X55204289Y-72695712D01*
X55085447Y-72550903D01*
X54997143Y-72385697D01*
X54997143Y-72385696D01*
X54997141Y-72385693D01*
X54942762Y-72206429D01*
X54942762Y-72206428D01*
X54942761Y-72206425D01*
X54929000Y-72066717D01*
X54929000Y-70173283D01*
X54942760Y-70033576D01*
X54942761Y-70033572D01*
X54997140Y-69854308D01*
X54997143Y-69854303D01*
X55085446Y-69689097D01*
X55204288Y-69544288D01*
X55349097Y-69425446D01*
X55514303Y-69337142D01*
X55514304Y-69337142D01*
X55514307Y-69337140D01*
X55693571Y-69282761D01*
X55693572Y-69282761D01*
X55693575Y-69282760D01*
X55880000Y-69264399D01*
X56066424Y-69282760D01*
X56066424Y-69282760D01*
G37*
G36*
X34476424Y-69282760D02*
G01*
X34476427Y-69282761D01*
X34476428Y-69282761D01*
X34655692Y-69337140D01*
X34655695Y-69337142D01*
X34655696Y-69337142D01*
X34820903Y-69425446D01*
X34965712Y-69544288D01*
X35084554Y-69689097D01*
X35172858Y-69854303D01*
X35172860Y-69854307D01*
X35172860Y-69854308D01*
X35227240Y-70033575D01*
X35241000Y-70173282D01*
X35241000Y-72066718D01*
X35227240Y-72206425D01*
X35227239Y-72206428D01*
X35227239Y-72206429D01*
X35172860Y-72385693D01*
X35172858Y-72385696D01*
X35172858Y-72385697D01*
X35084554Y-72550903D01*
X34965712Y-72695712D01*
X34820903Y-72814554D01*
X34655697Y-72902858D01*
X34655693Y-72902860D01*
X34476429Y-72957239D01*
X34476428Y-72957239D01*
X34476425Y-72957240D01*
X34290000Y-72975601D01*
X34103576Y-72957240D01*
X34103573Y-72957239D01*
X34103572Y-72957239D01*
X33924308Y-72902860D01*
X33924304Y-72902858D01*
X33759098Y-72814554D01*
X33614289Y-72695712D01*
X33495447Y-72550903D01*
X33407143Y-72385697D01*
X33407143Y-72385696D01*
X33407141Y-72385693D01*
X33352762Y-72206429D01*
X33352762Y-72206428D01*
X33352761Y-72206425D01*
X33339000Y-72066717D01*
X33339000Y-70173283D01*
X33352760Y-70033576D01*
X33352761Y-70033572D01*
X33407140Y-69854308D01*
X33407143Y-69854303D01*
X33495446Y-69689097D01*
X33614288Y-69544288D01*
X33759097Y-69425446D01*
X33924303Y-69337142D01*
X33924304Y-69337142D01*
X33924307Y-69337140D01*
X34103571Y-69282761D01*
X34103572Y-69282761D01*
X34103575Y-69282760D01*
X34290000Y-69264399D01*
X34476424Y-69282760D01*
X34476424Y-69282760D01*
G37*
G36*
X38286424Y-69282760D02*
G01*
X38286427Y-69282761D01*
X38286428Y-69282761D01*
X38465692Y-69337140D01*
X38465695Y-69337142D01*
X38465696Y-69337142D01*
X38630903Y-69425446D01*
X38775712Y-69544288D01*
X38894554Y-69689097D01*
X38982858Y-69854303D01*
X38982860Y-69854307D01*
X38982860Y-69854308D01*
X39037240Y-70033575D01*
X39051000Y-70173282D01*
X39051000Y-72066718D01*
X39037240Y-72206425D01*
X39037239Y-72206428D01*
X39037239Y-72206429D01*
X38982860Y-72385693D01*
X38982858Y-72385696D01*
X38982858Y-72385697D01*
X38894554Y-72550903D01*
X38775712Y-72695712D01*
X38630903Y-72814554D01*
X38465697Y-72902858D01*
X38465693Y-72902860D01*
X38286429Y-72957239D01*
X38286428Y-72957239D01*
X38286425Y-72957240D01*
X38100000Y-72975601D01*
X37913576Y-72957240D01*
X37913573Y-72957239D01*
X37913572Y-72957239D01*
X37734308Y-72902860D01*
X37734304Y-72902858D01*
X37569098Y-72814554D01*
X37424289Y-72695712D01*
X37305447Y-72550903D01*
X37217143Y-72385697D01*
X37217143Y-72385696D01*
X37217141Y-72385693D01*
X37162762Y-72206429D01*
X37162762Y-72206428D01*
X37162761Y-72206425D01*
X37149000Y-72066717D01*
X37149000Y-70173283D01*
X37162760Y-70033576D01*
X37162761Y-70033572D01*
X37217140Y-69854308D01*
X37217143Y-69854303D01*
X37305446Y-69689097D01*
X37424288Y-69544288D01*
X37569097Y-69425446D01*
X37734303Y-69337142D01*
X37734304Y-69337142D01*
X37734307Y-69337140D01*
X37913571Y-69282761D01*
X37913572Y-69282761D01*
X37913575Y-69282760D01*
X38100000Y-69264399D01*
X38286424Y-69282760D01*
X38286424Y-69282760D01*
G37*
G36*
X70036424Y-69282760D02*
G01*
X70036427Y-69282761D01*
X70036428Y-69282761D01*
X70215692Y-69337140D01*
X70215695Y-69337142D01*
X70215696Y-69337142D01*
X70380903Y-69425446D01*
X70525712Y-69544288D01*
X70644554Y-69689097D01*
X70732858Y-69854303D01*
X70732860Y-69854307D01*
X70732860Y-69854308D01*
X70787240Y-70033575D01*
X70801000Y-70173282D01*
X70801000Y-72066718D01*
X70787240Y-72206425D01*
X70787239Y-72206428D01*
X70787239Y-72206429D01*
X70732860Y-72385693D01*
X70732858Y-72385696D01*
X70732858Y-72385697D01*
X70644554Y-72550903D01*
X70525712Y-72695712D01*
X70380903Y-72814554D01*
X70215697Y-72902858D01*
X70215693Y-72902860D01*
X70036429Y-72957239D01*
X70036428Y-72957239D01*
X70036425Y-72957240D01*
X69850000Y-72975601D01*
X69663576Y-72957240D01*
X69663573Y-72957239D01*
X69663572Y-72957239D01*
X69484308Y-72902860D01*
X69484304Y-72902858D01*
X69319098Y-72814554D01*
X69174289Y-72695712D01*
X69055447Y-72550903D01*
X68967143Y-72385697D01*
X68967143Y-72385696D01*
X68967141Y-72385693D01*
X68912762Y-72206429D01*
X68912762Y-72206428D01*
X68912761Y-72206425D01*
X68899000Y-72066717D01*
X68899000Y-70173283D01*
X68912760Y-70033576D01*
X68912761Y-70033572D01*
X68967140Y-69854308D01*
X68967143Y-69854303D01*
X69055446Y-69689097D01*
X69174288Y-69544288D01*
X69319097Y-69425446D01*
X69484303Y-69337142D01*
X69484304Y-69337142D01*
X69484307Y-69337140D01*
X69663571Y-69282761D01*
X69663572Y-69282761D01*
X69663575Y-69282760D01*
X69850000Y-69264399D01*
X70036424Y-69282760D01*
X70036424Y-69282760D01*
G37*
G36*
X73846424Y-69282760D02*
G01*
X73846427Y-69282761D01*
X73846428Y-69282761D01*
X74025692Y-69337140D01*
X74025695Y-69337142D01*
X74025696Y-69337142D01*
X74190903Y-69425446D01*
X74335712Y-69544288D01*
X74454554Y-69689097D01*
X74542858Y-69854303D01*
X74542860Y-69854307D01*
X74542860Y-69854308D01*
X74597240Y-70033575D01*
X74611000Y-70173282D01*
X74611000Y-72066718D01*
X74597240Y-72206425D01*
X74597239Y-72206428D01*
X74597239Y-72206429D01*
X74542860Y-72385693D01*
X74542858Y-72385696D01*
X74542858Y-72385697D01*
X74454554Y-72550903D01*
X74335712Y-72695712D01*
X74190903Y-72814554D01*
X74025697Y-72902858D01*
X74025693Y-72902860D01*
X73846429Y-72957239D01*
X73846428Y-72957239D01*
X73846425Y-72957240D01*
X73660000Y-72975601D01*
X73473576Y-72957240D01*
X73473573Y-72957239D01*
X73473572Y-72957239D01*
X73294308Y-72902860D01*
X73294304Y-72902858D01*
X73129098Y-72814554D01*
X72984289Y-72695712D01*
X72865447Y-72550903D01*
X72777143Y-72385697D01*
X72777143Y-72385696D01*
X72777141Y-72385693D01*
X72722762Y-72206429D01*
X72722762Y-72206428D01*
X72722761Y-72206425D01*
X72709000Y-72066717D01*
X72709000Y-70173283D01*
X72722760Y-70033576D01*
X72722761Y-70033572D01*
X72777140Y-69854308D01*
X72777143Y-69854303D01*
X72865446Y-69689097D01*
X72984288Y-69544288D01*
X73129097Y-69425446D01*
X73294303Y-69337142D01*
X73294304Y-69337142D01*
X73294307Y-69337140D01*
X73473571Y-69282761D01*
X73473572Y-69282761D01*
X73473575Y-69282760D01*
X73660000Y-69264399D01*
X73846424Y-69282760D01*
X73846424Y-69282760D01*
G37*
G36*
X49211000Y-72971000D02*
G01*
X47309000Y-72971000D01*
X47309000Y-69269000D01*
X49211000Y-69269000D01*
X49211000Y-72971000D01*
X49211000Y-72971000D01*
G37*
G36*
X66991000Y-72971000D02*
G01*
X65089000Y-72971000D01*
X65089000Y-69269000D01*
X66991000Y-69269000D01*
X66991000Y-72971000D01*
X66991000Y-72971000D01*
G37*
G36*
X31431000Y-72971000D02*
G01*
X29529000Y-72971000D01*
X29529000Y-69269000D01*
X31431000Y-69269000D01*
X31431000Y-72971000D01*
X31431000Y-72971000D01*
G37*
G36*
X73846424Y-56582760D02*
G01*
X73846427Y-56582761D01*
X73846428Y-56582761D01*
X74025692Y-56637140D01*
X74025695Y-56637142D01*
X74025696Y-56637142D01*
X74190903Y-56725446D01*
X74335712Y-56844288D01*
X74454554Y-56989097D01*
X74542858Y-57154303D01*
X74542860Y-57154307D01*
X74542860Y-57154308D01*
X74597240Y-57333575D01*
X74611000Y-57473282D01*
X74611000Y-59366718D01*
X74597240Y-59506425D01*
X74597239Y-59506428D01*
X74597239Y-59506429D01*
X74542860Y-59685693D01*
X74542858Y-59685696D01*
X74542858Y-59685697D01*
X74454554Y-59850903D01*
X74335712Y-59995712D01*
X74190903Y-60114554D01*
X74025697Y-60202858D01*
X74025693Y-60202860D01*
X73846429Y-60257239D01*
X73846428Y-60257239D01*
X73846425Y-60257240D01*
X73660000Y-60275601D01*
X73473576Y-60257240D01*
X73473573Y-60257239D01*
X73473572Y-60257239D01*
X73294308Y-60202860D01*
X73294304Y-60202858D01*
X73129098Y-60114554D01*
X72984289Y-59995712D01*
X72865447Y-59850903D01*
X72777143Y-59685697D01*
X72777143Y-59685696D01*
X72777141Y-59685693D01*
X72722762Y-59506429D01*
X72722762Y-59506428D01*
X72722761Y-59506425D01*
X72709000Y-59366717D01*
X72709000Y-57473283D01*
X72722760Y-57333576D01*
X72722761Y-57333572D01*
X72777140Y-57154308D01*
X72777143Y-57154303D01*
X72865446Y-56989097D01*
X72984288Y-56844288D01*
X73129097Y-56725446D01*
X73294303Y-56637142D01*
X73294304Y-56637142D01*
X73294307Y-56637140D01*
X73473571Y-56582761D01*
X73473572Y-56582761D01*
X73473575Y-56582760D01*
X73660000Y-56564399D01*
X73846424Y-56582760D01*
X73846424Y-56582760D01*
G37*
G36*
X70036424Y-56582760D02*
G01*
X70036427Y-56582761D01*
X70036428Y-56582761D01*
X70215692Y-56637140D01*
X70215695Y-56637142D01*
X70215696Y-56637142D01*
X70380903Y-56725446D01*
X70525712Y-56844288D01*
X70644554Y-56989097D01*
X70732858Y-57154303D01*
X70732860Y-57154307D01*
X70732860Y-57154308D01*
X70787240Y-57333575D01*
X70801000Y-57473282D01*
X70801000Y-59366718D01*
X70787240Y-59506425D01*
X70787239Y-59506428D01*
X70787239Y-59506429D01*
X70732860Y-59685693D01*
X70732858Y-59685696D01*
X70732858Y-59685697D01*
X70644554Y-59850903D01*
X70525712Y-59995712D01*
X70380903Y-60114554D01*
X70215697Y-60202858D01*
X70215693Y-60202860D01*
X70036429Y-60257239D01*
X70036428Y-60257239D01*
X70036425Y-60257240D01*
X69850000Y-60275601D01*
X69663576Y-60257240D01*
X69663573Y-60257239D01*
X69663572Y-60257239D01*
X69484308Y-60202860D01*
X69484304Y-60202858D01*
X69319098Y-60114554D01*
X69174289Y-59995712D01*
X69055447Y-59850903D01*
X68967143Y-59685697D01*
X68967143Y-59685696D01*
X68967141Y-59685693D01*
X68912762Y-59506429D01*
X68912762Y-59506428D01*
X68912761Y-59506425D01*
X68899000Y-59366717D01*
X68899000Y-57473283D01*
X68912760Y-57333576D01*
X68912761Y-57333572D01*
X68967140Y-57154308D01*
X68967143Y-57154303D01*
X69055446Y-56989097D01*
X69174288Y-56844288D01*
X69319097Y-56725446D01*
X69484303Y-56637142D01*
X69484304Y-56637142D01*
X69484307Y-56637140D01*
X69663571Y-56582761D01*
X69663572Y-56582761D01*
X69663575Y-56582760D01*
X69850000Y-56564399D01*
X70036424Y-56582760D01*
X70036424Y-56582760D01*
G37*
G36*
X38286424Y-56582760D02*
G01*
X38286427Y-56582761D01*
X38286428Y-56582761D01*
X38465692Y-56637140D01*
X38465695Y-56637142D01*
X38465696Y-56637142D01*
X38630903Y-56725446D01*
X38775712Y-56844288D01*
X38894554Y-56989097D01*
X38982858Y-57154303D01*
X38982860Y-57154307D01*
X38982860Y-57154308D01*
X39037240Y-57333575D01*
X39051000Y-57473282D01*
X39051000Y-59366718D01*
X39037240Y-59506425D01*
X39037239Y-59506428D01*
X39037239Y-59506429D01*
X38982860Y-59685693D01*
X38982858Y-59685696D01*
X38982858Y-59685697D01*
X38894554Y-59850903D01*
X38775712Y-59995712D01*
X38630903Y-60114554D01*
X38465697Y-60202858D01*
X38465693Y-60202860D01*
X38286429Y-60257239D01*
X38286428Y-60257239D01*
X38286425Y-60257240D01*
X38100000Y-60275601D01*
X37913576Y-60257240D01*
X37913573Y-60257239D01*
X37913572Y-60257239D01*
X37734308Y-60202860D01*
X37734304Y-60202858D01*
X37569098Y-60114554D01*
X37424289Y-59995712D01*
X37305447Y-59850903D01*
X37217143Y-59685697D01*
X37217143Y-59685696D01*
X37217141Y-59685693D01*
X37162762Y-59506429D01*
X37162762Y-59506428D01*
X37162761Y-59506425D01*
X37149000Y-59366717D01*
X37149000Y-57473283D01*
X37162760Y-57333576D01*
X37162761Y-57333572D01*
X37217140Y-57154308D01*
X37217143Y-57154303D01*
X37305446Y-56989097D01*
X37424288Y-56844288D01*
X37569097Y-56725446D01*
X37734303Y-56637142D01*
X37734304Y-56637142D01*
X37734307Y-56637140D01*
X37913571Y-56582761D01*
X37913572Y-56582761D01*
X37913575Y-56582760D01*
X38100000Y-56564399D01*
X38286424Y-56582760D01*
X38286424Y-56582760D01*
G37*
G36*
X34476424Y-56582760D02*
G01*
X34476427Y-56582761D01*
X34476428Y-56582761D01*
X34655692Y-56637140D01*
X34655695Y-56637142D01*
X34655696Y-56637142D01*
X34820903Y-56725446D01*
X34965712Y-56844288D01*
X35084554Y-56989097D01*
X35172858Y-57154303D01*
X35172860Y-57154307D01*
X35172860Y-57154308D01*
X35227240Y-57333575D01*
X35241000Y-57473282D01*
X35241000Y-59366718D01*
X35227240Y-59506425D01*
X35227239Y-59506428D01*
X35227239Y-59506429D01*
X35172860Y-59685693D01*
X35172858Y-59685696D01*
X35172858Y-59685697D01*
X35084554Y-59850903D01*
X34965712Y-59995712D01*
X34820903Y-60114554D01*
X34655697Y-60202858D01*
X34655693Y-60202860D01*
X34476429Y-60257239D01*
X34476428Y-60257239D01*
X34476425Y-60257240D01*
X34290000Y-60275601D01*
X34103576Y-60257240D01*
X34103573Y-60257239D01*
X34103572Y-60257239D01*
X33924308Y-60202860D01*
X33924304Y-60202858D01*
X33759098Y-60114554D01*
X33614289Y-59995712D01*
X33495447Y-59850903D01*
X33407143Y-59685697D01*
X33407143Y-59685696D01*
X33407141Y-59685693D01*
X33352762Y-59506429D01*
X33352762Y-59506428D01*
X33352761Y-59506425D01*
X33339000Y-59366717D01*
X33339000Y-57473283D01*
X33352760Y-57333576D01*
X33352761Y-57333572D01*
X33407140Y-57154308D01*
X33407143Y-57154303D01*
X33495446Y-56989097D01*
X33614288Y-56844288D01*
X33759097Y-56725446D01*
X33924303Y-56637142D01*
X33924304Y-56637142D01*
X33924307Y-56637140D01*
X34103571Y-56582761D01*
X34103572Y-56582761D01*
X34103575Y-56582760D01*
X34290000Y-56564399D01*
X34476424Y-56582760D01*
X34476424Y-56582760D01*
G37*
G36*
X56066424Y-56582760D02*
G01*
X56066427Y-56582761D01*
X56066428Y-56582761D01*
X56245692Y-56637140D01*
X56245695Y-56637142D01*
X56245696Y-56637142D01*
X56410903Y-56725446D01*
X56555712Y-56844288D01*
X56674554Y-56989097D01*
X56762858Y-57154303D01*
X56762860Y-57154307D01*
X56762860Y-57154308D01*
X56817240Y-57333575D01*
X56831000Y-57473282D01*
X56831000Y-59366718D01*
X56817240Y-59506425D01*
X56817239Y-59506428D01*
X56817239Y-59506429D01*
X56762860Y-59685693D01*
X56762858Y-59685696D01*
X56762858Y-59685697D01*
X56674554Y-59850903D01*
X56555712Y-59995712D01*
X56410903Y-60114554D01*
X56245697Y-60202858D01*
X56245693Y-60202860D01*
X56066429Y-60257239D01*
X56066428Y-60257239D01*
X56066425Y-60257240D01*
X55880000Y-60275601D01*
X55693576Y-60257240D01*
X55693573Y-60257239D01*
X55693572Y-60257239D01*
X55514308Y-60202860D01*
X55514304Y-60202858D01*
X55349098Y-60114554D01*
X55204289Y-59995712D01*
X55085447Y-59850903D01*
X54997143Y-59685697D01*
X54997143Y-59685696D01*
X54997141Y-59685693D01*
X54942762Y-59506429D01*
X54942762Y-59506428D01*
X54942761Y-59506425D01*
X54929000Y-59366717D01*
X54929000Y-57473283D01*
X54942760Y-57333576D01*
X54942761Y-57333572D01*
X54997140Y-57154308D01*
X54997143Y-57154303D01*
X55085446Y-56989097D01*
X55204288Y-56844288D01*
X55349097Y-56725446D01*
X55514303Y-56637142D01*
X55514304Y-56637142D01*
X55514307Y-56637140D01*
X55693571Y-56582761D01*
X55693572Y-56582761D01*
X55693575Y-56582760D01*
X55880000Y-56564399D01*
X56066424Y-56582760D01*
X56066424Y-56582760D01*
G37*
G36*
X52256424Y-56582760D02*
G01*
X52256427Y-56582761D01*
X52256428Y-56582761D01*
X52435692Y-56637140D01*
X52435695Y-56637142D01*
X52435696Y-56637142D01*
X52600903Y-56725446D01*
X52745712Y-56844288D01*
X52864554Y-56989097D01*
X52952858Y-57154303D01*
X52952860Y-57154307D01*
X52952860Y-57154308D01*
X53007240Y-57333575D01*
X53021000Y-57473282D01*
X53021000Y-59366718D01*
X53007240Y-59506425D01*
X53007239Y-59506428D01*
X53007239Y-59506429D01*
X52952860Y-59685693D01*
X52952858Y-59685696D01*
X52952858Y-59685697D01*
X52864554Y-59850903D01*
X52745712Y-59995712D01*
X52600903Y-60114554D01*
X52435697Y-60202858D01*
X52435693Y-60202860D01*
X52256429Y-60257239D01*
X52256428Y-60257239D01*
X52256425Y-60257240D01*
X52070000Y-60275601D01*
X51883576Y-60257240D01*
X51883573Y-60257239D01*
X51883572Y-60257239D01*
X51704308Y-60202860D01*
X51704304Y-60202858D01*
X51539098Y-60114554D01*
X51394289Y-59995712D01*
X51275447Y-59850903D01*
X51187143Y-59685697D01*
X51187143Y-59685696D01*
X51187141Y-59685693D01*
X51132762Y-59506429D01*
X51132762Y-59506428D01*
X51132761Y-59506425D01*
X51119000Y-59366717D01*
X51119000Y-57473283D01*
X51132760Y-57333576D01*
X51132761Y-57333572D01*
X51187140Y-57154308D01*
X51187143Y-57154303D01*
X51275446Y-56989097D01*
X51394288Y-56844288D01*
X51539097Y-56725446D01*
X51704303Y-56637142D01*
X51704304Y-56637142D01*
X51704307Y-56637140D01*
X51883571Y-56582761D01*
X51883572Y-56582761D01*
X51883575Y-56582760D01*
X52070000Y-56564399D01*
X52256424Y-56582760D01*
X52256424Y-56582760D01*
G37*
G36*
X49211000Y-60271000D02*
G01*
X47309000Y-60271000D01*
X47309000Y-56569000D01*
X49211000Y-56569000D01*
X49211000Y-60271000D01*
X49211000Y-60271000D01*
G37*
G36*
X66991000Y-60271000D02*
G01*
X65089000Y-60271000D01*
X65089000Y-56569000D01*
X66991000Y-56569000D01*
X66991000Y-60271000D01*
X66991000Y-60271000D01*
G37*
G36*
X31431000Y-60271000D02*
G01*
X29529000Y-60271000D01*
X29529000Y-56569000D01*
X31431000Y-56569000D01*
X31431000Y-60271000D01*
X31431000Y-60271000D01*
G37*
G36*
X23235256Y-49191298D02*
G01*
X23341579Y-49212447D01*
X23642042Y-49336903D01*
X23912451Y-49517585D01*
X24142415Y-49747549D01*
X24323097Y-50017958D01*
X24447553Y-50318421D01*
X24511000Y-50637391D01*
X24511000Y-50962609D01*
X24447553Y-51281579D01*
X24323097Y-51582042D01*
X24142415Y-51852451D01*
X23912451Y-52082415D01*
X23642042Y-52263097D01*
X23341579Y-52387553D01*
X23235256Y-52408702D01*
X23022611Y-52451000D01*
X22697389Y-52451000D01*
X22484744Y-52408702D01*
X22378421Y-52387553D01*
X22077958Y-52263097D01*
X21807549Y-52082415D01*
X21577585Y-51852451D01*
X21396903Y-51582042D01*
X21272447Y-51281579D01*
X21209000Y-50962609D01*
X21209000Y-50637391D01*
X21272447Y-50318421D01*
X21396903Y-50017958D01*
X21577585Y-49747549D01*
X21807549Y-49517585D01*
X22077958Y-49336903D01*
X22378421Y-49212447D01*
X22484744Y-49191298D01*
X22697389Y-49149000D01*
X23022611Y-49149000D01*
X23235256Y-49191298D01*
X23235256Y-49191298D01*
G37*
G36*
X81655256Y-49191298D02*
G01*
X81761579Y-49212447D01*
X82062042Y-49336903D01*
X82332451Y-49517585D01*
X82562415Y-49747549D01*
X82743097Y-50017958D01*
X82867553Y-50318421D01*
X82931000Y-50637391D01*
X82931000Y-50962609D01*
X82867553Y-51281579D01*
X82743097Y-51582042D01*
X82562415Y-51852451D01*
X82332451Y-52082415D01*
X82062042Y-52263097D01*
X81761579Y-52387553D01*
X81655256Y-52408702D01*
X81442611Y-52451000D01*
X81117389Y-52451000D01*
X80904744Y-52408702D01*
X80798421Y-52387553D01*
X80497958Y-52263097D01*
X80227549Y-52082415D01*
X79997585Y-51852451D01*
X79816903Y-51582042D01*
X79692447Y-51281579D01*
X79629000Y-50962609D01*
X79629000Y-50637391D01*
X79692447Y-50318421D01*
X79816903Y-50017958D01*
X79997585Y-49747549D01*
X80227549Y-49517585D01*
X80497958Y-49336903D01*
X80798421Y-49212447D01*
X80904744Y-49191298D01*
X81117389Y-49149000D01*
X81442611Y-49149000D01*
X81655256Y-49191298D01*
X81655256Y-49191298D01*
G37*
M02*
