M48
; DRILL file {KiCad (5.1.4)-1} date 01/10/2020 19:52:27
; FORMAT={-:-/ absolute / inch / decimal}
; #@! TF.CreationDate,2020-10-01T19:52:27+02:00
; #@! TF.GenerationSoftware,Kicad,Pcbnew,(5.1.4)-1
FMAT,2
INCH
T1C0.0472
T2C0.1772
T3C0.1260
%
G90
G05
T1
X2.6Y-2.8
X2.75Y-2.8
X2.9Y-2.8
X1.9Y-5.3
X2.05Y-5.3
X2.2Y-5.3
X2.6Y-3.3
X2.75Y-3.3
X2.9Y-3.3
X1.2Y-6.8
X1.35Y-6.8
X1.5Y-6.8
X1.2Y-5.8
X1.35Y-5.8
X1.5Y-5.8
X1.9Y-2.3
X2.05Y-2.3
X2.2Y-2.3
X1.2Y-3.3
X1.35Y-3.3
X1.5Y-3.3
X2.6Y-4.8
X2.75Y-4.8
X2.9Y-4.8
X2.6Y-3.8
X2.75Y-3.8
X2.9Y-3.8
X1.9Y-7.3
X2.05Y-7.3
X2.2Y-7.3
X1.9Y-5.8
X2.05Y-5.8
X2.2Y-5.8
X1.2Y-5.3
X1.35Y-5.3
X1.5Y-5.3
X1.9Y-6.3
X2.05Y-6.3
X2.2Y-6.3
X1.2Y-6.3
X1.35Y-6.3
X1.5Y-6.3
X2.6Y-5.3
X2.75Y-5.3
X2.9Y-5.3
X1.9Y-3.8
X2.05Y-3.8
X2.2Y-3.8
X1.2Y-4.8
X1.35Y-4.8
X1.5Y-4.8
X1.2Y-2.3
X1.35Y-2.3
X1.5Y-2.3
X1.2Y-4.3
X1.35Y-4.3
X1.5Y-4.3
X2.6Y-4.3
X2.75Y-4.3
X2.9Y-4.3
X1.2Y-7.3
X1.35Y-7.3
X1.5Y-7.3
X2.6Y-7.3
X2.75Y-7.3
X2.9Y-7.3
X2.6Y-2.3
X2.75Y-2.3
X2.9Y-2.3
X1.9Y-2.8
X2.05Y-2.8
X2.2Y-2.8
X2.6Y-5.8
X2.75Y-5.8
X2.9Y-5.8
X2.6Y-6.3
X2.75Y-6.3
X2.9Y-6.3
X1.2Y-2.8
X1.35Y-2.8
X1.5Y-2.8
X1.9Y-6.8
X2.05Y-6.8
X2.2Y-6.8
X1.9Y-4.8
X2.05Y-4.8
X2.2Y-4.8
X1.2Y-3.8
X1.35Y-3.8
X1.5Y-3.8
X1.9Y-4.3
X2.05Y-4.3
X2.2Y-4.3
X2.6Y-6.8
X2.75Y-6.8
X2.9Y-6.8
X1.9Y-3.3
X2.05Y-3.3
X2.2Y-3.3
T2
X1.9Y-8.1
X2.1835Y-8.1
T3
X0.9Y-8.5
X3.2Y-2.0
X0.9Y-2.0
X3.2Y-8.5
T0
M30
