G04 #@! TF.GenerationSoftware,KiCad,Pcbnew,(5.1.4)-1*
G04 #@! TF.CreationDate,2020-10-19T18:16:53+02:00*
G04 #@! TF.ProjectId,distrilite,64697374-7269-46c6-9974-652e6b696361,rev?*
G04 #@! TF.SameCoordinates,Original*
G04 #@! TF.FileFunction,Copper,L1,Top*
G04 #@! TF.FilePolarity,Positive*
%FSLAX46Y46*%
G04 Gerber Fmt 4.6, Leading zero omitted, Abs format (unit mm)*
G04 Created by KiCad (PCBNEW (5.1.4)-1) date 2020-10-19 18:16:54*
%MOMM*%
%LPD*%
G04 APERTURE LIST*
%ADD10C,0.100000*%
%ADD11C,6.400000*%
%ADD12R,2.000000X2.000000*%
%ADD13C,2.000000*%
%ADD14R,1.000000X1.500000*%
%ADD15C,0.600000*%
%ADD16R,1.800000X3.600000*%
%ADD17O,1.800000X3.600000*%
%ADD18O,1.700000X1.700000*%
%ADD19R,1.700000X1.700000*%
%ADD20R,1.300000X1.500000*%
%ADD21C,6.000000*%
%ADD22C,0.250000*%
%ADD23C,1.000000*%
%ADD24C,6.000000*%
%ADD25C,7.000000*%
%ADD26C,0.254000*%
G04 APERTURE END LIST*
D10*
G36*
X61083000Y-50496000D02*
G01*
X61129000Y-50407000D01*
X60706000Y-50143000D01*
X60688000Y-50170000D01*
X60671000Y-50192000D01*
X60649000Y-50215000D01*
X60632000Y-50230000D01*
X60611000Y-50245000D01*
X60591000Y-50257000D01*
X60574000Y-50266000D01*
X60557000Y-50274000D01*
X60543000Y-50279000D01*
X60527000Y-50283000D01*
X60515000Y-50286000D01*
X60496000Y-50290000D01*
X60484000Y-50292000D01*
X60467000Y-50295000D01*
X60455000Y-50296000D01*
X60440000Y-50296000D01*
X60425000Y-50296000D01*
X60409000Y-50295000D01*
X60390000Y-50292000D01*
X60367000Y-50287000D01*
X60351000Y-50282000D01*
X60333000Y-50276000D01*
X60312000Y-50267000D01*
X60287000Y-50253000D01*
X60270000Y-50242000D01*
X60253000Y-50229000D01*
X60237000Y-50216000D01*
X60222000Y-50200000D01*
X60195000Y-50167000D01*
X60182000Y-50146000D01*
X60173000Y-50129000D01*
X60165000Y-50110000D01*
X60157000Y-50089000D01*
X60149000Y-50060000D01*
X60142000Y-50013000D01*
X60142000Y-49975000D01*
X60148000Y-49931000D01*
X60160000Y-49893000D01*
X60174000Y-49860000D01*
X60190000Y-49833000D01*
X60202000Y-49816000D01*
X60227000Y-49786000D01*
X60261000Y-49755000D01*
X60286000Y-49738000D01*
X60324000Y-49718000D01*
X60354000Y-49708000D01*
X60375000Y-49703000D01*
X60402000Y-49698000D01*
X60444000Y-49695000D01*
X60480000Y-49697000D01*
X60523000Y-49706000D01*
X60569000Y-49723000D01*
X60604000Y-49741000D01*
X60638000Y-49767000D01*
X60651000Y-49779000D01*
X60667000Y-49796000D01*
X60676000Y-49806000D01*
X60692000Y-49828000D01*
X60706000Y-49851000D01*
X60712000Y-49863000D01*
X60720000Y-49878000D01*
X60724000Y-49889000D01*
X60730000Y-49908000D01*
X60733000Y-49918000D01*
X60736000Y-49930000D01*
X60738000Y-49940000D01*
X60740000Y-49953000D01*
X60742000Y-49970000D01*
X60743000Y-49988000D01*
X60743000Y-50015000D01*
X60741000Y-50040000D01*
X60735000Y-50076000D01*
X60726000Y-50102000D01*
X60717000Y-50121000D01*
X60709000Y-50136000D01*
X60707000Y-50139000D01*
X61131000Y-50404000D01*
X61219000Y-50239000D01*
X61310000Y-50019000D01*
X61372000Y-49911000D01*
X61445000Y-49808000D01*
X61553000Y-49706000D01*
X61702000Y-49585000D01*
X61914000Y-49435000D01*
X62092000Y-49312000D01*
X62290000Y-49161000D01*
X62430000Y-49042000D01*
X62521000Y-48953000D01*
X62618000Y-48825000D01*
X62681000Y-48716000D01*
X62731000Y-48611000D01*
X62743000Y-48528000D01*
X62734000Y-48472000D01*
X62703000Y-48396000D01*
X62640000Y-48280000D01*
X62569000Y-48185000D01*
X62513000Y-48091000D01*
X62490000Y-48006000D01*
X62455000Y-47907000D01*
X62408000Y-47829000D01*
X62356000Y-47765000D01*
X62276000Y-47662000D01*
X62222000Y-47592000D01*
X62211000Y-47516000D01*
X62213000Y-47402000D01*
X62249000Y-47253000D01*
X62327000Y-46981000D01*
X62486000Y-46576000D01*
X62602000Y-46317000D01*
X62819000Y-45857000D01*
X63033000Y-45427000D01*
X63114000Y-45266000D01*
X63191000Y-45072000D01*
X63241000Y-44912000D01*
X63282000Y-44733000D01*
X63302000Y-44573000D01*
X63310000Y-44430000D01*
X63317000Y-44268000D01*
X63316000Y-44158000D01*
X63314000Y-43965000D01*
X63308000Y-43823000D01*
X63294000Y-43680000D01*
X63272000Y-43461000D01*
X63252000Y-43319000D01*
X63214000Y-43094000D01*
X63184000Y-42943000D01*
X63138000Y-42746000D01*
X63099000Y-42601000D01*
X63029000Y-42354000D01*
X62961000Y-42168000D01*
X62848000Y-41869000D01*
X62593000Y-41354000D01*
X62366000Y-40941000D01*
X62291000Y-40819000D01*
X62078000Y-40552000D01*
X61629000Y-40050000D01*
X61463000Y-39885000D01*
X61361000Y-39817000D01*
X61227000Y-39737000D01*
X61062000Y-39645000D01*
X60864000Y-39585000D01*
X60620000Y-39521000D01*
X60239000Y-39439000D01*
X59952000Y-39386000D01*
X59649000Y-39344000D01*
X59276000Y-39310000D01*
X58710000Y-39285000D01*
X57863000Y-39277000D01*
X57843000Y-39245000D01*
X57597000Y-38748000D01*
X57401000Y-38345000D01*
X57119000Y-37857000D01*
X56958000Y-37621000D01*
X56834000Y-37458000D01*
X56675000Y-37283000D01*
X56547000Y-37154000D01*
X56415000Y-37056000D01*
X56283000Y-36966000D01*
X56148000Y-36883000D01*
X55954000Y-36794000D01*
X55771000Y-36728000D01*
X55617000Y-36702000D01*
X55484000Y-36697000D01*
X55364000Y-36705000D01*
X55252000Y-36729000D01*
X55126000Y-36774000D01*
X55008000Y-36842000D01*
X54894000Y-36922000D01*
X54731000Y-37065000D01*
X54597000Y-37251000D01*
X54514000Y-37406000D01*
X54460000Y-37562000D01*
X54396000Y-37857000D01*
X54357000Y-38214000D01*
X54260000Y-39328000D01*
X54179000Y-40136000D01*
X54141000Y-40489000D01*
X54089000Y-40919000D01*
X54032000Y-41305000D01*
X53949000Y-41746000D01*
X53851000Y-42195000D01*
X53737000Y-42642000D01*
X53630000Y-42977000D01*
X53535000Y-43288000D01*
X53469000Y-43461000D01*
X53374000Y-43650000D01*
X53279000Y-43821000D01*
X53184000Y-43968000D01*
X53087000Y-44079000D01*
X52979000Y-44191000D01*
X52869000Y-44271000D01*
X52745000Y-44328000D01*
X52636000Y-44373000D01*
X52522000Y-44397000D01*
X52372000Y-44426000D01*
X52233000Y-44449000D01*
X52094000Y-44466000D01*
X52021000Y-44475000D01*
X51949000Y-44482000D01*
X51913000Y-44489000D01*
X51896000Y-44503000D01*
X51868000Y-44534000D01*
X51866000Y-44543000D01*
X51884000Y-44557000D01*
X51910000Y-44566000D01*
X51943000Y-44576000D01*
X52004000Y-44593000D01*
X52068000Y-44610000D01*
X52132000Y-44629000D01*
X52216000Y-44647000D01*
X52282000Y-44648000D01*
X52365000Y-44651000D01*
X52436000Y-44641000D01*
X52509000Y-44629000D01*
X52606000Y-44606000D01*
X52685000Y-44579000D01*
X52768000Y-44547000D01*
X52844000Y-44510000D01*
X52938000Y-44457000D01*
X53039000Y-44393000D01*
X53151000Y-44310000D01*
X53256000Y-44214000D01*
X53325000Y-44145000D01*
X53424000Y-44046000D01*
X53526000Y-43915000D01*
X53609000Y-43811000D01*
X53675000Y-43706000D01*
X53799000Y-43474000D01*
X53882000Y-43227000D01*
X53911000Y-43136000D01*
X53955000Y-42989000D01*
X54058000Y-42611000D01*
X54179000Y-42058000D01*
X54309000Y-41390000D01*
X54457000Y-40483000D01*
X54554000Y-39773000D01*
X54605000Y-39323000D01*
X54634000Y-38993000D01*
X54691000Y-38459000D01*
X54717000Y-38238000D01*
X54764000Y-38026000D01*
X54810000Y-37846000D01*
X54851000Y-37726000D01*
X54939000Y-37548000D01*
X55037000Y-37416000D01*
X55116000Y-37337000D01*
X55209000Y-37259000D01*
X55315000Y-37192000D01*
X55427000Y-37147000D01*
X55521000Y-37130000D01*
X55610000Y-37128000D01*
X55695000Y-37135000D01*
X55795000Y-37157000D01*
X55882000Y-37190000D01*
X56034000Y-37274000D01*
X56095000Y-37318000D01*
X56162000Y-37369000D01*
X56206000Y-37404000D01*
X56257000Y-37456000D01*
X56348000Y-37541000D01*
X56408000Y-37617000D01*
X56465000Y-37705000D01*
X56552000Y-37836000D01*
X56636000Y-37972000D01*
X56728000Y-38137000D01*
X56783000Y-38245000D01*
X56898000Y-38469000D01*
X57074000Y-38816000D01*
X57209000Y-39079000D01*
X57283000Y-39229000D01*
X57295000Y-39254000D01*
X57296000Y-39272000D01*
X57290000Y-39603000D01*
X57281000Y-40006000D01*
X57265000Y-40370000D01*
X57254000Y-40577000D01*
X57224000Y-40751000D01*
X57212000Y-40829000D01*
X57184000Y-40912000D01*
X57146000Y-41008000D01*
X57112000Y-41068000D01*
X57085000Y-41134000D01*
X57065000Y-41197000D01*
X57057000Y-41289000D01*
X57044000Y-41386000D01*
X57034000Y-41458000D01*
X57017000Y-41489000D01*
X56982000Y-41543000D01*
X56967000Y-41592000D01*
X56960000Y-41635000D01*
X56959000Y-41692000D01*
X56960000Y-41738000D01*
X56981000Y-41799000D01*
X56993000Y-41845000D01*
X57021000Y-41921000D01*
X57046000Y-42014000D01*
X57068000Y-42142000D01*
X57098000Y-42410000D01*
X57105000Y-42548000D01*
X57119000Y-42744000D01*
X57122000Y-42946000D01*
X57114000Y-43140000D01*
X57092000Y-43330000D01*
X57064000Y-43492000D01*
X57020000Y-43652000D01*
X56996000Y-43759000D01*
X56978000Y-43880000D01*
X56967000Y-44012000D01*
X56965000Y-44169000D01*
X56967000Y-44358000D01*
X56976000Y-44440000D01*
X56990000Y-44493000D01*
X57006000Y-44520000D01*
X57027000Y-44538000D01*
X57056000Y-44550000D01*
X57091000Y-44557000D01*
X57136000Y-44562000D01*
X57187000Y-44563000D01*
X57239000Y-44558000D01*
X57288000Y-44549000D01*
X57358000Y-44525000D01*
X57425000Y-44488000D01*
X57505000Y-44430000D01*
X57546000Y-44375000D01*
X57573000Y-44313000D01*
X57615000Y-44174000D01*
X57687000Y-43898000D01*
X57728000Y-43751000D01*
X57782000Y-43666000D01*
X57815000Y-43623000D01*
X57838000Y-43610000D01*
X57874000Y-43632000D01*
X57911000Y-43686000D01*
X57952000Y-43765000D01*
X58026000Y-43893000D01*
X58171000Y-44186000D01*
X58244000Y-44377000D01*
X58259000Y-44415000D01*
X58289000Y-44523000D01*
X58312000Y-44665000D01*
X58327000Y-44874000D01*
X58327000Y-45028000D01*
X58321000Y-45314000D01*
X58301000Y-45459000D01*
X58273000Y-45581000D01*
X58231000Y-45690000D01*
X58181000Y-45808000D01*
X58148000Y-45869000D01*
X58097000Y-45937000D01*
X58045000Y-45992000D01*
X57960000Y-46062000D01*
X57892000Y-46114000D01*
X57784000Y-46164000D01*
X57683000Y-46207000D01*
X57559000Y-46259000D01*
X57487000Y-46293000D01*
X57432000Y-46329000D01*
X57393000Y-46356000D01*
X57372000Y-46373000D01*
X57340000Y-46406000D01*
X57310000Y-46446000D01*
X57239000Y-46558000D01*
X57190000Y-46685000D01*
X57163000Y-46901000D01*
X57129000Y-47104000D01*
X57106000Y-47368000D01*
X57083000Y-47530000D01*
X57070000Y-47563000D01*
X57074000Y-47591000D01*
X57096000Y-47629000D01*
X57144000Y-47667000D01*
X57180000Y-47695000D01*
X57234000Y-47738000D01*
X57308000Y-47781000D01*
X57370000Y-47806000D01*
X57435000Y-47823000D01*
X57503000Y-47822000D01*
X57574000Y-47790000D01*
X57630000Y-47742000D01*
X57660000Y-47691000D01*
X57692000Y-47625000D01*
X57716000Y-47516000D01*
X57747000Y-47355000D01*
X57781000Y-47247000D01*
X57831000Y-47178000D01*
X57874000Y-47135000D01*
X57930000Y-47106000D01*
X57979000Y-47093000D01*
X58024000Y-47090000D01*
X58075000Y-47099000D01*
X58103000Y-47108000D01*
X58121000Y-47125000D01*
X58135000Y-47148000D01*
X58154000Y-47178000D01*
X58182000Y-47253000D01*
X58235000Y-47403000D01*
X58302000Y-47578000D01*
X58331000Y-47647000D01*
X58381000Y-47741000D01*
X58440000Y-47851000D01*
X58619000Y-48151000D01*
X58669000Y-48262000D01*
X58722000Y-48447000D01*
X58733000Y-48605000D01*
X58719000Y-48710000D01*
X58704000Y-48921000D01*
X58663000Y-49364000D01*
X58629000Y-49622000D01*
X58595000Y-49882000D01*
X58563000Y-50118000D01*
X58518000Y-50383000D01*
X58463000Y-50806000D01*
X58441000Y-50936000D01*
X58423000Y-51139000D01*
X58419000Y-51300000D01*
X58429000Y-51412000D01*
X58447000Y-51504000D01*
X58523000Y-51770000D01*
X58583000Y-51973000D01*
X58612000Y-52057000D01*
X58646000Y-52180000D01*
X58670000Y-52317000D01*
X58690000Y-52382000D01*
X58716000Y-52430000D01*
X58749000Y-52462000D01*
X58794000Y-52474000D01*
X58847000Y-52476000D01*
X58930000Y-52443000D01*
X59061000Y-52386000D01*
X59298000Y-52263000D01*
X59529000Y-52125000D01*
X59773000Y-51954000D01*
X59935000Y-51832000D01*
X60195000Y-51605000D01*
X60376000Y-51440000D01*
X60594000Y-51208000D01*
X60790000Y-50965000D01*
X60893000Y-50817000D01*
X60976000Y-50677000D01*
X61036000Y-50577000D01*
X61083000Y-50496000D01*
G37*
X61083000Y-50496000D02*
X61129000Y-50407000D01*
X60706000Y-50143000D01*
X60688000Y-50170000D01*
X60671000Y-50192000D01*
X60649000Y-50215000D01*
X60632000Y-50230000D01*
X60611000Y-50245000D01*
X60591000Y-50257000D01*
X60574000Y-50266000D01*
X60557000Y-50274000D01*
X60543000Y-50279000D01*
X60527000Y-50283000D01*
X60515000Y-50286000D01*
X60496000Y-50290000D01*
X60484000Y-50292000D01*
X60467000Y-50295000D01*
X60455000Y-50296000D01*
X60440000Y-50296000D01*
X60425000Y-50296000D01*
X60409000Y-50295000D01*
X60390000Y-50292000D01*
X60367000Y-50287000D01*
X60351000Y-50282000D01*
X60333000Y-50276000D01*
X60312000Y-50267000D01*
X60287000Y-50253000D01*
X60270000Y-50242000D01*
X60253000Y-50229000D01*
X60237000Y-50216000D01*
X60222000Y-50200000D01*
X60195000Y-50167000D01*
X60182000Y-50146000D01*
X60173000Y-50129000D01*
X60165000Y-50110000D01*
X60157000Y-50089000D01*
X60149000Y-50060000D01*
X60142000Y-50013000D01*
X60142000Y-49975000D01*
X60148000Y-49931000D01*
X60160000Y-49893000D01*
X60174000Y-49860000D01*
X60190000Y-49833000D01*
X60202000Y-49816000D01*
X60227000Y-49786000D01*
X60261000Y-49755000D01*
X60286000Y-49738000D01*
X60324000Y-49718000D01*
X60354000Y-49708000D01*
X60375000Y-49703000D01*
X60402000Y-49698000D01*
X60444000Y-49695000D01*
X60480000Y-49697000D01*
X60523000Y-49706000D01*
X60569000Y-49723000D01*
X60604000Y-49741000D01*
X60638000Y-49767000D01*
X60651000Y-49779000D01*
X60667000Y-49796000D01*
X60676000Y-49806000D01*
X60692000Y-49828000D01*
X60706000Y-49851000D01*
X60712000Y-49863000D01*
X60720000Y-49878000D01*
X60724000Y-49889000D01*
X60730000Y-49908000D01*
X60733000Y-49918000D01*
X60736000Y-49930000D01*
X60738000Y-49940000D01*
X60740000Y-49953000D01*
X60742000Y-49970000D01*
X60743000Y-49988000D01*
X60743000Y-50015000D01*
X60741000Y-50040000D01*
X60735000Y-50076000D01*
X60726000Y-50102000D01*
X60717000Y-50121000D01*
X60709000Y-50136000D01*
X60707000Y-50139000D01*
X61131000Y-50404000D01*
X61219000Y-50239000D01*
X61310000Y-50019000D01*
X61372000Y-49911000D01*
X61445000Y-49808000D01*
X61553000Y-49706000D01*
X61702000Y-49585000D01*
X61914000Y-49435000D01*
X62092000Y-49312000D01*
X62290000Y-49161000D01*
X62430000Y-49042000D01*
X62521000Y-48953000D01*
X62618000Y-48825000D01*
X62681000Y-48716000D01*
X62731000Y-48611000D01*
X62743000Y-48528000D01*
X62734000Y-48472000D01*
X62703000Y-48396000D01*
X62640000Y-48280000D01*
X62569000Y-48185000D01*
X62513000Y-48091000D01*
X62490000Y-48006000D01*
X62455000Y-47907000D01*
X62408000Y-47829000D01*
X62356000Y-47765000D01*
X62276000Y-47662000D01*
X62222000Y-47592000D01*
X62211000Y-47516000D01*
X62213000Y-47402000D01*
X62249000Y-47253000D01*
X62327000Y-46981000D01*
X62486000Y-46576000D01*
X62602000Y-46317000D01*
X62819000Y-45857000D01*
X63033000Y-45427000D01*
X63114000Y-45266000D01*
X63191000Y-45072000D01*
X63241000Y-44912000D01*
X63282000Y-44733000D01*
X63302000Y-44573000D01*
X63310000Y-44430000D01*
X63317000Y-44268000D01*
X63316000Y-44158000D01*
X63314000Y-43965000D01*
X63308000Y-43823000D01*
X63294000Y-43680000D01*
X63272000Y-43461000D01*
X63252000Y-43319000D01*
X63214000Y-43094000D01*
X63184000Y-42943000D01*
X63138000Y-42746000D01*
X63099000Y-42601000D01*
X63029000Y-42354000D01*
X62961000Y-42168000D01*
X62848000Y-41869000D01*
X62593000Y-41354000D01*
X62366000Y-40941000D01*
X62291000Y-40819000D01*
X62078000Y-40552000D01*
X61629000Y-40050000D01*
X61463000Y-39885000D01*
X61361000Y-39817000D01*
X61227000Y-39737000D01*
X61062000Y-39645000D01*
X60864000Y-39585000D01*
X60620000Y-39521000D01*
X60239000Y-39439000D01*
X59952000Y-39386000D01*
X59649000Y-39344000D01*
X59276000Y-39310000D01*
X58710000Y-39285000D01*
X57863000Y-39277000D01*
X57843000Y-39245000D01*
X57597000Y-38748000D01*
X57401000Y-38345000D01*
X57119000Y-37857000D01*
X56958000Y-37621000D01*
X56834000Y-37458000D01*
X56675000Y-37283000D01*
X56547000Y-37154000D01*
X56415000Y-37056000D01*
X56283000Y-36966000D01*
X56148000Y-36883000D01*
X55954000Y-36794000D01*
X55771000Y-36728000D01*
X55617000Y-36702000D01*
X55484000Y-36697000D01*
X55364000Y-36705000D01*
X55252000Y-36729000D01*
X55126000Y-36774000D01*
X55008000Y-36842000D01*
X54894000Y-36922000D01*
X54731000Y-37065000D01*
X54597000Y-37251000D01*
X54514000Y-37406000D01*
X54460000Y-37562000D01*
X54396000Y-37857000D01*
X54357000Y-38214000D01*
X54260000Y-39328000D01*
X54179000Y-40136000D01*
X54141000Y-40489000D01*
X54089000Y-40919000D01*
X54032000Y-41305000D01*
X53949000Y-41746000D01*
X53851000Y-42195000D01*
X53737000Y-42642000D01*
X53630000Y-42977000D01*
X53535000Y-43288000D01*
X53469000Y-43461000D01*
X53374000Y-43650000D01*
X53279000Y-43821000D01*
X53184000Y-43968000D01*
X53087000Y-44079000D01*
X52979000Y-44191000D01*
X52869000Y-44271000D01*
X52745000Y-44328000D01*
X52636000Y-44373000D01*
X52522000Y-44397000D01*
X52372000Y-44426000D01*
X52233000Y-44449000D01*
X52094000Y-44466000D01*
X52021000Y-44475000D01*
X51949000Y-44482000D01*
X51913000Y-44489000D01*
X51896000Y-44503000D01*
X51868000Y-44534000D01*
X51866000Y-44543000D01*
X51884000Y-44557000D01*
X51910000Y-44566000D01*
X51943000Y-44576000D01*
X52004000Y-44593000D01*
X52068000Y-44610000D01*
X52132000Y-44629000D01*
X52216000Y-44647000D01*
X52282000Y-44648000D01*
X52365000Y-44651000D01*
X52436000Y-44641000D01*
X52509000Y-44629000D01*
X52606000Y-44606000D01*
X52685000Y-44579000D01*
X52768000Y-44547000D01*
X52844000Y-44510000D01*
X52938000Y-44457000D01*
X53039000Y-44393000D01*
X53151000Y-44310000D01*
X53256000Y-44214000D01*
X53325000Y-44145000D01*
X53424000Y-44046000D01*
X53526000Y-43915000D01*
X53609000Y-43811000D01*
X53675000Y-43706000D01*
X53799000Y-43474000D01*
X53882000Y-43227000D01*
X53911000Y-43136000D01*
X53955000Y-42989000D01*
X54058000Y-42611000D01*
X54179000Y-42058000D01*
X54309000Y-41390000D01*
X54457000Y-40483000D01*
X54554000Y-39773000D01*
X54605000Y-39323000D01*
X54634000Y-38993000D01*
X54691000Y-38459000D01*
X54717000Y-38238000D01*
X54764000Y-38026000D01*
X54810000Y-37846000D01*
X54851000Y-37726000D01*
X54939000Y-37548000D01*
X55037000Y-37416000D01*
X55116000Y-37337000D01*
X55209000Y-37259000D01*
X55315000Y-37192000D01*
X55427000Y-37147000D01*
X55521000Y-37130000D01*
X55610000Y-37128000D01*
X55695000Y-37135000D01*
X55795000Y-37157000D01*
X55882000Y-37190000D01*
X56034000Y-37274000D01*
X56095000Y-37318000D01*
X56162000Y-37369000D01*
X56206000Y-37404000D01*
X56257000Y-37456000D01*
X56348000Y-37541000D01*
X56408000Y-37617000D01*
X56465000Y-37705000D01*
X56552000Y-37836000D01*
X56636000Y-37972000D01*
X56728000Y-38137000D01*
X56783000Y-38245000D01*
X56898000Y-38469000D01*
X57074000Y-38816000D01*
X57209000Y-39079000D01*
X57283000Y-39229000D01*
X57295000Y-39254000D01*
X57296000Y-39272000D01*
X57290000Y-39603000D01*
X57281000Y-40006000D01*
X57265000Y-40370000D01*
X57254000Y-40577000D01*
X57224000Y-40751000D01*
X57212000Y-40829000D01*
X57184000Y-40912000D01*
X57146000Y-41008000D01*
X57112000Y-41068000D01*
X57085000Y-41134000D01*
X57065000Y-41197000D01*
X57057000Y-41289000D01*
X57044000Y-41386000D01*
X57034000Y-41458000D01*
X57017000Y-41489000D01*
X56982000Y-41543000D01*
X56967000Y-41592000D01*
X56960000Y-41635000D01*
X56959000Y-41692000D01*
X56960000Y-41738000D01*
X56981000Y-41799000D01*
X56993000Y-41845000D01*
X57021000Y-41921000D01*
X57046000Y-42014000D01*
X57068000Y-42142000D01*
X57098000Y-42410000D01*
X57105000Y-42548000D01*
X57119000Y-42744000D01*
X57122000Y-42946000D01*
X57114000Y-43140000D01*
X57092000Y-43330000D01*
X57064000Y-43492000D01*
X57020000Y-43652000D01*
X56996000Y-43759000D01*
X56978000Y-43880000D01*
X56967000Y-44012000D01*
X56965000Y-44169000D01*
X56967000Y-44358000D01*
X56976000Y-44440000D01*
X56990000Y-44493000D01*
X57006000Y-44520000D01*
X57027000Y-44538000D01*
X57056000Y-44550000D01*
X57091000Y-44557000D01*
X57136000Y-44562000D01*
X57187000Y-44563000D01*
X57239000Y-44558000D01*
X57288000Y-44549000D01*
X57358000Y-44525000D01*
X57425000Y-44488000D01*
X57505000Y-44430000D01*
X57546000Y-44375000D01*
X57573000Y-44313000D01*
X57615000Y-44174000D01*
X57687000Y-43898000D01*
X57728000Y-43751000D01*
X57782000Y-43666000D01*
X57815000Y-43623000D01*
X57838000Y-43610000D01*
X57874000Y-43632000D01*
X57911000Y-43686000D01*
X57952000Y-43765000D01*
X58026000Y-43893000D01*
X58171000Y-44186000D01*
X58244000Y-44377000D01*
X58259000Y-44415000D01*
X58289000Y-44523000D01*
X58312000Y-44665000D01*
X58327000Y-44874000D01*
X58327000Y-45028000D01*
X58321000Y-45314000D01*
X58301000Y-45459000D01*
X58273000Y-45581000D01*
X58231000Y-45690000D01*
X58181000Y-45808000D01*
X58148000Y-45869000D01*
X58097000Y-45937000D01*
X58045000Y-45992000D01*
X57960000Y-46062000D01*
X57892000Y-46114000D01*
X57784000Y-46164000D01*
X57683000Y-46207000D01*
X57559000Y-46259000D01*
X57487000Y-46293000D01*
X57432000Y-46329000D01*
X57393000Y-46356000D01*
X57372000Y-46373000D01*
X57340000Y-46406000D01*
X57310000Y-46446000D01*
X57239000Y-46558000D01*
X57190000Y-46685000D01*
X57163000Y-46901000D01*
X57129000Y-47104000D01*
X57106000Y-47368000D01*
X57083000Y-47530000D01*
X57070000Y-47563000D01*
X57074000Y-47591000D01*
X57096000Y-47629000D01*
X57144000Y-47667000D01*
X57180000Y-47695000D01*
X57234000Y-47738000D01*
X57308000Y-47781000D01*
X57370000Y-47806000D01*
X57435000Y-47823000D01*
X57503000Y-47822000D01*
X57574000Y-47790000D01*
X57630000Y-47742000D01*
X57660000Y-47691000D01*
X57692000Y-47625000D01*
X57716000Y-47516000D01*
X57747000Y-47355000D01*
X57781000Y-47247000D01*
X57831000Y-47178000D01*
X57874000Y-47135000D01*
X57930000Y-47106000D01*
X57979000Y-47093000D01*
X58024000Y-47090000D01*
X58075000Y-47099000D01*
X58103000Y-47108000D01*
X58121000Y-47125000D01*
X58135000Y-47148000D01*
X58154000Y-47178000D01*
X58182000Y-47253000D01*
X58235000Y-47403000D01*
X58302000Y-47578000D01*
X58331000Y-47647000D01*
X58381000Y-47741000D01*
X58440000Y-47851000D01*
X58619000Y-48151000D01*
X58669000Y-48262000D01*
X58722000Y-48447000D01*
X58733000Y-48605000D01*
X58719000Y-48710000D01*
X58704000Y-48921000D01*
X58663000Y-49364000D01*
X58629000Y-49622000D01*
X58595000Y-49882000D01*
X58563000Y-50118000D01*
X58518000Y-50383000D01*
X58463000Y-50806000D01*
X58441000Y-50936000D01*
X58423000Y-51139000D01*
X58419000Y-51300000D01*
X58429000Y-51412000D01*
X58447000Y-51504000D01*
X58523000Y-51770000D01*
X58583000Y-51973000D01*
X58612000Y-52057000D01*
X58646000Y-52180000D01*
X58670000Y-52317000D01*
X58690000Y-52382000D01*
X58716000Y-52430000D01*
X58749000Y-52462000D01*
X58794000Y-52474000D01*
X58847000Y-52476000D01*
X58930000Y-52443000D01*
X59061000Y-52386000D01*
X59298000Y-52263000D01*
X59529000Y-52125000D01*
X59773000Y-51954000D01*
X59935000Y-51832000D01*
X60195000Y-51605000D01*
X60376000Y-51440000D01*
X60594000Y-51208000D01*
X60790000Y-50965000D01*
X60893000Y-50817000D01*
X60976000Y-50677000D01*
X61036000Y-50577000D01*
X61083000Y-50496000D01*
D11*
X30480000Y-167640000D03*
X71120000Y-167640000D03*
X71120000Y-40640000D03*
X30480000Y-40640000D03*
D12*
X52832000Y-149098000D03*
D13*
X52832000Y-152898000D03*
D12*
X39370000Y-149098000D03*
D13*
X39370000Y-152898000D03*
D14*
X50434000Y-66548000D03*
X49134000Y-66548000D03*
X50434000Y-83058000D03*
X49134000Y-83058000D03*
X50434000Y-99568000D03*
X49134000Y-99568000D03*
X50434000Y-116078000D03*
X49134000Y-116078000D03*
X50434000Y-131318000D03*
X49134000Y-131318000D03*
D15*
X60471000Y-50005000D03*
D16*
X35814000Y-138938000D03*
D17*
X39624000Y-138938000D03*
X43434000Y-138938000D03*
D18*
X43434000Y-42418000D03*
X40894000Y-42418000D03*
D19*
X38354000Y-42418000D03*
D20*
X34544000Y-162894000D03*
X34544000Y-160194000D03*
D19*
X38608000Y-167132000D03*
D18*
X41148000Y-167132000D03*
X43688000Y-167132000D03*
D16*
X35814000Y-91948000D03*
D17*
X39624000Y-91948000D03*
X43434000Y-91948000D03*
D16*
X56134000Y-91948000D03*
D17*
X59944000Y-91948000D03*
X63754000Y-91948000D03*
D16*
X35814000Y-58928000D03*
D17*
X39624000Y-58928000D03*
X43434000Y-58928000D03*
D16*
X56134000Y-75438000D03*
D17*
X59944000Y-75438000D03*
X63754000Y-75438000D03*
D16*
X56134000Y-58928000D03*
D17*
X59944000Y-58928000D03*
X63754000Y-58928000D03*
D16*
X35814000Y-75438000D03*
D17*
X39624000Y-75438000D03*
X43434000Y-75438000D03*
D16*
X56134000Y-108458000D03*
D17*
X59944000Y-108458000D03*
X63754000Y-108458000D03*
D16*
X35814000Y-108458000D03*
D17*
X39624000Y-108458000D03*
X43434000Y-108458000D03*
D16*
X56134000Y-123698000D03*
D17*
X59944000Y-123698000D03*
X63754000Y-123698000D03*
D16*
X35814000Y-123698000D03*
D17*
X39624000Y-123698000D03*
X43434000Y-123698000D03*
D16*
X56134000Y-138938000D03*
D17*
X59944000Y-138938000D03*
X63754000Y-138938000D03*
D10*
G36*
X62099026Y-161599223D02*
G01*
X62244635Y-161620822D01*
X62387427Y-161656589D01*
X62526025Y-161706181D01*
X62659095Y-161769118D01*
X62785355Y-161844796D01*
X62903590Y-161932484D01*
X63012660Y-162031340D01*
X63111516Y-162140410D01*
X63199204Y-162258645D01*
X63274882Y-162384905D01*
X63337819Y-162517975D01*
X63387411Y-162656573D01*
X63423178Y-162799365D01*
X63444777Y-162944974D01*
X63452000Y-163092000D01*
X63452000Y-166092000D01*
X63444777Y-166239026D01*
X63423178Y-166384635D01*
X63387411Y-166527427D01*
X63337819Y-166666025D01*
X63274882Y-166799095D01*
X63199204Y-166925355D01*
X63111516Y-167043590D01*
X63012660Y-167152660D01*
X62903590Y-167251516D01*
X62785355Y-167339204D01*
X62659095Y-167414882D01*
X62526025Y-167477819D01*
X62387427Y-167527411D01*
X62244635Y-167563178D01*
X62099026Y-167584777D01*
X61952000Y-167592000D01*
X58952000Y-167592000D01*
X58804974Y-167584777D01*
X58659365Y-167563178D01*
X58516573Y-167527411D01*
X58377975Y-167477819D01*
X58244905Y-167414882D01*
X58118645Y-167339204D01*
X58000410Y-167251516D01*
X57891340Y-167152660D01*
X57792484Y-167043590D01*
X57704796Y-166925355D01*
X57629118Y-166799095D01*
X57566181Y-166666025D01*
X57516589Y-166527427D01*
X57480822Y-166384635D01*
X57459223Y-166239026D01*
X57452000Y-166092000D01*
X57452000Y-163092000D01*
X57459223Y-162944974D01*
X57480822Y-162799365D01*
X57516589Y-162656573D01*
X57566181Y-162517975D01*
X57629118Y-162384905D01*
X57704796Y-162258645D01*
X57792484Y-162140410D01*
X57891340Y-162031340D01*
X58000410Y-161932484D01*
X58118645Y-161844796D01*
X58244905Y-161769118D01*
X58377975Y-161706181D01*
X58516573Y-161656589D01*
X58659365Y-161620822D01*
X58804974Y-161599223D01*
X58952000Y-161592000D01*
X61952000Y-161592000D01*
X62099026Y-161599223D01*
X62099026Y-161599223D01*
G37*
D21*
X60452000Y-164592000D03*
X53252000Y-164592000D03*
D22*
X59944000Y-75438000D02*
X59944000Y-74538000D01*
X51184000Y-66548000D02*
X50434000Y-66548000D01*
D23*
X53104000Y-66548000D02*
X51184000Y-66548000D01*
X59944000Y-73388000D02*
X53104000Y-66548000D01*
D22*
X59944000Y-75438000D02*
X59944000Y-73388000D01*
X51184000Y-131318000D02*
X50434000Y-131318000D01*
D23*
X53224000Y-131318000D02*
X51184000Y-131318000D01*
X59944000Y-138038000D02*
X53224000Y-131318000D01*
D22*
X59944000Y-138938000D02*
X59944000Y-138038000D01*
X51184000Y-116078000D02*
X50434000Y-116078000D01*
D23*
X53224000Y-116078000D02*
X51184000Y-116078000D01*
X59944000Y-122798000D02*
X53224000Y-116078000D01*
D22*
X59944000Y-123698000D02*
X59944000Y-122798000D01*
D23*
X59944000Y-106408000D02*
X53104000Y-99568000D01*
X59944000Y-108458000D02*
X59944000Y-106408000D01*
X53104000Y-99568000D02*
X50434000Y-99568000D01*
D22*
X51184000Y-83058000D02*
X50434000Y-83058000D01*
D23*
X53104000Y-83058000D02*
X51184000Y-83058000D01*
X59944000Y-89898000D02*
X53104000Y-83058000D01*
X59944000Y-91948000D02*
X59944000Y-89898000D01*
D24*
X60452000Y-168656000D02*
X60452000Y-164592000D01*
X60452000Y-160782000D02*
X60452000Y-164592000D01*
D25*
X64262000Y-164592000D02*
X60960000Y-164592000D01*
D23*
X39624000Y-143838000D02*
X39624000Y-138938000D01*
X34544000Y-148918000D02*
X34544000Y-160194000D01*
X39624000Y-143838000D02*
X34544000Y-148918000D01*
X41148000Y-165929919D02*
X41148000Y-167132000D01*
X38112081Y-162894000D02*
X41148000Y-165929919D01*
X34544000Y-162894000D02*
X38112081Y-162894000D01*
D22*
X59944000Y-58928000D02*
X59944000Y-58028000D01*
D23*
X59944000Y-58028000D02*
X53224000Y-51308000D01*
X40894000Y-42418000D02*
X40894000Y-47498000D01*
X40894000Y-47498000D02*
X44704000Y-51308000D01*
X44704000Y-51308000D02*
X53224000Y-51308000D01*
D22*
X48384000Y-131318000D02*
X49134000Y-131318000D01*
D23*
X46344000Y-131318000D02*
X48384000Y-131318000D01*
X39624000Y-124598000D02*
X46344000Y-131318000D01*
D22*
X39624000Y-123698000D02*
X39624000Y-124598000D01*
X39624000Y-109358000D02*
X39624000Y-108458000D01*
D23*
X46344000Y-116078000D02*
X39624000Y-109358000D01*
X49134000Y-116078000D02*
X46344000Y-116078000D01*
X46344000Y-99568000D02*
X39624000Y-92848000D01*
X49134000Y-99568000D02*
X46344000Y-99568000D01*
D22*
X39624000Y-76338000D02*
X39624000Y-75438000D01*
D23*
X46344000Y-83058000D02*
X39624000Y-76338000D01*
X49134000Y-83058000D02*
X46344000Y-83058000D01*
D22*
X39624000Y-59828000D02*
X39624000Y-58928000D01*
D23*
X46344000Y-66548000D02*
X39624000Y-59828000D01*
X49134000Y-66548000D02*
X46344000Y-66548000D01*
D26*
G36*
X55047290Y-35773687D02*
G01*
X54992379Y-35791206D01*
X54936278Y-35804420D01*
X54923400Y-35808918D01*
X54797399Y-35853918D01*
X54724224Y-35888436D01*
X54650052Y-35920769D01*
X54638185Y-35927498D01*
X54520185Y-35995498D01*
X54490271Y-36016878D01*
X54458007Y-36034512D01*
X54446786Y-36042270D01*
X54332786Y-36122270D01*
X54297823Y-36152300D01*
X54260001Y-36178646D01*
X54249684Y-36187571D01*
X54086685Y-36330571D01*
X54081013Y-36336624D01*
X54074352Y-36341576D01*
X54015857Y-36406155D01*
X53956304Y-36469706D01*
X53951915Y-36476747D01*
X53946343Y-36482898D01*
X53938293Y-36493910D01*
X53804293Y-36679910D01*
X53775146Y-36730050D01*
X53742235Y-36777813D01*
X53735712Y-36789794D01*
X53652711Y-36944794D01*
X53625648Y-37009911D01*
X53595301Y-37073553D01*
X53590749Y-37086413D01*
X53536749Y-37242413D01*
X53524702Y-37292615D01*
X53508196Y-37341548D01*
X53505211Y-37354859D01*
X53441211Y-37649859D01*
X53436073Y-37693993D01*
X53426354Y-37737350D01*
X53424778Y-37750900D01*
X53385778Y-38107900D01*
X53385735Y-38111824D01*
X53384961Y-38115669D01*
X53383683Y-38129250D01*
X53287235Y-39236916D01*
X53207238Y-40034910D01*
X53170301Y-40378034D01*
X53120605Y-40788982D01*
X53068296Y-41143215D01*
X52991461Y-41551457D01*
X52900099Y-41970042D01*
X52797485Y-42372399D01*
X52699320Y-42679738D01*
X52699302Y-42679824D01*
X52695621Y-42691579D01*
X52610327Y-42970806D01*
X52573828Y-43066477D01*
X52510141Y-43193180D01*
X52440762Y-43318063D01*
X52401810Y-43378335D01*
X52367077Y-43418081D01*
X52352729Y-43432961D01*
X52346505Y-43435530D01*
X52328608Y-43439298D01*
X52199519Y-43464255D01*
X52093878Y-43481735D01*
X51975395Y-43496226D01*
X51975334Y-43496240D01*
X51974453Y-43496342D01*
X51913954Y-43503801D01*
X51854460Y-43509585D01*
X51815511Y-43517264D01*
X51775928Y-43520451D01*
X51762520Y-43522962D01*
X51726520Y-43529962D01*
X51683426Y-43542812D01*
X51639240Y-43551139D01*
X51592288Y-43569987D01*
X51543794Y-43584447D01*
X51504019Y-43605421D01*
X51462289Y-43622173D01*
X51419886Y-43649786D01*
X51375130Y-43673387D01*
X51340439Y-43701482D01*
X51322965Y-43711698D01*
X51317815Y-43716256D01*
X51302505Y-43726226D01*
X51291914Y-43734824D01*
X51274914Y-43748824D01*
X51245192Y-43778622D01*
X51226953Y-43793393D01*
X51216549Y-43805881D01*
X51180179Y-43838071D01*
X51170966Y-43848130D01*
X51142966Y-43879130D01*
X51110710Y-43922739D01*
X51074881Y-43963481D01*
X51054141Y-43999218D01*
X51029576Y-44032429D01*
X51006404Y-44081474D01*
X51001997Y-44089068D01*
X50996067Y-44098313D01*
X50994880Y-44101331D01*
X50979172Y-44128397D01*
X50965769Y-44167479D01*
X50948121Y-44204832D01*
X50937476Y-44247244D01*
X50926261Y-44275752D01*
X50923596Y-44290454D01*
X50917317Y-44308763D01*
X50914265Y-44322058D01*
X50912265Y-44331059D01*
X50908346Y-44363309D01*
X50901704Y-44389773D01*
X50900204Y-44419493D01*
X50892250Y-44463371D01*
X50892712Y-44491963D01*
X50889263Y-44520343D01*
X50892755Y-44567096D01*
X50892093Y-44580208D01*
X50894391Y-44595939D01*
X50895329Y-44654023D01*
X50901334Y-44681977D01*
X50903464Y-44710491D01*
X50921318Y-44774997D01*
X50935379Y-44840447D01*
X50946702Y-44866706D01*
X50954328Y-44894259D01*
X50984377Y-44954080D01*
X51010878Y-45015540D01*
X51027078Y-45039089D01*
X51039916Y-45064647D01*
X51081015Y-45117496D01*
X51118947Y-45172635D01*
X51139420Y-45192596D01*
X51156972Y-45215166D01*
X51207542Y-45259015D01*
X51210223Y-45261630D01*
X51226549Y-45279694D01*
X51235888Y-45286653D01*
X51255471Y-45305747D01*
X51266180Y-45314197D01*
X51284180Y-45328197D01*
X51295760Y-45335510D01*
X51301032Y-45340082D01*
X51321556Y-45351802D01*
X51333076Y-45359078D01*
X51379442Y-45393630D01*
X51413496Y-45409868D01*
X51445397Y-45430016D01*
X51499352Y-45450808D01*
X51551553Y-45475700D01*
X51564413Y-45480251D01*
X51590413Y-45489252D01*
X51602356Y-45492118D01*
X51613636Y-45496966D01*
X51626663Y-45501013D01*
X51659663Y-45511013D01*
X51663744Y-45511825D01*
X51667602Y-45513382D01*
X51680716Y-45517136D01*
X51741717Y-45534136D01*
X51741833Y-45534156D01*
X51753182Y-45537256D01*
X51803508Y-45550624D01*
X51853948Y-45565598D01*
X51884479Y-45571497D01*
X51913972Y-45581362D01*
X51927290Y-45584313D01*
X52011290Y-45602313D01*
X52099509Y-45612356D01*
X52187561Y-45623586D01*
X52200709Y-45623877D01*
X52200743Y-45623881D01*
X52200773Y-45623879D01*
X52201199Y-45623888D01*
X52256978Y-45624733D01*
X52329710Y-45627362D01*
X52408650Y-45622492D01*
X52487740Y-45620260D01*
X52501261Y-45618451D01*
X52572261Y-45608451D01*
X52576570Y-45607407D01*
X52581000Y-45607180D01*
X52594476Y-45605061D01*
X52667476Y-45593061D01*
X52693931Y-45586004D01*
X52721115Y-45582696D01*
X52734410Y-45579642D01*
X52831410Y-45556641D01*
X52869599Y-45543537D01*
X52909028Y-45534818D01*
X52921967Y-45530496D01*
X53000968Y-45503496D01*
X53011984Y-45498483D01*
X53023696Y-45495414D01*
X53036458Y-45490595D01*
X53119458Y-45458595D01*
X53150553Y-45442967D01*
X53183350Y-45431315D01*
X53195657Y-45425430D01*
X53271657Y-45388430D01*
X53291012Y-45376542D01*
X53311916Y-45367662D01*
X53323845Y-45361045D01*
X53417845Y-45308045D01*
X53432871Y-45297518D01*
X53449367Y-45289486D01*
X53460940Y-45282265D01*
X53561940Y-45218265D01*
X53584708Y-45200502D01*
X53609689Y-45185997D01*
X53620705Y-45177951D01*
X53732705Y-45094951D01*
X53764948Y-45065775D01*
X53800118Y-45040189D01*
X53810250Y-45031054D01*
X53915250Y-44935054D01*
X53925337Y-44923837D01*
X53937131Y-44914422D01*
X53946843Y-44904843D01*
X54015844Y-44835843D01*
X54015849Y-44835837D01*
X54114843Y-44736843D01*
X54148919Y-44695359D01*
X54186425Y-44656932D01*
X54194880Y-44646227D01*
X54293257Y-44519880D01*
X54372625Y-44420431D01*
X54398832Y-44380065D01*
X54428824Y-44342430D01*
X54436164Y-44330932D01*
X54502164Y-44225932D01*
X54514499Y-44201249D01*
X54530133Y-44178521D01*
X54536647Y-44166536D01*
X54660647Y-43934536D01*
X54689200Y-43865685D01*
X54720676Y-43798104D01*
X54725111Y-43785203D01*
X54808111Y-43538204D01*
X54808299Y-43537387D01*
X54808642Y-43536620D01*
X54812874Y-43523652D01*
X54841874Y-43432652D01*
X54842254Y-43430875D01*
X54842969Y-43429196D01*
X54846971Y-43416155D01*
X54890971Y-43269154D01*
X54891991Y-43263939D01*
X54893954Y-43258991D01*
X54897632Y-43245855D01*
X55000632Y-42867855D01*
X55003641Y-42850145D01*
X55009411Y-42833139D01*
X55012420Y-42819833D01*
X55133420Y-42266833D01*
X55133952Y-42262331D01*
X55135309Y-42258005D01*
X55138008Y-42244633D01*
X55268008Y-41576634D01*
X55268771Y-41568583D01*
X55270957Y-41560789D01*
X55273247Y-41547341D01*
X55421247Y-40640341D01*
X55421624Y-40634464D01*
X55423067Y-40628752D01*
X55425008Y-40615249D01*
X55522008Y-39905249D01*
X55522175Y-39900856D01*
X55523155Y-39896566D01*
X55524785Y-39883022D01*
X55575785Y-39433022D01*
X55575868Y-39427511D01*
X55576960Y-39422108D01*
X55578249Y-39408528D01*
X55606451Y-39087614D01*
X55661921Y-38567945D01*
X55681534Y-38401230D01*
X55699808Y-38318802D01*
X55729227Y-38363100D01*
X55793309Y-38466851D01*
X55865734Y-38596744D01*
X55912393Y-38688365D01*
X55912483Y-38688505D01*
X55913850Y-38691215D01*
X56027714Y-38913001D01*
X56202670Y-39257942D01*
X56202784Y-39258120D01*
X56204820Y-39262157D01*
X56315122Y-39477041D01*
X56313193Y-39583463D01*
X56304481Y-39973595D01*
X56289134Y-40322727D01*
X56281431Y-40467693D01*
X56261205Y-40585001D01*
X56261057Y-40587020D01*
X56260529Y-40588972D01*
X56260367Y-40589978D01*
X56239532Y-40636910D01*
X56212993Y-40685486D01*
X56207741Y-40698076D01*
X56180741Y-40764076D01*
X56171353Y-40795468D01*
X56158015Y-40825408D01*
X56153797Y-40838381D01*
X56133798Y-40901380D01*
X56132652Y-40906764D01*
X56130540Y-40911846D01*
X56112814Y-40999996D01*
X56094113Y-41087882D01*
X56094035Y-41093381D01*
X56092949Y-41098782D01*
X56091673Y-41112363D01*
X56087962Y-41155044D01*
X56074548Y-41180978D01*
X56065215Y-41213211D01*
X56051877Y-41244002D01*
X56047793Y-41257018D01*
X56032793Y-41306018D01*
X56021019Y-41364301D01*
X56004979Y-41421571D01*
X56002694Y-41435020D01*
X55995694Y-41478020D01*
X55991660Y-41541324D01*
X55983485Y-41604225D01*
X55983150Y-41617862D01*
X55982150Y-41674862D01*
X55983144Y-41687232D01*
X55982029Y-41699594D01*
X55982231Y-41713234D01*
X55983231Y-41759234D01*
X55989080Y-41807956D01*
X55990276Y-41857009D01*
X56000416Y-41902386D01*
X56005958Y-41948552D01*
X56021157Y-41995203D01*
X56031859Y-42043097D01*
X56036210Y-42056026D01*
X56045060Y-42081733D01*
X56047638Y-42091616D01*
X56061811Y-42130095D01*
X56071612Y-42169921D01*
X56076239Y-42182754D01*
X56088966Y-42217298D01*
X56090770Y-42224010D01*
X56100256Y-42279199D01*
X56123759Y-42489161D01*
X56129254Y-42597494D01*
X56129738Y-42600731D01*
X56129606Y-42603995D01*
X56130483Y-42617608D01*
X56142518Y-42786094D01*
X56144701Y-42933118D01*
X56139322Y-43063572D01*
X56124624Y-43190508D01*
X56109369Y-43278767D01*
X56077971Y-43392942D01*
X56075161Y-43409248D01*
X56069765Y-43424883D01*
X56066686Y-43438172D01*
X56042686Y-43545173D01*
X56039145Y-43573841D01*
X56031735Y-43601764D01*
X56029634Y-43615243D01*
X56011634Y-43736243D01*
X56010398Y-43760977D01*
X56005602Y-43785278D01*
X56004375Y-43798864D01*
X55993375Y-43930865D01*
X55993778Y-43958493D01*
X55990348Y-43985916D01*
X55990079Y-43999555D01*
X55988079Y-44156555D01*
X55988469Y-44161128D01*
X55988005Y-44165697D01*
X55988055Y-44179338D01*
X55990055Y-44368338D01*
X55994537Y-44409553D01*
X55994438Y-44451022D01*
X55995832Y-44464592D01*
X56004832Y-44546591D01*
X56018383Y-44611097D01*
X56028008Y-44676304D01*
X56031399Y-44689517D01*
X56045399Y-44742517D01*
X56056873Y-44773374D01*
X56064306Y-44805442D01*
X56090028Y-44862540D01*
X56111854Y-44921239D01*
X56127806Y-44947171D01*
X56129369Y-44951331D01*
X56131774Y-44955210D01*
X56142623Y-44979293D01*
X56149495Y-44991077D01*
X56165495Y-45018077D01*
X56199523Y-45064484D01*
X56229843Y-45113388D01*
X56255767Y-45141189D01*
X56278246Y-45171846D01*
X56318676Y-45208958D01*
X56328013Y-45220603D01*
X56336395Y-45227656D01*
X56359882Y-45252844D01*
X56370177Y-45261794D01*
X56391177Y-45279794D01*
X56410873Y-45293586D01*
X56418718Y-45300787D01*
X56435332Y-45310908D01*
X56473910Y-45343370D01*
X56511866Y-45364305D01*
X56547368Y-45389165D01*
X56595143Y-45410238D01*
X56640874Y-45435461D01*
X56653442Y-45440764D01*
X56682443Y-45452765D01*
X56711657Y-45461629D01*
X56721829Y-45466116D01*
X56739359Y-45470035D01*
X56766920Y-45478398D01*
X56778319Y-45482038D01*
X56783579Y-45484373D01*
X56790611Y-45485963D01*
X56851037Y-45505259D01*
X56864395Y-45508027D01*
X56893957Y-45513940D01*
X56892345Y-45515236D01*
X56887151Y-45518032D01*
X56875882Y-45525718D01*
X56836882Y-45552718D01*
X56814103Y-45572033D01*
X56788936Y-45588122D01*
X56778274Y-45596631D01*
X56757273Y-45613632D01*
X56720278Y-45650103D01*
X56680175Y-45683139D01*
X56670611Y-45692866D01*
X56638611Y-45725866D01*
X56604361Y-45768895D01*
X56566661Y-45808944D01*
X56558400Y-45819800D01*
X56528400Y-45859800D01*
X56512002Y-45886801D01*
X56492217Y-45911434D01*
X56484834Y-45922904D01*
X56413834Y-46034904D01*
X56373682Y-46114488D01*
X56332491Y-46193623D01*
X56327984Y-46205066D01*
X56327946Y-46205142D01*
X56327926Y-46205215D01*
X56327492Y-46206316D01*
X56278492Y-46333316D01*
X56273983Y-46349578D01*
X56266925Y-46364905D01*
X56248545Y-46441317D01*
X56227542Y-46517060D01*
X56226277Y-46533888D01*
X56222331Y-46550294D01*
X56220545Y-46563818D01*
X56196066Y-46759648D01*
X56165422Y-46942613D01*
X56163251Y-46974387D01*
X56156965Y-47005622D01*
X56155687Y-47019204D01*
X56134984Y-47256844D01*
X56128173Y-47304813D01*
X56126600Y-47308983D01*
X56119903Y-47349135D01*
X56108749Y-47388286D01*
X56104253Y-47442957D01*
X56095228Y-47497061D01*
X56096457Y-47537749D01*
X56093120Y-47578322D01*
X56099328Y-47632820D01*
X56100984Y-47687651D01*
X56102819Y-47701169D01*
X56106819Y-47729168D01*
X56113347Y-47755884D01*
X56114701Y-47767774D01*
X56121318Y-47788509D01*
X56126911Y-47811402D01*
X56145180Y-47894021D01*
X56149513Y-47903906D01*
X56152076Y-47914397D01*
X56187750Y-47991144D01*
X56221726Y-48068660D01*
X56228479Y-48080512D01*
X56250479Y-48118512D01*
X56297973Y-48184684D01*
X56343562Y-48252190D01*
X56353501Y-48262049D01*
X56361662Y-48273419D01*
X56421096Y-48329097D01*
X56478937Y-48386471D01*
X56489573Y-48395013D01*
X56537573Y-48433013D01*
X56537774Y-48433143D01*
X56544180Y-48438197D01*
X56575769Y-48462766D01*
X56625401Y-48502288D01*
X56679566Y-48537369D01*
X56731392Y-48575803D01*
X56743138Y-48582739D01*
X56817138Y-48625739D01*
X56874509Y-48651957D01*
X56930017Y-48681921D01*
X56942633Y-48687110D01*
X57004633Y-48712110D01*
X57057848Y-48727732D01*
X57109619Y-48747664D01*
X57122792Y-48751207D01*
X57187792Y-48768207D01*
X57217312Y-48772913D01*
X57245944Y-48781534D01*
X57311284Y-48787892D01*
X57376091Y-48798222D01*
X57405963Y-48797104D01*
X57435725Y-48800000D01*
X57449366Y-48799894D01*
X57517366Y-48798894D01*
X57519228Y-48798684D01*
X57521096Y-48798832D01*
X57613966Y-48787986D01*
X57706839Y-48777499D01*
X57708624Y-48776931D01*
X57710485Y-48776714D01*
X57735361Y-48768698D01*
X57730195Y-48841372D01*
X57691903Y-49255111D01*
X57660375Y-49494352D01*
X57660373Y-49494410D01*
X57660248Y-49495317D01*
X57626563Y-49752908D01*
X57597052Y-49970551D01*
X57554789Y-50219436D01*
X57553928Y-50231630D01*
X57551008Y-50243512D01*
X57549155Y-50257027D01*
X57496568Y-50661471D01*
X57477697Y-50772979D01*
X57475467Y-50804832D01*
X57469118Y-50836129D01*
X57467818Y-50849708D01*
X57449818Y-51052708D01*
X57450044Y-51077015D01*
X57446735Y-51101099D01*
X57446301Y-51114734D01*
X57442301Y-51275734D01*
X57445859Y-51324459D01*
X57444753Y-51373291D01*
X57445871Y-51386887D01*
X57455871Y-51498887D01*
X57464062Y-51542225D01*
X57467653Y-51586190D01*
X57470179Y-51599595D01*
X57488179Y-51691595D01*
X57498164Y-51724938D01*
X57503935Y-51759260D01*
X57507591Y-51772403D01*
X57583591Y-52038402D01*
X57583674Y-52038611D01*
X57586068Y-52046926D01*
X57646068Y-52249925D01*
X57651791Y-52264044D01*
X57655126Y-52278906D01*
X57659487Y-52291832D01*
X57678487Y-52346866D01*
X57691775Y-52394939D01*
X57707655Y-52485586D01*
X57722199Y-52537899D01*
X57732283Y-52591256D01*
X57736204Y-52604322D01*
X57756204Y-52669322D01*
X57790826Y-52752076D01*
X57824518Y-52835289D01*
X57829741Y-52845093D01*
X57829796Y-52845225D01*
X57829869Y-52845334D01*
X57830932Y-52847329D01*
X57856932Y-52895328D01*
X57882911Y-52933782D01*
X57904901Y-52974653D01*
X57936155Y-53012592D01*
X57963675Y-53053327D01*
X57996633Y-53086006D01*
X58026139Y-53121824D01*
X58035866Y-53131389D01*
X58068865Y-53163388D01*
X58098314Y-53186829D01*
X58099075Y-53187583D01*
X58100197Y-53188327D01*
X58108827Y-53195196D01*
X58145735Y-53230505D01*
X58183243Y-53254429D01*
X58218052Y-53282136D01*
X58263432Y-53305577D01*
X58306493Y-53333043D01*
X58347935Y-53349227D01*
X58387463Y-53369645D01*
X58436529Y-53383824D01*
X58484108Y-53402405D01*
X58497264Y-53406012D01*
X58542264Y-53418012D01*
X58548777Y-53419082D01*
X58554978Y-53421310D01*
X58642762Y-53434526D01*
X58730418Y-53448929D01*
X58737008Y-53448714D01*
X58743531Y-53449696D01*
X58757158Y-53450305D01*
X58810159Y-53452305D01*
X58815658Y-53451975D01*
X58821123Y-53452657D01*
X58910780Y-53446258D01*
X59000492Y-53440867D01*
X59005820Y-53439475D01*
X59011316Y-53439083D01*
X59098050Y-53415384D01*
X59184980Y-53392678D01*
X59189935Y-53390278D01*
X59195251Y-53388826D01*
X59207962Y-53383874D01*
X59290962Y-53350874D01*
X59298814Y-53346824D01*
X59307259Y-53344224D01*
X59319805Y-53338869D01*
X59450806Y-53281869D01*
X59474061Y-53268918D01*
X59498899Y-53259369D01*
X59511050Y-53253170D01*
X59748050Y-53130170D01*
X59766869Y-53117935D01*
X59787300Y-53108644D01*
X59799060Y-53101730D01*
X60030060Y-52963730D01*
X60053218Y-52946623D01*
X60078487Y-52932832D01*
X60089713Y-52925081D01*
X60333713Y-52754081D01*
X60341244Y-52747621D01*
X60349787Y-52742572D01*
X60360740Y-52734442D01*
X60522740Y-52612443D01*
X60543758Y-52593127D01*
X60567219Y-52576868D01*
X60577557Y-52567968D01*
X60837557Y-52340968D01*
X60840071Y-52338297D01*
X60843049Y-52336138D01*
X60853193Y-52327018D01*
X61034193Y-52162019D01*
X61054961Y-52138992D01*
X61078581Y-52118903D01*
X61087992Y-52109027D01*
X61305992Y-51877027D01*
X61324398Y-51853142D01*
X61345822Y-51831933D01*
X61354460Y-51821375D01*
X61550460Y-51578375D01*
X61565716Y-51555141D01*
X61584044Y-51534231D01*
X61591914Y-51523089D01*
X61694914Y-51375088D01*
X61708992Y-51349935D01*
X61726369Y-51326927D01*
X61733407Y-51315241D01*
X61815078Y-51177483D01*
X61873771Y-51079662D01*
X61873914Y-51079360D01*
X61874117Y-51079086D01*
X61881045Y-51067335D01*
X61928045Y-50986335D01*
X61935118Y-50970833D01*
X61944578Y-50956665D01*
X61950926Y-50944591D01*
X61986344Y-50876064D01*
X61986556Y-50875756D01*
X61993059Y-50863765D01*
X62081059Y-50698765D01*
X62096723Y-50660897D01*
X62116513Y-50625006D01*
X62121814Y-50612437D01*
X62188708Y-50450716D01*
X62190279Y-50447980D01*
X62197265Y-50441382D01*
X62292753Y-50363839D01*
X62473819Y-50235725D01*
X62647413Y-50115769D01*
X62659720Y-50105352D01*
X62673554Y-50097063D01*
X62684459Y-50088867D01*
X62882459Y-49937867D01*
X62896452Y-49924851D01*
X62912297Y-49914177D01*
X62922753Y-49905415D01*
X63062753Y-49786414D01*
X63081755Y-49766762D01*
X63103306Y-49749946D01*
X63113125Y-49740476D01*
X63204125Y-49651476D01*
X63246235Y-49601356D01*
X63291356Y-49553901D01*
X63299670Y-49543086D01*
X63396670Y-49415086D01*
X63424915Y-49369094D01*
X63456967Y-49325663D01*
X63463875Y-49313900D01*
X63526876Y-49204900D01*
X63540172Y-49175625D01*
X63557144Y-49148320D01*
X63563095Y-49136045D01*
X63613095Y-49031045D01*
X63628281Y-48989009D01*
X63647750Y-48948784D01*
X63660597Y-48899557D01*
X63677882Y-48851712D01*
X63684614Y-48807532D01*
X63695900Y-48764286D01*
X63697946Y-48750799D01*
X63709946Y-48667799D01*
X63712041Y-48622136D01*
X63718775Y-48576916D01*
X63716400Y-48527118D01*
X63718685Y-48477323D01*
X63711871Y-48432125D01*
X63709693Y-48386455D01*
X63707622Y-48372972D01*
X63698622Y-48316972D01*
X63696314Y-48308193D01*
X63695588Y-48299151D01*
X63672097Y-48216080D01*
X63650139Y-48132561D01*
X63646171Y-48124401D01*
X63643702Y-48115669D01*
X63638638Y-48103003D01*
X63607638Y-48027003D01*
X63585693Y-47985363D01*
X63567978Y-47941751D01*
X63561551Y-47929718D01*
X63498551Y-47813718D01*
X63462862Y-47761019D01*
X63430677Y-47706102D01*
X63422587Y-47695119D01*
X63410755Y-47679288D01*
X63376130Y-47581348D01*
X63337139Y-47498000D01*
X63298781Y-47414494D01*
X63295437Y-47408855D01*
X63295334Y-47408635D01*
X63295190Y-47408439D01*
X63291823Y-47402761D01*
X63244822Y-47324761D01*
X63244806Y-47324739D01*
X63253368Y-47294879D01*
X63387041Y-46954393D01*
X63489706Y-46725166D01*
X63698250Y-46283092D01*
X63906724Y-45864195D01*
X63986769Y-45705094D01*
X63999866Y-45671165D01*
X64016966Y-45639070D01*
X64022087Y-45626426D01*
X64099087Y-45432427D01*
X64107342Y-45403730D01*
X64119367Y-45376406D01*
X64123527Y-45363415D01*
X64173527Y-45203414D01*
X64179884Y-45172862D01*
X64190199Y-45143409D01*
X64193338Y-45130133D01*
X64234338Y-44951133D01*
X64239736Y-44909000D01*
X64249669Y-44867706D01*
X64251455Y-44854182D01*
X64271455Y-44694182D01*
X64272165Y-44667506D01*
X64276618Y-44641186D01*
X64277475Y-44627572D01*
X64285475Y-44484572D01*
X64285471Y-44484482D01*
X64286089Y-44472177D01*
X64293089Y-44310177D01*
X64292066Y-44291437D01*
X64293989Y-44272760D01*
X64293960Y-44259119D01*
X64292960Y-44149119D01*
X64292952Y-44149044D01*
X64292948Y-44147876D01*
X64290948Y-43954876D01*
X64290001Y-43946146D01*
X64290610Y-43937388D01*
X64290129Y-43923755D01*
X64284129Y-43781755D01*
X64281300Y-43761674D01*
X64281586Y-43741390D01*
X64280351Y-43727805D01*
X64266351Y-43584805D01*
X64266324Y-43584669D01*
X64266107Y-43582345D01*
X64244107Y-43363345D01*
X64241618Y-43350927D01*
X64241260Y-43338261D01*
X64239451Y-43324740D01*
X64219451Y-43182739D01*
X64217901Y-43176340D01*
X64217535Y-43169766D01*
X64215357Y-43156299D01*
X64177357Y-42931300D01*
X64175451Y-42924277D01*
X64174836Y-42917013D01*
X64172271Y-42903615D01*
X64142271Y-42752615D01*
X64139527Y-42743549D01*
X64138416Y-42734149D01*
X64135407Y-42720844D01*
X64089407Y-42523844D01*
X64086353Y-42514842D01*
X64084921Y-42505437D01*
X64081469Y-42492239D01*
X64042469Y-42347239D01*
X64042457Y-42347207D01*
X64038981Y-42334608D01*
X63968981Y-42087609D01*
X63958186Y-42060096D01*
X63951195Y-42031377D01*
X63946601Y-42018533D01*
X63878601Y-41832533D01*
X63878525Y-41832374D01*
X63874911Y-41822608D01*
X63761911Y-41523609D01*
X63743608Y-41486581D01*
X63729517Y-41447743D01*
X63723549Y-41435476D01*
X63468549Y-40920476D01*
X63461071Y-40908481D01*
X63455682Y-40895404D01*
X63449194Y-40883404D01*
X63222194Y-40470404D01*
X63212596Y-40456384D01*
X63205367Y-40441008D01*
X63198305Y-40429338D01*
X63123304Y-40307338D01*
X63091347Y-40265207D01*
X63063178Y-40220443D01*
X63054745Y-40209720D01*
X62841745Y-39942720D01*
X62827275Y-39927830D01*
X62815238Y-39910899D01*
X62806215Y-39900669D01*
X62357215Y-39398669D01*
X62341086Y-39383843D01*
X62327361Y-39366756D01*
X62317753Y-39357072D01*
X62151753Y-39192073D01*
X62083589Y-39136427D01*
X62016240Y-39079733D01*
X62004942Y-39072087D01*
X61902942Y-39004087D01*
X61887459Y-38995823D01*
X61873484Y-38985201D01*
X61861820Y-38978127D01*
X61727820Y-38898127D01*
X61720892Y-38894861D01*
X61714657Y-38890407D01*
X61702790Y-38883681D01*
X61537790Y-38791681D01*
X61535553Y-38790707D01*
X61533546Y-38789329D01*
X61448204Y-38752648D01*
X61362985Y-38715518D01*
X61360605Y-38714997D01*
X61358364Y-38714034D01*
X61345337Y-38709987D01*
X61147337Y-38649987D01*
X61135913Y-38647713D01*
X61125048Y-38643521D01*
X61111877Y-38639968D01*
X60867877Y-38575968D01*
X60853086Y-38573600D01*
X60838881Y-38568834D01*
X60825566Y-38565871D01*
X60444566Y-38483871D01*
X60437059Y-38483010D01*
X60429819Y-38480815D01*
X60416422Y-38478245D01*
X60129422Y-38425245D01*
X60114326Y-38423961D01*
X60099642Y-38420220D01*
X60086143Y-38418253D01*
X59783143Y-38376253D01*
X59767045Y-38375609D01*
X59751264Y-38372367D01*
X59737688Y-38371034D01*
X59364689Y-38337034D01*
X59348620Y-38337144D01*
X59332735Y-38334648D01*
X59319112Y-38333952D01*
X58753112Y-38308952D01*
X58742965Y-38309496D01*
X58732867Y-38308267D01*
X58719228Y-38308044D01*
X58468295Y-38305674D01*
X58279599Y-37917691D01*
X58264910Y-37893755D01*
X58253659Y-37868029D01*
X58246917Y-37856171D01*
X57964917Y-37368171D01*
X57947599Y-37344002D01*
X57933688Y-37317730D01*
X57926079Y-37306408D01*
X57765079Y-37070408D01*
X57753234Y-37056242D01*
X57743758Y-37040385D01*
X57735575Y-37029471D01*
X57611575Y-36866471D01*
X57587202Y-36840207D01*
X57566211Y-36811164D01*
X57557108Y-36801004D01*
X57398108Y-36626004D01*
X57387202Y-36616135D01*
X57378067Y-36604600D01*
X57368526Y-36594850D01*
X57240526Y-36465850D01*
X57189116Y-36423285D01*
X57140286Y-36377764D01*
X57129390Y-36369557D01*
X56997390Y-36271557D01*
X56986357Y-36264930D01*
X56976597Y-36256539D01*
X56965380Y-36248776D01*
X56833380Y-36158776D01*
X56819101Y-36150963D01*
X56806270Y-36140944D01*
X56794699Y-36133718D01*
X56659699Y-36050718D01*
X56612617Y-36027771D01*
X56567746Y-36000763D01*
X56555387Y-35994988D01*
X56361387Y-35905988D01*
X56328995Y-35894807D01*
X56298262Y-35879663D01*
X56285462Y-35874945D01*
X56102462Y-35808945D01*
X56024441Y-35789156D01*
X55947081Y-35766998D01*
X55933646Y-35764633D01*
X55846974Y-35750000D01*
X73359444Y-35750000D01*
X73713556Y-35784721D01*
X74009399Y-35874041D01*
X74282260Y-36019124D01*
X74521742Y-36214440D01*
X74718726Y-36452554D01*
X74865710Y-36724394D01*
X74957093Y-37019607D01*
X74994000Y-37370751D01*
X74994000Y-39208292D01*
X74777300Y-38685132D01*
X74325650Y-38009191D01*
X73750809Y-37434350D01*
X73074868Y-36982700D01*
X72323802Y-36671598D01*
X71526474Y-36513000D01*
X70713526Y-36513000D01*
X69916198Y-36671598D01*
X69165132Y-36982700D01*
X68489191Y-37434350D01*
X67914350Y-38009191D01*
X67462700Y-38685132D01*
X67151598Y-39436198D01*
X66993000Y-40233526D01*
X66993000Y-41046474D01*
X67151598Y-41843802D01*
X67462700Y-42594868D01*
X67914350Y-43270809D01*
X68489191Y-43845650D01*
X69165132Y-44297300D01*
X69916198Y-44608402D01*
X70713526Y-44767000D01*
X71526474Y-44767000D01*
X72323802Y-44608402D01*
X73074868Y-44297300D01*
X73750809Y-43845650D01*
X74325650Y-43270809D01*
X74777300Y-42594868D01*
X74994000Y-42071708D01*
X74994001Y-166208294D01*
X74777300Y-165685132D01*
X74325650Y-165009191D01*
X73750809Y-164434350D01*
X73074868Y-163982700D01*
X72323802Y-163671598D01*
X71526474Y-163513000D01*
X70713526Y-163513000D01*
X69916198Y-163671598D01*
X69165132Y-163982700D01*
X68489191Y-164434350D01*
X67914350Y-165009191D01*
X67462700Y-165685132D01*
X67151598Y-166436198D01*
X66993000Y-167233526D01*
X66993000Y-168046474D01*
X67151598Y-168843802D01*
X67462700Y-169594868D01*
X67914350Y-170270809D01*
X68489191Y-170845650D01*
X69165132Y-171297300D01*
X69916198Y-171608402D01*
X70713526Y-171767000D01*
X71526474Y-171767000D01*
X72323802Y-171608402D01*
X73074868Y-171297300D01*
X73750809Y-170845650D01*
X74325650Y-170270809D01*
X74777300Y-169594868D01*
X74994001Y-169071706D01*
X74994001Y-170641434D01*
X74959279Y-170995556D01*
X74869958Y-171291402D01*
X74724877Y-171564260D01*
X74529560Y-171803742D01*
X74291445Y-172000727D01*
X74019606Y-172147710D01*
X73724395Y-172239093D01*
X73373249Y-172276000D01*
X28240556Y-172276000D01*
X27886444Y-172241279D01*
X27590598Y-172151958D01*
X27317740Y-172006877D01*
X27078258Y-171811560D01*
X26881273Y-171573445D01*
X26734290Y-171301606D01*
X26642907Y-171006395D01*
X26606000Y-170655249D01*
X26606000Y-169071708D01*
X26822700Y-169594868D01*
X27274350Y-170270809D01*
X27849191Y-170845650D01*
X28525132Y-171297300D01*
X29276198Y-171608402D01*
X30073526Y-171767000D01*
X30886474Y-171767000D01*
X31683802Y-171608402D01*
X32434868Y-171297300D01*
X33110809Y-170845650D01*
X33685650Y-170270809D01*
X34137300Y-169594868D01*
X34448402Y-168843802D01*
X34607000Y-168046474D01*
X34607000Y-167233526D01*
X34448402Y-166436198D01*
X34137300Y-165685132D01*
X33685650Y-165009191D01*
X33110809Y-164434350D01*
X32434868Y-163982700D01*
X31683802Y-163671598D01*
X30886474Y-163513000D01*
X30073526Y-163513000D01*
X29276198Y-163671598D01*
X28525132Y-163982700D01*
X27849191Y-164434350D01*
X27274350Y-165009191D01*
X26822700Y-165685132D01*
X26606000Y-166208292D01*
X26606000Y-159444000D01*
X32962515Y-159444000D01*
X32962515Y-160944000D01*
X32980413Y-161125724D01*
X33033420Y-161300464D01*
X33119499Y-161461505D01*
X33187201Y-161544000D01*
X33119499Y-161626495D01*
X33033420Y-161787536D01*
X32980413Y-161962276D01*
X32962515Y-162144000D01*
X32962515Y-163644000D01*
X32980413Y-163825724D01*
X33033420Y-164000464D01*
X33119499Y-164161505D01*
X33235341Y-164302659D01*
X33376495Y-164418501D01*
X33537536Y-164504580D01*
X33712276Y-164557587D01*
X33894000Y-164575485D01*
X35194000Y-164575485D01*
X35375724Y-164557587D01*
X35550464Y-164504580D01*
X35711505Y-164418501D01*
X35830310Y-164321000D01*
X37520999Y-164321000D01*
X38550514Y-165350515D01*
X37758000Y-165350515D01*
X37576276Y-165368413D01*
X37401536Y-165421420D01*
X37240495Y-165507499D01*
X37099341Y-165623341D01*
X36983499Y-165764495D01*
X36897420Y-165925536D01*
X36844413Y-166100276D01*
X36826515Y-166282000D01*
X36826515Y-167982000D01*
X36844413Y-168163724D01*
X36897420Y-168338464D01*
X36983499Y-168499505D01*
X37099341Y-168640659D01*
X37240495Y-168756501D01*
X37401536Y-168842580D01*
X37576276Y-168895587D01*
X37758000Y-168913485D01*
X39458000Y-168913485D01*
X39639724Y-168895587D01*
X39814464Y-168842580D01*
X39975505Y-168756501D01*
X40116659Y-168640659D01*
X40144246Y-168607044D01*
X40155975Y-168616670D01*
X40464681Y-168781677D01*
X40799647Y-168883288D01*
X41060704Y-168909000D01*
X41235296Y-168909000D01*
X41496353Y-168883288D01*
X41831319Y-168781677D01*
X42140025Y-168616670D01*
X42410608Y-168394608D01*
X42613564Y-168147306D01*
X42687731Y-168229588D01*
X42921080Y-168403641D01*
X43183901Y-168528825D01*
X43331110Y-168573476D01*
X43561000Y-168452155D01*
X43561000Y-167259000D01*
X43815000Y-167259000D01*
X43815000Y-168452155D01*
X44044890Y-168573476D01*
X44192099Y-168528825D01*
X44454920Y-168403641D01*
X44688269Y-168229588D01*
X44883178Y-168013355D01*
X45032157Y-167763252D01*
X45129481Y-167488891D01*
X45008814Y-167259000D01*
X43815000Y-167259000D01*
X43561000Y-167259000D01*
X43541000Y-167259000D01*
X43541000Y-167005000D01*
X43561000Y-167005000D01*
X43561000Y-165811845D01*
X43815000Y-165811845D01*
X43815000Y-167005000D01*
X45008814Y-167005000D01*
X45129481Y-166775109D01*
X45032157Y-166500748D01*
X44883178Y-166250645D01*
X44688269Y-166034412D01*
X44454920Y-165860359D01*
X44192099Y-165735175D01*
X44044890Y-165690524D01*
X43815000Y-165811845D01*
X43561000Y-165811845D01*
X43331110Y-165690524D01*
X43183901Y-165735175D01*
X42921080Y-165860359D01*
X42687731Y-166034412D01*
X42613564Y-166116694D01*
X42575000Y-166069704D01*
X42575000Y-166000009D01*
X42581903Y-165929919D01*
X42575000Y-165859829D01*
X42575000Y-165859821D01*
X42554352Y-165650178D01*
X42472755Y-165381188D01*
X42340248Y-165133285D01*
X42324034Y-165113529D01*
X42206608Y-164970444D01*
X42206601Y-164970437D01*
X42161922Y-164915996D01*
X42107482Y-164871318D01*
X41441388Y-164205224D01*
X49325000Y-164205224D01*
X49325000Y-164978776D01*
X49475912Y-165737464D01*
X49771938Y-166452132D01*
X50201700Y-167095317D01*
X50748683Y-167642300D01*
X51391868Y-168072062D01*
X52106536Y-168368088D01*
X52865224Y-168519000D01*
X53638776Y-168519000D01*
X54397464Y-168368088D01*
X55112132Y-168072062D01*
X55755317Y-167642300D01*
X56302300Y-167095317D01*
X56732062Y-166452132D01*
X56815446Y-166250826D01*
X56813928Y-167592000D01*
X56826188Y-167716482D01*
X56862498Y-167836180D01*
X56921463Y-167946494D01*
X57000815Y-168043185D01*
X57097506Y-168122537D01*
X57207820Y-168181502D01*
X57327518Y-168217812D01*
X57452000Y-168230072D01*
X60166250Y-168227000D01*
X60325000Y-168068250D01*
X60325000Y-164719000D01*
X60579000Y-164719000D01*
X60579000Y-168068250D01*
X60737750Y-168227000D01*
X63452000Y-168230072D01*
X63576482Y-168217812D01*
X63696180Y-168181502D01*
X63806494Y-168122537D01*
X63903185Y-168043185D01*
X63982537Y-167946494D01*
X64041502Y-167836180D01*
X64077812Y-167716482D01*
X64090072Y-167592000D01*
X64087000Y-164877750D01*
X63928250Y-164719000D01*
X60579000Y-164719000D01*
X60325000Y-164719000D01*
X60305000Y-164719000D01*
X60305000Y-164465000D01*
X60325000Y-164465000D01*
X60325000Y-161115750D01*
X60579000Y-161115750D01*
X60579000Y-164465000D01*
X63928250Y-164465000D01*
X64087000Y-164306250D01*
X64090072Y-161592000D01*
X64077812Y-161467518D01*
X64041502Y-161347820D01*
X63982537Y-161237506D01*
X63903185Y-161140815D01*
X63806494Y-161061463D01*
X63696180Y-161002498D01*
X63576482Y-160966188D01*
X63452000Y-160953928D01*
X60737750Y-160957000D01*
X60579000Y-161115750D01*
X60325000Y-161115750D01*
X60166250Y-160957000D01*
X57452000Y-160953928D01*
X57327518Y-160966188D01*
X57207820Y-161002498D01*
X57097506Y-161061463D01*
X57000815Y-161140815D01*
X56921463Y-161237506D01*
X56862498Y-161347820D01*
X56826188Y-161467518D01*
X56813928Y-161592000D01*
X56815446Y-162933174D01*
X56732062Y-162731868D01*
X56302300Y-162088683D01*
X55755317Y-161541700D01*
X55112132Y-161111938D01*
X54397464Y-160815912D01*
X53638776Y-160665000D01*
X52865224Y-160665000D01*
X52106536Y-160815912D01*
X51391868Y-161111938D01*
X50748683Y-161541700D01*
X50201700Y-162088683D01*
X49771938Y-162731868D01*
X49475912Y-163446536D01*
X49325000Y-164205224D01*
X41441388Y-164205224D01*
X39170690Y-161934527D01*
X39126004Y-161880077D01*
X38908715Y-161701752D01*
X38660812Y-161569245D01*
X38391822Y-161487648D01*
X38182179Y-161467000D01*
X38182169Y-161467000D01*
X38112081Y-161460097D01*
X38041993Y-161467000D01*
X35963991Y-161467000D01*
X35968501Y-161461505D01*
X36054580Y-161300464D01*
X36107587Y-161125724D01*
X36125485Y-160944000D01*
X36125485Y-159444000D01*
X36107587Y-159262276D01*
X36054580Y-159087536D01*
X35971000Y-158931170D01*
X35971000Y-154033413D01*
X38414192Y-154033413D01*
X38509956Y-154297814D01*
X38799571Y-154438704D01*
X39111108Y-154520384D01*
X39432595Y-154539718D01*
X39751675Y-154495961D01*
X40056088Y-154390795D01*
X40230044Y-154297814D01*
X40325808Y-154033413D01*
X51876192Y-154033413D01*
X51971956Y-154297814D01*
X52261571Y-154438704D01*
X52573108Y-154520384D01*
X52894595Y-154539718D01*
X53213675Y-154495961D01*
X53518088Y-154390795D01*
X53692044Y-154297814D01*
X53787808Y-154033413D01*
X52832000Y-153077605D01*
X51876192Y-154033413D01*
X40325808Y-154033413D01*
X39370000Y-153077605D01*
X38414192Y-154033413D01*
X35971000Y-154033413D01*
X35971000Y-152960595D01*
X37728282Y-152960595D01*
X37772039Y-153279675D01*
X37877205Y-153584088D01*
X37970186Y-153758044D01*
X38234587Y-153853808D01*
X39190395Y-152898000D01*
X39549605Y-152898000D01*
X40505413Y-153853808D01*
X40769814Y-153758044D01*
X40910704Y-153468429D01*
X40992384Y-153156892D01*
X41004189Y-152960595D01*
X51190282Y-152960595D01*
X51234039Y-153279675D01*
X51339205Y-153584088D01*
X51432186Y-153758044D01*
X51696587Y-153853808D01*
X52652395Y-152898000D01*
X53011605Y-152898000D01*
X53967413Y-153853808D01*
X54231814Y-153758044D01*
X54372704Y-153468429D01*
X54454384Y-153156892D01*
X54473718Y-152835405D01*
X54429961Y-152516325D01*
X54324795Y-152211912D01*
X54231814Y-152037956D01*
X53967413Y-151942192D01*
X53011605Y-152898000D01*
X52652395Y-152898000D01*
X51696587Y-151942192D01*
X51432186Y-152037956D01*
X51291296Y-152327571D01*
X51209616Y-152639108D01*
X51190282Y-152960595D01*
X41004189Y-152960595D01*
X41011718Y-152835405D01*
X40967961Y-152516325D01*
X40862795Y-152211912D01*
X40769814Y-152037956D01*
X40505413Y-151942192D01*
X39549605Y-152898000D01*
X39190395Y-152898000D01*
X38234587Y-151942192D01*
X37970186Y-152037956D01*
X37829296Y-152327571D01*
X37747616Y-152639108D01*
X37728282Y-152960595D01*
X35971000Y-152960595D01*
X35971000Y-151762587D01*
X38414192Y-151762587D01*
X39370000Y-152718395D01*
X40325808Y-151762587D01*
X51876192Y-151762587D01*
X52832000Y-152718395D01*
X53787808Y-151762587D01*
X53692044Y-151498186D01*
X53402429Y-151357296D01*
X53090892Y-151275616D01*
X52769405Y-151256282D01*
X52450325Y-151300039D01*
X52145912Y-151405205D01*
X51971956Y-151498186D01*
X51876192Y-151762587D01*
X40325808Y-151762587D01*
X40230044Y-151498186D01*
X39940429Y-151357296D01*
X39628892Y-151275616D01*
X39307405Y-151256282D01*
X38988325Y-151300039D01*
X38683912Y-151405205D01*
X38509956Y-151498186D01*
X38414192Y-151762587D01*
X35971000Y-151762587D01*
X35971000Y-149509082D01*
X37444680Y-148035402D01*
X37438515Y-148098000D01*
X37438515Y-150098000D01*
X37456413Y-150279724D01*
X37509420Y-150454464D01*
X37595499Y-150615505D01*
X37711341Y-150756659D01*
X37852495Y-150872501D01*
X38013536Y-150958580D01*
X38188276Y-151011587D01*
X38370000Y-151029485D01*
X40370000Y-151029485D01*
X40551724Y-151011587D01*
X40726464Y-150958580D01*
X40887505Y-150872501D01*
X41028659Y-150756659D01*
X41144501Y-150615505D01*
X41230580Y-150454464D01*
X41283587Y-150279724D01*
X41301485Y-150098000D01*
X41301485Y-148098000D01*
X50900515Y-148098000D01*
X50900515Y-150098000D01*
X50918413Y-150279724D01*
X50971420Y-150454464D01*
X51057499Y-150615505D01*
X51173341Y-150756659D01*
X51314495Y-150872501D01*
X51475536Y-150958580D01*
X51650276Y-151011587D01*
X51832000Y-151029485D01*
X53832000Y-151029485D01*
X54013724Y-151011587D01*
X54188464Y-150958580D01*
X54349505Y-150872501D01*
X54490659Y-150756659D01*
X54606501Y-150615505D01*
X54692580Y-150454464D01*
X54745587Y-150279724D01*
X54763485Y-150098000D01*
X54763485Y-148098000D01*
X54745587Y-147916276D01*
X54692580Y-147741536D01*
X54606501Y-147580495D01*
X54490659Y-147439341D01*
X54349505Y-147323499D01*
X54188464Y-147237420D01*
X54013724Y-147184413D01*
X53832000Y-147166515D01*
X51832000Y-147166515D01*
X51650276Y-147184413D01*
X51475536Y-147237420D01*
X51314495Y-147323499D01*
X51173341Y-147439341D01*
X51057499Y-147580495D01*
X50971420Y-147741536D01*
X50918413Y-147916276D01*
X50900515Y-148098000D01*
X41301485Y-148098000D01*
X41283587Y-147916276D01*
X41230580Y-147741536D01*
X41144501Y-147580495D01*
X41028659Y-147439341D01*
X40887505Y-147323499D01*
X40726464Y-147237420D01*
X40551724Y-147184413D01*
X40370000Y-147166515D01*
X38370000Y-147166515D01*
X38307402Y-147172680D01*
X40583483Y-144896600D01*
X40637922Y-144851923D01*
X40682601Y-144797482D01*
X40682608Y-144797475D01*
X40816247Y-144634635D01*
X40816248Y-144634634D01*
X40948755Y-144386731D01*
X41030352Y-144117741D01*
X41051000Y-143908098D01*
X41051000Y-143908090D01*
X41057903Y-143838000D01*
X41051000Y-143767910D01*
X41051000Y-140979112D01*
X41150445Y-140857938D01*
X41320095Y-140540546D01*
X41424565Y-140196155D01*
X41451000Y-139927755D01*
X41451000Y-139065000D01*
X41899000Y-139065000D01*
X41899000Y-139965000D01*
X41953271Y-140262023D01*
X42064446Y-140542751D01*
X42228252Y-140796396D01*
X42438394Y-141013210D01*
X42686796Y-141184862D01*
X42963913Y-141304755D01*
X43069260Y-141329036D01*
X43307000Y-141208378D01*
X43307000Y-139065000D01*
X43561000Y-139065000D01*
X43561000Y-141208378D01*
X43798740Y-141329036D01*
X43904087Y-141304755D01*
X44181204Y-141184862D01*
X44429606Y-141013210D01*
X44639748Y-140796396D01*
X44803554Y-140542751D01*
X44914729Y-140262023D01*
X44969000Y-139965000D01*
X44969000Y-139065000D01*
X43561000Y-139065000D01*
X43307000Y-139065000D01*
X41899000Y-139065000D01*
X41451000Y-139065000D01*
X41451000Y-137948245D01*
X41447332Y-137911000D01*
X41899000Y-137911000D01*
X41899000Y-138811000D01*
X43307000Y-138811000D01*
X43307000Y-136667622D01*
X43561000Y-136667622D01*
X43561000Y-138811000D01*
X44969000Y-138811000D01*
X44969000Y-137911000D01*
X44914729Y-137613977D01*
X44803554Y-137333249D01*
X44639748Y-137079604D01*
X44429606Y-136862790D01*
X44181204Y-136691138D01*
X43904087Y-136571245D01*
X43798740Y-136546964D01*
X43561000Y-136667622D01*
X43307000Y-136667622D01*
X43069260Y-136546964D01*
X42963913Y-136571245D01*
X42686796Y-136691138D01*
X42438394Y-136862790D01*
X42228252Y-137079604D01*
X42064446Y-137333249D01*
X41953271Y-137613977D01*
X41899000Y-137911000D01*
X41447332Y-137911000D01*
X41424565Y-137679845D01*
X41320095Y-137335454D01*
X41150445Y-137018062D01*
X40922135Y-136739865D01*
X40643937Y-136511555D01*
X40326545Y-136341905D01*
X39982154Y-136237435D01*
X39624000Y-136202160D01*
X39265845Y-136237435D01*
X38921454Y-136341905D01*
X38604062Y-136511555D01*
X38325865Y-136739865D01*
X38097555Y-137018063D01*
X37927905Y-137335455D01*
X37823435Y-137679846D01*
X37797000Y-137948246D01*
X37797000Y-139927755D01*
X37823436Y-140196155D01*
X37927906Y-140540546D01*
X38097556Y-140857938D01*
X38197001Y-140979112D01*
X38197000Y-143246917D01*
X33584523Y-147859395D01*
X33530077Y-147904078D01*
X33485395Y-147958523D01*
X33485392Y-147958526D01*
X33384641Y-148081292D01*
X33351752Y-148121367D01*
X33219245Y-148369270D01*
X33137648Y-148638260D01*
X33117000Y-148847903D01*
X33117000Y-148847912D01*
X33110097Y-148918000D01*
X33117000Y-148988088D01*
X33117001Y-158931169D01*
X33033420Y-159087536D01*
X32980413Y-159262276D01*
X32962515Y-159444000D01*
X26606000Y-159444000D01*
X26606000Y-137138000D01*
X33982515Y-137138000D01*
X33982515Y-140738000D01*
X34000413Y-140919724D01*
X34053420Y-141094464D01*
X34139499Y-141255505D01*
X34255341Y-141396659D01*
X34396495Y-141512501D01*
X34557536Y-141598580D01*
X34732276Y-141651587D01*
X34914000Y-141669485D01*
X36714000Y-141669485D01*
X36895724Y-141651587D01*
X37070464Y-141598580D01*
X37231505Y-141512501D01*
X37372659Y-141396659D01*
X37488501Y-141255505D01*
X37574580Y-141094464D01*
X37627587Y-140919724D01*
X37645485Y-140738000D01*
X37645485Y-137138000D01*
X37627587Y-136956276D01*
X37574580Y-136781536D01*
X37488501Y-136620495D01*
X37372659Y-136479341D01*
X37231505Y-136363499D01*
X37070464Y-136277420D01*
X36895724Y-136224413D01*
X36714000Y-136206515D01*
X34914000Y-136206515D01*
X34732276Y-136224413D01*
X34557536Y-136277420D01*
X34396495Y-136363499D01*
X34255341Y-136479341D01*
X34139499Y-136620495D01*
X34053420Y-136781536D01*
X34000413Y-136956276D01*
X33982515Y-137138000D01*
X26606000Y-137138000D01*
X26606000Y-121898000D01*
X33982515Y-121898000D01*
X33982515Y-125498000D01*
X34000413Y-125679724D01*
X34053420Y-125854464D01*
X34139499Y-126015505D01*
X34255341Y-126156659D01*
X34396495Y-126272501D01*
X34557536Y-126358580D01*
X34732276Y-126411587D01*
X34914000Y-126429485D01*
X36714000Y-126429485D01*
X36895724Y-126411587D01*
X37070464Y-126358580D01*
X37231505Y-126272501D01*
X37372659Y-126156659D01*
X37488501Y-126015505D01*
X37574580Y-125854464D01*
X37627587Y-125679724D01*
X37645485Y-125498000D01*
X37645485Y-122708246D01*
X37797000Y-122708246D01*
X37797000Y-124687755D01*
X37823436Y-124956155D01*
X37927906Y-125300546D01*
X38097556Y-125617938D01*
X38325866Y-125896135D01*
X38604063Y-126124445D01*
X38921455Y-126294095D01*
X39265846Y-126398565D01*
X39421848Y-126413930D01*
X45285395Y-132277478D01*
X45330077Y-132331923D01*
X45384522Y-132376605D01*
X45384525Y-132376608D01*
X45442838Y-132424464D01*
X45547366Y-132510248D01*
X45795269Y-132642755D01*
X46064259Y-132724352D01*
X46273902Y-132745000D01*
X46273911Y-132745000D01*
X46343999Y-132751903D01*
X46414087Y-132745000D01*
X47997690Y-132745000D01*
X48116495Y-132842501D01*
X48277536Y-132928580D01*
X48452276Y-132981587D01*
X48634000Y-132999485D01*
X49634000Y-132999485D01*
X49784000Y-132984711D01*
X49934000Y-132999485D01*
X50934000Y-132999485D01*
X51115724Y-132981587D01*
X51290464Y-132928580D01*
X51451505Y-132842501D01*
X51570310Y-132745000D01*
X52632918Y-132745000D01*
X56094432Y-136206515D01*
X55234000Y-136206515D01*
X55052276Y-136224413D01*
X54877536Y-136277420D01*
X54716495Y-136363499D01*
X54575341Y-136479341D01*
X54459499Y-136620495D01*
X54373420Y-136781536D01*
X54320413Y-136956276D01*
X54302515Y-137138000D01*
X54302515Y-140738000D01*
X54320413Y-140919724D01*
X54373420Y-141094464D01*
X54459499Y-141255505D01*
X54575341Y-141396659D01*
X54716495Y-141512501D01*
X54877536Y-141598580D01*
X55052276Y-141651587D01*
X55234000Y-141669485D01*
X57034000Y-141669485D01*
X57215724Y-141651587D01*
X57390464Y-141598580D01*
X57551505Y-141512501D01*
X57692659Y-141396659D01*
X57808501Y-141255505D01*
X57894580Y-141094464D01*
X57947587Y-140919724D01*
X57965485Y-140738000D01*
X57965485Y-138077568D01*
X58117000Y-138229083D01*
X58117000Y-139927755D01*
X58143436Y-140196155D01*
X58247906Y-140540546D01*
X58417556Y-140857938D01*
X58645866Y-141136135D01*
X58924063Y-141364445D01*
X59241455Y-141534095D01*
X59585846Y-141638565D01*
X59944000Y-141673840D01*
X60302155Y-141638565D01*
X60646546Y-141534095D01*
X60963938Y-141364445D01*
X61242135Y-141136135D01*
X61470445Y-140857938D01*
X61640095Y-140540546D01*
X61744565Y-140196155D01*
X61771000Y-139927755D01*
X61771000Y-139065000D01*
X62219000Y-139065000D01*
X62219000Y-139965000D01*
X62273271Y-140262023D01*
X62384446Y-140542751D01*
X62548252Y-140796396D01*
X62758394Y-141013210D01*
X63006796Y-141184862D01*
X63283913Y-141304755D01*
X63389260Y-141329036D01*
X63627000Y-141208378D01*
X63627000Y-139065000D01*
X63881000Y-139065000D01*
X63881000Y-141208378D01*
X64118740Y-141329036D01*
X64224087Y-141304755D01*
X64501204Y-141184862D01*
X64749606Y-141013210D01*
X64959748Y-140796396D01*
X65123554Y-140542751D01*
X65234729Y-140262023D01*
X65289000Y-139965000D01*
X65289000Y-139065000D01*
X63881000Y-139065000D01*
X63627000Y-139065000D01*
X62219000Y-139065000D01*
X61771000Y-139065000D01*
X61771000Y-137948245D01*
X61767332Y-137911000D01*
X62219000Y-137911000D01*
X62219000Y-138811000D01*
X63627000Y-138811000D01*
X63627000Y-136667622D01*
X63881000Y-136667622D01*
X63881000Y-138811000D01*
X65289000Y-138811000D01*
X65289000Y-137911000D01*
X65234729Y-137613977D01*
X65123554Y-137333249D01*
X64959748Y-137079604D01*
X64749606Y-136862790D01*
X64501204Y-136691138D01*
X64224087Y-136571245D01*
X64118740Y-136546964D01*
X63881000Y-136667622D01*
X63627000Y-136667622D01*
X63389260Y-136546964D01*
X63283913Y-136571245D01*
X63006796Y-136691138D01*
X62758394Y-136862790D01*
X62548252Y-137079604D01*
X62384446Y-137333249D01*
X62273271Y-137613977D01*
X62219000Y-137911000D01*
X61767332Y-137911000D01*
X61744565Y-137679845D01*
X61640095Y-137335454D01*
X61470445Y-137018062D01*
X61242135Y-136739865D01*
X60963937Y-136511555D01*
X60646545Y-136341905D01*
X60302154Y-136237435D01*
X60146153Y-136222070D01*
X54282607Y-130358525D01*
X54237923Y-130304077D01*
X54020634Y-130125752D01*
X53772731Y-129993245D01*
X53503741Y-129911648D01*
X53294098Y-129891000D01*
X53294088Y-129891000D01*
X53224000Y-129884097D01*
X53153912Y-129891000D01*
X51570310Y-129891000D01*
X51451505Y-129793499D01*
X51290464Y-129707420D01*
X51115724Y-129654413D01*
X50934000Y-129636515D01*
X49934000Y-129636515D01*
X49784000Y-129651289D01*
X49634000Y-129636515D01*
X48634000Y-129636515D01*
X48452276Y-129654413D01*
X48277536Y-129707420D01*
X48116495Y-129793499D01*
X47997690Y-129891000D01*
X46935083Y-129891000D01*
X43111620Y-126067537D01*
X43307000Y-125968378D01*
X43307000Y-123825000D01*
X43561000Y-123825000D01*
X43561000Y-125968378D01*
X43798740Y-126089036D01*
X43904087Y-126064755D01*
X44181204Y-125944862D01*
X44429606Y-125773210D01*
X44639748Y-125556396D01*
X44803554Y-125302751D01*
X44914729Y-125022023D01*
X44969000Y-124725000D01*
X44969000Y-123825000D01*
X43561000Y-123825000D01*
X43307000Y-123825000D01*
X41899000Y-123825000D01*
X41899000Y-124725000D01*
X41928045Y-124883963D01*
X41451000Y-124406918D01*
X41451000Y-122708245D01*
X41447332Y-122671000D01*
X41899000Y-122671000D01*
X41899000Y-123571000D01*
X43307000Y-123571000D01*
X43307000Y-121427622D01*
X43561000Y-121427622D01*
X43561000Y-123571000D01*
X44969000Y-123571000D01*
X44969000Y-122671000D01*
X44914729Y-122373977D01*
X44803554Y-122093249D01*
X44639748Y-121839604D01*
X44429606Y-121622790D01*
X44181204Y-121451138D01*
X43904087Y-121331245D01*
X43798740Y-121306964D01*
X43561000Y-121427622D01*
X43307000Y-121427622D01*
X43069260Y-121306964D01*
X42963913Y-121331245D01*
X42686796Y-121451138D01*
X42438394Y-121622790D01*
X42228252Y-121839604D01*
X42064446Y-122093249D01*
X41953271Y-122373977D01*
X41899000Y-122671000D01*
X41447332Y-122671000D01*
X41424565Y-122439845D01*
X41320095Y-122095454D01*
X41150445Y-121778062D01*
X40922135Y-121499865D01*
X40643937Y-121271555D01*
X40326545Y-121101905D01*
X39982154Y-120997435D01*
X39624000Y-120962160D01*
X39265845Y-120997435D01*
X38921454Y-121101905D01*
X38604062Y-121271555D01*
X38325865Y-121499865D01*
X38097555Y-121778063D01*
X37927905Y-122095455D01*
X37823435Y-122439846D01*
X37797000Y-122708246D01*
X37645485Y-122708246D01*
X37645485Y-121898000D01*
X37627587Y-121716276D01*
X37574580Y-121541536D01*
X37488501Y-121380495D01*
X37372659Y-121239341D01*
X37231505Y-121123499D01*
X37070464Y-121037420D01*
X36895724Y-120984413D01*
X36714000Y-120966515D01*
X34914000Y-120966515D01*
X34732276Y-120984413D01*
X34557536Y-121037420D01*
X34396495Y-121123499D01*
X34255341Y-121239341D01*
X34139499Y-121380495D01*
X34053420Y-121541536D01*
X34000413Y-121716276D01*
X33982515Y-121898000D01*
X26606000Y-121898000D01*
X26606000Y-106658000D01*
X33982515Y-106658000D01*
X33982515Y-110258000D01*
X34000413Y-110439724D01*
X34053420Y-110614464D01*
X34139499Y-110775505D01*
X34255341Y-110916659D01*
X34396495Y-111032501D01*
X34557536Y-111118580D01*
X34732276Y-111171587D01*
X34914000Y-111189485D01*
X36714000Y-111189485D01*
X36895724Y-111171587D01*
X37070464Y-111118580D01*
X37231505Y-111032501D01*
X37372659Y-110916659D01*
X37488501Y-110775505D01*
X37574580Y-110614464D01*
X37627587Y-110439724D01*
X37645485Y-110258000D01*
X37645485Y-107468246D01*
X37797000Y-107468246D01*
X37797000Y-109447755D01*
X37823436Y-109716155D01*
X37927906Y-110060546D01*
X38097556Y-110377938D01*
X38325866Y-110656135D01*
X38604063Y-110884445D01*
X38921455Y-111054095D01*
X39265846Y-111158565D01*
X39421848Y-111173930D01*
X45285395Y-117037478D01*
X45330077Y-117091923D01*
X45384522Y-117136605D01*
X45384525Y-117136608D01*
X45442838Y-117184464D01*
X45547366Y-117270248D01*
X45795269Y-117402755D01*
X46064259Y-117484352D01*
X46273902Y-117505000D01*
X46273911Y-117505000D01*
X46343999Y-117511903D01*
X46414087Y-117505000D01*
X47997690Y-117505000D01*
X48116495Y-117602501D01*
X48277536Y-117688580D01*
X48452276Y-117741587D01*
X48634000Y-117759485D01*
X49634000Y-117759485D01*
X49784000Y-117744711D01*
X49934000Y-117759485D01*
X50934000Y-117759485D01*
X51115724Y-117741587D01*
X51290464Y-117688580D01*
X51451505Y-117602501D01*
X51570310Y-117505000D01*
X52632918Y-117505000D01*
X56094432Y-120966515D01*
X55234000Y-120966515D01*
X55052276Y-120984413D01*
X54877536Y-121037420D01*
X54716495Y-121123499D01*
X54575341Y-121239341D01*
X54459499Y-121380495D01*
X54373420Y-121541536D01*
X54320413Y-121716276D01*
X54302515Y-121898000D01*
X54302515Y-125498000D01*
X54320413Y-125679724D01*
X54373420Y-125854464D01*
X54459499Y-126015505D01*
X54575341Y-126156659D01*
X54716495Y-126272501D01*
X54877536Y-126358580D01*
X55052276Y-126411587D01*
X55234000Y-126429485D01*
X57034000Y-126429485D01*
X57215724Y-126411587D01*
X57390464Y-126358580D01*
X57551505Y-126272501D01*
X57692659Y-126156659D01*
X57808501Y-126015505D01*
X57894580Y-125854464D01*
X57947587Y-125679724D01*
X57965485Y-125498000D01*
X57965485Y-122837568D01*
X58117000Y-122989083D01*
X58117000Y-124687755D01*
X58143436Y-124956155D01*
X58247906Y-125300546D01*
X58417556Y-125617938D01*
X58645866Y-125896135D01*
X58924063Y-126124445D01*
X59241455Y-126294095D01*
X59585846Y-126398565D01*
X59944000Y-126433840D01*
X60302155Y-126398565D01*
X60646546Y-126294095D01*
X60963938Y-126124445D01*
X61242135Y-125896135D01*
X61470445Y-125617938D01*
X61640095Y-125300546D01*
X61744565Y-124956155D01*
X61771000Y-124687755D01*
X61771000Y-123825000D01*
X62219000Y-123825000D01*
X62219000Y-124725000D01*
X62273271Y-125022023D01*
X62384446Y-125302751D01*
X62548252Y-125556396D01*
X62758394Y-125773210D01*
X63006796Y-125944862D01*
X63283913Y-126064755D01*
X63389260Y-126089036D01*
X63627000Y-125968378D01*
X63627000Y-123825000D01*
X63881000Y-123825000D01*
X63881000Y-125968378D01*
X64118740Y-126089036D01*
X64224087Y-126064755D01*
X64501204Y-125944862D01*
X64749606Y-125773210D01*
X64959748Y-125556396D01*
X65123554Y-125302751D01*
X65234729Y-125022023D01*
X65289000Y-124725000D01*
X65289000Y-123825000D01*
X63881000Y-123825000D01*
X63627000Y-123825000D01*
X62219000Y-123825000D01*
X61771000Y-123825000D01*
X61771000Y-122708245D01*
X61767332Y-122671000D01*
X62219000Y-122671000D01*
X62219000Y-123571000D01*
X63627000Y-123571000D01*
X63627000Y-121427622D01*
X63881000Y-121427622D01*
X63881000Y-123571000D01*
X65289000Y-123571000D01*
X65289000Y-122671000D01*
X65234729Y-122373977D01*
X65123554Y-122093249D01*
X64959748Y-121839604D01*
X64749606Y-121622790D01*
X64501204Y-121451138D01*
X64224087Y-121331245D01*
X64118740Y-121306964D01*
X63881000Y-121427622D01*
X63627000Y-121427622D01*
X63389260Y-121306964D01*
X63283913Y-121331245D01*
X63006796Y-121451138D01*
X62758394Y-121622790D01*
X62548252Y-121839604D01*
X62384446Y-122093249D01*
X62273271Y-122373977D01*
X62219000Y-122671000D01*
X61767332Y-122671000D01*
X61744565Y-122439845D01*
X61640095Y-122095454D01*
X61470445Y-121778062D01*
X61242135Y-121499865D01*
X60963937Y-121271555D01*
X60646545Y-121101905D01*
X60302154Y-120997435D01*
X60146153Y-120982070D01*
X54282607Y-115118525D01*
X54237923Y-115064077D01*
X54020634Y-114885752D01*
X53772731Y-114753245D01*
X53503741Y-114671648D01*
X53294098Y-114651000D01*
X53294088Y-114651000D01*
X53224000Y-114644097D01*
X53153912Y-114651000D01*
X51570310Y-114651000D01*
X51451505Y-114553499D01*
X51290464Y-114467420D01*
X51115724Y-114414413D01*
X50934000Y-114396515D01*
X49934000Y-114396515D01*
X49784000Y-114411289D01*
X49634000Y-114396515D01*
X48634000Y-114396515D01*
X48452276Y-114414413D01*
X48277536Y-114467420D01*
X48116495Y-114553499D01*
X47997690Y-114651000D01*
X46935083Y-114651000D01*
X43111620Y-110827537D01*
X43307000Y-110728378D01*
X43307000Y-108585000D01*
X43561000Y-108585000D01*
X43561000Y-110728378D01*
X43798740Y-110849036D01*
X43904087Y-110824755D01*
X44181204Y-110704862D01*
X44429606Y-110533210D01*
X44639748Y-110316396D01*
X44803554Y-110062751D01*
X44914729Y-109782023D01*
X44969000Y-109485000D01*
X44969000Y-108585000D01*
X43561000Y-108585000D01*
X43307000Y-108585000D01*
X41899000Y-108585000D01*
X41899000Y-109485000D01*
X41928045Y-109643963D01*
X41451000Y-109166918D01*
X41451000Y-107468245D01*
X41447332Y-107431000D01*
X41899000Y-107431000D01*
X41899000Y-108331000D01*
X43307000Y-108331000D01*
X43307000Y-106187622D01*
X43561000Y-106187622D01*
X43561000Y-108331000D01*
X44969000Y-108331000D01*
X44969000Y-107431000D01*
X44914729Y-107133977D01*
X44803554Y-106853249D01*
X44639748Y-106599604D01*
X44429606Y-106382790D01*
X44181204Y-106211138D01*
X43904087Y-106091245D01*
X43798740Y-106066964D01*
X43561000Y-106187622D01*
X43307000Y-106187622D01*
X43069260Y-106066964D01*
X42963913Y-106091245D01*
X42686796Y-106211138D01*
X42438394Y-106382790D01*
X42228252Y-106599604D01*
X42064446Y-106853249D01*
X41953271Y-107133977D01*
X41899000Y-107431000D01*
X41447332Y-107431000D01*
X41424565Y-107199845D01*
X41320095Y-106855454D01*
X41150445Y-106538062D01*
X40922135Y-106259865D01*
X40643937Y-106031555D01*
X40326545Y-105861905D01*
X39982154Y-105757435D01*
X39624000Y-105722160D01*
X39265845Y-105757435D01*
X38921454Y-105861905D01*
X38604062Y-106031555D01*
X38325865Y-106259865D01*
X38097555Y-106538063D01*
X37927905Y-106855455D01*
X37823435Y-107199846D01*
X37797000Y-107468246D01*
X37645485Y-107468246D01*
X37645485Y-106658000D01*
X37627587Y-106476276D01*
X37574580Y-106301536D01*
X37488501Y-106140495D01*
X37372659Y-105999341D01*
X37231505Y-105883499D01*
X37070464Y-105797420D01*
X36895724Y-105744413D01*
X36714000Y-105726515D01*
X34914000Y-105726515D01*
X34732276Y-105744413D01*
X34557536Y-105797420D01*
X34396495Y-105883499D01*
X34255341Y-105999341D01*
X34139499Y-106140495D01*
X34053420Y-106301536D01*
X34000413Y-106476276D01*
X33982515Y-106658000D01*
X26606000Y-106658000D01*
X26606000Y-90148000D01*
X33982515Y-90148000D01*
X33982515Y-93748000D01*
X34000413Y-93929724D01*
X34053420Y-94104464D01*
X34139499Y-94265505D01*
X34255341Y-94406659D01*
X34396495Y-94522501D01*
X34557536Y-94608580D01*
X34732276Y-94661587D01*
X34914000Y-94679485D01*
X36714000Y-94679485D01*
X36895724Y-94661587D01*
X37070464Y-94608580D01*
X37231505Y-94522501D01*
X37372659Y-94406659D01*
X37488501Y-94265505D01*
X37574580Y-94104464D01*
X37627587Y-93929724D01*
X37645485Y-93748000D01*
X37645485Y-90958246D01*
X37797000Y-90958246D01*
X37797000Y-92937755D01*
X37823436Y-93206155D01*
X37927906Y-93550546D01*
X38097556Y-93867938D01*
X38325866Y-94146135D01*
X38604063Y-94374445D01*
X38921455Y-94544095D01*
X39265846Y-94648565D01*
X39421848Y-94663930D01*
X45285395Y-100527478D01*
X45330077Y-100581923D01*
X45384522Y-100626605D01*
X45384525Y-100626608D01*
X45442838Y-100674464D01*
X45547366Y-100760248D01*
X45795269Y-100892755D01*
X46064259Y-100974352D01*
X46273902Y-100995000D01*
X46273911Y-100995000D01*
X46343999Y-101001903D01*
X46414087Y-100995000D01*
X47997690Y-100995000D01*
X48116495Y-101092501D01*
X48277536Y-101178580D01*
X48452276Y-101231587D01*
X48634000Y-101249485D01*
X49634000Y-101249485D01*
X49784000Y-101234711D01*
X49934000Y-101249485D01*
X50934000Y-101249485D01*
X51115724Y-101231587D01*
X51290464Y-101178580D01*
X51451505Y-101092501D01*
X51570310Y-100995000D01*
X52512918Y-100995000D01*
X57282624Y-105764707D01*
X57215724Y-105744413D01*
X57034000Y-105726515D01*
X55234000Y-105726515D01*
X55052276Y-105744413D01*
X54877536Y-105797420D01*
X54716495Y-105883499D01*
X54575341Y-105999341D01*
X54459499Y-106140495D01*
X54373420Y-106301536D01*
X54320413Y-106476276D01*
X54302515Y-106658000D01*
X54302515Y-110258000D01*
X54320413Y-110439724D01*
X54373420Y-110614464D01*
X54459499Y-110775505D01*
X54575341Y-110916659D01*
X54716495Y-111032501D01*
X54877536Y-111118580D01*
X55052276Y-111171587D01*
X55234000Y-111189485D01*
X57034000Y-111189485D01*
X57215724Y-111171587D01*
X57390464Y-111118580D01*
X57551505Y-111032501D01*
X57692659Y-110916659D01*
X57808501Y-110775505D01*
X57894580Y-110614464D01*
X57947587Y-110439724D01*
X57965485Y-110258000D01*
X57965485Y-106658000D01*
X57947587Y-106476276D01*
X57927293Y-106409376D01*
X58291609Y-106773692D01*
X58247905Y-106855455D01*
X58143435Y-107199846D01*
X58117000Y-107468246D01*
X58117000Y-109447755D01*
X58143436Y-109716155D01*
X58247906Y-110060546D01*
X58417556Y-110377938D01*
X58645866Y-110656135D01*
X58924063Y-110884445D01*
X59241455Y-111054095D01*
X59585846Y-111158565D01*
X59944000Y-111193840D01*
X60302155Y-111158565D01*
X60646546Y-111054095D01*
X60963938Y-110884445D01*
X61242135Y-110656135D01*
X61470445Y-110377938D01*
X61640095Y-110060546D01*
X61744565Y-109716155D01*
X61771000Y-109447755D01*
X61771000Y-108585000D01*
X62219000Y-108585000D01*
X62219000Y-109485000D01*
X62273271Y-109782023D01*
X62384446Y-110062751D01*
X62548252Y-110316396D01*
X62758394Y-110533210D01*
X63006796Y-110704862D01*
X63283913Y-110824755D01*
X63389260Y-110849036D01*
X63627000Y-110728378D01*
X63627000Y-108585000D01*
X63881000Y-108585000D01*
X63881000Y-110728378D01*
X64118740Y-110849036D01*
X64224087Y-110824755D01*
X64501204Y-110704862D01*
X64749606Y-110533210D01*
X64959748Y-110316396D01*
X65123554Y-110062751D01*
X65234729Y-109782023D01*
X65289000Y-109485000D01*
X65289000Y-108585000D01*
X63881000Y-108585000D01*
X63627000Y-108585000D01*
X62219000Y-108585000D01*
X61771000Y-108585000D01*
X61771000Y-107468245D01*
X61767332Y-107431000D01*
X62219000Y-107431000D01*
X62219000Y-108331000D01*
X63627000Y-108331000D01*
X63627000Y-106187622D01*
X63881000Y-106187622D01*
X63881000Y-108331000D01*
X65289000Y-108331000D01*
X65289000Y-107431000D01*
X65234729Y-107133977D01*
X65123554Y-106853249D01*
X64959748Y-106599604D01*
X64749606Y-106382790D01*
X64501204Y-106211138D01*
X64224087Y-106091245D01*
X64118740Y-106066964D01*
X63881000Y-106187622D01*
X63627000Y-106187622D01*
X63389260Y-106066964D01*
X63283913Y-106091245D01*
X63006796Y-106211138D01*
X62758394Y-106382790D01*
X62548252Y-106599604D01*
X62384446Y-106853249D01*
X62273271Y-107133977D01*
X62219000Y-107431000D01*
X61767332Y-107431000D01*
X61744565Y-107199845D01*
X61640095Y-106855454D01*
X61470445Y-106538062D01*
X61376382Y-106423445D01*
X61377903Y-106408000D01*
X61371000Y-106337910D01*
X61371000Y-106337902D01*
X61350352Y-106128259D01*
X61268755Y-105859269D01*
X61136248Y-105611366D01*
X61103359Y-105571291D01*
X61002608Y-105448525D01*
X61002605Y-105448522D01*
X60957923Y-105394077D01*
X60903478Y-105349395D01*
X54162607Y-98608525D01*
X54117923Y-98554077D01*
X53900634Y-98375752D01*
X53652731Y-98243245D01*
X53383741Y-98161648D01*
X53174098Y-98141000D01*
X53174088Y-98141000D01*
X53104000Y-98134097D01*
X53033912Y-98141000D01*
X51570310Y-98141000D01*
X51451505Y-98043499D01*
X51290464Y-97957420D01*
X51115724Y-97904413D01*
X50934000Y-97886515D01*
X49934000Y-97886515D01*
X49784000Y-97901289D01*
X49634000Y-97886515D01*
X48634000Y-97886515D01*
X48452276Y-97904413D01*
X48277536Y-97957420D01*
X48116495Y-98043499D01*
X47997690Y-98141000D01*
X46935083Y-98141000D01*
X43111620Y-94317537D01*
X43307000Y-94218378D01*
X43307000Y-92075000D01*
X43561000Y-92075000D01*
X43561000Y-94218378D01*
X43798740Y-94339036D01*
X43904087Y-94314755D01*
X44181204Y-94194862D01*
X44429606Y-94023210D01*
X44639748Y-93806396D01*
X44803554Y-93552751D01*
X44914729Y-93272023D01*
X44969000Y-92975000D01*
X44969000Y-92075000D01*
X43561000Y-92075000D01*
X43307000Y-92075000D01*
X41899000Y-92075000D01*
X41899000Y-92975000D01*
X41928045Y-93133963D01*
X41451000Y-92656918D01*
X41451000Y-90958245D01*
X41447332Y-90921000D01*
X41899000Y-90921000D01*
X41899000Y-91821000D01*
X43307000Y-91821000D01*
X43307000Y-89677622D01*
X43561000Y-89677622D01*
X43561000Y-91821000D01*
X44969000Y-91821000D01*
X44969000Y-90921000D01*
X44914729Y-90623977D01*
X44803554Y-90343249D01*
X44639748Y-90089604D01*
X44429606Y-89872790D01*
X44181204Y-89701138D01*
X43904087Y-89581245D01*
X43798740Y-89556964D01*
X43561000Y-89677622D01*
X43307000Y-89677622D01*
X43069260Y-89556964D01*
X42963913Y-89581245D01*
X42686796Y-89701138D01*
X42438394Y-89872790D01*
X42228252Y-90089604D01*
X42064446Y-90343249D01*
X41953271Y-90623977D01*
X41899000Y-90921000D01*
X41447332Y-90921000D01*
X41424565Y-90689845D01*
X41320095Y-90345454D01*
X41150445Y-90028062D01*
X40922135Y-89749865D01*
X40643937Y-89521555D01*
X40326545Y-89351905D01*
X39982154Y-89247435D01*
X39624000Y-89212160D01*
X39265845Y-89247435D01*
X38921454Y-89351905D01*
X38604062Y-89521555D01*
X38325865Y-89749865D01*
X38097555Y-90028063D01*
X37927905Y-90345455D01*
X37823435Y-90689846D01*
X37797000Y-90958246D01*
X37645485Y-90958246D01*
X37645485Y-90148000D01*
X37627587Y-89966276D01*
X37574580Y-89791536D01*
X37488501Y-89630495D01*
X37372659Y-89489341D01*
X37231505Y-89373499D01*
X37070464Y-89287420D01*
X36895724Y-89234413D01*
X36714000Y-89216515D01*
X34914000Y-89216515D01*
X34732276Y-89234413D01*
X34557536Y-89287420D01*
X34396495Y-89373499D01*
X34255341Y-89489341D01*
X34139499Y-89630495D01*
X34053420Y-89791536D01*
X34000413Y-89966276D01*
X33982515Y-90148000D01*
X26606000Y-90148000D01*
X26606000Y-73638000D01*
X33982515Y-73638000D01*
X33982515Y-77238000D01*
X34000413Y-77419724D01*
X34053420Y-77594464D01*
X34139499Y-77755505D01*
X34255341Y-77896659D01*
X34396495Y-78012501D01*
X34557536Y-78098580D01*
X34732276Y-78151587D01*
X34914000Y-78169485D01*
X36714000Y-78169485D01*
X36895724Y-78151587D01*
X37070464Y-78098580D01*
X37231505Y-78012501D01*
X37372659Y-77896659D01*
X37488501Y-77755505D01*
X37574580Y-77594464D01*
X37627587Y-77419724D01*
X37645485Y-77238000D01*
X37645485Y-74448246D01*
X37797000Y-74448246D01*
X37797000Y-76427755D01*
X37823436Y-76696155D01*
X37927906Y-77040546D01*
X38097556Y-77357938D01*
X38325866Y-77636135D01*
X38604063Y-77864445D01*
X38921455Y-78034095D01*
X39265846Y-78138565D01*
X39421848Y-78153930D01*
X45285395Y-84017478D01*
X45330077Y-84071923D01*
X45384522Y-84116605D01*
X45384525Y-84116608D01*
X45442838Y-84164464D01*
X45547366Y-84250248D01*
X45795269Y-84382755D01*
X46064259Y-84464352D01*
X46273902Y-84485000D01*
X46273911Y-84485000D01*
X46343999Y-84491903D01*
X46414087Y-84485000D01*
X47997690Y-84485000D01*
X48116495Y-84582501D01*
X48277536Y-84668580D01*
X48452276Y-84721587D01*
X48634000Y-84739485D01*
X49634000Y-84739485D01*
X49784000Y-84724711D01*
X49934000Y-84739485D01*
X50934000Y-84739485D01*
X51115724Y-84721587D01*
X51290464Y-84668580D01*
X51451505Y-84582501D01*
X51570310Y-84485000D01*
X52512918Y-84485000D01*
X57282624Y-89254707D01*
X57215724Y-89234413D01*
X57034000Y-89216515D01*
X55234000Y-89216515D01*
X55052276Y-89234413D01*
X54877536Y-89287420D01*
X54716495Y-89373499D01*
X54575341Y-89489341D01*
X54459499Y-89630495D01*
X54373420Y-89791536D01*
X54320413Y-89966276D01*
X54302515Y-90148000D01*
X54302515Y-93748000D01*
X54320413Y-93929724D01*
X54373420Y-94104464D01*
X54459499Y-94265505D01*
X54575341Y-94406659D01*
X54716495Y-94522501D01*
X54877536Y-94608580D01*
X55052276Y-94661587D01*
X55234000Y-94679485D01*
X57034000Y-94679485D01*
X57215724Y-94661587D01*
X57390464Y-94608580D01*
X57551505Y-94522501D01*
X57692659Y-94406659D01*
X57808501Y-94265505D01*
X57894580Y-94104464D01*
X57947587Y-93929724D01*
X57965485Y-93748000D01*
X57965485Y-90148000D01*
X57947587Y-89966276D01*
X57927293Y-89899376D01*
X58291609Y-90263692D01*
X58247905Y-90345455D01*
X58143435Y-90689846D01*
X58117000Y-90958246D01*
X58117000Y-92937755D01*
X58143436Y-93206155D01*
X58247906Y-93550546D01*
X58417556Y-93867938D01*
X58645866Y-94146135D01*
X58924063Y-94374445D01*
X59241455Y-94544095D01*
X59585846Y-94648565D01*
X59944000Y-94683840D01*
X60302155Y-94648565D01*
X60646546Y-94544095D01*
X60963938Y-94374445D01*
X61242135Y-94146135D01*
X61470445Y-93867938D01*
X61640095Y-93550546D01*
X61744565Y-93206155D01*
X61771000Y-92937755D01*
X61771000Y-92075000D01*
X62219000Y-92075000D01*
X62219000Y-92975000D01*
X62273271Y-93272023D01*
X62384446Y-93552751D01*
X62548252Y-93806396D01*
X62758394Y-94023210D01*
X63006796Y-94194862D01*
X63283913Y-94314755D01*
X63389260Y-94339036D01*
X63627000Y-94218378D01*
X63627000Y-92075000D01*
X63881000Y-92075000D01*
X63881000Y-94218378D01*
X64118740Y-94339036D01*
X64224087Y-94314755D01*
X64501204Y-94194862D01*
X64749606Y-94023210D01*
X64959748Y-93806396D01*
X65123554Y-93552751D01*
X65234729Y-93272023D01*
X65289000Y-92975000D01*
X65289000Y-92075000D01*
X63881000Y-92075000D01*
X63627000Y-92075000D01*
X62219000Y-92075000D01*
X61771000Y-92075000D01*
X61771000Y-90958245D01*
X61767332Y-90921000D01*
X62219000Y-90921000D01*
X62219000Y-91821000D01*
X63627000Y-91821000D01*
X63627000Y-89677622D01*
X63881000Y-89677622D01*
X63881000Y-91821000D01*
X65289000Y-91821000D01*
X65289000Y-90921000D01*
X65234729Y-90623977D01*
X65123554Y-90343249D01*
X64959748Y-90089604D01*
X64749606Y-89872790D01*
X64501204Y-89701138D01*
X64224087Y-89581245D01*
X64118740Y-89556964D01*
X63881000Y-89677622D01*
X63627000Y-89677622D01*
X63389260Y-89556964D01*
X63283913Y-89581245D01*
X63006796Y-89701138D01*
X62758394Y-89872790D01*
X62548252Y-90089604D01*
X62384446Y-90343249D01*
X62273271Y-90623977D01*
X62219000Y-90921000D01*
X61767332Y-90921000D01*
X61744565Y-90689845D01*
X61640095Y-90345454D01*
X61470445Y-90028062D01*
X61376382Y-89913445D01*
X61377903Y-89898000D01*
X61371000Y-89827910D01*
X61371000Y-89827902D01*
X61350352Y-89618259D01*
X61268755Y-89349269D01*
X61136248Y-89101366D01*
X61103359Y-89061291D01*
X61002608Y-88938525D01*
X61002605Y-88938522D01*
X60957923Y-88884077D01*
X60903478Y-88839395D01*
X54162607Y-82098525D01*
X54117923Y-82044077D01*
X53900634Y-81865752D01*
X53652731Y-81733245D01*
X53383741Y-81651648D01*
X53174098Y-81631000D01*
X53174088Y-81631000D01*
X53104000Y-81624097D01*
X53033912Y-81631000D01*
X51570310Y-81631000D01*
X51451505Y-81533499D01*
X51290464Y-81447420D01*
X51115724Y-81394413D01*
X50934000Y-81376515D01*
X49934000Y-81376515D01*
X49784000Y-81391289D01*
X49634000Y-81376515D01*
X48634000Y-81376515D01*
X48452276Y-81394413D01*
X48277536Y-81447420D01*
X48116495Y-81533499D01*
X47997690Y-81631000D01*
X46935083Y-81631000D01*
X43111620Y-77807537D01*
X43307000Y-77708378D01*
X43307000Y-75565000D01*
X43561000Y-75565000D01*
X43561000Y-77708378D01*
X43798740Y-77829036D01*
X43904087Y-77804755D01*
X44181204Y-77684862D01*
X44429606Y-77513210D01*
X44639748Y-77296396D01*
X44803554Y-77042751D01*
X44914729Y-76762023D01*
X44969000Y-76465000D01*
X44969000Y-75565000D01*
X43561000Y-75565000D01*
X43307000Y-75565000D01*
X41899000Y-75565000D01*
X41899000Y-76465000D01*
X41928045Y-76623963D01*
X41451000Y-76146918D01*
X41451000Y-74448245D01*
X41447332Y-74411000D01*
X41899000Y-74411000D01*
X41899000Y-75311000D01*
X43307000Y-75311000D01*
X43307000Y-73167622D01*
X43561000Y-73167622D01*
X43561000Y-75311000D01*
X44969000Y-75311000D01*
X44969000Y-74411000D01*
X44914729Y-74113977D01*
X44803554Y-73833249D01*
X44639748Y-73579604D01*
X44429606Y-73362790D01*
X44181204Y-73191138D01*
X43904087Y-73071245D01*
X43798740Y-73046964D01*
X43561000Y-73167622D01*
X43307000Y-73167622D01*
X43069260Y-73046964D01*
X42963913Y-73071245D01*
X42686796Y-73191138D01*
X42438394Y-73362790D01*
X42228252Y-73579604D01*
X42064446Y-73833249D01*
X41953271Y-74113977D01*
X41899000Y-74411000D01*
X41447332Y-74411000D01*
X41424565Y-74179845D01*
X41320095Y-73835454D01*
X41150445Y-73518062D01*
X40922135Y-73239865D01*
X40643937Y-73011555D01*
X40326545Y-72841905D01*
X39982154Y-72737435D01*
X39624000Y-72702160D01*
X39265845Y-72737435D01*
X38921454Y-72841905D01*
X38604062Y-73011555D01*
X38325865Y-73239865D01*
X38097555Y-73518063D01*
X37927905Y-73835455D01*
X37823435Y-74179846D01*
X37797000Y-74448246D01*
X37645485Y-74448246D01*
X37645485Y-73638000D01*
X37627587Y-73456276D01*
X37574580Y-73281536D01*
X37488501Y-73120495D01*
X37372659Y-72979341D01*
X37231505Y-72863499D01*
X37070464Y-72777420D01*
X36895724Y-72724413D01*
X36714000Y-72706515D01*
X34914000Y-72706515D01*
X34732276Y-72724413D01*
X34557536Y-72777420D01*
X34396495Y-72863499D01*
X34255341Y-72979341D01*
X34139499Y-73120495D01*
X34053420Y-73281536D01*
X34000413Y-73456276D01*
X33982515Y-73638000D01*
X26606000Y-73638000D01*
X26606000Y-57128000D01*
X33982515Y-57128000D01*
X33982515Y-60728000D01*
X34000413Y-60909724D01*
X34053420Y-61084464D01*
X34139499Y-61245505D01*
X34255341Y-61386659D01*
X34396495Y-61502501D01*
X34557536Y-61588580D01*
X34732276Y-61641587D01*
X34914000Y-61659485D01*
X36714000Y-61659485D01*
X36895724Y-61641587D01*
X37070464Y-61588580D01*
X37231505Y-61502501D01*
X37372659Y-61386659D01*
X37488501Y-61245505D01*
X37574580Y-61084464D01*
X37627587Y-60909724D01*
X37645485Y-60728000D01*
X37645485Y-57938246D01*
X37797000Y-57938246D01*
X37797000Y-59917755D01*
X37823436Y-60186155D01*
X37927906Y-60530546D01*
X38097556Y-60847938D01*
X38325866Y-61126135D01*
X38604063Y-61354445D01*
X38921455Y-61524095D01*
X39265846Y-61628565D01*
X39421848Y-61643930D01*
X45285395Y-67507478D01*
X45330077Y-67561923D01*
X45384522Y-67606605D01*
X45384525Y-67606608D01*
X45442838Y-67654464D01*
X45547366Y-67740248D01*
X45795269Y-67872755D01*
X46064259Y-67954352D01*
X46273902Y-67975000D01*
X46273911Y-67975000D01*
X46343999Y-67981903D01*
X46414087Y-67975000D01*
X47997690Y-67975000D01*
X48116495Y-68072501D01*
X48277536Y-68158580D01*
X48452276Y-68211587D01*
X48634000Y-68229485D01*
X49634000Y-68229485D01*
X49784000Y-68214711D01*
X49934000Y-68229485D01*
X50934000Y-68229485D01*
X51115724Y-68211587D01*
X51290464Y-68158580D01*
X51451505Y-68072501D01*
X51570310Y-67975000D01*
X52512918Y-67975000D01*
X57282624Y-72744707D01*
X57215724Y-72724413D01*
X57034000Y-72706515D01*
X55234000Y-72706515D01*
X55052276Y-72724413D01*
X54877536Y-72777420D01*
X54716495Y-72863499D01*
X54575341Y-72979341D01*
X54459499Y-73120495D01*
X54373420Y-73281536D01*
X54320413Y-73456276D01*
X54302515Y-73638000D01*
X54302515Y-77238000D01*
X54320413Y-77419724D01*
X54373420Y-77594464D01*
X54459499Y-77755505D01*
X54575341Y-77896659D01*
X54716495Y-78012501D01*
X54877536Y-78098580D01*
X55052276Y-78151587D01*
X55234000Y-78169485D01*
X57034000Y-78169485D01*
X57215724Y-78151587D01*
X57390464Y-78098580D01*
X57551505Y-78012501D01*
X57692659Y-77896659D01*
X57808501Y-77755505D01*
X57894580Y-77594464D01*
X57947587Y-77419724D01*
X57965485Y-77238000D01*
X57965485Y-73638000D01*
X57947587Y-73456276D01*
X57927293Y-73389376D01*
X58291609Y-73753692D01*
X58247905Y-73835455D01*
X58143435Y-74179846D01*
X58117000Y-74448246D01*
X58117000Y-76427755D01*
X58143436Y-76696155D01*
X58247906Y-77040546D01*
X58417556Y-77357938D01*
X58645866Y-77636135D01*
X58924063Y-77864445D01*
X59241455Y-78034095D01*
X59585846Y-78138565D01*
X59944000Y-78173840D01*
X60302155Y-78138565D01*
X60646546Y-78034095D01*
X60963938Y-77864445D01*
X61242135Y-77636135D01*
X61470445Y-77357938D01*
X61640095Y-77040546D01*
X61744565Y-76696155D01*
X61771000Y-76427755D01*
X61771000Y-75565000D01*
X62219000Y-75565000D01*
X62219000Y-76465000D01*
X62273271Y-76762023D01*
X62384446Y-77042751D01*
X62548252Y-77296396D01*
X62758394Y-77513210D01*
X63006796Y-77684862D01*
X63283913Y-77804755D01*
X63389260Y-77829036D01*
X63627000Y-77708378D01*
X63627000Y-75565000D01*
X63881000Y-75565000D01*
X63881000Y-77708378D01*
X64118740Y-77829036D01*
X64224087Y-77804755D01*
X64501204Y-77684862D01*
X64749606Y-77513210D01*
X64959748Y-77296396D01*
X65123554Y-77042751D01*
X65234729Y-76762023D01*
X65289000Y-76465000D01*
X65289000Y-75565000D01*
X63881000Y-75565000D01*
X63627000Y-75565000D01*
X62219000Y-75565000D01*
X61771000Y-75565000D01*
X61771000Y-74448245D01*
X61767332Y-74411000D01*
X62219000Y-74411000D01*
X62219000Y-75311000D01*
X63627000Y-75311000D01*
X63627000Y-73167622D01*
X63881000Y-73167622D01*
X63881000Y-75311000D01*
X65289000Y-75311000D01*
X65289000Y-74411000D01*
X65234729Y-74113977D01*
X65123554Y-73833249D01*
X64959748Y-73579604D01*
X64749606Y-73362790D01*
X64501204Y-73191138D01*
X64224087Y-73071245D01*
X64118740Y-73046964D01*
X63881000Y-73167622D01*
X63627000Y-73167622D01*
X63389260Y-73046964D01*
X63283913Y-73071245D01*
X63006796Y-73191138D01*
X62758394Y-73362790D01*
X62548252Y-73579604D01*
X62384446Y-73833249D01*
X62273271Y-74113977D01*
X62219000Y-74411000D01*
X61767332Y-74411000D01*
X61744565Y-74179845D01*
X61640095Y-73835454D01*
X61470445Y-73518062D01*
X61376382Y-73403445D01*
X61377903Y-73388000D01*
X61350352Y-73108258D01*
X61268754Y-72839268D01*
X61136247Y-72591365D01*
X61002608Y-72428525D01*
X54162607Y-65588525D01*
X54117923Y-65534077D01*
X53900634Y-65355752D01*
X53652731Y-65223245D01*
X53383741Y-65141648D01*
X53174098Y-65121000D01*
X53174088Y-65121000D01*
X53104000Y-65114097D01*
X53033912Y-65121000D01*
X51570310Y-65121000D01*
X51451505Y-65023499D01*
X51290464Y-64937420D01*
X51115724Y-64884413D01*
X50934000Y-64866515D01*
X49934000Y-64866515D01*
X49784000Y-64881289D01*
X49634000Y-64866515D01*
X48634000Y-64866515D01*
X48452276Y-64884413D01*
X48277536Y-64937420D01*
X48116495Y-65023499D01*
X47997690Y-65121000D01*
X46935083Y-65121000D01*
X43111620Y-61297537D01*
X43307000Y-61198378D01*
X43307000Y-59055000D01*
X43561000Y-59055000D01*
X43561000Y-61198378D01*
X43798740Y-61319036D01*
X43904087Y-61294755D01*
X44181204Y-61174862D01*
X44429606Y-61003210D01*
X44639748Y-60786396D01*
X44803554Y-60532751D01*
X44914729Y-60252023D01*
X44969000Y-59955000D01*
X44969000Y-59055000D01*
X43561000Y-59055000D01*
X43307000Y-59055000D01*
X41899000Y-59055000D01*
X41899000Y-59955000D01*
X41928045Y-60113963D01*
X41451000Y-59636918D01*
X41451000Y-57938245D01*
X41447332Y-57901000D01*
X41899000Y-57901000D01*
X41899000Y-58801000D01*
X43307000Y-58801000D01*
X43307000Y-56657622D01*
X43561000Y-56657622D01*
X43561000Y-58801000D01*
X44969000Y-58801000D01*
X44969000Y-57901000D01*
X44914729Y-57603977D01*
X44803554Y-57323249D01*
X44639748Y-57069604D01*
X44429606Y-56852790D01*
X44181204Y-56681138D01*
X43904087Y-56561245D01*
X43798740Y-56536964D01*
X43561000Y-56657622D01*
X43307000Y-56657622D01*
X43069260Y-56536964D01*
X42963913Y-56561245D01*
X42686796Y-56681138D01*
X42438394Y-56852790D01*
X42228252Y-57069604D01*
X42064446Y-57323249D01*
X41953271Y-57603977D01*
X41899000Y-57901000D01*
X41447332Y-57901000D01*
X41424565Y-57669845D01*
X41320095Y-57325454D01*
X41150445Y-57008062D01*
X40922135Y-56729865D01*
X40643937Y-56501555D01*
X40326545Y-56331905D01*
X39982154Y-56227435D01*
X39624000Y-56192160D01*
X39265845Y-56227435D01*
X38921454Y-56331905D01*
X38604062Y-56501555D01*
X38325865Y-56729865D01*
X38097555Y-57008063D01*
X37927905Y-57325455D01*
X37823435Y-57669846D01*
X37797000Y-57938246D01*
X37645485Y-57938246D01*
X37645485Y-57128000D01*
X37627587Y-56946276D01*
X37574580Y-56771536D01*
X37488501Y-56610495D01*
X37372659Y-56469341D01*
X37231505Y-56353499D01*
X37070464Y-56267420D01*
X36895724Y-56214413D01*
X36714000Y-56196515D01*
X34914000Y-56196515D01*
X34732276Y-56214413D01*
X34557536Y-56267420D01*
X34396495Y-56353499D01*
X34255341Y-56469341D01*
X34139499Y-56610495D01*
X34053420Y-56771536D01*
X34000413Y-56946276D01*
X33982515Y-57128000D01*
X26606000Y-57128000D01*
X26606000Y-42071708D01*
X26822700Y-42594868D01*
X27274350Y-43270809D01*
X27849191Y-43845650D01*
X28525132Y-44297300D01*
X29276198Y-44608402D01*
X30073526Y-44767000D01*
X30886474Y-44767000D01*
X31683802Y-44608402D01*
X32434868Y-44297300D01*
X33110809Y-43845650D01*
X33685650Y-43270809D01*
X34137300Y-42594868D01*
X34448402Y-41843802D01*
X34503262Y-41568000D01*
X36572515Y-41568000D01*
X36572515Y-43268000D01*
X36590413Y-43449724D01*
X36643420Y-43624464D01*
X36729499Y-43785505D01*
X36845341Y-43926659D01*
X36986495Y-44042501D01*
X37147536Y-44128580D01*
X37322276Y-44181587D01*
X37504000Y-44199485D01*
X39204000Y-44199485D01*
X39385724Y-44181587D01*
X39467000Y-44156932D01*
X39467001Y-47427903D01*
X39460097Y-47498000D01*
X39467001Y-47568098D01*
X39479500Y-47695000D01*
X39487649Y-47777741D01*
X39569246Y-48046731D01*
X39701753Y-48294634D01*
X39835392Y-48457474D01*
X39835396Y-48457478D01*
X39880078Y-48511923D01*
X39934523Y-48556605D01*
X43645395Y-52267478D01*
X43690077Y-52321923D01*
X43744522Y-52366605D01*
X43744525Y-52366608D01*
X43907365Y-52500248D01*
X43989944Y-52544387D01*
X44155269Y-52632755D01*
X44303008Y-52677571D01*
X44424258Y-52714352D01*
X44448474Y-52716737D01*
X44633902Y-52735000D01*
X44633910Y-52735000D01*
X44704000Y-52741903D01*
X44774090Y-52735000D01*
X52632918Y-52735000D01*
X56094432Y-56196515D01*
X55234000Y-56196515D01*
X55052276Y-56214413D01*
X54877536Y-56267420D01*
X54716495Y-56353499D01*
X54575341Y-56469341D01*
X54459499Y-56610495D01*
X54373420Y-56771536D01*
X54320413Y-56946276D01*
X54302515Y-57128000D01*
X54302515Y-60728000D01*
X54320413Y-60909724D01*
X54373420Y-61084464D01*
X54459499Y-61245505D01*
X54575341Y-61386659D01*
X54716495Y-61502501D01*
X54877536Y-61588580D01*
X55052276Y-61641587D01*
X55234000Y-61659485D01*
X57034000Y-61659485D01*
X57215724Y-61641587D01*
X57390464Y-61588580D01*
X57551505Y-61502501D01*
X57692659Y-61386659D01*
X57808501Y-61245505D01*
X57894580Y-61084464D01*
X57947587Y-60909724D01*
X57965485Y-60728000D01*
X57965485Y-58067568D01*
X58117000Y-58219083D01*
X58117000Y-59917755D01*
X58143436Y-60186155D01*
X58247906Y-60530546D01*
X58417556Y-60847938D01*
X58645866Y-61126135D01*
X58924063Y-61354445D01*
X59241455Y-61524095D01*
X59585846Y-61628565D01*
X59944000Y-61663840D01*
X60302155Y-61628565D01*
X60646546Y-61524095D01*
X60963938Y-61354445D01*
X61242135Y-61126135D01*
X61470445Y-60847938D01*
X61640095Y-60530546D01*
X61744565Y-60186155D01*
X61771000Y-59917755D01*
X61771000Y-59055000D01*
X62219000Y-59055000D01*
X62219000Y-59955000D01*
X62273271Y-60252023D01*
X62384446Y-60532751D01*
X62548252Y-60786396D01*
X62758394Y-61003210D01*
X63006796Y-61174862D01*
X63283913Y-61294755D01*
X63389260Y-61319036D01*
X63627000Y-61198378D01*
X63627000Y-59055000D01*
X63881000Y-59055000D01*
X63881000Y-61198378D01*
X64118740Y-61319036D01*
X64224087Y-61294755D01*
X64501204Y-61174862D01*
X64749606Y-61003210D01*
X64959748Y-60786396D01*
X65123554Y-60532751D01*
X65234729Y-60252023D01*
X65289000Y-59955000D01*
X65289000Y-59055000D01*
X63881000Y-59055000D01*
X63627000Y-59055000D01*
X62219000Y-59055000D01*
X61771000Y-59055000D01*
X61771000Y-57938245D01*
X61767332Y-57901000D01*
X62219000Y-57901000D01*
X62219000Y-58801000D01*
X63627000Y-58801000D01*
X63627000Y-56657622D01*
X63881000Y-56657622D01*
X63881000Y-58801000D01*
X65289000Y-58801000D01*
X65289000Y-57901000D01*
X65234729Y-57603977D01*
X65123554Y-57323249D01*
X64959748Y-57069604D01*
X64749606Y-56852790D01*
X64501204Y-56681138D01*
X64224087Y-56561245D01*
X64118740Y-56536964D01*
X63881000Y-56657622D01*
X63627000Y-56657622D01*
X63389260Y-56536964D01*
X63283913Y-56561245D01*
X63006796Y-56681138D01*
X62758394Y-56852790D01*
X62548252Y-57069604D01*
X62384446Y-57323249D01*
X62273271Y-57603977D01*
X62219000Y-57901000D01*
X61767332Y-57901000D01*
X61744565Y-57669845D01*
X61640095Y-57325454D01*
X61470445Y-57008062D01*
X61242135Y-56729865D01*
X60963937Y-56501555D01*
X60646545Y-56331905D01*
X60302154Y-56227435D01*
X60146153Y-56212070D01*
X54282607Y-50348525D01*
X54237923Y-50294077D01*
X54020634Y-50115752D01*
X53772731Y-49983245D01*
X53503741Y-49901648D01*
X53294098Y-49881000D01*
X53294088Y-49881000D01*
X53224000Y-49874097D01*
X53153912Y-49881000D01*
X45295083Y-49881000D01*
X42321000Y-46906918D01*
X42321000Y-43480296D01*
X42359564Y-43433306D01*
X42433731Y-43515588D01*
X42667080Y-43689641D01*
X42929901Y-43814825D01*
X43077110Y-43859476D01*
X43307000Y-43738155D01*
X43307000Y-42545000D01*
X43561000Y-42545000D01*
X43561000Y-43738155D01*
X43790890Y-43859476D01*
X43938099Y-43814825D01*
X44200920Y-43689641D01*
X44434269Y-43515588D01*
X44629178Y-43299355D01*
X44778157Y-43049252D01*
X44875481Y-42774891D01*
X44754814Y-42545000D01*
X43561000Y-42545000D01*
X43307000Y-42545000D01*
X43287000Y-42545000D01*
X43287000Y-42291000D01*
X43307000Y-42291000D01*
X43307000Y-41097845D01*
X43561000Y-41097845D01*
X43561000Y-42291000D01*
X44754814Y-42291000D01*
X44875481Y-42061109D01*
X44778157Y-41786748D01*
X44629178Y-41536645D01*
X44434269Y-41320412D01*
X44200920Y-41146359D01*
X43938099Y-41021175D01*
X43790890Y-40976524D01*
X43561000Y-41097845D01*
X43307000Y-41097845D01*
X43077110Y-40976524D01*
X42929901Y-41021175D01*
X42667080Y-41146359D01*
X42433731Y-41320412D01*
X42359564Y-41402694D01*
X42156608Y-41155392D01*
X41886025Y-40933330D01*
X41577319Y-40768323D01*
X41242353Y-40666712D01*
X40981296Y-40641000D01*
X40806704Y-40641000D01*
X40545647Y-40666712D01*
X40210681Y-40768323D01*
X39901975Y-40933330D01*
X39890246Y-40942956D01*
X39862659Y-40909341D01*
X39721505Y-40793499D01*
X39560464Y-40707420D01*
X39385724Y-40654413D01*
X39204000Y-40636515D01*
X37504000Y-40636515D01*
X37322276Y-40654413D01*
X37147536Y-40707420D01*
X36986495Y-40793499D01*
X36845341Y-40909341D01*
X36729499Y-41050495D01*
X36643420Y-41211536D01*
X36590413Y-41386276D01*
X36572515Y-41568000D01*
X34503262Y-41568000D01*
X34607000Y-41046474D01*
X34607000Y-40233526D01*
X34448402Y-39436198D01*
X34137300Y-38685132D01*
X33685650Y-38009191D01*
X33110809Y-37434350D01*
X32434868Y-36982700D01*
X31683802Y-36671598D01*
X30886474Y-36513000D01*
X30073526Y-36513000D01*
X29276198Y-36671598D01*
X28525132Y-36982700D01*
X27849191Y-37434350D01*
X27274350Y-38009191D01*
X26822700Y-38685132D01*
X26606000Y-39208292D01*
X26606000Y-37384556D01*
X26640721Y-37030444D01*
X26730041Y-36734601D01*
X26875124Y-36461740D01*
X27070440Y-36222258D01*
X27308554Y-36025274D01*
X27580394Y-35878290D01*
X27875607Y-35786907D01*
X28226751Y-35750000D01*
X55157830Y-35750000D01*
X55047290Y-35773687D01*
X55047290Y-35773687D01*
G37*
X55047290Y-35773687D02*
X54992379Y-35791206D01*
X54936278Y-35804420D01*
X54923400Y-35808918D01*
X54797399Y-35853918D01*
X54724224Y-35888436D01*
X54650052Y-35920769D01*
X54638185Y-35927498D01*
X54520185Y-35995498D01*
X54490271Y-36016878D01*
X54458007Y-36034512D01*
X54446786Y-36042270D01*
X54332786Y-36122270D01*
X54297823Y-36152300D01*
X54260001Y-36178646D01*
X54249684Y-36187571D01*
X54086685Y-36330571D01*
X54081013Y-36336624D01*
X54074352Y-36341576D01*
X54015857Y-36406155D01*
X53956304Y-36469706D01*
X53951915Y-36476747D01*
X53946343Y-36482898D01*
X53938293Y-36493910D01*
X53804293Y-36679910D01*
X53775146Y-36730050D01*
X53742235Y-36777813D01*
X53735712Y-36789794D01*
X53652711Y-36944794D01*
X53625648Y-37009911D01*
X53595301Y-37073553D01*
X53590749Y-37086413D01*
X53536749Y-37242413D01*
X53524702Y-37292615D01*
X53508196Y-37341548D01*
X53505211Y-37354859D01*
X53441211Y-37649859D01*
X53436073Y-37693993D01*
X53426354Y-37737350D01*
X53424778Y-37750900D01*
X53385778Y-38107900D01*
X53385735Y-38111824D01*
X53384961Y-38115669D01*
X53383683Y-38129250D01*
X53287235Y-39236916D01*
X53207238Y-40034910D01*
X53170301Y-40378034D01*
X53120605Y-40788982D01*
X53068296Y-41143215D01*
X52991461Y-41551457D01*
X52900099Y-41970042D01*
X52797485Y-42372399D01*
X52699320Y-42679738D01*
X52699302Y-42679824D01*
X52695621Y-42691579D01*
X52610327Y-42970806D01*
X52573828Y-43066477D01*
X52510141Y-43193180D01*
X52440762Y-43318063D01*
X52401810Y-43378335D01*
X52367077Y-43418081D01*
X52352729Y-43432961D01*
X52346505Y-43435530D01*
X52328608Y-43439298D01*
X52199519Y-43464255D01*
X52093878Y-43481735D01*
X51975395Y-43496226D01*
X51975334Y-43496240D01*
X51974453Y-43496342D01*
X51913954Y-43503801D01*
X51854460Y-43509585D01*
X51815511Y-43517264D01*
X51775928Y-43520451D01*
X51762520Y-43522962D01*
X51726520Y-43529962D01*
X51683426Y-43542812D01*
X51639240Y-43551139D01*
X51592288Y-43569987D01*
X51543794Y-43584447D01*
X51504019Y-43605421D01*
X51462289Y-43622173D01*
X51419886Y-43649786D01*
X51375130Y-43673387D01*
X51340439Y-43701482D01*
X51322965Y-43711698D01*
X51317815Y-43716256D01*
X51302505Y-43726226D01*
X51291914Y-43734824D01*
X51274914Y-43748824D01*
X51245192Y-43778622D01*
X51226953Y-43793393D01*
X51216549Y-43805881D01*
X51180179Y-43838071D01*
X51170966Y-43848130D01*
X51142966Y-43879130D01*
X51110710Y-43922739D01*
X51074881Y-43963481D01*
X51054141Y-43999218D01*
X51029576Y-44032429D01*
X51006404Y-44081474D01*
X51001997Y-44089068D01*
X50996067Y-44098313D01*
X50994880Y-44101331D01*
X50979172Y-44128397D01*
X50965769Y-44167479D01*
X50948121Y-44204832D01*
X50937476Y-44247244D01*
X50926261Y-44275752D01*
X50923596Y-44290454D01*
X50917317Y-44308763D01*
X50914265Y-44322058D01*
X50912265Y-44331059D01*
X50908346Y-44363309D01*
X50901704Y-44389773D01*
X50900204Y-44419493D01*
X50892250Y-44463371D01*
X50892712Y-44491963D01*
X50889263Y-44520343D01*
X50892755Y-44567096D01*
X50892093Y-44580208D01*
X50894391Y-44595939D01*
X50895329Y-44654023D01*
X50901334Y-44681977D01*
X50903464Y-44710491D01*
X50921318Y-44774997D01*
X50935379Y-44840447D01*
X50946702Y-44866706D01*
X50954328Y-44894259D01*
X50984377Y-44954080D01*
X51010878Y-45015540D01*
X51027078Y-45039089D01*
X51039916Y-45064647D01*
X51081015Y-45117496D01*
X51118947Y-45172635D01*
X51139420Y-45192596D01*
X51156972Y-45215166D01*
X51207542Y-45259015D01*
X51210223Y-45261630D01*
X51226549Y-45279694D01*
X51235888Y-45286653D01*
X51255471Y-45305747D01*
X51266180Y-45314197D01*
X51284180Y-45328197D01*
X51295760Y-45335510D01*
X51301032Y-45340082D01*
X51321556Y-45351802D01*
X51333076Y-45359078D01*
X51379442Y-45393630D01*
X51413496Y-45409868D01*
X51445397Y-45430016D01*
X51499352Y-45450808D01*
X51551553Y-45475700D01*
X51564413Y-45480251D01*
X51590413Y-45489252D01*
X51602356Y-45492118D01*
X51613636Y-45496966D01*
X51626663Y-45501013D01*
X51659663Y-45511013D01*
X51663744Y-45511825D01*
X51667602Y-45513382D01*
X51680716Y-45517136D01*
X51741717Y-45534136D01*
X51741833Y-45534156D01*
X51753182Y-45537256D01*
X51803508Y-45550624D01*
X51853948Y-45565598D01*
X51884479Y-45571497D01*
X51913972Y-45581362D01*
X51927290Y-45584313D01*
X52011290Y-45602313D01*
X52099509Y-45612356D01*
X52187561Y-45623586D01*
X52200709Y-45623877D01*
X52200743Y-45623881D01*
X52200773Y-45623879D01*
X52201199Y-45623888D01*
X52256978Y-45624733D01*
X52329710Y-45627362D01*
X52408650Y-45622492D01*
X52487740Y-45620260D01*
X52501261Y-45618451D01*
X52572261Y-45608451D01*
X52576570Y-45607407D01*
X52581000Y-45607180D01*
X52594476Y-45605061D01*
X52667476Y-45593061D01*
X52693931Y-45586004D01*
X52721115Y-45582696D01*
X52734410Y-45579642D01*
X52831410Y-45556641D01*
X52869599Y-45543537D01*
X52909028Y-45534818D01*
X52921967Y-45530496D01*
X53000968Y-45503496D01*
X53011984Y-45498483D01*
X53023696Y-45495414D01*
X53036458Y-45490595D01*
X53119458Y-45458595D01*
X53150553Y-45442967D01*
X53183350Y-45431315D01*
X53195657Y-45425430D01*
X53271657Y-45388430D01*
X53291012Y-45376542D01*
X53311916Y-45367662D01*
X53323845Y-45361045D01*
X53417845Y-45308045D01*
X53432871Y-45297518D01*
X53449367Y-45289486D01*
X53460940Y-45282265D01*
X53561940Y-45218265D01*
X53584708Y-45200502D01*
X53609689Y-45185997D01*
X53620705Y-45177951D01*
X53732705Y-45094951D01*
X53764948Y-45065775D01*
X53800118Y-45040189D01*
X53810250Y-45031054D01*
X53915250Y-44935054D01*
X53925337Y-44923837D01*
X53937131Y-44914422D01*
X53946843Y-44904843D01*
X54015844Y-44835843D01*
X54015849Y-44835837D01*
X54114843Y-44736843D01*
X54148919Y-44695359D01*
X54186425Y-44656932D01*
X54194880Y-44646227D01*
X54293257Y-44519880D01*
X54372625Y-44420431D01*
X54398832Y-44380065D01*
X54428824Y-44342430D01*
X54436164Y-44330932D01*
X54502164Y-44225932D01*
X54514499Y-44201249D01*
X54530133Y-44178521D01*
X54536647Y-44166536D01*
X54660647Y-43934536D01*
X54689200Y-43865685D01*
X54720676Y-43798104D01*
X54725111Y-43785203D01*
X54808111Y-43538204D01*
X54808299Y-43537387D01*
X54808642Y-43536620D01*
X54812874Y-43523652D01*
X54841874Y-43432652D01*
X54842254Y-43430875D01*
X54842969Y-43429196D01*
X54846971Y-43416155D01*
X54890971Y-43269154D01*
X54891991Y-43263939D01*
X54893954Y-43258991D01*
X54897632Y-43245855D01*
X55000632Y-42867855D01*
X55003641Y-42850145D01*
X55009411Y-42833139D01*
X55012420Y-42819833D01*
X55133420Y-42266833D01*
X55133952Y-42262331D01*
X55135309Y-42258005D01*
X55138008Y-42244633D01*
X55268008Y-41576634D01*
X55268771Y-41568583D01*
X55270957Y-41560789D01*
X55273247Y-41547341D01*
X55421247Y-40640341D01*
X55421624Y-40634464D01*
X55423067Y-40628752D01*
X55425008Y-40615249D01*
X55522008Y-39905249D01*
X55522175Y-39900856D01*
X55523155Y-39896566D01*
X55524785Y-39883022D01*
X55575785Y-39433022D01*
X55575868Y-39427511D01*
X55576960Y-39422108D01*
X55578249Y-39408528D01*
X55606451Y-39087614D01*
X55661921Y-38567945D01*
X55681534Y-38401230D01*
X55699808Y-38318802D01*
X55729227Y-38363100D01*
X55793309Y-38466851D01*
X55865734Y-38596744D01*
X55912393Y-38688365D01*
X55912483Y-38688505D01*
X55913850Y-38691215D01*
X56027714Y-38913001D01*
X56202670Y-39257942D01*
X56202784Y-39258120D01*
X56204820Y-39262157D01*
X56315122Y-39477041D01*
X56313193Y-39583463D01*
X56304481Y-39973595D01*
X56289134Y-40322727D01*
X56281431Y-40467693D01*
X56261205Y-40585001D01*
X56261057Y-40587020D01*
X56260529Y-40588972D01*
X56260367Y-40589978D01*
X56239532Y-40636910D01*
X56212993Y-40685486D01*
X56207741Y-40698076D01*
X56180741Y-40764076D01*
X56171353Y-40795468D01*
X56158015Y-40825408D01*
X56153797Y-40838381D01*
X56133798Y-40901380D01*
X56132652Y-40906764D01*
X56130540Y-40911846D01*
X56112814Y-40999996D01*
X56094113Y-41087882D01*
X56094035Y-41093381D01*
X56092949Y-41098782D01*
X56091673Y-41112363D01*
X56087962Y-41155044D01*
X56074548Y-41180978D01*
X56065215Y-41213211D01*
X56051877Y-41244002D01*
X56047793Y-41257018D01*
X56032793Y-41306018D01*
X56021019Y-41364301D01*
X56004979Y-41421571D01*
X56002694Y-41435020D01*
X55995694Y-41478020D01*
X55991660Y-41541324D01*
X55983485Y-41604225D01*
X55983150Y-41617862D01*
X55982150Y-41674862D01*
X55983144Y-41687232D01*
X55982029Y-41699594D01*
X55982231Y-41713234D01*
X55983231Y-41759234D01*
X55989080Y-41807956D01*
X55990276Y-41857009D01*
X56000416Y-41902386D01*
X56005958Y-41948552D01*
X56021157Y-41995203D01*
X56031859Y-42043097D01*
X56036210Y-42056026D01*
X56045060Y-42081733D01*
X56047638Y-42091616D01*
X56061811Y-42130095D01*
X56071612Y-42169921D01*
X56076239Y-42182754D01*
X56088966Y-42217298D01*
X56090770Y-42224010D01*
X56100256Y-42279199D01*
X56123759Y-42489161D01*
X56129254Y-42597494D01*
X56129738Y-42600731D01*
X56129606Y-42603995D01*
X56130483Y-42617608D01*
X56142518Y-42786094D01*
X56144701Y-42933118D01*
X56139322Y-43063572D01*
X56124624Y-43190508D01*
X56109369Y-43278767D01*
X56077971Y-43392942D01*
X56075161Y-43409248D01*
X56069765Y-43424883D01*
X56066686Y-43438172D01*
X56042686Y-43545173D01*
X56039145Y-43573841D01*
X56031735Y-43601764D01*
X56029634Y-43615243D01*
X56011634Y-43736243D01*
X56010398Y-43760977D01*
X56005602Y-43785278D01*
X56004375Y-43798864D01*
X55993375Y-43930865D01*
X55993778Y-43958493D01*
X55990348Y-43985916D01*
X55990079Y-43999555D01*
X55988079Y-44156555D01*
X55988469Y-44161128D01*
X55988005Y-44165697D01*
X55988055Y-44179338D01*
X55990055Y-44368338D01*
X55994537Y-44409553D01*
X55994438Y-44451022D01*
X55995832Y-44464592D01*
X56004832Y-44546591D01*
X56018383Y-44611097D01*
X56028008Y-44676304D01*
X56031399Y-44689517D01*
X56045399Y-44742517D01*
X56056873Y-44773374D01*
X56064306Y-44805442D01*
X56090028Y-44862540D01*
X56111854Y-44921239D01*
X56127806Y-44947171D01*
X56129369Y-44951331D01*
X56131774Y-44955210D01*
X56142623Y-44979293D01*
X56149495Y-44991077D01*
X56165495Y-45018077D01*
X56199523Y-45064484D01*
X56229843Y-45113388D01*
X56255767Y-45141189D01*
X56278246Y-45171846D01*
X56318676Y-45208958D01*
X56328013Y-45220603D01*
X56336395Y-45227656D01*
X56359882Y-45252844D01*
X56370177Y-45261794D01*
X56391177Y-45279794D01*
X56410873Y-45293586D01*
X56418718Y-45300787D01*
X56435332Y-45310908D01*
X56473910Y-45343370D01*
X56511866Y-45364305D01*
X56547368Y-45389165D01*
X56595143Y-45410238D01*
X56640874Y-45435461D01*
X56653442Y-45440764D01*
X56682443Y-45452765D01*
X56711657Y-45461629D01*
X56721829Y-45466116D01*
X56739359Y-45470035D01*
X56766920Y-45478398D01*
X56778319Y-45482038D01*
X56783579Y-45484373D01*
X56790611Y-45485963D01*
X56851037Y-45505259D01*
X56864395Y-45508027D01*
X56893957Y-45513940D01*
X56892345Y-45515236D01*
X56887151Y-45518032D01*
X56875882Y-45525718D01*
X56836882Y-45552718D01*
X56814103Y-45572033D01*
X56788936Y-45588122D01*
X56778274Y-45596631D01*
X56757273Y-45613632D01*
X56720278Y-45650103D01*
X56680175Y-45683139D01*
X56670611Y-45692866D01*
X56638611Y-45725866D01*
X56604361Y-45768895D01*
X56566661Y-45808944D01*
X56558400Y-45819800D01*
X56528400Y-45859800D01*
X56512002Y-45886801D01*
X56492217Y-45911434D01*
X56484834Y-45922904D01*
X56413834Y-46034904D01*
X56373682Y-46114488D01*
X56332491Y-46193623D01*
X56327984Y-46205066D01*
X56327946Y-46205142D01*
X56327926Y-46205215D01*
X56327492Y-46206316D01*
X56278492Y-46333316D01*
X56273983Y-46349578D01*
X56266925Y-46364905D01*
X56248545Y-46441317D01*
X56227542Y-46517060D01*
X56226277Y-46533888D01*
X56222331Y-46550294D01*
X56220545Y-46563818D01*
X56196066Y-46759648D01*
X56165422Y-46942613D01*
X56163251Y-46974387D01*
X56156965Y-47005622D01*
X56155687Y-47019204D01*
X56134984Y-47256844D01*
X56128173Y-47304813D01*
X56126600Y-47308983D01*
X56119903Y-47349135D01*
X56108749Y-47388286D01*
X56104253Y-47442957D01*
X56095228Y-47497061D01*
X56096457Y-47537749D01*
X56093120Y-47578322D01*
X56099328Y-47632820D01*
X56100984Y-47687651D01*
X56102819Y-47701169D01*
X56106819Y-47729168D01*
X56113347Y-47755884D01*
X56114701Y-47767774D01*
X56121318Y-47788509D01*
X56126911Y-47811402D01*
X56145180Y-47894021D01*
X56149513Y-47903906D01*
X56152076Y-47914397D01*
X56187750Y-47991144D01*
X56221726Y-48068660D01*
X56228479Y-48080512D01*
X56250479Y-48118512D01*
X56297973Y-48184684D01*
X56343562Y-48252190D01*
X56353501Y-48262049D01*
X56361662Y-48273419D01*
X56421096Y-48329097D01*
X56478937Y-48386471D01*
X56489573Y-48395013D01*
X56537573Y-48433013D01*
X56537774Y-48433143D01*
X56544180Y-48438197D01*
X56575769Y-48462766D01*
X56625401Y-48502288D01*
X56679566Y-48537369D01*
X56731392Y-48575803D01*
X56743138Y-48582739D01*
X56817138Y-48625739D01*
X56874509Y-48651957D01*
X56930017Y-48681921D01*
X56942633Y-48687110D01*
X57004633Y-48712110D01*
X57057848Y-48727732D01*
X57109619Y-48747664D01*
X57122792Y-48751207D01*
X57187792Y-48768207D01*
X57217312Y-48772913D01*
X57245944Y-48781534D01*
X57311284Y-48787892D01*
X57376091Y-48798222D01*
X57405963Y-48797104D01*
X57435725Y-48800000D01*
X57449366Y-48799894D01*
X57517366Y-48798894D01*
X57519228Y-48798684D01*
X57521096Y-48798832D01*
X57613966Y-48787986D01*
X57706839Y-48777499D01*
X57708624Y-48776931D01*
X57710485Y-48776714D01*
X57735361Y-48768698D01*
X57730195Y-48841372D01*
X57691903Y-49255111D01*
X57660375Y-49494352D01*
X57660373Y-49494410D01*
X57660248Y-49495317D01*
X57626563Y-49752908D01*
X57597052Y-49970551D01*
X57554789Y-50219436D01*
X57553928Y-50231630D01*
X57551008Y-50243512D01*
X57549155Y-50257027D01*
X57496568Y-50661471D01*
X57477697Y-50772979D01*
X57475467Y-50804832D01*
X57469118Y-50836129D01*
X57467818Y-50849708D01*
X57449818Y-51052708D01*
X57450044Y-51077015D01*
X57446735Y-51101099D01*
X57446301Y-51114734D01*
X57442301Y-51275734D01*
X57445859Y-51324459D01*
X57444753Y-51373291D01*
X57445871Y-51386887D01*
X57455871Y-51498887D01*
X57464062Y-51542225D01*
X57467653Y-51586190D01*
X57470179Y-51599595D01*
X57488179Y-51691595D01*
X57498164Y-51724938D01*
X57503935Y-51759260D01*
X57507591Y-51772403D01*
X57583591Y-52038402D01*
X57583674Y-52038611D01*
X57586068Y-52046926D01*
X57646068Y-52249925D01*
X57651791Y-52264044D01*
X57655126Y-52278906D01*
X57659487Y-52291832D01*
X57678487Y-52346866D01*
X57691775Y-52394939D01*
X57707655Y-52485586D01*
X57722199Y-52537899D01*
X57732283Y-52591256D01*
X57736204Y-52604322D01*
X57756204Y-52669322D01*
X57790826Y-52752076D01*
X57824518Y-52835289D01*
X57829741Y-52845093D01*
X57829796Y-52845225D01*
X57829869Y-52845334D01*
X57830932Y-52847329D01*
X57856932Y-52895328D01*
X57882911Y-52933782D01*
X57904901Y-52974653D01*
X57936155Y-53012592D01*
X57963675Y-53053327D01*
X57996633Y-53086006D01*
X58026139Y-53121824D01*
X58035866Y-53131389D01*
X58068865Y-53163388D01*
X58098314Y-53186829D01*
X58099075Y-53187583D01*
X58100197Y-53188327D01*
X58108827Y-53195196D01*
X58145735Y-53230505D01*
X58183243Y-53254429D01*
X58218052Y-53282136D01*
X58263432Y-53305577D01*
X58306493Y-53333043D01*
X58347935Y-53349227D01*
X58387463Y-53369645D01*
X58436529Y-53383824D01*
X58484108Y-53402405D01*
X58497264Y-53406012D01*
X58542264Y-53418012D01*
X58548777Y-53419082D01*
X58554978Y-53421310D01*
X58642762Y-53434526D01*
X58730418Y-53448929D01*
X58737008Y-53448714D01*
X58743531Y-53449696D01*
X58757158Y-53450305D01*
X58810159Y-53452305D01*
X58815658Y-53451975D01*
X58821123Y-53452657D01*
X58910780Y-53446258D01*
X59000492Y-53440867D01*
X59005820Y-53439475D01*
X59011316Y-53439083D01*
X59098050Y-53415384D01*
X59184980Y-53392678D01*
X59189935Y-53390278D01*
X59195251Y-53388826D01*
X59207962Y-53383874D01*
X59290962Y-53350874D01*
X59298814Y-53346824D01*
X59307259Y-53344224D01*
X59319805Y-53338869D01*
X59450806Y-53281869D01*
X59474061Y-53268918D01*
X59498899Y-53259369D01*
X59511050Y-53253170D01*
X59748050Y-53130170D01*
X59766869Y-53117935D01*
X59787300Y-53108644D01*
X59799060Y-53101730D01*
X60030060Y-52963730D01*
X60053218Y-52946623D01*
X60078487Y-52932832D01*
X60089713Y-52925081D01*
X60333713Y-52754081D01*
X60341244Y-52747621D01*
X60349787Y-52742572D01*
X60360740Y-52734442D01*
X60522740Y-52612443D01*
X60543758Y-52593127D01*
X60567219Y-52576868D01*
X60577557Y-52567968D01*
X60837557Y-52340968D01*
X60840071Y-52338297D01*
X60843049Y-52336138D01*
X60853193Y-52327018D01*
X61034193Y-52162019D01*
X61054961Y-52138992D01*
X61078581Y-52118903D01*
X61087992Y-52109027D01*
X61305992Y-51877027D01*
X61324398Y-51853142D01*
X61345822Y-51831933D01*
X61354460Y-51821375D01*
X61550460Y-51578375D01*
X61565716Y-51555141D01*
X61584044Y-51534231D01*
X61591914Y-51523089D01*
X61694914Y-51375088D01*
X61708992Y-51349935D01*
X61726369Y-51326927D01*
X61733407Y-51315241D01*
X61815078Y-51177483D01*
X61873771Y-51079662D01*
X61873914Y-51079360D01*
X61874117Y-51079086D01*
X61881045Y-51067335D01*
X61928045Y-50986335D01*
X61935118Y-50970833D01*
X61944578Y-50956665D01*
X61950926Y-50944591D01*
X61986344Y-50876064D01*
X61986556Y-50875756D01*
X61993059Y-50863765D01*
X62081059Y-50698765D01*
X62096723Y-50660897D01*
X62116513Y-50625006D01*
X62121814Y-50612437D01*
X62188708Y-50450716D01*
X62190279Y-50447980D01*
X62197265Y-50441382D01*
X62292753Y-50363839D01*
X62473819Y-50235725D01*
X62647413Y-50115769D01*
X62659720Y-50105352D01*
X62673554Y-50097063D01*
X62684459Y-50088867D01*
X62882459Y-49937867D01*
X62896452Y-49924851D01*
X62912297Y-49914177D01*
X62922753Y-49905415D01*
X63062753Y-49786414D01*
X63081755Y-49766762D01*
X63103306Y-49749946D01*
X63113125Y-49740476D01*
X63204125Y-49651476D01*
X63246235Y-49601356D01*
X63291356Y-49553901D01*
X63299670Y-49543086D01*
X63396670Y-49415086D01*
X63424915Y-49369094D01*
X63456967Y-49325663D01*
X63463875Y-49313900D01*
X63526876Y-49204900D01*
X63540172Y-49175625D01*
X63557144Y-49148320D01*
X63563095Y-49136045D01*
X63613095Y-49031045D01*
X63628281Y-48989009D01*
X63647750Y-48948784D01*
X63660597Y-48899557D01*
X63677882Y-48851712D01*
X63684614Y-48807532D01*
X63695900Y-48764286D01*
X63697946Y-48750799D01*
X63709946Y-48667799D01*
X63712041Y-48622136D01*
X63718775Y-48576916D01*
X63716400Y-48527118D01*
X63718685Y-48477323D01*
X63711871Y-48432125D01*
X63709693Y-48386455D01*
X63707622Y-48372972D01*
X63698622Y-48316972D01*
X63696314Y-48308193D01*
X63695588Y-48299151D01*
X63672097Y-48216080D01*
X63650139Y-48132561D01*
X63646171Y-48124401D01*
X63643702Y-48115669D01*
X63638638Y-48103003D01*
X63607638Y-48027003D01*
X63585693Y-47985363D01*
X63567978Y-47941751D01*
X63561551Y-47929718D01*
X63498551Y-47813718D01*
X63462862Y-47761019D01*
X63430677Y-47706102D01*
X63422587Y-47695119D01*
X63410755Y-47679288D01*
X63376130Y-47581348D01*
X63337139Y-47498000D01*
X63298781Y-47414494D01*
X63295437Y-47408855D01*
X63295334Y-47408635D01*
X63295190Y-47408439D01*
X63291823Y-47402761D01*
X63244822Y-47324761D01*
X63244806Y-47324739D01*
X63253368Y-47294879D01*
X63387041Y-46954393D01*
X63489706Y-46725166D01*
X63698250Y-46283092D01*
X63906724Y-45864195D01*
X63986769Y-45705094D01*
X63999866Y-45671165D01*
X64016966Y-45639070D01*
X64022087Y-45626426D01*
X64099087Y-45432427D01*
X64107342Y-45403730D01*
X64119367Y-45376406D01*
X64123527Y-45363415D01*
X64173527Y-45203414D01*
X64179884Y-45172862D01*
X64190199Y-45143409D01*
X64193338Y-45130133D01*
X64234338Y-44951133D01*
X64239736Y-44909000D01*
X64249669Y-44867706D01*
X64251455Y-44854182D01*
X64271455Y-44694182D01*
X64272165Y-44667506D01*
X64276618Y-44641186D01*
X64277475Y-44627572D01*
X64285475Y-44484572D01*
X64285471Y-44484482D01*
X64286089Y-44472177D01*
X64293089Y-44310177D01*
X64292066Y-44291437D01*
X64293989Y-44272760D01*
X64293960Y-44259119D01*
X64292960Y-44149119D01*
X64292952Y-44149044D01*
X64292948Y-44147876D01*
X64290948Y-43954876D01*
X64290001Y-43946146D01*
X64290610Y-43937388D01*
X64290129Y-43923755D01*
X64284129Y-43781755D01*
X64281300Y-43761674D01*
X64281586Y-43741390D01*
X64280351Y-43727805D01*
X64266351Y-43584805D01*
X64266324Y-43584669D01*
X64266107Y-43582345D01*
X64244107Y-43363345D01*
X64241618Y-43350927D01*
X64241260Y-43338261D01*
X64239451Y-43324740D01*
X64219451Y-43182739D01*
X64217901Y-43176340D01*
X64217535Y-43169766D01*
X64215357Y-43156299D01*
X64177357Y-42931300D01*
X64175451Y-42924277D01*
X64174836Y-42917013D01*
X64172271Y-42903615D01*
X64142271Y-42752615D01*
X64139527Y-42743549D01*
X64138416Y-42734149D01*
X64135407Y-42720844D01*
X64089407Y-42523844D01*
X64086353Y-42514842D01*
X64084921Y-42505437D01*
X64081469Y-42492239D01*
X64042469Y-42347239D01*
X64042457Y-42347207D01*
X64038981Y-42334608D01*
X63968981Y-42087609D01*
X63958186Y-42060096D01*
X63951195Y-42031377D01*
X63946601Y-42018533D01*
X63878601Y-41832533D01*
X63878525Y-41832374D01*
X63874911Y-41822608D01*
X63761911Y-41523609D01*
X63743608Y-41486581D01*
X63729517Y-41447743D01*
X63723549Y-41435476D01*
X63468549Y-40920476D01*
X63461071Y-40908481D01*
X63455682Y-40895404D01*
X63449194Y-40883404D01*
X63222194Y-40470404D01*
X63212596Y-40456384D01*
X63205367Y-40441008D01*
X63198305Y-40429338D01*
X63123304Y-40307338D01*
X63091347Y-40265207D01*
X63063178Y-40220443D01*
X63054745Y-40209720D01*
X62841745Y-39942720D01*
X62827275Y-39927830D01*
X62815238Y-39910899D01*
X62806215Y-39900669D01*
X62357215Y-39398669D01*
X62341086Y-39383843D01*
X62327361Y-39366756D01*
X62317753Y-39357072D01*
X62151753Y-39192073D01*
X62083589Y-39136427D01*
X62016240Y-39079733D01*
X62004942Y-39072087D01*
X61902942Y-39004087D01*
X61887459Y-38995823D01*
X61873484Y-38985201D01*
X61861820Y-38978127D01*
X61727820Y-38898127D01*
X61720892Y-38894861D01*
X61714657Y-38890407D01*
X61702790Y-38883681D01*
X61537790Y-38791681D01*
X61535553Y-38790707D01*
X61533546Y-38789329D01*
X61448204Y-38752648D01*
X61362985Y-38715518D01*
X61360605Y-38714997D01*
X61358364Y-38714034D01*
X61345337Y-38709987D01*
X61147337Y-38649987D01*
X61135913Y-38647713D01*
X61125048Y-38643521D01*
X61111877Y-38639968D01*
X60867877Y-38575968D01*
X60853086Y-38573600D01*
X60838881Y-38568834D01*
X60825566Y-38565871D01*
X60444566Y-38483871D01*
X60437059Y-38483010D01*
X60429819Y-38480815D01*
X60416422Y-38478245D01*
X60129422Y-38425245D01*
X60114326Y-38423961D01*
X60099642Y-38420220D01*
X60086143Y-38418253D01*
X59783143Y-38376253D01*
X59767045Y-38375609D01*
X59751264Y-38372367D01*
X59737688Y-38371034D01*
X59364689Y-38337034D01*
X59348620Y-38337144D01*
X59332735Y-38334648D01*
X59319112Y-38333952D01*
X58753112Y-38308952D01*
X58742965Y-38309496D01*
X58732867Y-38308267D01*
X58719228Y-38308044D01*
X58468295Y-38305674D01*
X58279599Y-37917691D01*
X58264910Y-37893755D01*
X58253659Y-37868029D01*
X58246917Y-37856171D01*
X57964917Y-37368171D01*
X57947599Y-37344002D01*
X57933688Y-37317730D01*
X57926079Y-37306408D01*
X57765079Y-37070408D01*
X57753234Y-37056242D01*
X57743758Y-37040385D01*
X57735575Y-37029471D01*
X57611575Y-36866471D01*
X57587202Y-36840207D01*
X57566211Y-36811164D01*
X57557108Y-36801004D01*
X57398108Y-36626004D01*
X57387202Y-36616135D01*
X57378067Y-36604600D01*
X57368526Y-36594850D01*
X57240526Y-36465850D01*
X57189116Y-36423285D01*
X57140286Y-36377764D01*
X57129390Y-36369557D01*
X56997390Y-36271557D01*
X56986357Y-36264930D01*
X56976597Y-36256539D01*
X56965380Y-36248776D01*
X56833380Y-36158776D01*
X56819101Y-36150963D01*
X56806270Y-36140944D01*
X56794699Y-36133718D01*
X56659699Y-36050718D01*
X56612617Y-36027771D01*
X56567746Y-36000763D01*
X56555387Y-35994988D01*
X56361387Y-35905988D01*
X56328995Y-35894807D01*
X56298262Y-35879663D01*
X56285462Y-35874945D01*
X56102462Y-35808945D01*
X56024441Y-35789156D01*
X55947081Y-35766998D01*
X55933646Y-35764633D01*
X55846974Y-35750000D01*
X73359444Y-35750000D01*
X73713556Y-35784721D01*
X74009399Y-35874041D01*
X74282260Y-36019124D01*
X74521742Y-36214440D01*
X74718726Y-36452554D01*
X74865710Y-36724394D01*
X74957093Y-37019607D01*
X74994000Y-37370751D01*
X74994000Y-39208292D01*
X74777300Y-38685132D01*
X74325650Y-38009191D01*
X73750809Y-37434350D01*
X73074868Y-36982700D01*
X72323802Y-36671598D01*
X71526474Y-36513000D01*
X70713526Y-36513000D01*
X69916198Y-36671598D01*
X69165132Y-36982700D01*
X68489191Y-37434350D01*
X67914350Y-38009191D01*
X67462700Y-38685132D01*
X67151598Y-39436198D01*
X66993000Y-40233526D01*
X66993000Y-41046474D01*
X67151598Y-41843802D01*
X67462700Y-42594868D01*
X67914350Y-43270809D01*
X68489191Y-43845650D01*
X69165132Y-44297300D01*
X69916198Y-44608402D01*
X70713526Y-44767000D01*
X71526474Y-44767000D01*
X72323802Y-44608402D01*
X73074868Y-44297300D01*
X73750809Y-43845650D01*
X74325650Y-43270809D01*
X74777300Y-42594868D01*
X74994000Y-42071708D01*
X74994001Y-166208294D01*
X74777300Y-165685132D01*
X74325650Y-165009191D01*
X73750809Y-164434350D01*
X73074868Y-163982700D01*
X72323802Y-163671598D01*
X71526474Y-163513000D01*
X70713526Y-163513000D01*
X69916198Y-163671598D01*
X69165132Y-163982700D01*
X68489191Y-164434350D01*
X67914350Y-165009191D01*
X67462700Y-165685132D01*
X67151598Y-166436198D01*
X66993000Y-167233526D01*
X66993000Y-168046474D01*
X67151598Y-168843802D01*
X67462700Y-169594868D01*
X67914350Y-170270809D01*
X68489191Y-170845650D01*
X69165132Y-171297300D01*
X69916198Y-171608402D01*
X70713526Y-171767000D01*
X71526474Y-171767000D01*
X72323802Y-171608402D01*
X73074868Y-171297300D01*
X73750809Y-170845650D01*
X74325650Y-170270809D01*
X74777300Y-169594868D01*
X74994001Y-169071706D01*
X74994001Y-170641434D01*
X74959279Y-170995556D01*
X74869958Y-171291402D01*
X74724877Y-171564260D01*
X74529560Y-171803742D01*
X74291445Y-172000727D01*
X74019606Y-172147710D01*
X73724395Y-172239093D01*
X73373249Y-172276000D01*
X28240556Y-172276000D01*
X27886444Y-172241279D01*
X27590598Y-172151958D01*
X27317740Y-172006877D01*
X27078258Y-171811560D01*
X26881273Y-171573445D01*
X26734290Y-171301606D01*
X26642907Y-171006395D01*
X26606000Y-170655249D01*
X26606000Y-169071708D01*
X26822700Y-169594868D01*
X27274350Y-170270809D01*
X27849191Y-170845650D01*
X28525132Y-171297300D01*
X29276198Y-171608402D01*
X30073526Y-171767000D01*
X30886474Y-171767000D01*
X31683802Y-171608402D01*
X32434868Y-171297300D01*
X33110809Y-170845650D01*
X33685650Y-170270809D01*
X34137300Y-169594868D01*
X34448402Y-168843802D01*
X34607000Y-168046474D01*
X34607000Y-167233526D01*
X34448402Y-166436198D01*
X34137300Y-165685132D01*
X33685650Y-165009191D01*
X33110809Y-164434350D01*
X32434868Y-163982700D01*
X31683802Y-163671598D01*
X30886474Y-163513000D01*
X30073526Y-163513000D01*
X29276198Y-163671598D01*
X28525132Y-163982700D01*
X27849191Y-164434350D01*
X27274350Y-165009191D01*
X26822700Y-165685132D01*
X26606000Y-166208292D01*
X26606000Y-159444000D01*
X32962515Y-159444000D01*
X32962515Y-160944000D01*
X32980413Y-161125724D01*
X33033420Y-161300464D01*
X33119499Y-161461505D01*
X33187201Y-161544000D01*
X33119499Y-161626495D01*
X33033420Y-161787536D01*
X32980413Y-161962276D01*
X32962515Y-162144000D01*
X32962515Y-163644000D01*
X32980413Y-163825724D01*
X33033420Y-164000464D01*
X33119499Y-164161505D01*
X33235341Y-164302659D01*
X33376495Y-164418501D01*
X33537536Y-164504580D01*
X33712276Y-164557587D01*
X33894000Y-164575485D01*
X35194000Y-164575485D01*
X35375724Y-164557587D01*
X35550464Y-164504580D01*
X35711505Y-164418501D01*
X35830310Y-164321000D01*
X37520999Y-164321000D01*
X38550514Y-165350515D01*
X37758000Y-165350515D01*
X37576276Y-165368413D01*
X37401536Y-165421420D01*
X37240495Y-165507499D01*
X37099341Y-165623341D01*
X36983499Y-165764495D01*
X36897420Y-165925536D01*
X36844413Y-166100276D01*
X36826515Y-166282000D01*
X36826515Y-167982000D01*
X36844413Y-168163724D01*
X36897420Y-168338464D01*
X36983499Y-168499505D01*
X37099341Y-168640659D01*
X37240495Y-168756501D01*
X37401536Y-168842580D01*
X37576276Y-168895587D01*
X37758000Y-168913485D01*
X39458000Y-168913485D01*
X39639724Y-168895587D01*
X39814464Y-168842580D01*
X39975505Y-168756501D01*
X40116659Y-168640659D01*
X40144246Y-168607044D01*
X40155975Y-168616670D01*
X40464681Y-168781677D01*
X40799647Y-168883288D01*
X41060704Y-168909000D01*
X41235296Y-168909000D01*
X41496353Y-168883288D01*
X41831319Y-168781677D01*
X42140025Y-168616670D01*
X42410608Y-168394608D01*
X42613564Y-168147306D01*
X42687731Y-168229588D01*
X42921080Y-168403641D01*
X43183901Y-168528825D01*
X43331110Y-168573476D01*
X43561000Y-168452155D01*
X43561000Y-167259000D01*
X43815000Y-167259000D01*
X43815000Y-168452155D01*
X44044890Y-168573476D01*
X44192099Y-168528825D01*
X44454920Y-168403641D01*
X44688269Y-168229588D01*
X44883178Y-168013355D01*
X45032157Y-167763252D01*
X45129481Y-167488891D01*
X45008814Y-167259000D01*
X43815000Y-167259000D01*
X43561000Y-167259000D01*
X43541000Y-167259000D01*
X43541000Y-167005000D01*
X43561000Y-167005000D01*
X43561000Y-165811845D01*
X43815000Y-165811845D01*
X43815000Y-167005000D01*
X45008814Y-167005000D01*
X45129481Y-166775109D01*
X45032157Y-166500748D01*
X44883178Y-166250645D01*
X44688269Y-166034412D01*
X44454920Y-165860359D01*
X44192099Y-165735175D01*
X44044890Y-165690524D01*
X43815000Y-165811845D01*
X43561000Y-165811845D01*
X43331110Y-165690524D01*
X43183901Y-165735175D01*
X42921080Y-165860359D01*
X42687731Y-166034412D01*
X42613564Y-166116694D01*
X42575000Y-166069704D01*
X42575000Y-166000009D01*
X42581903Y-165929919D01*
X42575000Y-165859829D01*
X42575000Y-165859821D01*
X42554352Y-165650178D01*
X42472755Y-165381188D01*
X42340248Y-165133285D01*
X42324034Y-165113529D01*
X42206608Y-164970444D01*
X42206601Y-164970437D01*
X42161922Y-164915996D01*
X42107482Y-164871318D01*
X41441388Y-164205224D01*
X49325000Y-164205224D01*
X49325000Y-164978776D01*
X49475912Y-165737464D01*
X49771938Y-166452132D01*
X50201700Y-167095317D01*
X50748683Y-167642300D01*
X51391868Y-168072062D01*
X52106536Y-168368088D01*
X52865224Y-168519000D01*
X53638776Y-168519000D01*
X54397464Y-168368088D01*
X55112132Y-168072062D01*
X55755317Y-167642300D01*
X56302300Y-167095317D01*
X56732062Y-166452132D01*
X56815446Y-166250826D01*
X56813928Y-167592000D01*
X56826188Y-167716482D01*
X56862498Y-167836180D01*
X56921463Y-167946494D01*
X57000815Y-168043185D01*
X57097506Y-168122537D01*
X57207820Y-168181502D01*
X57327518Y-168217812D01*
X57452000Y-168230072D01*
X60166250Y-168227000D01*
X60325000Y-168068250D01*
X60325000Y-164719000D01*
X60579000Y-164719000D01*
X60579000Y-168068250D01*
X60737750Y-168227000D01*
X63452000Y-168230072D01*
X63576482Y-168217812D01*
X63696180Y-168181502D01*
X63806494Y-168122537D01*
X63903185Y-168043185D01*
X63982537Y-167946494D01*
X64041502Y-167836180D01*
X64077812Y-167716482D01*
X64090072Y-167592000D01*
X64087000Y-164877750D01*
X63928250Y-164719000D01*
X60579000Y-164719000D01*
X60325000Y-164719000D01*
X60305000Y-164719000D01*
X60305000Y-164465000D01*
X60325000Y-164465000D01*
X60325000Y-161115750D01*
X60579000Y-161115750D01*
X60579000Y-164465000D01*
X63928250Y-164465000D01*
X64087000Y-164306250D01*
X64090072Y-161592000D01*
X64077812Y-161467518D01*
X64041502Y-161347820D01*
X63982537Y-161237506D01*
X63903185Y-161140815D01*
X63806494Y-161061463D01*
X63696180Y-161002498D01*
X63576482Y-160966188D01*
X63452000Y-160953928D01*
X60737750Y-160957000D01*
X60579000Y-161115750D01*
X60325000Y-161115750D01*
X60166250Y-160957000D01*
X57452000Y-160953928D01*
X57327518Y-160966188D01*
X57207820Y-161002498D01*
X57097506Y-161061463D01*
X57000815Y-161140815D01*
X56921463Y-161237506D01*
X56862498Y-161347820D01*
X56826188Y-161467518D01*
X56813928Y-161592000D01*
X56815446Y-162933174D01*
X56732062Y-162731868D01*
X56302300Y-162088683D01*
X55755317Y-161541700D01*
X55112132Y-161111938D01*
X54397464Y-160815912D01*
X53638776Y-160665000D01*
X52865224Y-160665000D01*
X52106536Y-160815912D01*
X51391868Y-161111938D01*
X50748683Y-161541700D01*
X50201700Y-162088683D01*
X49771938Y-162731868D01*
X49475912Y-163446536D01*
X49325000Y-164205224D01*
X41441388Y-164205224D01*
X39170690Y-161934527D01*
X39126004Y-161880077D01*
X38908715Y-161701752D01*
X38660812Y-161569245D01*
X38391822Y-161487648D01*
X38182179Y-161467000D01*
X38182169Y-161467000D01*
X38112081Y-161460097D01*
X38041993Y-161467000D01*
X35963991Y-161467000D01*
X35968501Y-161461505D01*
X36054580Y-161300464D01*
X36107587Y-161125724D01*
X36125485Y-160944000D01*
X36125485Y-159444000D01*
X36107587Y-159262276D01*
X36054580Y-159087536D01*
X35971000Y-158931170D01*
X35971000Y-154033413D01*
X38414192Y-154033413D01*
X38509956Y-154297814D01*
X38799571Y-154438704D01*
X39111108Y-154520384D01*
X39432595Y-154539718D01*
X39751675Y-154495961D01*
X40056088Y-154390795D01*
X40230044Y-154297814D01*
X40325808Y-154033413D01*
X51876192Y-154033413D01*
X51971956Y-154297814D01*
X52261571Y-154438704D01*
X52573108Y-154520384D01*
X52894595Y-154539718D01*
X53213675Y-154495961D01*
X53518088Y-154390795D01*
X53692044Y-154297814D01*
X53787808Y-154033413D01*
X52832000Y-153077605D01*
X51876192Y-154033413D01*
X40325808Y-154033413D01*
X39370000Y-153077605D01*
X38414192Y-154033413D01*
X35971000Y-154033413D01*
X35971000Y-152960595D01*
X37728282Y-152960595D01*
X37772039Y-153279675D01*
X37877205Y-153584088D01*
X37970186Y-153758044D01*
X38234587Y-153853808D01*
X39190395Y-152898000D01*
X39549605Y-152898000D01*
X40505413Y-153853808D01*
X40769814Y-153758044D01*
X40910704Y-153468429D01*
X40992384Y-153156892D01*
X41004189Y-152960595D01*
X51190282Y-152960595D01*
X51234039Y-153279675D01*
X51339205Y-153584088D01*
X51432186Y-153758044D01*
X51696587Y-153853808D01*
X52652395Y-152898000D01*
X53011605Y-152898000D01*
X53967413Y-153853808D01*
X54231814Y-153758044D01*
X54372704Y-153468429D01*
X54454384Y-153156892D01*
X54473718Y-152835405D01*
X54429961Y-152516325D01*
X54324795Y-152211912D01*
X54231814Y-152037956D01*
X53967413Y-151942192D01*
X53011605Y-152898000D01*
X52652395Y-152898000D01*
X51696587Y-151942192D01*
X51432186Y-152037956D01*
X51291296Y-152327571D01*
X51209616Y-152639108D01*
X51190282Y-152960595D01*
X41004189Y-152960595D01*
X41011718Y-152835405D01*
X40967961Y-152516325D01*
X40862795Y-152211912D01*
X40769814Y-152037956D01*
X40505413Y-151942192D01*
X39549605Y-152898000D01*
X39190395Y-152898000D01*
X38234587Y-151942192D01*
X37970186Y-152037956D01*
X37829296Y-152327571D01*
X37747616Y-152639108D01*
X37728282Y-152960595D01*
X35971000Y-152960595D01*
X35971000Y-151762587D01*
X38414192Y-151762587D01*
X39370000Y-152718395D01*
X40325808Y-151762587D01*
X51876192Y-151762587D01*
X52832000Y-152718395D01*
X53787808Y-151762587D01*
X53692044Y-151498186D01*
X53402429Y-151357296D01*
X53090892Y-151275616D01*
X52769405Y-151256282D01*
X52450325Y-151300039D01*
X52145912Y-151405205D01*
X51971956Y-151498186D01*
X51876192Y-151762587D01*
X40325808Y-151762587D01*
X40230044Y-151498186D01*
X39940429Y-151357296D01*
X39628892Y-151275616D01*
X39307405Y-151256282D01*
X38988325Y-151300039D01*
X38683912Y-151405205D01*
X38509956Y-151498186D01*
X38414192Y-151762587D01*
X35971000Y-151762587D01*
X35971000Y-149509082D01*
X37444680Y-148035402D01*
X37438515Y-148098000D01*
X37438515Y-150098000D01*
X37456413Y-150279724D01*
X37509420Y-150454464D01*
X37595499Y-150615505D01*
X37711341Y-150756659D01*
X37852495Y-150872501D01*
X38013536Y-150958580D01*
X38188276Y-151011587D01*
X38370000Y-151029485D01*
X40370000Y-151029485D01*
X40551724Y-151011587D01*
X40726464Y-150958580D01*
X40887505Y-150872501D01*
X41028659Y-150756659D01*
X41144501Y-150615505D01*
X41230580Y-150454464D01*
X41283587Y-150279724D01*
X41301485Y-150098000D01*
X41301485Y-148098000D01*
X50900515Y-148098000D01*
X50900515Y-150098000D01*
X50918413Y-150279724D01*
X50971420Y-150454464D01*
X51057499Y-150615505D01*
X51173341Y-150756659D01*
X51314495Y-150872501D01*
X51475536Y-150958580D01*
X51650276Y-151011587D01*
X51832000Y-151029485D01*
X53832000Y-151029485D01*
X54013724Y-151011587D01*
X54188464Y-150958580D01*
X54349505Y-150872501D01*
X54490659Y-150756659D01*
X54606501Y-150615505D01*
X54692580Y-150454464D01*
X54745587Y-150279724D01*
X54763485Y-150098000D01*
X54763485Y-148098000D01*
X54745587Y-147916276D01*
X54692580Y-147741536D01*
X54606501Y-147580495D01*
X54490659Y-147439341D01*
X54349505Y-147323499D01*
X54188464Y-147237420D01*
X54013724Y-147184413D01*
X53832000Y-147166515D01*
X51832000Y-147166515D01*
X51650276Y-147184413D01*
X51475536Y-147237420D01*
X51314495Y-147323499D01*
X51173341Y-147439341D01*
X51057499Y-147580495D01*
X50971420Y-147741536D01*
X50918413Y-147916276D01*
X50900515Y-148098000D01*
X41301485Y-148098000D01*
X41283587Y-147916276D01*
X41230580Y-147741536D01*
X41144501Y-147580495D01*
X41028659Y-147439341D01*
X40887505Y-147323499D01*
X40726464Y-147237420D01*
X40551724Y-147184413D01*
X40370000Y-147166515D01*
X38370000Y-147166515D01*
X38307402Y-147172680D01*
X40583483Y-144896600D01*
X40637922Y-144851923D01*
X40682601Y-144797482D01*
X40682608Y-144797475D01*
X40816247Y-144634635D01*
X40816248Y-144634634D01*
X40948755Y-144386731D01*
X41030352Y-144117741D01*
X41051000Y-143908098D01*
X41051000Y-143908090D01*
X41057903Y-143838000D01*
X41051000Y-143767910D01*
X41051000Y-140979112D01*
X41150445Y-140857938D01*
X41320095Y-140540546D01*
X41424565Y-140196155D01*
X41451000Y-139927755D01*
X41451000Y-139065000D01*
X41899000Y-139065000D01*
X41899000Y-139965000D01*
X41953271Y-140262023D01*
X42064446Y-140542751D01*
X42228252Y-140796396D01*
X42438394Y-141013210D01*
X42686796Y-141184862D01*
X42963913Y-141304755D01*
X43069260Y-141329036D01*
X43307000Y-141208378D01*
X43307000Y-139065000D01*
X43561000Y-139065000D01*
X43561000Y-141208378D01*
X43798740Y-141329036D01*
X43904087Y-141304755D01*
X44181204Y-141184862D01*
X44429606Y-141013210D01*
X44639748Y-140796396D01*
X44803554Y-140542751D01*
X44914729Y-140262023D01*
X44969000Y-139965000D01*
X44969000Y-139065000D01*
X43561000Y-139065000D01*
X43307000Y-139065000D01*
X41899000Y-139065000D01*
X41451000Y-139065000D01*
X41451000Y-137948245D01*
X41447332Y-137911000D01*
X41899000Y-137911000D01*
X41899000Y-138811000D01*
X43307000Y-138811000D01*
X43307000Y-136667622D01*
X43561000Y-136667622D01*
X43561000Y-138811000D01*
X44969000Y-138811000D01*
X44969000Y-137911000D01*
X44914729Y-137613977D01*
X44803554Y-137333249D01*
X44639748Y-137079604D01*
X44429606Y-136862790D01*
X44181204Y-136691138D01*
X43904087Y-136571245D01*
X43798740Y-136546964D01*
X43561000Y-136667622D01*
X43307000Y-136667622D01*
X43069260Y-136546964D01*
X42963913Y-136571245D01*
X42686796Y-136691138D01*
X42438394Y-136862790D01*
X42228252Y-137079604D01*
X42064446Y-137333249D01*
X41953271Y-137613977D01*
X41899000Y-137911000D01*
X41447332Y-137911000D01*
X41424565Y-137679845D01*
X41320095Y-137335454D01*
X41150445Y-137018062D01*
X40922135Y-136739865D01*
X40643937Y-136511555D01*
X40326545Y-136341905D01*
X39982154Y-136237435D01*
X39624000Y-136202160D01*
X39265845Y-136237435D01*
X38921454Y-136341905D01*
X38604062Y-136511555D01*
X38325865Y-136739865D01*
X38097555Y-137018063D01*
X37927905Y-137335455D01*
X37823435Y-137679846D01*
X37797000Y-137948246D01*
X37797000Y-139927755D01*
X37823436Y-140196155D01*
X37927906Y-140540546D01*
X38097556Y-140857938D01*
X38197001Y-140979112D01*
X38197000Y-143246917D01*
X33584523Y-147859395D01*
X33530077Y-147904078D01*
X33485395Y-147958523D01*
X33485392Y-147958526D01*
X33384641Y-148081292D01*
X33351752Y-148121367D01*
X33219245Y-148369270D01*
X33137648Y-148638260D01*
X33117000Y-148847903D01*
X33117000Y-148847912D01*
X33110097Y-148918000D01*
X33117000Y-148988088D01*
X33117001Y-158931169D01*
X33033420Y-159087536D01*
X32980413Y-159262276D01*
X32962515Y-159444000D01*
X26606000Y-159444000D01*
X26606000Y-137138000D01*
X33982515Y-137138000D01*
X33982515Y-140738000D01*
X34000413Y-140919724D01*
X34053420Y-141094464D01*
X34139499Y-141255505D01*
X34255341Y-141396659D01*
X34396495Y-141512501D01*
X34557536Y-141598580D01*
X34732276Y-141651587D01*
X34914000Y-141669485D01*
X36714000Y-141669485D01*
X36895724Y-141651587D01*
X37070464Y-141598580D01*
X37231505Y-141512501D01*
X37372659Y-141396659D01*
X37488501Y-141255505D01*
X37574580Y-141094464D01*
X37627587Y-140919724D01*
X37645485Y-140738000D01*
X37645485Y-137138000D01*
X37627587Y-136956276D01*
X37574580Y-136781536D01*
X37488501Y-136620495D01*
X37372659Y-136479341D01*
X37231505Y-136363499D01*
X37070464Y-136277420D01*
X36895724Y-136224413D01*
X36714000Y-136206515D01*
X34914000Y-136206515D01*
X34732276Y-136224413D01*
X34557536Y-136277420D01*
X34396495Y-136363499D01*
X34255341Y-136479341D01*
X34139499Y-136620495D01*
X34053420Y-136781536D01*
X34000413Y-136956276D01*
X33982515Y-137138000D01*
X26606000Y-137138000D01*
X26606000Y-121898000D01*
X33982515Y-121898000D01*
X33982515Y-125498000D01*
X34000413Y-125679724D01*
X34053420Y-125854464D01*
X34139499Y-126015505D01*
X34255341Y-126156659D01*
X34396495Y-126272501D01*
X34557536Y-126358580D01*
X34732276Y-126411587D01*
X34914000Y-126429485D01*
X36714000Y-126429485D01*
X36895724Y-126411587D01*
X37070464Y-126358580D01*
X37231505Y-126272501D01*
X37372659Y-126156659D01*
X37488501Y-126015505D01*
X37574580Y-125854464D01*
X37627587Y-125679724D01*
X37645485Y-125498000D01*
X37645485Y-122708246D01*
X37797000Y-122708246D01*
X37797000Y-124687755D01*
X37823436Y-124956155D01*
X37927906Y-125300546D01*
X38097556Y-125617938D01*
X38325866Y-125896135D01*
X38604063Y-126124445D01*
X38921455Y-126294095D01*
X39265846Y-126398565D01*
X39421848Y-126413930D01*
X45285395Y-132277478D01*
X45330077Y-132331923D01*
X45384522Y-132376605D01*
X45384525Y-132376608D01*
X45442838Y-132424464D01*
X45547366Y-132510248D01*
X45795269Y-132642755D01*
X46064259Y-132724352D01*
X46273902Y-132745000D01*
X46273911Y-132745000D01*
X46343999Y-132751903D01*
X46414087Y-132745000D01*
X47997690Y-132745000D01*
X48116495Y-132842501D01*
X48277536Y-132928580D01*
X48452276Y-132981587D01*
X48634000Y-132999485D01*
X49634000Y-132999485D01*
X49784000Y-132984711D01*
X49934000Y-132999485D01*
X50934000Y-132999485D01*
X51115724Y-132981587D01*
X51290464Y-132928580D01*
X51451505Y-132842501D01*
X51570310Y-132745000D01*
X52632918Y-132745000D01*
X56094432Y-136206515D01*
X55234000Y-136206515D01*
X55052276Y-136224413D01*
X54877536Y-136277420D01*
X54716495Y-136363499D01*
X54575341Y-136479341D01*
X54459499Y-136620495D01*
X54373420Y-136781536D01*
X54320413Y-136956276D01*
X54302515Y-137138000D01*
X54302515Y-140738000D01*
X54320413Y-140919724D01*
X54373420Y-141094464D01*
X54459499Y-141255505D01*
X54575341Y-141396659D01*
X54716495Y-141512501D01*
X54877536Y-141598580D01*
X55052276Y-141651587D01*
X55234000Y-141669485D01*
X57034000Y-141669485D01*
X57215724Y-141651587D01*
X57390464Y-141598580D01*
X57551505Y-141512501D01*
X57692659Y-141396659D01*
X57808501Y-141255505D01*
X57894580Y-141094464D01*
X57947587Y-140919724D01*
X57965485Y-140738000D01*
X57965485Y-138077568D01*
X58117000Y-138229083D01*
X58117000Y-139927755D01*
X58143436Y-140196155D01*
X58247906Y-140540546D01*
X58417556Y-140857938D01*
X58645866Y-141136135D01*
X58924063Y-141364445D01*
X59241455Y-141534095D01*
X59585846Y-141638565D01*
X59944000Y-141673840D01*
X60302155Y-141638565D01*
X60646546Y-141534095D01*
X60963938Y-141364445D01*
X61242135Y-141136135D01*
X61470445Y-140857938D01*
X61640095Y-140540546D01*
X61744565Y-140196155D01*
X61771000Y-139927755D01*
X61771000Y-139065000D01*
X62219000Y-139065000D01*
X62219000Y-139965000D01*
X62273271Y-140262023D01*
X62384446Y-140542751D01*
X62548252Y-140796396D01*
X62758394Y-141013210D01*
X63006796Y-141184862D01*
X63283913Y-141304755D01*
X63389260Y-141329036D01*
X63627000Y-141208378D01*
X63627000Y-139065000D01*
X63881000Y-139065000D01*
X63881000Y-141208378D01*
X64118740Y-141329036D01*
X64224087Y-141304755D01*
X64501204Y-141184862D01*
X64749606Y-141013210D01*
X64959748Y-140796396D01*
X65123554Y-140542751D01*
X65234729Y-140262023D01*
X65289000Y-139965000D01*
X65289000Y-139065000D01*
X63881000Y-139065000D01*
X63627000Y-139065000D01*
X62219000Y-139065000D01*
X61771000Y-139065000D01*
X61771000Y-137948245D01*
X61767332Y-137911000D01*
X62219000Y-137911000D01*
X62219000Y-138811000D01*
X63627000Y-138811000D01*
X63627000Y-136667622D01*
X63881000Y-136667622D01*
X63881000Y-138811000D01*
X65289000Y-138811000D01*
X65289000Y-137911000D01*
X65234729Y-137613977D01*
X65123554Y-137333249D01*
X64959748Y-137079604D01*
X64749606Y-136862790D01*
X64501204Y-136691138D01*
X64224087Y-136571245D01*
X64118740Y-136546964D01*
X63881000Y-136667622D01*
X63627000Y-136667622D01*
X63389260Y-136546964D01*
X63283913Y-136571245D01*
X63006796Y-136691138D01*
X62758394Y-136862790D01*
X62548252Y-137079604D01*
X62384446Y-137333249D01*
X62273271Y-137613977D01*
X62219000Y-137911000D01*
X61767332Y-137911000D01*
X61744565Y-137679845D01*
X61640095Y-137335454D01*
X61470445Y-137018062D01*
X61242135Y-136739865D01*
X60963937Y-136511555D01*
X60646545Y-136341905D01*
X60302154Y-136237435D01*
X60146153Y-136222070D01*
X54282607Y-130358525D01*
X54237923Y-130304077D01*
X54020634Y-130125752D01*
X53772731Y-129993245D01*
X53503741Y-129911648D01*
X53294098Y-129891000D01*
X53294088Y-129891000D01*
X53224000Y-129884097D01*
X53153912Y-129891000D01*
X51570310Y-129891000D01*
X51451505Y-129793499D01*
X51290464Y-129707420D01*
X51115724Y-129654413D01*
X50934000Y-129636515D01*
X49934000Y-129636515D01*
X49784000Y-129651289D01*
X49634000Y-129636515D01*
X48634000Y-129636515D01*
X48452276Y-129654413D01*
X48277536Y-129707420D01*
X48116495Y-129793499D01*
X47997690Y-129891000D01*
X46935083Y-129891000D01*
X43111620Y-126067537D01*
X43307000Y-125968378D01*
X43307000Y-123825000D01*
X43561000Y-123825000D01*
X43561000Y-125968378D01*
X43798740Y-126089036D01*
X43904087Y-126064755D01*
X44181204Y-125944862D01*
X44429606Y-125773210D01*
X44639748Y-125556396D01*
X44803554Y-125302751D01*
X44914729Y-125022023D01*
X44969000Y-124725000D01*
X44969000Y-123825000D01*
X43561000Y-123825000D01*
X43307000Y-123825000D01*
X41899000Y-123825000D01*
X41899000Y-124725000D01*
X41928045Y-124883963D01*
X41451000Y-124406918D01*
X41451000Y-122708245D01*
X41447332Y-122671000D01*
X41899000Y-122671000D01*
X41899000Y-123571000D01*
X43307000Y-123571000D01*
X43307000Y-121427622D01*
X43561000Y-121427622D01*
X43561000Y-123571000D01*
X44969000Y-123571000D01*
X44969000Y-122671000D01*
X44914729Y-122373977D01*
X44803554Y-122093249D01*
X44639748Y-121839604D01*
X44429606Y-121622790D01*
X44181204Y-121451138D01*
X43904087Y-121331245D01*
X43798740Y-121306964D01*
X43561000Y-121427622D01*
X43307000Y-121427622D01*
X43069260Y-121306964D01*
X42963913Y-121331245D01*
X42686796Y-121451138D01*
X42438394Y-121622790D01*
X42228252Y-121839604D01*
X42064446Y-122093249D01*
X41953271Y-122373977D01*
X41899000Y-122671000D01*
X41447332Y-122671000D01*
X41424565Y-122439845D01*
X41320095Y-122095454D01*
X41150445Y-121778062D01*
X40922135Y-121499865D01*
X40643937Y-121271555D01*
X40326545Y-121101905D01*
X39982154Y-120997435D01*
X39624000Y-120962160D01*
X39265845Y-120997435D01*
X38921454Y-121101905D01*
X38604062Y-121271555D01*
X38325865Y-121499865D01*
X38097555Y-121778063D01*
X37927905Y-122095455D01*
X37823435Y-122439846D01*
X37797000Y-122708246D01*
X37645485Y-122708246D01*
X37645485Y-121898000D01*
X37627587Y-121716276D01*
X37574580Y-121541536D01*
X37488501Y-121380495D01*
X37372659Y-121239341D01*
X37231505Y-121123499D01*
X37070464Y-121037420D01*
X36895724Y-120984413D01*
X36714000Y-120966515D01*
X34914000Y-120966515D01*
X34732276Y-120984413D01*
X34557536Y-121037420D01*
X34396495Y-121123499D01*
X34255341Y-121239341D01*
X34139499Y-121380495D01*
X34053420Y-121541536D01*
X34000413Y-121716276D01*
X33982515Y-121898000D01*
X26606000Y-121898000D01*
X26606000Y-106658000D01*
X33982515Y-106658000D01*
X33982515Y-110258000D01*
X34000413Y-110439724D01*
X34053420Y-110614464D01*
X34139499Y-110775505D01*
X34255341Y-110916659D01*
X34396495Y-111032501D01*
X34557536Y-111118580D01*
X34732276Y-111171587D01*
X34914000Y-111189485D01*
X36714000Y-111189485D01*
X36895724Y-111171587D01*
X37070464Y-111118580D01*
X37231505Y-111032501D01*
X37372659Y-110916659D01*
X37488501Y-110775505D01*
X37574580Y-110614464D01*
X37627587Y-110439724D01*
X37645485Y-110258000D01*
X37645485Y-107468246D01*
X37797000Y-107468246D01*
X37797000Y-109447755D01*
X37823436Y-109716155D01*
X37927906Y-110060546D01*
X38097556Y-110377938D01*
X38325866Y-110656135D01*
X38604063Y-110884445D01*
X38921455Y-111054095D01*
X39265846Y-111158565D01*
X39421848Y-111173930D01*
X45285395Y-117037478D01*
X45330077Y-117091923D01*
X45384522Y-117136605D01*
X45384525Y-117136608D01*
X45442838Y-117184464D01*
X45547366Y-117270248D01*
X45795269Y-117402755D01*
X46064259Y-117484352D01*
X46273902Y-117505000D01*
X46273911Y-117505000D01*
X46343999Y-117511903D01*
X46414087Y-117505000D01*
X47997690Y-117505000D01*
X48116495Y-117602501D01*
X48277536Y-117688580D01*
X48452276Y-117741587D01*
X48634000Y-117759485D01*
X49634000Y-117759485D01*
X49784000Y-117744711D01*
X49934000Y-117759485D01*
X50934000Y-117759485D01*
X51115724Y-117741587D01*
X51290464Y-117688580D01*
X51451505Y-117602501D01*
X51570310Y-117505000D01*
X52632918Y-117505000D01*
X56094432Y-120966515D01*
X55234000Y-120966515D01*
X55052276Y-120984413D01*
X54877536Y-121037420D01*
X54716495Y-121123499D01*
X54575341Y-121239341D01*
X54459499Y-121380495D01*
X54373420Y-121541536D01*
X54320413Y-121716276D01*
X54302515Y-121898000D01*
X54302515Y-125498000D01*
X54320413Y-125679724D01*
X54373420Y-125854464D01*
X54459499Y-126015505D01*
X54575341Y-126156659D01*
X54716495Y-126272501D01*
X54877536Y-126358580D01*
X55052276Y-126411587D01*
X55234000Y-126429485D01*
X57034000Y-126429485D01*
X57215724Y-126411587D01*
X57390464Y-126358580D01*
X57551505Y-126272501D01*
X57692659Y-126156659D01*
X57808501Y-126015505D01*
X57894580Y-125854464D01*
X57947587Y-125679724D01*
X57965485Y-125498000D01*
X57965485Y-122837568D01*
X58117000Y-122989083D01*
X58117000Y-124687755D01*
X58143436Y-124956155D01*
X58247906Y-125300546D01*
X58417556Y-125617938D01*
X58645866Y-125896135D01*
X58924063Y-126124445D01*
X59241455Y-126294095D01*
X59585846Y-126398565D01*
X59944000Y-126433840D01*
X60302155Y-126398565D01*
X60646546Y-126294095D01*
X60963938Y-126124445D01*
X61242135Y-125896135D01*
X61470445Y-125617938D01*
X61640095Y-125300546D01*
X61744565Y-124956155D01*
X61771000Y-124687755D01*
X61771000Y-123825000D01*
X62219000Y-123825000D01*
X62219000Y-124725000D01*
X62273271Y-125022023D01*
X62384446Y-125302751D01*
X62548252Y-125556396D01*
X62758394Y-125773210D01*
X63006796Y-125944862D01*
X63283913Y-126064755D01*
X63389260Y-126089036D01*
X63627000Y-125968378D01*
X63627000Y-123825000D01*
X63881000Y-123825000D01*
X63881000Y-125968378D01*
X64118740Y-126089036D01*
X64224087Y-126064755D01*
X64501204Y-125944862D01*
X64749606Y-125773210D01*
X64959748Y-125556396D01*
X65123554Y-125302751D01*
X65234729Y-125022023D01*
X65289000Y-124725000D01*
X65289000Y-123825000D01*
X63881000Y-123825000D01*
X63627000Y-123825000D01*
X62219000Y-123825000D01*
X61771000Y-123825000D01*
X61771000Y-122708245D01*
X61767332Y-122671000D01*
X62219000Y-122671000D01*
X62219000Y-123571000D01*
X63627000Y-123571000D01*
X63627000Y-121427622D01*
X63881000Y-121427622D01*
X63881000Y-123571000D01*
X65289000Y-123571000D01*
X65289000Y-122671000D01*
X65234729Y-122373977D01*
X65123554Y-122093249D01*
X64959748Y-121839604D01*
X64749606Y-121622790D01*
X64501204Y-121451138D01*
X64224087Y-121331245D01*
X64118740Y-121306964D01*
X63881000Y-121427622D01*
X63627000Y-121427622D01*
X63389260Y-121306964D01*
X63283913Y-121331245D01*
X63006796Y-121451138D01*
X62758394Y-121622790D01*
X62548252Y-121839604D01*
X62384446Y-122093249D01*
X62273271Y-122373977D01*
X62219000Y-122671000D01*
X61767332Y-122671000D01*
X61744565Y-122439845D01*
X61640095Y-122095454D01*
X61470445Y-121778062D01*
X61242135Y-121499865D01*
X60963937Y-121271555D01*
X60646545Y-121101905D01*
X60302154Y-120997435D01*
X60146153Y-120982070D01*
X54282607Y-115118525D01*
X54237923Y-115064077D01*
X54020634Y-114885752D01*
X53772731Y-114753245D01*
X53503741Y-114671648D01*
X53294098Y-114651000D01*
X53294088Y-114651000D01*
X53224000Y-114644097D01*
X53153912Y-114651000D01*
X51570310Y-114651000D01*
X51451505Y-114553499D01*
X51290464Y-114467420D01*
X51115724Y-114414413D01*
X50934000Y-114396515D01*
X49934000Y-114396515D01*
X49784000Y-114411289D01*
X49634000Y-114396515D01*
X48634000Y-114396515D01*
X48452276Y-114414413D01*
X48277536Y-114467420D01*
X48116495Y-114553499D01*
X47997690Y-114651000D01*
X46935083Y-114651000D01*
X43111620Y-110827537D01*
X43307000Y-110728378D01*
X43307000Y-108585000D01*
X43561000Y-108585000D01*
X43561000Y-110728378D01*
X43798740Y-110849036D01*
X43904087Y-110824755D01*
X44181204Y-110704862D01*
X44429606Y-110533210D01*
X44639748Y-110316396D01*
X44803554Y-110062751D01*
X44914729Y-109782023D01*
X44969000Y-109485000D01*
X44969000Y-108585000D01*
X43561000Y-108585000D01*
X43307000Y-108585000D01*
X41899000Y-108585000D01*
X41899000Y-109485000D01*
X41928045Y-109643963D01*
X41451000Y-109166918D01*
X41451000Y-107468245D01*
X41447332Y-107431000D01*
X41899000Y-107431000D01*
X41899000Y-108331000D01*
X43307000Y-108331000D01*
X43307000Y-106187622D01*
X43561000Y-106187622D01*
X43561000Y-108331000D01*
X44969000Y-108331000D01*
X44969000Y-107431000D01*
X44914729Y-107133977D01*
X44803554Y-106853249D01*
X44639748Y-106599604D01*
X44429606Y-106382790D01*
X44181204Y-106211138D01*
X43904087Y-106091245D01*
X43798740Y-106066964D01*
X43561000Y-106187622D01*
X43307000Y-106187622D01*
X43069260Y-106066964D01*
X42963913Y-106091245D01*
X42686796Y-106211138D01*
X42438394Y-106382790D01*
X42228252Y-106599604D01*
X42064446Y-106853249D01*
X41953271Y-107133977D01*
X41899000Y-107431000D01*
X41447332Y-107431000D01*
X41424565Y-107199845D01*
X41320095Y-106855454D01*
X41150445Y-106538062D01*
X40922135Y-106259865D01*
X40643937Y-106031555D01*
X40326545Y-105861905D01*
X39982154Y-105757435D01*
X39624000Y-105722160D01*
X39265845Y-105757435D01*
X38921454Y-105861905D01*
X38604062Y-106031555D01*
X38325865Y-106259865D01*
X38097555Y-106538063D01*
X37927905Y-106855455D01*
X37823435Y-107199846D01*
X37797000Y-107468246D01*
X37645485Y-107468246D01*
X37645485Y-106658000D01*
X37627587Y-106476276D01*
X37574580Y-106301536D01*
X37488501Y-106140495D01*
X37372659Y-105999341D01*
X37231505Y-105883499D01*
X37070464Y-105797420D01*
X36895724Y-105744413D01*
X36714000Y-105726515D01*
X34914000Y-105726515D01*
X34732276Y-105744413D01*
X34557536Y-105797420D01*
X34396495Y-105883499D01*
X34255341Y-105999341D01*
X34139499Y-106140495D01*
X34053420Y-106301536D01*
X34000413Y-106476276D01*
X33982515Y-106658000D01*
X26606000Y-106658000D01*
X26606000Y-90148000D01*
X33982515Y-90148000D01*
X33982515Y-93748000D01*
X34000413Y-93929724D01*
X34053420Y-94104464D01*
X34139499Y-94265505D01*
X34255341Y-94406659D01*
X34396495Y-94522501D01*
X34557536Y-94608580D01*
X34732276Y-94661587D01*
X34914000Y-94679485D01*
X36714000Y-94679485D01*
X36895724Y-94661587D01*
X37070464Y-94608580D01*
X37231505Y-94522501D01*
X37372659Y-94406659D01*
X37488501Y-94265505D01*
X37574580Y-94104464D01*
X37627587Y-93929724D01*
X37645485Y-93748000D01*
X37645485Y-90958246D01*
X37797000Y-90958246D01*
X37797000Y-92937755D01*
X37823436Y-93206155D01*
X37927906Y-93550546D01*
X38097556Y-93867938D01*
X38325866Y-94146135D01*
X38604063Y-94374445D01*
X38921455Y-94544095D01*
X39265846Y-94648565D01*
X39421848Y-94663930D01*
X45285395Y-100527478D01*
X45330077Y-100581923D01*
X45384522Y-100626605D01*
X45384525Y-100626608D01*
X45442838Y-100674464D01*
X45547366Y-100760248D01*
X45795269Y-100892755D01*
X46064259Y-100974352D01*
X46273902Y-100995000D01*
X46273911Y-100995000D01*
X46343999Y-101001903D01*
X46414087Y-100995000D01*
X47997690Y-100995000D01*
X48116495Y-101092501D01*
X48277536Y-101178580D01*
X48452276Y-101231587D01*
X48634000Y-101249485D01*
X49634000Y-101249485D01*
X49784000Y-101234711D01*
X49934000Y-101249485D01*
X50934000Y-101249485D01*
X51115724Y-101231587D01*
X51290464Y-101178580D01*
X51451505Y-101092501D01*
X51570310Y-100995000D01*
X52512918Y-100995000D01*
X57282624Y-105764707D01*
X57215724Y-105744413D01*
X57034000Y-105726515D01*
X55234000Y-105726515D01*
X55052276Y-105744413D01*
X54877536Y-105797420D01*
X54716495Y-105883499D01*
X54575341Y-105999341D01*
X54459499Y-106140495D01*
X54373420Y-106301536D01*
X54320413Y-106476276D01*
X54302515Y-106658000D01*
X54302515Y-110258000D01*
X54320413Y-110439724D01*
X54373420Y-110614464D01*
X54459499Y-110775505D01*
X54575341Y-110916659D01*
X54716495Y-111032501D01*
X54877536Y-111118580D01*
X55052276Y-111171587D01*
X55234000Y-111189485D01*
X57034000Y-111189485D01*
X57215724Y-111171587D01*
X57390464Y-111118580D01*
X57551505Y-111032501D01*
X57692659Y-110916659D01*
X57808501Y-110775505D01*
X57894580Y-110614464D01*
X57947587Y-110439724D01*
X57965485Y-110258000D01*
X57965485Y-106658000D01*
X57947587Y-106476276D01*
X57927293Y-106409376D01*
X58291609Y-106773692D01*
X58247905Y-106855455D01*
X58143435Y-107199846D01*
X58117000Y-107468246D01*
X58117000Y-109447755D01*
X58143436Y-109716155D01*
X58247906Y-110060546D01*
X58417556Y-110377938D01*
X58645866Y-110656135D01*
X58924063Y-110884445D01*
X59241455Y-111054095D01*
X59585846Y-111158565D01*
X59944000Y-111193840D01*
X60302155Y-111158565D01*
X60646546Y-111054095D01*
X60963938Y-110884445D01*
X61242135Y-110656135D01*
X61470445Y-110377938D01*
X61640095Y-110060546D01*
X61744565Y-109716155D01*
X61771000Y-109447755D01*
X61771000Y-108585000D01*
X62219000Y-108585000D01*
X62219000Y-109485000D01*
X62273271Y-109782023D01*
X62384446Y-110062751D01*
X62548252Y-110316396D01*
X62758394Y-110533210D01*
X63006796Y-110704862D01*
X63283913Y-110824755D01*
X63389260Y-110849036D01*
X63627000Y-110728378D01*
X63627000Y-108585000D01*
X63881000Y-108585000D01*
X63881000Y-110728378D01*
X64118740Y-110849036D01*
X64224087Y-110824755D01*
X64501204Y-110704862D01*
X64749606Y-110533210D01*
X64959748Y-110316396D01*
X65123554Y-110062751D01*
X65234729Y-109782023D01*
X65289000Y-109485000D01*
X65289000Y-108585000D01*
X63881000Y-108585000D01*
X63627000Y-108585000D01*
X62219000Y-108585000D01*
X61771000Y-108585000D01*
X61771000Y-107468245D01*
X61767332Y-107431000D01*
X62219000Y-107431000D01*
X62219000Y-108331000D01*
X63627000Y-108331000D01*
X63627000Y-106187622D01*
X63881000Y-106187622D01*
X63881000Y-108331000D01*
X65289000Y-108331000D01*
X65289000Y-107431000D01*
X65234729Y-107133977D01*
X65123554Y-106853249D01*
X64959748Y-106599604D01*
X64749606Y-106382790D01*
X64501204Y-106211138D01*
X64224087Y-106091245D01*
X64118740Y-106066964D01*
X63881000Y-106187622D01*
X63627000Y-106187622D01*
X63389260Y-106066964D01*
X63283913Y-106091245D01*
X63006796Y-106211138D01*
X62758394Y-106382790D01*
X62548252Y-106599604D01*
X62384446Y-106853249D01*
X62273271Y-107133977D01*
X62219000Y-107431000D01*
X61767332Y-107431000D01*
X61744565Y-107199845D01*
X61640095Y-106855454D01*
X61470445Y-106538062D01*
X61376382Y-106423445D01*
X61377903Y-106408000D01*
X61371000Y-106337910D01*
X61371000Y-106337902D01*
X61350352Y-106128259D01*
X61268755Y-105859269D01*
X61136248Y-105611366D01*
X61103359Y-105571291D01*
X61002608Y-105448525D01*
X61002605Y-105448522D01*
X60957923Y-105394077D01*
X60903478Y-105349395D01*
X54162607Y-98608525D01*
X54117923Y-98554077D01*
X53900634Y-98375752D01*
X53652731Y-98243245D01*
X53383741Y-98161648D01*
X53174098Y-98141000D01*
X53174088Y-98141000D01*
X53104000Y-98134097D01*
X53033912Y-98141000D01*
X51570310Y-98141000D01*
X51451505Y-98043499D01*
X51290464Y-97957420D01*
X51115724Y-97904413D01*
X50934000Y-97886515D01*
X49934000Y-97886515D01*
X49784000Y-97901289D01*
X49634000Y-97886515D01*
X48634000Y-97886515D01*
X48452276Y-97904413D01*
X48277536Y-97957420D01*
X48116495Y-98043499D01*
X47997690Y-98141000D01*
X46935083Y-98141000D01*
X43111620Y-94317537D01*
X43307000Y-94218378D01*
X43307000Y-92075000D01*
X43561000Y-92075000D01*
X43561000Y-94218378D01*
X43798740Y-94339036D01*
X43904087Y-94314755D01*
X44181204Y-94194862D01*
X44429606Y-94023210D01*
X44639748Y-93806396D01*
X44803554Y-93552751D01*
X44914729Y-93272023D01*
X44969000Y-92975000D01*
X44969000Y-92075000D01*
X43561000Y-92075000D01*
X43307000Y-92075000D01*
X41899000Y-92075000D01*
X41899000Y-92975000D01*
X41928045Y-93133963D01*
X41451000Y-92656918D01*
X41451000Y-90958245D01*
X41447332Y-90921000D01*
X41899000Y-90921000D01*
X41899000Y-91821000D01*
X43307000Y-91821000D01*
X43307000Y-89677622D01*
X43561000Y-89677622D01*
X43561000Y-91821000D01*
X44969000Y-91821000D01*
X44969000Y-90921000D01*
X44914729Y-90623977D01*
X44803554Y-90343249D01*
X44639748Y-90089604D01*
X44429606Y-89872790D01*
X44181204Y-89701138D01*
X43904087Y-89581245D01*
X43798740Y-89556964D01*
X43561000Y-89677622D01*
X43307000Y-89677622D01*
X43069260Y-89556964D01*
X42963913Y-89581245D01*
X42686796Y-89701138D01*
X42438394Y-89872790D01*
X42228252Y-90089604D01*
X42064446Y-90343249D01*
X41953271Y-90623977D01*
X41899000Y-90921000D01*
X41447332Y-90921000D01*
X41424565Y-90689845D01*
X41320095Y-90345454D01*
X41150445Y-90028062D01*
X40922135Y-89749865D01*
X40643937Y-89521555D01*
X40326545Y-89351905D01*
X39982154Y-89247435D01*
X39624000Y-89212160D01*
X39265845Y-89247435D01*
X38921454Y-89351905D01*
X38604062Y-89521555D01*
X38325865Y-89749865D01*
X38097555Y-90028063D01*
X37927905Y-90345455D01*
X37823435Y-90689846D01*
X37797000Y-90958246D01*
X37645485Y-90958246D01*
X37645485Y-90148000D01*
X37627587Y-89966276D01*
X37574580Y-89791536D01*
X37488501Y-89630495D01*
X37372659Y-89489341D01*
X37231505Y-89373499D01*
X37070464Y-89287420D01*
X36895724Y-89234413D01*
X36714000Y-89216515D01*
X34914000Y-89216515D01*
X34732276Y-89234413D01*
X34557536Y-89287420D01*
X34396495Y-89373499D01*
X34255341Y-89489341D01*
X34139499Y-89630495D01*
X34053420Y-89791536D01*
X34000413Y-89966276D01*
X33982515Y-90148000D01*
X26606000Y-90148000D01*
X26606000Y-73638000D01*
X33982515Y-73638000D01*
X33982515Y-77238000D01*
X34000413Y-77419724D01*
X34053420Y-77594464D01*
X34139499Y-77755505D01*
X34255341Y-77896659D01*
X34396495Y-78012501D01*
X34557536Y-78098580D01*
X34732276Y-78151587D01*
X34914000Y-78169485D01*
X36714000Y-78169485D01*
X36895724Y-78151587D01*
X37070464Y-78098580D01*
X37231505Y-78012501D01*
X37372659Y-77896659D01*
X37488501Y-77755505D01*
X37574580Y-77594464D01*
X37627587Y-77419724D01*
X37645485Y-77238000D01*
X37645485Y-74448246D01*
X37797000Y-74448246D01*
X37797000Y-76427755D01*
X37823436Y-76696155D01*
X37927906Y-77040546D01*
X38097556Y-77357938D01*
X38325866Y-77636135D01*
X38604063Y-77864445D01*
X38921455Y-78034095D01*
X39265846Y-78138565D01*
X39421848Y-78153930D01*
X45285395Y-84017478D01*
X45330077Y-84071923D01*
X45384522Y-84116605D01*
X45384525Y-84116608D01*
X45442838Y-84164464D01*
X45547366Y-84250248D01*
X45795269Y-84382755D01*
X46064259Y-84464352D01*
X46273902Y-84485000D01*
X46273911Y-84485000D01*
X46343999Y-84491903D01*
X46414087Y-84485000D01*
X47997690Y-84485000D01*
X48116495Y-84582501D01*
X48277536Y-84668580D01*
X48452276Y-84721587D01*
X48634000Y-84739485D01*
X49634000Y-84739485D01*
X49784000Y-84724711D01*
X49934000Y-84739485D01*
X50934000Y-84739485D01*
X51115724Y-84721587D01*
X51290464Y-84668580D01*
X51451505Y-84582501D01*
X51570310Y-84485000D01*
X52512918Y-84485000D01*
X57282624Y-89254707D01*
X57215724Y-89234413D01*
X57034000Y-89216515D01*
X55234000Y-89216515D01*
X55052276Y-89234413D01*
X54877536Y-89287420D01*
X54716495Y-89373499D01*
X54575341Y-89489341D01*
X54459499Y-89630495D01*
X54373420Y-89791536D01*
X54320413Y-89966276D01*
X54302515Y-90148000D01*
X54302515Y-93748000D01*
X54320413Y-93929724D01*
X54373420Y-94104464D01*
X54459499Y-94265505D01*
X54575341Y-94406659D01*
X54716495Y-94522501D01*
X54877536Y-94608580D01*
X55052276Y-94661587D01*
X55234000Y-94679485D01*
X57034000Y-94679485D01*
X57215724Y-94661587D01*
X57390464Y-94608580D01*
X57551505Y-94522501D01*
X57692659Y-94406659D01*
X57808501Y-94265505D01*
X57894580Y-94104464D01*
X57947587Y-93929724D01*
X57965485Y-93748000D01*
X57965485Y-90148000D01*
X57947587Y-89966276D01*
X57927293Y-89899376D01*
X58291609Y-90263692D01*
X58247905Y-90345455D01*
X58143435Y-90689846D01*
X58117000Y-90958246D01*
X58117000Y-92937755D01*
X58143436Y-93206155D01*
X58247906Y-93550546D01*
X58417556Y-93867938D01*
X58645866Y-94146135D01*
X58924063Y-94374445D01*
X59241455Y-94544095D01*
X59585846Y-94648565D01*
X59944000Y-94683840D01*
X60302155Y-94648565D01*
X60646546Y-94544095D01*
X60963938Y-94374445D01*
X61242135Y-94146135D01*
X61470445Y-93867938D01*
X61640095Y-93550546D01*
X61744565Y-93206155D01*
X61771000Y-92937755D01*
X61771000Y-92075000D01*
X62219000Y-92075000D01*
X62219000Y-92975000D01*
X62273271Y-93272023D01*
X62384446Y-93552751D01*
X62548252Y-93806396D01*
X62758394Y-94023210D01*
X63006796Y-94194862D01*
X63283913Y-94314755D01*
X63389260Y-94339036D01*
X63627000Y-94218378D01*
X63627000Y-92075000D01*
X63881000Y-92075000D01*
X63881000Y-94218378D01*
X64118740Y-94339036D01*
X64224087Y-94314755D01*
X64501204Y-94194862D01*
X64749606Y-94023210D01*
X64959748Y-93806396D01*
X65123554Y-93552751D01*
X65234729Y-93272023D01*
X65289000Y-92975000D01*
X65289000Y-92075000D01*
X63881000Y-92075000D01*
X63627000Y-92075000D01*
X62219000Y-92075000D01*
X61771000Y-92075000D01*
X61771000Y-90958245D01*
X61767332Y-90921000D01*
X62219000Y-90921000D01*
X62219000Y-91821000D01*
X63627000Y-91821000D01*
X63627000Y-89677622D01*
X63881000Y-89677622D01*
X63881000Y-91821000D01*
X65289000Y-91821000D01*
X65289000Y-90921000D01*
X65234729Y-90623977D01*
X65123554Y-90343249D01*
X64959748Y-90089604D01*
X64749606Y-89872790D01*
X64501204Y-89701138D01*
X64224087Y-89581245D01*
X64118740Y-89556964D01*
X63881000Y-89677622D01*
X63627000Y-89677622D01*
X63389260Y-89556964D01*
X63283913Y-89581245D01*
X63006796Y-89701138D01*
X62758394Y-89872790D01*
X62548252Y-90089604D01*
X62384446Y-90343249D01*
X62273271Y-90623977D01*
X62219000Y-90921000D01*
X61767332Y-90921000D01*
X61744565Y-90689845D01*
X61640095Y-90345454D01*
X61470445Y-90028062D01*
X61376382Y-89913445D01*
X61377903Y-89898000D01*
X61371000Y-89827910D01*
X61371000Y-89827902D01*
X61350352Y-89618259D01*
X61268755Y-89349269D01*
X61136248Y-89101366D01*
X61103359Y-89061291D01*
X61002608Y-88938525D01*
X61002605Y-88938522D01*
X60957923Y-88884077D01*
X60903478Y-88839395D01*
X54162607Y-82098525D01*
X54117923Y-82044077D01*
X53900634Y-81865752D01*
X53652731Y-81733245D01*
X53383741Y-81651648D01*
X53174098Y-81631000D01*
X53174088Y-81631000D01*
X53104000Y-81624097D01*
X53033912Y-81631000D01*
X51570310Y-81631000D01*
X51451505Y-81533499D01*
X51290464Y-81447420D01*
X51115724Y-81394413D01*
X50934000Y-81376515D01*
X49934000Y-81376515D01*
X49784000Y-81391289D01*
X49634000Y-81376515D01*
X48634000Y-81376515D01*
X48452276Y-81394413D01*
X48277536Y-81447420D01*
X48116495Y-81533499D01*
X47997690Y-81631000D01*
X46935083Y-81631000D01*
X43111620Y-77807537D01*
X43307000Y-77708378D01*
X43307000Y-75565000D01*
X43561000Y-75565000D01*
X43561000Y-77708378D01*
X43798740Y-77829036D01*
X43904087Y-77804755D01*
X44181204Y-77684862D01*
X44429606Y-77513210D01*
X44639748Y-77296396D01*
X44803554Y-77042751D01*
X44914729Y-76762023D01*
X44969000Y-76465000D01*
X44969000Y-75565000D01*
X43561000Y-75565000D01*
X43307000Y-75565000D01*
X41899000Y-75565000D01*
X41899000Y-76465000D01*
X41928045Y-76623963D01*
X41451000Y-76146918D01*
X41451000Y-74448245D01*
X41447332Y-74411000D01*
X41899000Y-74411000D01*
X41899000Y-75311000D01*
X43307000Y-75311000D01*
X43307000Y-73167622D01*
X43561000Y-73167622D01*
X43561000Y-75311000D01*
X44969000Y-75311000D01*
X44969000Y-74411000D01*
X44914729Y-74113977D01*
X44803554Y-73833249D01*
X44639748Y-73579604D01*
X44429606Y-73362790D01*
X44181204Y-73191138D01*
X43904087Y-73071245D01*
X43798740Y-73046964D01*
X43561000Y-73167622D01*
X43307000Y-73167622D01*
X43069260Y-73046964D01*
X42963913Y-73071245D01*
X42686796Y-73191138D01*
X42438394Y-73362790D01*
X42228252Y-73579604D01*
X42064446Y-73833249D01*
X41953271Y-74113977D01*
X41899000Y-74411000D01*
X41447332Y-74411000D01*
X41424565Y-74179845D01*
X41320095Y-73835454D01*
X41150445Y-73518062D01*
X40922135Y-73239865D01*
X40643937Y-73011555D01*
X40326545Y-72841905D01*
X39982154Y-72737435D01*
X39624000Y-72702160D01*
X39265845Y-72737435D01*
X38921454Y-72841905D01*
X38604062Y-73011555D01*
X38325865Y-73239865D01*
X38097555Y-73518063D01*
X37927905Y-73835455D01*
X37823435Y-74179846D01*
X37797000Y-74448246D01*
X37645485Y-74448246D01*
X37645485Y-73638000D01*
X37627587Y-73456276D01*
X37574580Y-73281536D01*
X37488501Y-73120495D01*
X37372659Y-72979341D01*
X37231505Y-72863499D01*
X37070464Y-72777420D01*
X36895724Y-72724413D01*
X36714000Y-72706515D01*
X34914000Y-72706515D01*
X34732276Y-72724413D01*
X34557536Y-72777420D01*
X34396495Y-72863499D01*
X34255341Y-72979341D01*
X34139499Y-73120495D01*
X34053420Y-73281536D01*
X34000413Y-73456276D01*
X33982515Y-73638000D01*
X26606000Y-73638000D01*
X26606000Y-57128000D01*
X33982515Y-57128000D01*
X33982515Y-60728000D01*
X34000413Y-60909724D01*
X34053420Y-61084464D01*
X34139499Y-61245505D01*
X34255341Y-61386659D01*
X34396495Y-61502501D01*
X34557536Y-61588580D01*
X34732276Y-61641587D01*
X34914000Y-61659485D01*
X36714000Y-61659485D01*
X36895724Y-61641587D01*
X37070464Y-61588580D01*
X37231505Y-61502501D01*
X37372659Y-61386659D01*
X37488501Y-61245505D01*
X37574580Y-61084464D01*
X37627587Y-60909724D01*
X37645485Y-60728000D01*
X37645485Y-57938246D01*
X37797000Y-57938246D01*
X37797000Y-59917755D01*
X37823436Y-60186155D01*
X37927906Y-60530546D01*
X38097556Y-60847938D01*
X38325866Y-61126135D01*
X38604063Y-61354445D01*
X38921455Y-61524095D01*
X39265846Y-61628565D01*
X39421848Y-61643930D01*
X45285395Y-67507478D01*
X45330077Y-67561923D01*
X45384522Y-67606605D01*
X45384525Y-67606608D01*
X45442838Y-67654464D01*
X45547366Y-67740248D01*
X45795269Y-67872755D01*
X46064259Y-67954352D01*
X46273902Y-67975000D01*
X46273911Y-67975000D01*
X46343999Y-67981903D01*
X46414087Y-67975000D01*
X47997690Y-67975000D01*
X48116495Y-68072501D01*
X48277536Y-68158580D01*
X48452276Y-68211587D01*
X48634000Y-68229485D01*
X49634000Y-68229485D01*
X49784000Y-68214711D01*
X49934000Y-68229485D01*
X50934000Y-68229485D01*
X51115724Y-68211587D01*
X51290464Y-68158580D01*
X51451505Y-68072501D01*
X51570310Y-67975000D01*
X52512918Y-67975000D01*
X57282624Y-72744707D01*
X57215724Y-72724413D01*
X57034000Y-72706515D01*
X55234000Y-72706515D01*
X55052276Y-72724413D01*
X54877536Y-72777420D01*
X54716495Y-72863499D01*
X54575341Y-72979341D01*
X54459499Y-73120495D01*
X54373420Y-73281536D01*
X54320413Y-73456276D01*
X54302515Y-73638000D01*
X54302515Y-77238000D01*
X54320413Y-77419724D01*
X54373420Y-77594464D01*
X54459499Y-77755505D01*
X54575341Y-77896659D01*
X54716495Y-78012501D01*
X54877536Y-78098580D01*
X55052276Y-78151587D01*
X55234000Y-78169485D01*
X57034000Y-78169485D01*
X57215724Y-78151587D01*
X57390464Y-78098580D01*
X57551505Y-78012501D01*
X57692659Y-77896659D01*
X57808501Y-77755505D01*
X57894580Y-77594464D01*
X57947587Y-77419724D01*
X57965485Y-77238000D01*
X57965485Y-73638000D01*
X57947587Y-73456276D01*
X57927293Y-73389376D01*
X58291609Y-73753692D01*
X58247905Y-73835455D01*
X58143435Y-74179846D01*
X58117000Y-74448246D01*
X58117000Y-76427755D01*
X58143436Y-76696155D01*
X58247906Y-77040546D01*
X58417556Y-77357938D01*
X58645866Y-77636135D01*
X58924063Y-77864445D01*
X59241455Y-78034095D01*
X59585846Y-78138565D01*
X59944000Y-78173840D01*
X60302155Y-78138565D01*
X60646546Y-78034095D01*
X60963938Y-77864445D01*
X61242135Y-77636135D01*
X61470445Y-77357938D01*
X61640095Y-77040546D01*
X61744565Y-76696155D01*
X61771000Y-76427755D01*
X61771000Y-75565000D01*
X62219000Y-75565000D01*
X62219000Y-76465000D01*
X62273271Y-76762023D01*
X62384446Y-77042751D01*
X62548252Y-77296396D01*
X62758394Y-77513210D01*
X63006796Y-77684862D01*
X63283913Y-77804755D01*
X63389260Y-77829036D01*
X63627000Y-77708378D01*
X63627000Y-75565000D01*
X63881000Y-75565000D01*
X63881000Y-77708378D01*
X64118740Y-77829036D01*
X64224087Y-77804755D01*
X64501204Y-77684862D01*
X64749606Y-77513210D01*
X64959748Y-77296396D01*
X65123554Y-77042751D01*
X65234729Y-76762023D01*
X65289000Y-76465000D01*
X65289000Y-75565000D01*
X63881000Y-75565000D01*
X63627000Y-75565000D01*
X62219000Y-75565000D01*
X61771000Y-75565000D01*
X61771000Y-74448245D01*
X61767332Y-74411000D01*
X62219000Y-74411000D01*
X62219000Y-75311000D01*
X63627000Y-75311000D01*
X63627000Y-73167622D01*
X63881000Y-73167622D01*
X63881000Y-75311000D01*
X65289000Y-75311000D01*
X65289000Y-74411000D01*
X65234729Y-74113977D01*
X65123554Y-73833249D01*
X64959748Y-73579604D01*
X64749606Y-73362790D01*
X64501204Y-73191138D01*
X64224087Y-73071245D01*
X64118740Y-73046964D01*
X63881000Y-73167622D01*
X63627000Y-73167622D01*
X63389260Y-73046964D01*
X63283913Y-73071245D01*
X63006796Y-73191138D01*
X62758394Y-73362790D01*
X62548252Y-73579604D01*
X62384446Y-73833249D01*
X62273271Y-74113977D01*
X62219000Y-74411000D01*
X61767332Y-74411000D01*
X61744565Y-74179845D01*
X61640095Y-73835454D01*
X61470445Y-73518062D01*
X61376382Y-73403445D01*
X61377903Y-73388000D01*
X61350352Y-73108258D01*
X61268754Y-72839268D01*
X61136247Y-72591365D01*
X61002608Y-72428525D01*
X54162607Y-65588525D01*
X54117923Y-65534077D01*
X53900634Y-65355752D01*
X53652731Y-65223245D01*
X53383741Y-65141648D01*
X53174098Y-65121000D01*
X53174088Y-65121000D01*
X53104000Y-65114097D01*
X53033912Y-65121000D01*
X51570310Y-65121000D01*
X51451505Y-65023499D01*
X51290464Y-64937420D01*
X51115724Y-64884413D01*
X50934000Y-64866515D01*
X49934000Y-64866515D01*
X49784000Y-64881289D01*
X49634000Y-64866515D01*
X48634000Y-64866515D01*
X48452276Y-64884413D01*
X48277536Y-64937420D01*
X48116495Y-65023499D01*
X47997690Y-65121000D01*
X46935083Y-65121000D01*
X43111620Y-61297537D01*
X43307000Y-61198378D01*
X43307000Y-59055000D01*
X43561000Y-59055000D01*
X43561000Y-61198378D01*
X43798740Y-61319036D01*
X43904087Y-61294755D01*
X44181204Y-61174862D01*
X44429606Y-61003210D01*
X44639748Y-60786396D01*
X44803554Y-60532751D01*
X44914729Y-60252023D01*
X44969000Y-59955000D01*
X44969000Y-59055000D01*
X43561000Y-59055000D01*
X43307000Y-59055000D01*
X41899000Y-59055000D01*
X41899000Y-59955000D01*
X41928045Y-60113963D01*
X41451000Y-59636918D01*
X41451000Y-57938245D01*
X41447332Y-57901000D01*
X41899000Y-57901000D01*
X41899000Y-58801000D01*
X43307000Y-58801000D01*
X43307000Y-56657622D01*
X43561000Y-56657622D01*
X43561000Y-58801000D01*
X44969000Y-58801000D01*
X44969000Y-57901000D01*
X44914729Y-57603977D01*
X44803554Y-57323249D01*
X44639748Y-57069604D01*
X44429606Y-56852790D01*
X44181204Y-56681138D01*
X43904087Y-56561245D01*
X43798740Y-56536964D01*
X43561000Y-56657622D01*
X43307000Y-56657622D01*
X43069260Y-56536964D01*
X42963913Y-56561245D01*
X42686796Y-56681138D01*
X42438394Y-56852790D01*
X42228252Y-57069604D01*
X42064446Y-57323249D01*
X41953271Y-57603977D01*
X41899000Y-57901000D01*
X41447332Y-57901000D01*
X41424565Y-57669845D01*
X41320095Y-57325454D01*
X41150445Y-57008062D01*
X40922135Y-56729865D01*
X40643937Y-56501555D01*
X40326545Y-56331905D01*
X39982154Y-56227435D01*
X39624000Y-56192160D01*
X39265845Y-56227435D01*
X38921454Y-56331905D01*
X38604062Y-56501555D01*
X38325865Y-56729865D01*
X38097555Y-57008063D01*
X37927905Y-57325455D01*
X37823435Y-57669846D01*
X37797000Y-57938246D01*
X37645485Y-57938246D01*
X37645485Y-57128000D01*
X37627587Y-56946276D01*
X37574580Y-56771536D01*
X37488501Y-56610495D01*
X37372659Y-56469341D01*
X37231505Y-56353499D01*
X37070464Y-56267420D01*
X36895724Y-56214413D01*
X36714000Y-56196515D01*
X34914000Y-56196515D01*
X34732276Y-56214413D01*
X34557536Y-56267420D01*
X34396495Y-56353499D01*
X34255341Y-56469341D01*
X34139499Y-56610495D01*
X34053420Y-56771536D01*
X34000413Y-56946276D01*
X33982515Y-57128000D01*
X26606000Y-57128000D01*
X26606000Y-42071708D01*
X26822700Y-42594868D01*
X27274350Y-43270809D01*
X27849191Y-43845650D01*
X28525132Y-44297300D01*
X29276198Y-44608402D01*
X30073526Y-44767000D01*
X30886474Y-44767000D01*
X31683802Y-44608402D01*
X32434868Y-44297300D01*
X33110809Y-43845650D01*
X33685650Y-43270809D01*
X34137300Y-42594868D01*
X34448402Y-41843802D01*
X34503262Y-41568000D01*
X36572515Y-41568000D01*
X36572515Y-43268000D01*
X36590413Y-43449724D01*
X36643420Y-43624464D01*
X36729499Y-43785505D01*
X36845341Y-43926659D01*
X36986495Y-44042501D01*
X37147536Y-44128580D01*
X37322276Y-44181587D01*
X37504000Y-44199485D01*
X39204000Y-44199485D01*
X39385724Y-44181587D01*
X39467000Y-44156932D01*
X39467001Y-47427903D01*
X39460097Y-47498000D01*
X39467001Y-47568098D01*
X39479500Y-47695000D01*
X39487649Y-47777741D01*
X39569246Y-48046731D01*
X39701753Y-48294634D01*
X39835392Y-48457474D01*
X39835396Y-48457478D01*
X39880078Y-48511923D01*
X39934523Y-48556605D01*
X43645395Y-52267478D01*
X43690077Y-52321923D01*
X43744522Y-52366605D01*
X43744525Y-52366608D01*
X43907365Y-52500248D01*
X43989944Y-52544387D01*
X44155269Y-52632755D01*
X44303008Y-52677571D01*
X44424258Y-52714352D01*
X44448474Y-52716737D01*
X44633902Y-52735000D01*
X44633910Y-52735000D01*
X44704000Y-52741903D01*
X44774090Y-52735000D01*
X52632918Y-52735000D01*
X56094432Y-56196515D01*
X55234000Y-56196515D01*
X55052276Y-56214413D01*
X54877536Y-56267420D01*
X54716495Y-56353499D01*
X54575341Y-56469341D01*
X54459499Y-56610495D01*
X54373420Y-56771536D01*
X54320413Y-56946276D01*
X54302515Y-57128000D01*
X54302515Y-60728000D01*
X54320413Y-60909724D01*
X54373420Y-61084464D01*
X54459499Y-61245505D01*
X54575341Y-61386659D01*
X54716495Y-61502501D01*
X54877536Y-61588580D01*
X55052276Y-61641587D01*
X55234000Y-61659485D01*
X57034000Y-61659485D01*
X57215724Y-61641587D01*
X57390464Y-61588580D01*
X57551505Y-61502501D01*
X57692659Y-61386659D01*
X57808501Y-61245505D01*
X57894580Y-61084464D01*
X57947587Y-60909724D01*
X57965485Y-60728000D01*
X57965485Y-58067568D01*
X58117000Y-58219083D01*
X58117000Y-59917755D01*
X58143436Y-60186155D01*
X58247906Y-60530546D01*
X58417556Y-60847938D01*
X58645866Y-61126135D01*
X58924063Y-61354445D01*
X59241455Y-61524095D01*
X59585846Y-61628565D01*
X59944000Y-61663840D01*
X60302155Y-61628565D01*
X60646546Y-61524095D01*
X60963938Y-61354445D01*
X61242135Y-61126135D01*
X61470445Y-60847938D01*
X61640095Y-60530546D01*
X61744565Y-60186155D01*
X61771000Y-59917755D01*
X61771000Y-59055000D01*
X62219000Y-59055000D01*
X62219000Y-59955000D01*
X62273271Y-60252023D01*
X62384446Y-60532751D01*
X62548252Y-60786396D01*
X62758394Y-61003210D01*
X63006796Y-61174862D01*
X63283913Y-61294755D01*
X63389260Y-61319036D01*
X63627000Y-61198378D01*
X63627000Y-59055000D01*
X63881000Y-59055000D01*
X63881000Y-61198378D01*
X64118740Y-61319036D01*
X64224087Y-61294755D01*
X64501204Y-61174862D01*
X64749606Y-61003210D01*
X64959748Y-60786396D01*
X65123554Y-60532751D01*
X65234729Y-60252023D01*
X65289000Y-59955000D01*
X65289000Y-59055000D01*
X63881000Y-59055000D01*
X63627000Y-59055000D01*
X62219000Y-59055000D01*
X61771000Y-59055000D01*
X61771000Y-57938245D01*
X61767332Y-57901000D01*
X62219000Y-57901000D01*
X62219000Y-58801000D01*
X63627000Y-58801000D01*
X63627000Y-56657622D01*
X63881000Y-56657622D01*
X63881000Y-58801000D01*
X65289000Y-58801000D01*
X65289000Y-57901000D01*
X65234729Y-57603977D01*
X65123554Y-57323249D01*
X64959748Y-57069604D01*
X64749606Y-56852790D01*
X64501204Y-56681138D01*
X64224087Y-56561245D01*
X64118740Y-56536964D01*
X63881000Y-56657622D01*
X63627000Y-56657622D01*
X63389260Y-56536964D01*
X63283913Y-56561245D01*
X63006796Y-56681138D01*
X62758394Y-56852790D01*
X62548252Y-57069604D01*
X62384446Y-57323249D01*
X62273271Y-57603977D01*
X62219000Y-57901000D01*
X61767332Y-57901000D01*
X61744565Y-57669845D01*
X61640095Y-57325454D01*
X61470445Y-57008062D01*
X61242135Y-56729865D01*
X60963937Y-56501555D01*
X60646545Y-56331905D01*
X60302154Y-56227435D01*
X60146153Y-56212070D01*
X54282607Y-50348525D01*
X54237923Y-50294077D01*
X54020634Y-50115752D01*
X53772731Y-49983245D01*
X53503741Y-49901648D01*
X53294098Y-49881000D01*
X53294088Y-49881000D01*
X53224000Y-49874097D01*
X53153912Y-49881000D01*
X45295083Y-49881000D01*
X42321000Y-46906918D01*
X42321000Y-43480296D01*
X42359564Y-43433306D01*
X42433731Y-43515588D01*
X42667080Y-43689641D01*
X42929901Y-43814825D01*
X43077110Y-43859476D01*
X43307000Y-43738155D01*
X43307000Y-42545000D01*
X43561000Y-42545000D01*
X43561000Y-43738155D01*
X43790890Y-43859476D01*
X43938099Y-43814825D01*
X44200920Y-43689641D01*
X44434269Y-43515588D01*
X44629178Y-43299355D01*
X44778157Y-43049252D01*
X44875481Y-42774891D01*
X44754814Y-42545000D01*
X43561000Y-42545000D01*
X43307000Y-42545000D01*
X43287000Y-42545000D01*
X43287000Y-42291000D01*
X43307000Y-42291000D01*
X43307000Y-41097845D01*
X43561000Y-41097845D01*
X43561000Y-42291000D01*
X44754814Y-42291000D01*
X44875481Y-42061109D01*
X44778157Y-41786748D01*
X44629178Y-41536645D01*
X44434269Y-41320412D01*
X44200920Y-41146359D01*
X43938099Y-41021175D01*
X43790890Y-40976524D01*
X43561000Y-41097845D01*
X43307000Y-41097845D01*
X43077110Y-40976524D01*
X42929901Y-41021175D01*
X42667080Y-41146359D01*
X42433731Y-41320412D01*
X42359564Y-41402694D01*
X42156608Y-41155392D01*
X41886025Y-40933330D01*
X41577319Y-40768323D01*
X41242353Y-40666712D01*
X40981296Y-40641000D01*
X40806704Y-40641000D01*
X40545647Y-40666712D01*
X40210681Y-40768323D01*
X39901975Y-40933330D01*
X39890246Y-40942956D01*
X39862659Y-40909341D01*
X39721505Y-40793499D01*
X39560464Y-40707420D01*
X39385724Y-40654413D01*
X39204000Y-40636515D01*
X37504000Y-40636515D01*
X37322276Y-40654413D01*
X37147536Y-40707420D01*
X36986495Y-40793499D01*
X36845341Y-40909341D01*
X36729499Y-41050495D01*
X36643420Y-41211536D01*
X36590413Y-41386276D01*
X36572515Y-41568000D01*
X34503262Y-41568000D01*
X34607000Y-41046474D01*
X34607000Y-40233526D01*
X34448402Y-39436198D01*
X34137300Y-38685132D01*
X33685650Y-38009191D01*
X33110809Y-37434350D01*
X32434868Y-36982700D01*
X31683802Y-36671598D01*
X30886474Y-36513000D01*
X30073526Y-36513000D01*
X29276198Y-36671598D01*
X28525132Y-36982700D01*
X27849191Y-37434350D01*
X27274350Y-38009191D01*
X26822700Y-38685132D01*
X26606000Y-39208292D01*
X26606000Y-37384556D01*
X26640721Y-37030444D01*
X26730041Y-36734601D01*
X26875124Y-36461740D01*
X27070440Y-36222258D01*
X27308554Y-36025274D01*
X27580394Y-35878290D01*
X27875607Y-35786907D01*
X28226751Y-35750000D01*
X55157830Y-35750000D01*
X55047290Y-35773687D01*
M02*
