G04 #@! TF.GenerationSoftware,KiCad,Pcbnew,(5.1.4)-1*
G04 #@! TF.CreationDate,2020-10-19T18:16:54+02:00*
G04 #@! TF.ProjectId,distrilite,64697374-7269-46c6-9974-652e6b696361,rev?*
G04 #@! TF.SameCoordinates,Original*
G04 #@! TF.FileFunction,Soldermask,Bot*
G04 #@! TF.FilePolarity,Negative*
%FSLAX46Y46*%
G04 Gerber Fmt 4.6, Leading zero omitted, Abs format (unit mm)*
G04 Created by KiCad (PCBNEW (5.1.4)-1) date 2020-10-19 18:16:54*
%MOMM*%
%LPD*%
G04 APERTURE LIST*
%ADD10C,0.150000*%
%ADD11C,7.000000*%
%ADD12C,4.000000*%
%ADD13C,0.100000*%
G04 APERTURE END LIST*
D10*
X46228000Y-150368000D02*
X46228000Y-148336000D01*
D11*
X46230000Y-157550000D02*
X46228000Y-150368000D01*
X53240000Y-164600000D02*
X46340000Y-157750000D01*
D10*
X35814000Y-142240000D02*
X35814000Y-141986000D01*
D12*
X35814000Y-148336000D02*
X35814000Y-136144000D01*
X56134000Y-148336000D02*
X56134000Y-135890000D01*
X56134000Y-144526000D02*
X35814000Y-144526000D01*
X56134000Y-148336000D02*
X35814000Y-148336000D01*
X56134000Y-138938000D02*
X56134000Y-58928000D01*
X35814000Y-138938000D02*
X35814000Y-58928000D01*
D13*
G36*
X71754239Y-164451467D02*
G01*
X72068282Y-164513934D01*
X72659926Y-164759001D01*
X73192392Y-165114784D01*
X73645216Y-165567608D01*
X74000999Y-166100074D01*
X74246066Y-166691718D01*
X74305888Y-166992462D01*
X74371000Y-167319803D01*
X74371000Y-167960197D01*
X74308533Y-168274239D01*
X74246066Y-168588282D01*
X74000999Y-169179926D01*
X73645216Y-169712392D01*
X73192392Y-170165216D01*
X72659926Y-170520999D01*
X72068282Y-170766066D01*
X71754239Y-170828533D01*
X71440197Y-170891000D01*
X70799803Y-170891000D01*
X70485761Y-170828533D01*
X70171718Y-170766066D01*
X69580074Y-170520999D01*
X69047608Y-170165216D01*
X68594784Y-169712392D01*
X68239001Y-169179926D01*
X67993934Y-168588282D01*
X67931467Y-168274239D01*
X67869000Y-167960197D01*
X67869000Y-167319803D01*
X67934112Y-166992462D01*
X67993934Y-166691718D01*
X68239001Y-166100074D01*
X68594784Y-165567608D01*
X69047608Y-165114784D01*
X69580074Y-164759001D01*
X70171718Y-164513934D01*
X70485761Y-164451467D01*
X70799803Y-164389000D01*
X71440197Y-164389000D01*
X71754239Y-164451467D01*
X71754239Y-164451467D01*
G37*
G36*
X31114239Y-164451467D02*
G01*
X31428282Y-164513934D01*
X32019926Y-164759001D01*
X32552392Y-165114784D01*
X33005216Y-165567608D01*
X33360999Y-166100074D01*
X33606066Y-166691718D01*
X33665888Y-166992462D01*
X33731000Y-167319803D01*
X33731000Y-167960197D01*
X33668533Y-168274239D01*
X33606066Y-168588282D01*
X33360999Y-169179926D01*
X33005216Y-169712392D01*
X32552392Y-170165216D01*
X32019926Y-170520999D01*
X31428282Y-170766066D01*
X31114239Y-170828533D01*
X30800197Y-170891000D01*
X30159803Y-170891000D01*
X29845761Y-170828533D01*
X29531718Y-170766066D01*
X28940074Y-170520999D01*
X28407608Y-170165216D01*
X27954784Y-169712392D01*
X27599001Y-169179926D01*
X27353934Y-168588282D01*
X27291467Y-168274239D01*
X27229000Y-167960197D01*
X27229000Y-167319803D01*
X27294112Y-166992462D01*
X27353934Y-166691718D01*
X27599001Y-166100074D01*
X27954784Y-165567608D01*
X28407608Y-165114784D01*
X28940074Y-164759001D01*
X29531718Y-164513934D01*
X29845761Y-164451467D01*
X30159803Y-164389000D01*
X30800197Y-164389000D01*
X31114239Y-164451467D01*
X31114239Y-164451467D01*
G37*
G36*
X39509000Y-168033000D02*
G01*
X37707000Y-168033000D01*
X37707000Y-166231000D01*
X39509000Y-166231000D01*
X39509000Y-168033000D01*
X39509000Y-168033000D01*
G37*
G36*
X43798442Y-166237518D02*
G01*
X43864627Y-166244037D01*
X44034466Y-166295557D01*
X44190991Y-166379222D01*
X44226729Y-166408552D01*
X44328186Y-166491814D01*
X44411448Y-166593271D01*
X44440778Y-166629009D01*
X44524443Y-166785534D01*
X44575963Y-166955373D01*
X44593359Y-167132000D01*
X44575963Y-167308627D01*
X44524443Y-167478466D01*
X44440778Y-167634991D01*
X44434205Y-167643000D01*
X44328186Y-167772186D01*
X44226729Y-167855448D01*
X44190991Y-167884778D01*
X44034466Y-167968443D01*
X43864627Y-168019963D01*
X43798442Y-168026482D01*
X43732260Y-168033000D01*
X43643740Y-168033000D01*
X43577558Y-168026482D01*
X43511373Y-168019963D01*
X43341534Y-167968443D01*
X43185009Y-167884778D01*
X43149271Y-167855448D01*
X43047814Y-167772186D01*
X42941795Y-167643000D01*
X42935222Y-167634991D01*
X42851557Y-167478466D01*
X42800037Y-167308627D01*
X42782641Y-167132000D01*
X42800037Y-166955373D01*
X42851557Y-166785534D01*
X42935222Y-166629009D01*
X42964552Y-166593271D01*
X43047814Y-166491814D01*
X43149271Y-166408552D01*
X43185009Y-166379222D01*
X43341534Y-166295557D01*
X43511373Y-166244037D01*
X43577558Y-166237518D01*
X43643740Y-166231000D01*
X43732260Y-166231000D01*
X43798442Y-166237518D01*
X43798442Y-166237518D01*
G37*
G36*
X41258442Y-166237518D02*
G01*
X41324627Y-166244037D01*
X41494466Y-166295557D01*
X41650991Y-166379222D01*
X41686729Y-166408552D01*
X41788186Y-166491814D01*
X41871448Y-166593271D01*
X41900778Y-166629009D01*
X41984443Y-166785534D01*
X42035963Y-166955373D01*
X42053359Y-167132000D01*
X42035963Y-167308627D01*
X41984443Y-167478466D01*
X41900778Y-167634991D01*
X41894205Y-167643000D01*
X41788186Y-167772186D01*
X41686729Y-167855448D01*
X41650991Y-167884778D01*
X41494466Y-167968443D01*
X41324627Y-168019963D01*
X41258442Y-168026482D01*
X41192260Y-168033000D01*
X41103740Y-168033000D01*
X41037558Y-168026482D01*
X40971373Y-168019963D01*
X40801534Y-167968443D01*
X40645009Y-167884778D01*
X40609271Y-167855448D01*
X40507814Y-167772186D01*
X40401795Y-167643000D01*
X40395222Y-167634991D01*
X40311557Y-167478466D01*
X40260037Y-167308627D01*
X40242641Y-167132000D01*
X40260037Y-166955373D01*
X40311557Y-166785534D01*
X40395222Y-166629009D01*
X40424552Y-166593271D01*
X40507814Y-166491814D01*
X40609271Y-166408552D01*
X40645009Y-166379222D01*
X40801534Y-166295557D01*
X40971373Y-166244037D01*
X41037558Y-166237518D01*
X41103740Y-166231000D01*
X41192260Y-166231000D01*
X41258442Y-166237518D01*
X41258442Y-166237518D01*
G37*
G36*
X54141943Y-161658248D02*
G01*
X54697189Y-161888238D01*
X54697190Y-161888239D01*
X55196899Y-162222134D01*
X55621866Y-162647101D01*
X55621867Y-162647103D01*
X55955762Y-163146811D01*
X56185752Y-163702057D01*
X56303000Y-164291501D01*
X56303000Y-164892499D01*
X56185752Y-165481943D01*
X55955762Y-166037189D01*
X55955761Y-166037190D01*
X55621866Y-166536899D01*
X55196899Y-166961866D01*
X54945347Y-167129948D01*
X54697189Y-167295762D01*
X54141943Y-167525752D01*
X53552499Y-167643000D01*
X52951501Y-167643000D01*
X52362057Y-167525752D01*
X51806811Y-167295762D01*
X51558653Y-167129948D01*
X51307101Y-166961866D01*
X50882134Y-166536899D01*
X50548239Y-166037190D01*
X50548238Y-166037189D01*
X50318248Y-165481943D01*
X50201000Y-164892499D01*
X50201000Y-164291501D01*
X50318248Y-163702057D01*
X50548238Y-163146811D01*
X50882133Y-162647103D01*
X50882134Y-162647101D01*
X51307101Y-162222134D01*
X51806810Y-161888239D01*
X51806811Y-161888238D01*
X52362057Y-161658248D01*
X52951501Y-161541000D01*
X53552499Y-161541000D01*
X54141943Y-161658248D01*
X54141943Y-161658248D01*
G37*
G36*
X62325297Y-161569704D02*
G01*
X62599637Y-161652924D01*
X62852462Y-161788062D01*
X63074070Y-161969930D01*
X63255938Y-162191538D01*
X63391076Y-162444363D01*
X63474296Y-162718703D01*
X63503000Y-163010140D01*
X63503000Y-166173860D01*
X63474296Y-166465297D01*
X63391076Y-166739637D01*
X63255938Y-166992462D01*
X63074070Y-167214070D01*
X62852462Y-167395938D01*
X62599637Y-167531076D01*
X62325297Y-167614296D01*
X62033860Y-167643000D01*
X58870140Y-167643000D01*
X58578703Y-167614296D01*
X58304363Y-167531076D01*
X58051538Y-167395938D01*
X57829930Y-167214070D01*
X57648062Y-166992462D01*
X57512924Y-166739637D01*
X57429704Y-166465297D01*
X57401000Y-166173860D01*
X57401000Y-163010140D01*
X57429704Y-162718703D01*
X57512924Y-162444363D01*
X57648062Y-162191538D01*
X57829930Y-161969930D01*
X58051538Y-161788062D01*
X58304363Y-161652924D01*
X58578703Y-161569704D01*
X58870140Y-161541000D01*
X62033860Y-161541000D01*
X62325297Y-161569704D01*
X62325297Y-161569704D01*
G37*
G36*
X39676564Y-151887389D02*
G01*
X39867833Y-151966615D01*
X39867835Y-151966616D01*
X40039973Y-152081635D01*
X40186365Y-152228027D01*
X40301385Y-152400167D01*
X40380611Y-152591436D01*
X40421000Y-152794484D01*
X40421000Y-153001516D01*
X40380611Y-153204564D01*
X40301385Y-153395833D01*
X40301384Y-153395835D01*
X40186365Y-153567973D01*
X40039973Y-153714365D01*
X39867835Y-153829384D01*
X39867834Y-153829385D01*
X39867833Y-153829385D01*
X39676564Y-153908611D01*
X39473516Y-153949000D01*
X39266484Y-153949000D01*
X39063436Y-153908611D01*
X38872167Y-153829385D01*
X38872166Y-153829385D01*
X38872165Y-153829384D01*
X38700027Y-153714365D01*
X38553635Y-153567973D01*
X38438616Y-153395835D01*
X38438615Y-153395833D01*
X38359389Y-153204564D01*
X38319000Y-153001516D01*
X38319000Y-152794484D01*
X38359389Y-152591436D01*
X38438615Y-152400167D01*
X38553635Y-152228027D01*
X38700027Y-152081635D01*
X38872165Y-151966616D01*
X38872167Y-151966615D01*
X39063436Y-151887389D01*
X39266484Y-151847000D01*
X39473516Y-151847000D01*
X39676564Y-151887389D01*
X39676564Y-151887389D01*
G37*
G36*
X53138564Y-151887389D02*
G01*
X53329833Y-151966615D01*
X53329835Y-151966616D01*
X53501973Y-152081635D01*
X53648365Y-152228027D01*
X53763385Y-152400167D01*
X53842611Y-152591436D01*
X53883000Y-152794484D01*
X53883000Y-153001516D01*
X53842611Y-153204564D01*
X53763385Y-153395833D01*
X53763384Y-153395835D01*
X53648365Y-153567973D01*
X53501973Y-153714365D01*
X53329835Y-153829384D01*
X53329834Y-153829385D01*
X53329833Y-153829385D01*
X53138564Y-153908611D01*
X52935516Y-153949000D01*
X52728484Y-153949000D01*
X52525436Y-153908611D01*
X52334167Y-153829385D01*
X52334166Y-153829385D01*
X52334165Y-153829384D01*
X52162027Y-153714365D01*
X52015635Y-153567973D01*
X51900616Y-153395835D01*
X51900615Y-153395833D01*
X51821389Y-153204564D01*
X51781000Y-153001516D01*
X51781000Y-152794484D01*
X51821389Y-152591436D01*
X51900615Y-152400167D01*
X52015635Y-152228027D01*
X52162027Y-152081635D01*
X52334165Y-151966616D01*
X52334167Y-151966615D01*
X52525436Y-151887389D01*
X52728484Y-151847000D01*
X52935516Y-151847000D01*
X53138564Y-151887389D01*
X53138564Y-151887389D01*
G37*
G36*
X53883000Y-150149000D02*
G01*
X51781000Y-150149000D01*
X51781000Y-148047000D01*
X53883000Y-148047000D01*
X53883000Y-150149000D01*
X53883000Y-150149000D01*
G37*
G36*
X40421000Y-150149000D02*
G01*
X38319000Y-150149000D01*
X38319000Y-148047000D01*
X40421000Y-148047000D01*
X40421000Y-150149000D01*
X40421000Y-150149000D01*
G37*
G36*
X39810424Y-137100760D02*
G01*
X39810427Y-137100761D01*
X39810428Y-137100761D01*
X39989692Y-137155140D01*
X39989695Y-137155142D01*
X39989696Y-137155142D01*
X40154903Y-137243446D01*
X40299712Y-137362288D01*
X40418554Y-137507097D01*
X40506858Y-137672303D01*
X40506860Y-137672307D01*
X40506860Y-137672308D01*
X40561240Y-137851575D01*
X40575000Y-137991282D01*
X40575000Y-139884718D01*
X40561240Y-140024425D01*
X40561239Y-140024428D01*
X40561239Y-140024429D01*
X40506860Y-140203693D01*
X40506858Y-140203696D01*
X40506858Y-140203697D01*
X40418554Y-140368903D01*
X40299712Y-140513712D01*
X40154903Y-140632554D01*
X39989697Y-140720858D01*
X39989693Y-140720860D01*
X39810429Y-140775239D01*
X39810428Y-140775239D01*
X39810425Y-140775240D01*
X39624000Y-140793601D01*
X39437576Y-140775240D01*
X39437573Y-140775239D01*
X39437572Y-140775239D01*
X39258308Y-140720860D01*
X39258304Y-140720858D01*
X39093098Y-140632554D01*
X38948289Y-140513712D01*
X38829447Y-140368903D01*
X38741143Y-140203697D01*
X38741143Y-140203696D01*
X38741141Y-140203693D01*
X38686762Y-140024429D01*
X38686762Y-140024428D01*
X38686761Y-140024425D01*
X38673000Y-139884717D01*
X38673000Y-137991283D01*
X38686760Y-137851576D01*
X38686761Y-137851572D01*
X38741140Y-137672308D01*
X38741143Y-137672303D01*
X38829446Y-137507097D01*
X38948288Y-137362288D01*
X39093097Y-137243446D01*
X39258303Y-137155142D01*
X39258304Y-137155142D01*
X39258307Y-137155140D01*
X39437571Y-137100761D01*
X39437572Y-137100761D01*
X39437575Y-137100760D01*
X39624000Y-137082399D01*
X39810424Y-137100760D01*
X39810424Y-137100760D01*
G37*
G36*
X60130424Y-137100760D02*
G01*
X60130427Y-137100761D01*
X60130428Y-137100761D01*
X60309692Y-137155140D01*
X60309695Y-137155142D01*
X60309696Y-137155142D01*
X60474903Y-137243446D01*
X60619712Y-137362288D01*
X60738554Y-137507097D01*
X60826858Y-137672303D01*
X60826860Y-137672307D01*
X60826860Y-137672308D01*
X60881240Y-137851575D01*
X60895000Y-137991282D01*
X60895000Y-139884718D01*
X60881240Y-140024425D01*
X60881239Y-140024428D01*
X60881239Y-140024429D01*
X60826860Y-140203693D01*
X60826858Y-140203696D01*
X60826858Y-140203697D01*
X60738554Y-140368903D01*
X60619712Y-140513712D01*
X60474903Y-140632554D01*
X60309697Y-140720858D01*
X60309693Y-140720860D01*
X60130429Y-140775239D01*
X60130428Y-140775239D01*
X60130425Y-140775240D01*
X59944000Y-140793601D01*
X59757576Y-140775240D01*
X59757573Y-140775239D01*
X59757572Y-140775239D01*
X59578308Y-140720860D01*
X59578304Y-140720858D01*
X59413098Y-140632554D01*
X59268289Y-140513712D01*
X59149447Y-140368903D01*
X59061143Y-140203697D01*
X59061143Y-140203696D01*
X59061141Y-140203693D01*
X59006762Y-140024429D01*
X59006762Y-140024428D01*
X59006761Y-140024425D01*
X58993000Y-139884717D01*
X58993000Y-137991283D01*
X59006760Y-137851576D01*
X59006761Y-137851572D01*
X59061140Y-137672308D01*
X59061143Y-137672303D01*
X59149446Y-137507097D01*
X59268288Y-137362288D01*
X59413097Y-137243446D01*
X59578303Y-137155142D01*
X59578304Y-137155142D01*
X59578307Y-137155140D01*
X59757571Y-137100761D01*
X59757572Y-137100761D01*
X59757575Y-137100760D01*
X59944000Y-137082399D01*
X60130424Y-137100760D01*
X60130424Y-137100760D01*
G37*
G36*
X63940424Y-137100760D02*
G01*
X63940427Y-137100761D01*
X63940428Y-137100761D01*
X64119692Y-137155140D01*
X64119695Y-137155142D01*
X64119696Y-137155142D01*
X64284903Y-137243446D01*
X64429712Y-137362288D01*
X64548554Y-137507097D01*
X64636858Y-137672303D01*
X64636860Y-137672307D01*
X64636860Y-137672308D01*
X64691240Y-137851575D01*
X64705000Y-137991282D01*
X64705000Y-139884718D01*
X64691240Y-140024425D01*
X64691239Y-140024428D01*
X64691239Y-140024429D01*
X64636860Y-140203693D01*
X64636858Y-140203696D01*
X64636858Y-140203697D01*
X64548554Y-140368903D01*
X64429712Y-140513712D01*
X64284903Y-140632554D01*
X64119697Y-140720858D01*
X64119693Y-140720860D01*
X63940429Y-140775239D01*
X63940428Y-140775239D01*
X63940425Y-140775240D01*
X63754000Y-140793601D01*
X63567576Y-140775240D01*
X63567573Y-140775239D01*
X63567572Y-140775239D01*
X63388308Y-140720860D01*
X63388304Y-140720858D01*
X63223098Y-140632554D01*
X63078289Y-140513712D01*
X62959447Y-140368903D01*
X62871143Y-140203697D01*
X62871143Y-140203696D01*
X62871141Y-140203693D01*
X62816762Y-140024429D01*
X62816762Y-140024428D01*
X62816761Y-140024425D01*
X62803000Y-139884717D01*
X62803000Y-137991283D01*
X62816760Y-137851576D01*
X62816761Y-137851572D01*
X62871140Y-137672308D01*
X62871143Y-137672303D01*
X62959446Y-137507097D01*
X63078288Y-137362288D01*
X63223097Y-137243446D01*
X63388303Y-137155142D01*
X63388304Y-137155142D01*
X63388307Y-137155140D01*
X63567571Y-137100761D01*
X63567572Y-137100761D01*
X63567575Y-137100760D01*
X63754000Y-137082399D01*
X63940424Y-137100760D01*
X63940424Y-137100760D01*
G37*
G36*
X43620424Y-137100760D02*
G01*
X43620427Y-137100761D01*
X43620428Y-137100761D01*
X43799692Y-137155140D01*
X43799695Y-137155142D01*
X43799696Y-137155142D01*
X43964903Y-137243446D01*
X44109712Y-137362288D01*
X44228554Y-137507097D01*
X44316858Y-137672303D01*
X44316860Y-137672307D01*
X44316860Y-137672308D01*
X44371240Y-137851575D01*
X44385000Y-137991282D01*
X44385000Y-139884718D01*
X44371240Y-140024425D01*
X44371239Y-140024428D01*
X44371239Y-140024429D01*
X44316860Y-140203693D01*
X44316858Y-140203696D01*
X44316858Y-140203697D01*
X44228554Y-140368903D01*
X44109712Y-140513712D01*
X43964903Y-140632554D01*
X43799697Y-140720858D01*
X43799693Y-140720860D01*
X43620429Y-140775239D01*
X43620428Y-140775239D01*
X43620425Y-140775240D01*
X43434000Y-140793601D01*
X43247576Y-140775240D01*
X43247573Y-140775239D01*
X43247572Y-140775239D01*
X43068308Y-140720860D01*
X43068304Y-140720858D01*
X42903098Y-140632554D01*
X42758289Y-140513712D01*
X42639447Y-140368903D01*
X42551143Y-140203697D01*
X42551143Y-140203696D01*
X42551141Y-140203693D01*
X42496762Y-140024429D01*
X42496762Y-140024428D01*
X42496761Y-140024425D01*
X42483000Y-139884717D01*
X42483000Y-137991283D01*
X42496760Y-137851576D01*
X42496761Y-137851572D01*
X42551140Y-137672308D01*
X42551143Y-137672303D01*
X42639446Y-137507097D01*
X42758288Y-137362288D01*
X42903097Y-137243446D01*
X43068303Y-137155142D01*
X43068304Y-137155142D01*
X43068307Y-137155140D01*
X43247571Y-137100761D01*
X43247572Y-137100761D01*
X43247575Y-137100760D01*
X43434000Y-137082399D01*
X43620424Y-137100760D01*
X43620424Y-137100760D01*
G37*
G36*
X36765000Y-140789000D02*
G01*
X34863000Y-140789000D01*
X34863000Y-137087000D01*
X36765000Y-137087000D01*
X36765000Y-140789000D01*
X36765000Y-140789000D01*
G37*
G36*
X57085000Y-140789000D02*
G01*
X55183000Y-140789000D01*
X55183000Y-137087000D01*
X57085000Y-137087000D01*
X57085000Y-140789000D01*
X57085000Y-140789000D01*
G37*
G36*
X39810424Y-121860760D02*
G01*
X39810427Y-121860761D01*
X39810428Y-121860761D01*
X39989692Y-121915140D01*
X39989695Y-121915142D01*
X39989696Y-121915142D01*
X40154903Y-122003446D01*
X40299712Y-122122288D01*
X40418554Y-122267097D01*
X40506858Y-122432303D01*
X40506860Y-122432307D01*
X40506860Y-122432308D01*
X40561240Y-122611575D01*
X40575000Y-122751282D01*
X40575000Y-124644718D01*
X40561240Y-124784425D01*
X40561239Y-124784428D01*
X40561239Y-124784429D01*
X40506860Y-124963693D01*
X40506858Y-124963696D01*
X40506858Y-124963697D01*
X40418554Y-125128903D01*
X40299712Y-125273712D01*
X40154903Y-125392554D01*
X39989697Y-125480858D01*
X39989693Y-125480860D01*
X39810429Y-125535239D01*
X39810428Y-125535239D01*
X39810425Y-125535240D01*
X39624000Y-125553601D01*
X39437576Y-125535240D01*
X39437573Y-125535239D01*
X39437572Y-125535239D01*
X39258308Y-125480860D01*
X39258304Y-125480858D01*
X39093098Y-125392554D01*
X38948289Y-125273712D01*
X38829447Y-125128903D01*
X38741143Y-124963697D01*
X38741143Y-124963696D01*
X38741141Y-124963693D01*
X38686762Y-124784429D01*
X38686762Y-124784428D01*
X38686761Y-124784425D01*
X38673000Y-124644717D01*
X38673000Y-122751283D01*
X38686760Y-122611576D01*
X38686761Y-122611572D01*
X38741140Y-122432308D01*
X38741143Y-122432303D01*
X38829446Y-122267097D01*
X38948288Y-122122288D01*
X39093097Y-122003446D01*
X39258303Y-121915142D01*
X39258304Y-121915142D01*
X39258307Y-121915140D01*
X39437571Y-121860761D01*
X39437572Y-121860761D01*
X39437575Y-121860760D01*
X39624000Y-121842399D01*
X39810424Y-121860760D01*
X39810424Y-121860760D01*
G37*
G36*
X43620424Y-121860760D02*
G01*
X43620427Y-121860761D01*
X43620428Y-121860761D01*
X43799692Y-121915140D01*
X43799695Y-121915142D01*
X43799696Y-121915142D01*
X43964903Y-122003446D01*
X44109712Y-122122288D01*
X44228554Y-122267097D01*
X44316858Y-122432303D01*
X44316860Y-122432307D01*
X44316860Y-122432308D01*
X44371240Y-122611575D01*
X44385000Y-122751282D01*
X44385000Y-124644718D01*
X44371240Y-124784425D01*
X44371239Y-124784428D01*
X44371239Y-124784429D01*
X44316860Y-124963693D01*
X44316858Y-124963696D01*
X44316858Y-124963697D01*
X44228554Y-125128903D01*
X44109712Y-125273712D01*
X43964903Y-125392554D01*
X43799697Y-125480858D01*
X43799693Y-125480860D01*
X43620429Y-125535239D01*
X43620428Y-125535239D01*
X43620425Y-125535240D01*
X43434000Y-125553601D01*
X43247576Y-125535240D01*
X43247573Y-125535239D01*
X43247572Y-125535239D01*
X43068308Y-125480860D01*
X43068304Y-125480858D01*
X42903098Y-125392554D01*
X42758289Y-125273712D01*
X42639447Y-125128903D01*
X42551143Y-124963697D01*
X42551143Y-124963696D01*
X42551141Y-124963693D01*
X42496762Y-124784429D01*
X42496762Y-124784428D01*
X42496761Y-124784425D01*
X42483000Y-124644717D01*
X42483000Y-122751283D01*
X42496760Y-122611576D01*
X42496761Y-122611572D01*
X42551140Y-122432308D01*
X42551143Y-122432303D01*
X42639446Y-122267097D01*
X42758288Y-122122288D01*
X42903097Y-122003446D01*
X43068303Y-121915142D01*
X43068304Y-121915142D01*
X43068307Y-121915140D01*
X43247571Y-121860761D01*
X43247572Y-121860761D01*
X43247575Y-121860760D01*
X43434000Y-121842399D01*
X43620424Y-121860760D01*
X43620424Y-121860760D01*
G37*
G36*
X60130424Y-121860760D02*
G01*
X60130427Y-121860761D01*
X60130428Y-121860761D01*
X60309692Y-121915140D01*
X60309695Y-121915142D01*
X60309696Y-121915142D01*
X60474903Y-122003446D01*
X60619712Y-122122288D01*
X60738554Y-122267097D01*
X60826858Y-122432303D01*
X60826860Y-122432307D01*
X60826860Y-122432308D01*
X60881240Y-122611575D01*
X60895000Y-122751282D01*
X60895000Y-124644718D01*
X60881240Y-124784425D01*
X60881239Y-124784428D01*
X60881239Y-124784429D01*
X60826860Y-124963693D01*
X60826858Y-124963696D01*
X60826858Y-124963697D01*
X60738554Y-125128903D01*
X60619712Y-125273712D01*
X60474903Y-125392554D01*
X60309697Y-125480858D01*
X60309693Y-125480860D01*
X60130429Y-125535239D01*
X60130428Y-125535239D01*
X60130425Y-125535240D01*
X59944000Y-125553601D01*
X59757576Y-125535240D01*
X59757573Y-125535239D01*
X59757572Y-125535239D01*
X59578308Y-125480860D01*
X59578304Y-125480858D01*
X59413098Y-125392554D01*
X59268289Y-125273712D01*
X59149447Y-125128903D01*
X59061143Y-124963697D01*
X59061143Y-124963696D01*
X59061141Y-124963693D01*
X59006762Y-124784429D01*
X59006762Y-124784428D01*
X59006761Y-124784425D01*
X58993000Y-124644717D01*
X58993000Y-122751283D01*
X59006760Y-122611576D01*
X59006761Y-122611572D01*
X59061140Y-122432308D01*
X59061143Y-122432303D01*
X59149446Y-122267097D01*
X59268288Y-122122288D01*
X59413097Y-122003446D01*
X59578303Y-121915142D01*
X59578304Y-121915142D01*
X59578307Y-121915140D01*
X59757571Y-121860761D01*
X59757572Y-121860761D01*
X59757575Y-121860760D01*
X59944000Y-121842399D01*
X60130424Y-121860760D01*
X60130424Y-121860760D01*
G37*
G36*
X63940424Y-121860760D02*
G01*
X63940427Y-121860761D01*
X63940428Y-121860761D01*
X64119692Y-121915140D01*
X64119695Y-121915142D01*
X64119696Y-121915142D01*
X64284903Y-122003446D01*
X64429712Y-122122288D01*
X64548554Y-122267097D01*
X64636858Y-122432303D01*
X64636860Y-122432307D01*
X64636860Y-122432308D01*
X64691240Y-122611575D01*
X64705000Y-122751282D01*
X64705000Y-124644718D01*
X64691240Y-124784425D01*
X64691239Y-124784428D01*
X64691239Y-124784429D01*
X64636860Y-124963693D01*
X64636858Y-124963696D01*
X64636858Y-124963697D01*
X64548554Y-125128903D01*
X64429712Y-125273712D01*
X64284903Y-125392554D01*
X64119697Y-125480858D01*
X64119693Y-125480860D01*
X63940429Y-125535239D01*
X63940428Y-125535239D01*
X63940425Y-125535240D01*
X63754000Y-125553601D01*
X63567576Y-125535240D01*
X63567573Y-125535239D01*
X63567572Y-125535239D01*
X63388308Y-125480860D01*
X63388304Y-125480858D01*
X63223098Y-125392554D01*
X63078289Y-125273712D01*
X62959447Y-125128903D01*
X62871143Y-124963697D01*
X62871143Y-124963696D01*
X62871141Y-124963693D01*
X62816762Y-124784429D01*
X62816762Y-124784428D01*
X62816761Y-124784425D01*
X62803000Y-124644717D01*
X62803000Y-122751283D01*
X62816760Y-122611576D01*
X62816761Y-122611572D01*
X62871140Y-122432308D01*
X62871143Y-122432303D01*
X62959446Y-122267097D01*
X63078288Y-122122288D01*
X63223097Y-122003446D01*
X63388303Y-121915142D01*
X63388304Y-121915142D01*
X63388307Y-121915140D01*
X63567571Y-121860761D01*
X63567572Y-121860761D01*
X63567575Y-121860760D01*
X63754000Y-121842399D01*
X63940424Y-121860760D01*
X63940424Y-121860760D01*
G37*
G36*
X36765000Y-125549000D02*
G01*
X34863000Y-125549000D01*
X34863000Y-121847000D01*
X36765000Y-121847000D01*
X36765000Y-125549000D01*
X36765000Y-125549000D01*
G37*
G36*
X57085000Y-125549000D02*
G01*
X55183000Y-125549000D01*
X55183000Y-121847000D01*
X57085000Y-121847000D01*
X57085000Y-125549000D01*
X57085000Y-125549000D01*
G37*
G36*
X43620424Y-106620760D02*
G01*
X43620427Y-106620761D01*
X43620428Y-106620761D01*
X43799692Y-106675140D01*
X43799695Y-106675142D01*
X43799696Y-106675142D01*
X43964903Y-106763446D01*
X44109712Y-106882288D01*
X44228554Y-107027097D01*
X44316858Y-107192303D01*
X44316860Y-107192307D01*
X44316860Y-107192308D01*
X44371240Y-107371575D01*
X44385000Y-107511282D01*
X44385000Y-109404718D01*
X44371240Y-109544425D01*
X44371239Y-109544428D01*
X44371239Y-109544429D01*
X44316860Y-109723693D01*
X44316858Y-109723696D01*
X44316858Y-109723697D01*
X44228554Y-109888903D01*
X44109712Y-110033712D01*
X43964903Y-110152554D01*
X43799697Y-110240858D01*
X43799693Y-110240860D01*
X43620429Y-110295239D01*
X43620428Y-110295239D01*
X43620425Y-110295240D01*
X43434000Y-110313601D01*
X43247576Y-110295240D01*
X43247573Y-110295239D01*
X43247572Y-110295239D01*
X43068308Y-110240860D01*
X43068304Y-110240858D01*
X42903098Y-110152554D01*
X42758289Y-110033712D01*
X42639447Y-109888903D01*
X42551143Y-109723697D01*
X42551143Y-109723696D01*
X42551141Y-109723693D01*
X42496762Y-109544429D01*
X42496762Y-109544428D01*
X42496761Y-109544425D01*
X42483000Y-109404717D01*
X42483000Y-107511283D01*
X42496760Y-107371576D01*
X42496761Y-107371572D01*
X42551140Y-107192308D01*
X42551143Y-107192303D01*
X42639446Y-107027097D01*
X42758288Y-106882288D01*
X42903097Y-106763446D01*
X43068303Y-106675142D01*
X43068304Y-106675142D01*
X43068307Y-106675140D01*
X43247571Y-106620761D01*
X43247572Y-106620761D01*
X43247575Y-106620760D01*
X43434000Y-106602399D01*
X43620424Y-106620760D01*
X43620424Y-106620760D01*
G37*
G36*
X39810424Y-106620760D02*
G01*
X39810427Y-106620761D01*
X39810428Y-106620761D01*
X39989692Y-106675140D01*
X39989695Y-106675142D01*
X39989696Y-106675142D01*
X40154903Y-106763446D01*
X40299712Y-106882288D01*
X40418554Y-107027097D01*
X40506858Y-107192303D01*
X40506860Y-107192307D01*
X40506860Y-107192308D01*
X40561240Y-107371575D01*
X40575000Y-107511282D01*
X40575000Y-109404718D01*
X40561240Y-109544425D01*
X40561239Y-109544428D01*
X40561239Y-109544429D01*
X40506860Y-109723693D01*
X40506858Y-109723696D01*
X40506858Y-109723697D01*
X40418554Y-109888903D01*
X40299712Y-110033712D01*
X40154903Y-110152554D01*
X39989697Y-110240858D01*
X39989693Y-110240860D01*
X39810429Y-110295239D01*
X39810428Y-110295239D01*
X39810425Y-110295240D01*
X39624000Y-110313601D01*
X39437576Y-110295240D01*
X39437573Y-110295239D01*
X39437572Y-110295239D01*
X39258308Y-110240860D01*
X39258304Y-110240858D01*
X39093098Y-110152554D01*
X38948289Y-110033712D01*
X38829447Y-109888903D01*
X38741143Y-109723697D01*
X38741143Y-109723696D01*
X38741141Y-109723693D01*
X38686762Y-109544429D01*
X38686762Y-109544428D01*
X38686761Y-109544425D01*
X38673000Y-109404717D01*
X38673000Y-107511283D01*
X38686760Y-107371576D01*
X38686761Y-107371572D01*
X38741140Y-107192308D01*
X38741143Y-107192303D01*
X38829446Y-107027097D01*
X38948288Y-106882288D01*
X39093097Y-106763446D01*
X39258303Y-106675142D01*
X39258304Y-106675142D01*
X39258307Y-106675140D01*
X39437571Y-106620761D01*
X39437572Y-106620761D01*
X39437575Y-106620760D01*
X39624000Y-106602399D01*
X39810424Y-106620760D01*
X39810424Y-106620760D01*
G37*
G36*
X63940424Y-106620760D02*
G01*
X63940427Y-106620761D01*
X63940428Y-106620761D01*
X64119692Y-106675140D01*
X64119695Y-106675142D01*
X64119696Y-106675142D01*
X64284903Y-106763446D01*
X64429712Y-106882288D01*
X64548554Y-107027097D01*
X64636858Y-107192303D01*
X64636860Y-107192307D01*
X64636860Y-107192308D01*
X64691240Y-107371575D01*
X64705000Y-107511282D01*
X64705000Y-109404718D01*
X64691240Y-109544425D01*
X64691239Y-109544428D01*
X64691239Y-109544429D01*
X64636860Y-109723693D01*
X64636858Y-109723696D01*
X64636858Y-109723697D01*
X64548554Y-109888903D01*
X64429712Y-110033712D01*
X64284903Y-110152554D01*
X64119697Y-110240858D01*
X64119693Y-110240860D01*
X63940429Y-110295239D01*
X63940428Y-110295239D01*
X63940425Y-110295240D01*
X63754000Y-110313601D01*
X63567576Y-110295240D01*
X63567573Y-110295239D01*
X63567572Y-110295239D01*
X63388308Y-110240860D01*
X63388304Y-110240858D01*
X63223098Y-110152554D01*
X63078289Y-110033712D01*
X62959447Y-109888903D01*
X62871143Y-109723697D01*
X62871143Y-109723696D01*
X62871141Y-109723693D01*
X62816762Y-109544429D01*
X62816762Y-109544428D01*
X62816761Y-109544425D01*
X62803000Y-109404717D01*
X62803000Y-107511283D01*
X62816760Y-107371576D01*
X62816761Y-107371572D01*
X62871140Y-107192308D01*
X62871143Y-107192303D01*
X62959446Y-107027097D01*
X63078288Y-106882288D01*
X63223097Y-106763446D01*
X63388303Y-106675142D01*
X63388304Y-106675142D01*
X63388307Y-106675140D01*
X63567571Y-106620761D01*
X63567572Y-106620761D01*
X63567575Y-106620760D01*
X63754000Y-106602399D01*
X63940424Y-106620760D01*
X63940424Y-106620760D01*
G37*
G36*
X60130424Y-106620760D02*
G01*
X60130427Y-106620761D01*
X60130428Y-106620761D01*
X60309692Y-106675140D01*
X60309695Y-106675142D01*
X60309696Y-106675142D01*
X60474903Y-106763446D01*
X60619712Y-106882288D01*
X60738554Y-107027097D01*
X60826858Y-107192303D01*
X60826860Y-107192307D01*
X60826860Y-107192308D01*
X60881240Y-107371575D01*
X60895000Y-107511282D01*
X60895000Y-109404718D01*
X60881240Y-109544425D01*
X60881239Y-109544428D01*
X60881239Y-109544429D01*
X60826860Y-109723693D01*
X60826858Y-109723696D01*
X60826858Y-109723697D01*
X60738554Y-109888903D01*
X60619712Y-110033712D01*
X60474903Y-110152554D01*
X60309697Y-110240858D01*
X60309693Y-110240860D01*
X60130429Y-110295239D01*
X60130428Y-110295239D01*
X60130425Y-110295240D01*
X59944000Y-110313601D01*
X59757576Y-110295240D01*
X59757573Y-110295239D01*
X59757572Y-110295239D01*
X59578308Y-110240860D01*
X59578304Y-110240858D01*
X59413098Y-110152554D01*
X59268289Y-110033712D01*
X59149447Y-109888903D01*
X59061143Y-109723697D01*
X59061143Y-109723696D01*
X59061141Y-109723693D01*
X59006762Y-109544429D01*
X59006762Y-109544428D01*
X59006761Y-109544425D01*
X58993000Y-109404717D01*
X58993000Y-107511283D01*
X59006760Y-107371576D01*
X59006761Y-107371572D01*
X59061140Y-107192308D01*
X59061143Y-107192303D01*
X59149446Y-107027097D01*
X59268288Y-106882288D01*
X59413097Y-106763446D01*
X59578303Y-106675142D01*
X59578304Y-106675142D01*
X59578307Y-106675140D01*
X59757571Y-106620761D01*
X59757572Y-106620761D01*
X59757575Y-106620760D01*
X59944000Y-106602399D01*
X60130424Y-106620760D01*
X60130424Y-106620760D01*
G37*
G36*
X36765000Y-110309000D02*
G01*
X34863000Y-110309000D01*
X34863000Y-106607000D01*
X36765000Y-106607000D01*
X36765000Y-110309000D01*
X36765000Y-110309000D01*
G37*
G36*
X57085000Y-110309000D02*
G01*
X55183000Y-110309000D01*
X55183000Y-106607000D01*
X57085000Y-106607000D01*
X57085000Y-110309000D01*
X57085000Y-110309000D01*
G37*
G36*
X60130424Y-90110760D02*
G01*
X60130427Y-90110761D01*
X60130428Y-90110761D01*
X60309692Y-90165140D01*
X60309695Y-90165142D01*
X60309696Y-90165142D01*
X60474903Y-90253446D01*
X60619712Y-90372288D01*
X60738554Y-90517097D01*
X60826858Y-90682303D01*
X60826860Y-90682307D01*
X60826860Y-90682308D01*
X60881240Y-90861575D01*
X60895000Y-91001282D01*
X60895000Y-92894718D01*
X60881240Y-93034425D01*
X60881239Y-93034428D01*
X60881239Y-93034429D01*
X60826860Y-93213693D01*
X60826858Y-93213696D01*
X60826858Y-93213697D01*
X60738554Y-93378903D01*
X60619712Y-93523712D01*
X60474903Y-93642554D01*
X60309697Y-93730858D01*
X60309693Y-93730860D01*
X60130429Y-93785239D01*
X60130428Y-93785239D01*
X60130425Y-93785240D01*
X59944000Y-93803601D01*
X59757576Y-93785240D01*
X59757573Y-93785239D01*
X59757572Y-93785239D01*
X59578308Y-93730860D01*
X59578304Y-93730858D01*
X59413098Y-93642554D01*
X59268289Y-93523712D01*
X59149447Y-93378903D01*
X59061143Y-93213697D01*
X59061143Y-93213696D01*
X59061141Y-93213693D01*
X59006762Y-93034429D01*
X59006762Y-93034428D01*
X59006761Y-93034425D01*
X58993000Y-92894717D01*
X58993000Y-91001283D01*
X59006760Y-90861576D01*
X59006761Y-90861572D01*
X59061140Y-90682308D01*
X59061143Y-90682303D01*
X59149446Y-90517097D01*
X59268288Y-90372288D01*
X59413097Y-90253446D01*
X59578303Y-90165142D01*
X59578304Y-90165142D01*
X59578307Y-90165140D01*
X59757571Y-90110761D01*
X59757572Y-90110761D01*
X59757575Y-90110760D01*
X59944000Y-90092399D01*
X60130424Y-90110760D01*
X60130424Y-90110760D01*
G37*
G36*
X63940424Y-90110760D02*
G01*
X63940427Y-90110761D01*
X63940428Y-90110761D01*
X64119692Y-90165140D01*
X64119695Y-90165142D01*
X64119696Y-90165142D01*
X64284903Y-90253446D01*
X64429712Y-90372288D01*
X64548554Y-90517097D01*
X64636858Y-90682303D01*
X64636860Y-90682307D01*
X64636860Y-90682308D01*
X64691240Y-90861575D01*
X64705000Y-91001282D01*
X64705000Y-92894718D01*
X64691240Y-93034425D01*
X64691239Y-93034428D01*
X64691239Y-93034429D01*
X64636860Y-93213693D01*
X64636858Y-93213696D01*
X64636858Y-93213697D01*
X64548554Y-93378903D01*
X64429712Y-93523712D01*
X64284903Y-93642554D01*
X64119697Y-93730858D01*
X64119693Y-93730860D01*
X63940429Y-93785239D01*
X63940428Y-93785239D01*
X63940425Y-93785240D01*
X63754000Y-93803601D01*
X63567576Y-93785240D01*
X63567573Y-93785239D01*
X63567572Y-93785239D01*
X63388308Y-93730860D01*
X63388304Y-93730858D01*
X63223098Y-93642554D01*
X63078289Y-93523712D01*
X62959447Y-93378903D01*
X62871143Y-93213697D01*
X62871143Y-93213696D01*
X62871141Y-93213693D01*
X62816762Y-93034429D01*
X62816762Y-93034428D01*
X62816761Y-93034425D01*
X62803000Y-92894717D01*
X62803000Y-91001283D01*
X62816760Y-90861576D01*
X62816761Y-90861572D01*
X62871140Y-90682308D01*
X62871143Y-90682303D01*
X62959446Y-90517097D01*
X63078288Y-90372288D01*
X63223097Y-90253446D01*
X63388303Y-90165142D01*
X63388304Y-90165142D01*
X63388307Y-90165140D01*
X63567571Y-90110761D01*
X63567572Y-90110761D01*
X63567575Y-90110760D01*
X63754000Y-90092399D01*
X63940424Y-90110760D01*
X63940424Y-90110760D01*
G37*
G36*
X43620424Y-90110760D02*
G01*
X43620427Y-90110761D01*
X43620428Y-90110761D01*
X43799692Y-90165140D01*
X43799695Y-90165142D01*
X43799696Y-90165142D01*
X43964903Y-90253446D01*
X44109712Y-90372288D01*
X44228554Y-90517097D01*
X44316858Y-90682303D01*
X44316860Y-90682307D01*
X44316860Y-90682308D01*
X44371240Y-90861575D01*
X44385000Y-91001282D01*
X44385000Y-92894718D01*
X44371240Y-93034425D01*
X44371239Y-93034428D01*
X44371239Y-93034429D01*
X44316860Y-93213693D01*
X44316858Y-93213696D01*
X44316858Y-93213697D01*
X44228554Y-93378903D01*
X44109712Y-93523712D01*
X43964903Y-93642554D01*
X43799697Y-93730858D01*
X43799693Y-93730860D01*
X43620429Y-93785239D01*
X43620428Y-93785239D01*
X43620425Y-93785240D01*
X43434000Y-93803601D01*
X43247576Y-93785240D01*
X43247573Y-93785239D01*
X43247572Y-93785239D01*
X43068308Y-93730860D01*
X43068304Y-93730858D01*
X42903098Y-93642554D01*
X42758289Y-93523712D01*
X42639447Y-93378903D01*
X42551143Y-93213697D01*
X42551143Y-93213696D01*
X42551141Y-93213693D01*
X42496762Y-93034429D01*
X42496762Y-93034428D01*
X42496761Y-93034425D01*
X42483000Y-92894717D01*
X42483000Y-91001283D01*
X42496760Y-90861576D01*
X42496761Y-90861572D01*
X42551140Y-90682308D01*
X42551143Y-90682303D01*
X42639446Y-90517097D01*
X42758288Y-90372288D01*
X42903097Y-90253446D01*
X43068303Y-90165142D01*
X43068304Y-90165142D01*
X43068307Y-90165140D01*
X43247571Y-90110761D01*
X43247572Y-90110761D01*
X43247575Y-90110760D01*
X43434000Y-90092399D01*
X43620424Y-90110760D01*
X43620424Y-90110760D01*
G37*
G36*
X39810424Y-90110760D02*
G01*
X39810427Y-90110761D01*
X39810428Y-90110761D01*
X39989692Y-90165140D01*
X39989695Y-90165142D01*
X39989696Y-90165142D01*
X40154903Y-90253446D01*
X40299712Y-90372288D01*
X40418554Y-90517097D01*
X40506858Y-90682303D01*
X40506860Y-90682307D01*
X40506860Y-90682308D01*
X40561240Y-90861575D01*
X40575000Y-91001282D01*
X40575000Y-92894718D01*
X40561240Y-93034425D01*
X40561239Y-93034428D01*
X40561239Y-93034429D01*
X40506860Y-93213693D01*
X40506858Y-93213696D01*
X40506858Y-93213697D01*
X40418554Y-93378903D01*
X40299712Y-93523712D01*
X40154903Y-93642554D01*
X39989697Y-93730858D01*
X39989693Y-93730860D01*
X39810429Y-93785239D01*
X39810428Y-93785239D01*
X39810425Y-93785240D01*
X39624000Y-93803601D01*
X39437576Y-93785240D01*
X39437573Y-93785239D01*
X39437572Y-93785239D01*
X39258308Y-93730860D01*
X39258304Y-93730858D01*
X39093098Y-93642554D01*
X38948289Y-93523712D01*
X38829447Y-93378903D01*
X38741143Y-93213697D01*
X38741143Y-93213696D01*
X38741141Y-93213693D01*
X38686762Y-93034429D01*
X38686762Y-93034428D01*
X38686761Y-93034425D01*
X38673000Y-92894717D01*
X38673000Y-91001283D01*
X38686760Y-90861576D01*
X38686761Y-90861572D01*
X38741140Y-90682308D01*
X38741143Y-90682303D01*
X38829446Y-90517097D01*
X38948288Y-90372288D01*
X39093097Y-90253446D01*
X39258303Y-90165142D01*
X39258304Y-90165142D01*
X39258307Y-90165140D01*
X39437571Y-90110761D01*
X39437572Y-90110761D01*
X39437575Y-90110760D01*
X39624000Y-90092399D01*
X39810424Y-90110760D01*
X39810424Y-90110760D01*
G37*
G36*
X36765000Y-93799000D02*
G01*
X34863000Y-93799000D01*
X34863000Y-90097000D01*
X36765000Y-90097000D01*
X36765000Y-93799000D01*
X36765000Y-93799000D01*
G37*
G36*
X57085000Y-93799000D02*
G01*
X55183000Y-93799000D01*
X55183000Y-90097000D01*
X57085000Y-90097000D01*
X57085000Y-93799000D01*
X57085000Y-93799000D01*
G37*
G36*
X60130424Y-73600760D02*
G01*
X60130427Y-73600761D01*
X60130428Y-73600761D01*
X60309692Y-73655140D01*
X60309695Y-73655142D01*
X60309696Y-73655142D01*
X60474903Y-73743446D01*
X60619712Y-73862288D01*
X60738554Y-74007097D01*
X60826858Y-74172303D01*
X60826860Y-74172307D01*
X60826860Y-74172308D01*
X60881240Y-74351575D01*
X60895000Y-74491282D01*
X60895000Y-76384718D01*
X60881240Y-76524425D01*
X60881239Y-76524428D01*
X60881239Y-76524429D01*
X60826860Y-76703693D01*
X60826858Y-76703696D01*
X60826858Y-76703697D01*
X60738554Y-76868903D01*
X60619712Y-77013712D01*
X60474903Y-77132554D01*
X60309697Y-77220858D01*
X60309693Y-77220860D01*
X60130429Y-77275239D01*
X60130428Y-77275239D01*
X60130425Y-77275240D01*
X59944000Y-77293601D01*
X59757576Y-77275240D01*
X59757573Y-77275239D01*
X59757572Y-77275239D01*
X59578308Y-77220860D01*
X59578304Y-77220858D01*
X59413098Y-77132554D01*
X59268289Y-77013712D01*
X59149447Y-76868903D01*
X59061143Y-76703697D01*
X59061143Y-76703696D01*
X59061141Y-76703693D01*
X59006762Y-76524429D01*
X59006762Y-76524428D01*
X59006761Y-76524425D01*
X58993000Y-76384717D01*
X58993000Y-74491283D01*
X59006760Y-74351576D01*
X59006761Y-74351572D01*
X59061140Y-74172308D01*
X59061143Y-74172303D01*
X59149446Y-74007097D01*
X59268288Y-73862288D01*
X59413097Y-73743446D01*
X59578303Y-73655142D01*
X59578304Y-73655142D01*
X59578307Y-73655140D01*
X59757571Y-73600761D01*
X59757572Y-73600761D01*
X59757575Y-73600760D01*
X59944000Y-73582399D01*
X60130424Y-73600760D01*
X60130424Y-73600760D01*
G37*
G36*
X63940424Y-73600760D02*
G01*
X63940427Y-73600761D01*
X63940428Y-73600761D01*
X64119692Y-73655140D01*
X64119695Y-73655142D01*
X64119696Y-73655142D01*
X64284903Y-73743446D01*
X64429712Y-73862288D01*
X64548554Y-74007097D01*
X64636858Y-74172303D01*
X64636860Y-74172307D01*
X64636860Y-74172308D01*
X64691240Y-74351575D01*
X64705000Y-74491282D01*
X64705000Y-76384718D01*
X64691240Y-76524425D01*
X64691239Y-76524428D01*
X64691239Y-76524429D01*
X64636860Y-76703693D01*
X64636858Y-76703696D01*
X64636858Y-76703697D01*
X64548554Y-76868903D01*
X64429712Y-77013712D01*
X64284903Y-77132554D01*
X64119697Y-77220858D01*
X64119693Y-77220860D01*
X63940429Y-77275239D01*
X63940428Y-77275239D01*
X63940425Y-77275240D01*
X63754000Y-77293601D01*
X63567576Y-77275240D01*
X63567573Y-77275239D01*
X63567572Y-77275239D01*
X63388308Y-77220860D01*
X63388304Y-77220858D01*
X63223098Y-77132554D01*
X63078289Y-77013712D01*
X62959447Y-76868903D01*
X62871143Y-76703697D01*
X62871143Y-76703696D01*
X62871141Y-76703693D01*
X62816762Y-76524429D01*
X62816762Y-76524428D01*
X62816761Y-76524425D01*
X62803000Y-76384717D01*
X62803000Y-74491283D01*
X62816760Y-74351576D01*
X62816761Y-74351572D01*
X62871140Y-74172308D01*
X62871143Y-74172303D01*
X62959446Y-74007097D01*
X63078288Y-73862288D01*
X63223097Y-73743446D01*
X63388303Y-73655142D01*
X63388304Y-73655142D01*
X63388307Y-73655140D01*
X63567571Y-73600761D01*
X63567572Y-73600761D01*
X63567575Y-73600760D01*
X63754000Y-73582399D01*
X63940424Y-73600760D01*
X63940424Y-73600760D01*
G37*
G36*
X39810424Y-73600760D02*
G01*
X39810427Y-73600761D01*
X39810428Y-73600761D01*
X39989692Y-73655140D01*
X39989695Y-73655142D01*
X39989696Y-73655142D01*
X40154903Y-73743446D01*
X40299712Y-73862288D01*
X40418554Y-74007097D01*
X40506858Y-74172303D01*
X40506860Y-74172307D01*
X40506860Y-74172308D01*
X40561240Y-74351575D01*
X40575000Y-74491282D01*
X40575000Y-76384718D01*
X40561240Y-76524425D01*
X40561239Y-76524428D01*
X40561239Y-76524429D01*
X40506860Y-76703693D01*
X40506858Y-76703696D01*
X40506858Y-76703697D01*
X40418554Y-76868903D01*
X40299712Y-77013712D01*
X40154903Y-77132554D01*
X39989697Y-77220858D01*
X39989693Y-77220860D01*
X39810429Y-77275239D01*
X39810428Y-77275239D01*
X39810425Y-77275240D01*
X39624000Y-77293601D01*
X39437576Y-77275240D01*
X39437573Y-77275239D01*
X39437572Y-77275239D01*
X39258308Y-77220860D01*
X39258304Y-77220858D01*
X39093098Y-77132554D01*
X38948289Y-77013712D01*
X38829447Y-76868903D01*
X38741143Y-76703697D01*
X38741143Y-76703696D01*
X38741141Y-76703693D01*
X38686762Y-76524429D01*
X38686762Y-76524428D01*
X38686761Y-76524425D01*
X38673000Y-76384717D01*
X38673000Y-74491283D01*
X38686760Y-74351576D01*
X38686761Y-74351572D01*
X38741140Y-74172308D01*
X38741143Y-74172303D01*
X38829446Y-74007097D01*
X38948288Y-73862288D01*
X39093097Y-73743446D01*
X39258303Y-73655142D01*
X39258304Y-73655142D01*
X39258307Y-73655140D01*
X39437571Y-73600761D01*
X39437572Y-73600761D01*
X39437575Y-73600760D01*
X39624000Y-73582399D01*
X39810424Y-73600760D01*
X39810424Y-73600760D01*
G37*
G36*
X43620424Y-73600760D02*
G01*
X43620427Y-73600761D01*
X43620428Y-73600761D01*
X43799692Y-73655140D01*
X43799695Y-73655142D01*
X43799696Y-73655142D01*
X43964903Y-73743446D01*
X44109712Y-73862288D01*
X44228554Y-74007097D01*
X44316858Y-74172303D01*
X44316860Y-74172307D01*
X44316860Y-74172308D01*
X44371240Y-74351575D01*
X44385000Y-74491282D01*
X44385000Y-76384718D01*
X44371240Y-76524425D01*
X44371239Y-76524428D01*
X44371239Y-76524429D01*
X44316860Y-76703693D01*
X44316858Y-76703696D01*
X44316858Y-76703697D01*
X44228554Y-76868903D01*
X44109712Y-77013712D01*
X43964903Y-77132554D01*
X43799697Y-77220858D01*
X43799693Y-77220860D01*
X43620429Y-77275239D01*
X43620428Y-77275239D01*
X43620425Y-77275240D01*
X43434000Y-77293601D01*
X43247576Y-77275240D01*
X43247573Y-77275239D01*
X43247572Y-77275239D01*
X43068308Y-77220860D01*
X43068304Y-77220858D01*
X42903098Y-77132554D01*
X42758289Y-77013712D01*
X42639447Y-76868903D01*
X42551143Y-76703697D01*
X42551143Y-76703696D01*
X42551141Y-76703693D01*
X42496762Y-76524429D01*
X42496762Y-76524428D01*
X42496761Y-76524425D01*
X42483000Y-76384717D01*
X42483000Y-74491283D01*
X42496760Y-74351576D01*
X42496761Y-74351572D01*
X42551140Y-74172308D01*
X42551143Y-74172303D01*
X42639446Y-74007097D01*
X42758288Y-73862288D01*
X42903097Y-73743446D01*
X43068303Y-73655142D01*
X43068304Y-73655142D01*
X43068307Y-73655140D01*
X43247571Y-73600761D01*
X43247572Y-73600761D01*
X43247575Y-73600760D01*
X43434000Y-73582399D01*
X43620424Y-73600760D01*
X43620424Y-73600760D01*
G37*
G36*
X57085000Y-77289000D02*
G01*
X55183000Y-77289000D01*
X55183000Y-73587000D01*
X57085000Y-73587000D01*
X57085000Y-77289000D01*
X57085000Y-77289000D01*
G37*
G36*
X36765000Y-77289000D02*
G01*
X34863000Y-77289000D01*
X34863000Y-73587000D01*
X36765000Y-73587000D01*
X36765000Y-77289000D01*
X36765000Y-77289000D01*
G37*
G36*
X60130424Y-57090760D02*
G01*
X60130427Y-57090761D01*
X60130428Y-57090761D01*
X60309692Y-57145140D01*
X60309695Y-57145142D01*
X60309696Y-57145142D01*
X60474903Y-57233446D01*
X60619712Y-57352288D01*
X60738554Y-57497097D01*
X60826858Y-57662303D01*
X60826860Y-57662307D01*
X60826860Y-57662308D01*
X60881240Y-57841575D01*
X60895000Y-57981282D01*
X60895000Y-59874718D01*
X60881240Y-60014425D01*
X60881239Y-60014428D01*
X60881239Y-60014429D01*
X60826860Y-60193693D01*
X60826858Y-60193696D01*
X60826858Y-60193697D01*
X60738554Y-60358903D01*
X60619712Y-60503712D01*
X60474903Y-60622554D01*
X60309697Y-60710858D01*
X60309693Y-60710860D01*
X60130429Y-60765239D01*
X60130428Y-60765239D01*
X60130425Y-60765240D01*
X59944000Y-60783601D01*
X59757576Y-60765240D01*
X59757573Y-60765239D01*
X59757572Y-60765239D01*
X59578308Y-60710860D01*
X59578304Y-60710858D01*
X59413098Y-60622554D01*
X59268289Y-60503712D01*
X59149447Y-60358903D01*
X59061143Y-60193697D01*
X59061143Y-60193696D01*
X59061141Y-60193693D01*
X59006762Y-60014429D01*
X59006762Y-60014428D01*
X59006761Y-60014425D01*
X58993000Y-59874717D01*
X58993000Y-57981283D01*
X59006760Y-57841576D01*
X59006761Y-57841572D01*
X59061140Y-57662308D01*
X59061143Y-57662303D01*
X59149446Y-57497097D01*
X59268288Y-57352288D01*
X59413097Y-57233446D01*
X59578303Y-57145142D01*
X59578304Y-57145142D01*
X59578307Y-57145140D01*
X59757571Y-57090761D01*
X59757572Y-57090761D01*
X59757575Y-57090760D01*
X59944000Y-57072399D01*
X60130424Y-57090760D01*
X60130424Y-57090760D01*
G37*
G36*
X43620424Y-57090760D02*
G01*
X43620427Y-57090761D01*
X43620428Y-57090761D01*
X43799692Y-57145140D01*
X43799695Y-57145142D01*
X43799696Y-57145142D01*
X43964903Y-57233446D01*
X44109712Y-57352288D01*
X44228554Y-57497097D01*
X44316858Y-57662303D01*
X44316860Y-57662307D01*
X44316860Y-57662308D01*
X44371240Y-57841575D01*
X44385000Y-57981282D01*
X44385000Y-59874718D01*
X44371240Y-60014425D01*
X44371239Y-60014428D01*
X44371239Y-60014429D01*
X44316860Y-60193693D01*
X44316858Y-60193696D01*
X44316858Y-60193697D01*
X44228554Y-60358903D01*
X44109712Y-60503712D01*
X43964903Y-60622554D01*
X43799697Y-60710858D01*
X43799693Y-60710860D01*
X43620429Y-60765239D01*
X43620428Y-60765239D01*
X43620425Y-60765240D01*
X43434000Y-60783601D01*
X43247576Y-60765240D01*
X43247573Y-60765239D01*
X43247572Y-60765239D01*
X43068308Y-60710860D01*
X43068304Y-60710858D01*
X42903098Y-60622554D01*
X42758289Y-60503712D01*
X42639447Y-60358903D01*
X42551143Y-60193697D01*
X42551143Y-60193696D01*
X42551141Y-60193693D01*
X42496762Y-60014429D01*
X42496762Y-60014428D01*
X42496761Y-60014425D01*
X42483000Y-59874717D01*
X42483000Y-57981283D01*
X42496760Y-57841576D01*
X42496761Y-57841572D01*
X42551140Y-57662308D01*
X42551143Y-57662303D01*
X42639446Y-57497097D01*
X42758288Y-57352288D01*
X42903097Y-57233446D01*
X43068303Y-57145142D01*
X43068304Y-57145142D01*
X43068307Y-57145140D01*
X43247571Y-57090761D01*
X43247572Y-57090761D01*
X43247575Y-57090760D01*
X43434000Y-57072399D01*
X43620424Y-57090760D01*
X43620424Y-57090760D01*
G37*
G36*
X39810424Y-57090760D02*
G01*
X39810427Y-57090761D01*
X39810428Y-57090761D01*
X39989692Y-57145140D01*
X39989695Y-57145142D01*
X39989696Y-57145142D01*
X40154903Y-57233446D01*
X40299712Y-57352288D01*
X40418554Y-57497097D01*
X40506858Y-57662303D01*
X40506860Y-57662307D01*
X40506860Y-57662308D01*
X40561240Y-57841575D01*
X40575000Y-57981282D01*
X40575000Y-59874718D01*
X40561240Y-60014425D01*
X40561239Y-60014428D01*
X40561239Y-60014429D01*
X40506860Y-60193693D01*
X40506858Y-60193696D01*
X40506858Y-60193697D01*
X40418554Y-60358903D01*
X40299712Y-60503712D01*
X40154903Y-60622554D01*
X39989697Y-60710858D01*
X39989693Y-60710860D01*
X39810429Y-60765239D01*
X39810428Y-60765239D01*
X39810425Y-60765240D01*
X39624000Y-60783601D01*
X39437576Y-60765240D01*
X39437573Y-60765239D01*
X39437572Y-60765239D01*
X39258308Y-60710860D01*
X39258304Y-60710858D01*
X39093098Y-60622554D01*
X38948289Y-60503712D01*
X38829447Y-60358903D01*
X38741143Y-60193697D01*
X38741143Y-60193696D01*
X38741141Y-60193693D01*
X38686762Y-60014429D01*
X38686762Y-60014428D01*
X38686761Y-60014425D01*
X38673000Y-59874717D01*
X38673000Y-57981283D01*
X38686760Y-57841576D01*
X38686761Y-57841572D01*
X38741140Y-57662308D01*
X38741143Y-57662303D01*
X38829446Y-57497097D01*
X38948288Y-57352288D01*
X39093097Y-57233446D01*
X39258303Y-57145142D01*
X39258304Y-57145142D01*
X39258307Y-57145140D01*
X39437571Y-57090761D01*
X39437572Y-57090761D01*
X39437575Y-57090760D01*
X39624000Y-57072399D01*
X39810424Y-57090760D01*
X39810424Y-57090760D01*
G37*
G36*
X63940424Y-57090760D02*
G01*
X63940427Y-57090761D01*
X63940428Y-57090761D01*
X64119692Y-57145140D01*
X64119695Y-57145142D01*
X64119696Y-57145142D01*
X64284903Y-57233446D01*
X64429712Y-57352288D01*
X64548554Y-57497097D01*
X64636858Y-57662303D01*
X64636860Y-57662307D01*
X64636860Y-57662308D01*
X64691240Y-57841575D01*
X64705000Y-57981282D01*
X64705000Y-59874718D01*
X64691240Y-60014425D01*
X64691239Y-60014428D01*
X64691239Y-60014429D01*
X64636860Y-60193693D01*
X64636858Y-60193696D01*
X64636858Y-60193697D01*
X64548554Y-60358903D01*
X64429712Y-60503712D01*
X64284903Y-60622554D01*
X64119697Y-60710858D01*
X64119693Y-60710860D01*
X63940429Y-60765239D01*
X63940428Y-60765239D01*
X63940425Y-60765240D01*
X63754000Y-60783601D01*
X63567576Y-60765240D01*
X63567573Y-60765239D01*
X63567572Y-60765239D01*
X63388308Y-60710860D01*
X63388304Y-60710858D01*
X63223098Y-60622554D01*
X63078289Y-60503712D01*
X62959447Y-60358903D01*
X62871143Y-60193697D01*
X62871143Y-60193696D01*
X62871141Y-60193693D01*
X62816762Y-60014429D01*
X62816762Y-60014428D01*
X62816761Y-60014425D01*
X62803000Y-59874717D01*
X62803000Y-57981283D01*
X62816760Y-57841576D01*
X62816761Y-57841572D01*
X62871140Y-57662308D01*
X62871143Y-57662303D01*
X62959446Y-57497097D01*
X63078288Y-57352288D01*
X63223097Y-57233446D01*
X63388303Y-57145142D01*
X63388304Y-57145142D01*
X63388307Y-57145140D01*
X63567571Y-57090761D01*
X63567572Y-57090761D01*
X63567575Y-57090760D01*
X63754000Y-57072399D01*
X63940424Y-57090760D01*
X63940424Y-57090760D01*
G37*
G36*
X57085000Y-60779000D02*
G01*
X55183000Y-60779000D01*
X55183000Y-57077000D01*
X57085000Y-57077000D01*
X57085000Y-60779000D01*
X57085000Y-60779000D01*
G37*
G36*
X36765000Y-60779000D02*
G01*
X34863000Y-60779000D01*
X34863000Y-57077000D01*
X36765000Y-57077000D01*
X36765000Y-60779000D01*
X36765000Y-60779000D01*
G37*
G36*
X71754239Y-37451467D02*
G01*
X72068282Y-37513934D01*
X72659926Y-37759001D01*
X73192392Y-38114784D01*
X73645216Y-38567608D01*
X74000999Y-39100074D01*
X74246066Y-39691718D01*
X74371000Y-40319804D01*
X74371000Y-40960196D01*
X74246066Y-41588282D01*
X74000999Y-42179926D01*
X73723904Y-42594627D01*
X73645217Y-42712391D01*
X73192391Y-43165217D01*
X73086477Y-43235986D01*
X72659926Y-43520999D01*
X72068282Y-43766066D01*
X71754239Y-43828533D01*
X71440197Y-43891000D01*
X70799803Y-43891000D01*
X70485761Y-43828533D01*
X70171718Y-43766066D01*
X69580074Y-43520999D01*
X69153523Y-43235986D01*
X69047609Y-43165217D01*
X68594783Y-42712391D01*
X68516096Y-42594627D01*
X68239001Y-42179926D01*
X67993934Y-41588282D01*
X67869000Y-40960196D01*
X67869000Y-40319804D01*
X67993934Y-39691718D01*
X68239001Y-39100074D01*
X68594784Y-38567608D01*
X69047608Y-38114784D01*
X69580074Y-37759001D01*
X70171718Y-37513934D01*
X70485761Y-37451467D01*
X70799803Y-37389000D01*
X71440197Y-37389000D01*
X71754239Y-37451467D01*
X71754239Y-37451467D01*
G37*
G36*
X31114239Y-37451467D02*
G01*
X31428282Y-37513934D01*
X32019926Y-37759001D01*
X32552392Y-38114784D01*
X33005216Y-38567608D01*
X33360999Y-39100074D01*
X33606066Y-39691718D01*
X33731000Y-40319804D01*
X33731000Y-40960196D01*
X33606066Y-41588282D01*
X33360999Y-42179926D01*
X33083904Y-42594627D01*
X33005217Y-42712391D01*
X32552391Y-43165217D01*
X32446477Y-43235986D01*
X32019926Y-43520999D01*
X31428282Y-43766066D01*
X31114239Y-43828533D01*
X30800197Y-43891000D01*
X30159803Y-43891000D01*
X29845761Y-43828533D01*
X29531718Y-43766066D01*
X28940074Y-43520999D01*
X28513523Y-43235986D01*
X28407609Y-43165217D01*
X27954783Y-42712391D01*
X27876096Y-42594627D01*
X27599001Y-42179926D01*
X27353934Y-41588282D01*
X27229000Y-40960196D01*
X27229000Y-40319804D01*
X27353934Y-39691718D01*
X27599001Y-39100074D01*
X27954784Y-38567608D01*
X28407608Y-38114784D01*
X28940074Y-37759001D01*
X29531718Y-37513934D01*
X29845761Y-37451467D01*
X30159803Y-37389000D01*
X30800197Y-37389000D01*
X31114239Y-37451467D01*
X31114239Y-37451467D01*
G37*
G36*
X43544443Y-41523519D02*
G01*
X43610627Y-41530037D01*
X43780466Y-41581557D01*
X43780468Y-41581558D01*
X43858729Y-41623390D01*
X43936991Y-41665222D01*
X43972729Y-41694552D01*
X44074186Y-41777814D01*
X44157448Y-41879271D01*
X44186778Y-41915009D01*
X44270443Y-42071534D01*
X44321963Y-42241373D01*
X44339359Y-42418000D01*
X44321963Y-42594627D01*
X44270443Y-42764466D01*
X44186778Y-42920991D01*
X44157448Y-42956729D01*
X44074186Y-43058186D01*
X43972729Y-43141448D01*
X43936991Y-43170778D01*
X43780466Y-43254443D01*
X43610627Y-43305963D01*
X43544443Y-43312481D01*
X43478260Y-43319000D01*
X43389740Y-43319000D01*
X43323557Y-43312481D01*
X43257373Y-43305963D01*
X43087534Y-43254443D01*
X42931009Y-43170778D01*
X42895271Y-43141448D01*
X42793814Y-43058186D01*
X42710552Y-42956729D01*
X42681222Y-42920991D01*
X42597557Y-42764466D01*
X42546037Y-42594627D01*
X42528641Y-42418000D01*
X42546037Y-42241373D01*
X42597557Y-42071534D01*
X42681222Y-41915009D01*
X42710552Y-41879271D01*
X42793814Y-41777814D01*
X42895271Y-41694552D01*
X42931009Y-41665222D01*
X43009271Y-41623390D01*
X43087532Y-41581558D01*
X43087534Y-41581557D01*
X43257373Y-41530037D01*
X43323557Y-41523519D01*
X43389740Y-41517000D01*
X43478260Y-41517000D01*
X43544443Y-41523519D01*
X43544443Y-41523519D01*
G37*
G36*
X39255000Y-43319000D02*
G01*
X37453000Y-43319000D01*
X37453000Y-41517000D01*
X39255000Y-41517000D01*
X39255000Y-43319000D01*
X39255000Y-43319000D01*
G37*
G36*
X41004443Y-41523519D02*
G01*
X41070627Y-41530037D01*
X41240466Y-41581557D01*
X41240468Y-41581558D01*
X41318729Y-41623390D01*
X41396991Y-41665222D01*
X41432729Y-41694552D01*
X41534186Y-41777814D01*
X41617448Y-41879271D01*
X41646778Y-41915009D01*
X41730443Y-42071534D01*
X41781963Y-42241373D01*
X41799359Y-42418000D01*
X41781963Y-42594627D01*
X41730443Y-42764466D01*
X41646778Y-42920991D01*
X41617448Y-42956729D01*
X41534186Y-43058186D01*
X41432729Y-43141448D01*
X41396991Y-43170778D01*
X41240466Y-43254443D01*
X41070627Y-43305963D01*
X41004443Y-43312481D01*
X40938260Y-43319000D01*
X40849740Y-43319000D01*
X40783557Y-43312481D01*
X40717373Y-43305963D01*
X40547534Y-43254443D01*
X40391009Y-43170778D01*
X40355271Y-43141448D01*
X40253814Y-43058186D01*
X40170552Y-42956729D01*
X40141222Y-42920991D01*
X40057557Y-42764466D01*
X40006037Y-42594627D01*
X39988641Y-42418000D01*
X40006037Y-42241373D01*
X40057557Y-42071534D01*
X40141222Y-41915009D01*
X40170552Y-41879271D01*
X40253814Y-41777814D01*
X40355271Y-41694552D01*
X40391009Y-41665222D01*
X40469271Y-41623390D01*
X40547532Y-41581558D01*
X40547534Y-41581557D01*
X40717373Y-41530037D01*
X40783557Y-41523519D01*
X40849740Y-41517000D01*
X40938260Y-41517000D01*
X41004443Y-41523519D01*
X41004443Y-41523519D01*
G37*
M02*
