M48
; DRILL file {KiCad (5.1.4)-1} date 19/10/2020 18:16:46
; FORMAT={-:-/ absolute / inch / decimal}
; #@! TF.CreationDate,2020-10-19T18:16:46+02:00
; #@! TF.GenerationSoftware,Kicad,Pcbnew,(5.1.4)-1
FMAT,2
INCH
T1C0.0394
T2C0.0472
T3C0.1260
T4C0.1772
%
G90
G05
T1
X1.55Y-5.87
X1.55Y-6.0196
X1.51Y-1.67
X1.61Y-1.67
X1.71Y-1.67
X2.08Y-5.87
X2.08Y-6.0196
X1.52Y-6.58
X1.62Y-6.58
X1.72Y-6.58
T2
X1.41Y-5.47
X1.56Y-5.47
X1.71Y-5.47
X1.41Y-2.97
X1.56Y-2.97
X1.71Y-2.97
X1.41Y-4.87
X1.56Y-4.87
X1.71Y-4.87
X2.21Y-5.47
X2.36Y-5.47
X2.51Y-5.47
X1.41Y-2.32
X1.56Y-2.32
X1.71Y-2.32
X2.21Y-4.87
X2.36Y-4.87
X2.51Y-4.87
X1.41Y-3.62
X1.56Y-3.62
X1.71Y-3.62
X2.21Y-3.62
X2.36Y-3.62
X2.51Y-3.62
X2.21Y-4.27
X2.36Y-4.27
X2.51Y-4.27
X2.21Y-2.97
X2.36Y-2.97
X2.51Y-2.97
X2.21Y-2.32
X2.36Y-2.32
X2.51Y-2.32
X1.41Y-4.27
X1.56Y-4.27
X1.71Y-4.27
T3
X1.2Y-6.6
X2.8Y-1.6
X1.2Y-1.6
X2.8Y-6.6
T4
X2.0965Y-6.48
X2.38Y-6.48
T0
M30
