G04 #@! TF.GenerationSoftware,KiCad,Pcbnew,(5.1.4)-1*
G04 #@! TF.CreationDate,2020-10-19T18:16:54+02:00*
G04 #@! TF.ProjectId,distrilite,64697374-7269-46c6-9974-652e6b696361,rev?*
G04 #@! TF.SameCoordinates,Original*
G04 #@! TF.FileFunction,Copper,L2,Bot*
G04 #@! TF.FilePolarity,Positive*
%FSLAX46Y46*%
G04 Gerber Fmt 4.6, Leading zero omitted, Abs format (unit mm)*
G04 Created by KiCad (PCBNEW (5.1.4)-1) date 2020-10-19 18:16:54*
%MOMM*%
%LPD*%
G04 APERTURE LIST*
%ADD10C,6.400000*%
%ADD11R,2.000000X2.000000*%
%ADD12C,2.000000*%
%ADD13R,1.800000X3.600000*%
%ADD14O,1.800000X3.600000*%
%ADD15O,1.700000X1.700000*%
%ADD16R,1.700000X1.700000*%
%ADD17C,0.100000*%
%ADD18C,6.000000*%
%ADD19C,4.000000*%
%ADD20C,0.250000*%
%ADD21C,7.000000*%
%ADD22C,6.000000*%
%ADD23C,0.254000*%
G04 APERTURE END LIST*
D10*
X30480000Y-167640000D03*
X71120000Y-167640000D03*
X71120000Y-40640000D03*
X30480000Y-40640000D03*
D11*
X52832000Y-149098000D03*
D12*
X52832000Y-152898000D03*
D11*
X39370000Y-149098000D03*
D12*
X39370000Y-152898000D03*
D13*
X35814000Y-138938000D03*
D14*
X39624000Y-138938000D03*
X43434000Y-138938000D03*
D15*
X43434000Y-42418000D03*
X40894000Y-42418000D03*
D16*
X38354000Y-42418000D03*
X38608000Y-167132000D03*
D15*
X41148000Y-167132000D03*
X43688000Y-167132000D03*
D13*
X35814000Y-91948000D03*
D14*
X39624000Y-91948000D03*
X43434000Y-91948000D03*
D13*
X56134000Y-91948000D03*
D14*
X59944000Y-91948000D03*
X63754000Y-91948000D03*
D13*
X35814000Y-58928000D03*
D14*
X39624000Y-58928000D03*
X43434000Y-58928000D03*
D13*
X56134000Y-75438000D03*
D14*
X59944000Y-75438000D03*
X63754000Y-75438000D03*
D13*
X56134000Y-58928000D03*
D14*
X59944000Y-58928000D03*
X63754000Y-58928000D03*
D13*
X35814000Y-75438000D03*
D14*
X39624000Y-75438000D03*
X43434000Y-75438000D03*
D13*
X56134000Y-108458000D03*
D14*
X59944000Y-108458000D03*
X63754000Y-108458000D03*
D13*
X35814000Y-108458000D03*
D14*
X39624000Y-108458000D03*
X43434000Y-108458000D03*
D13*
X56134000Y-123698000D03*
D14*
X59944000Y-123698000D03*
X63754000Y-123698000D03*
D13*
X35814000Y-123698000D03*
D14*
X39624000Y-123698000D03*
X43434000Y-123698000D03*
D13*
X56134000Y-138938000D03*
D14*
X59944000Y-138938000D03*
X63754000Y-138938000D03*
D17*
G36*
X62099026Y-161599223D02*
G01*
X62244635Y-161620822D01*
X62387427Y-161656589D01*
X62526025Y-161706181D01*
X62659095Y-161769118D01*
X62785355Y-161844796D01*
X62903590Y-161932484D01*
X63012660Y-162031340D01*
X63111516Y-162140410D01*
X63199204Y-162258645D01*
X63274882Y-162384905D01*
X63337819Y-162517975D01*
X63387411Y-162656573D01*
X63423178Y-162799365D01*
X63444777Y-162944974D01*
X63452000Y-163092000D01*
X63452000Y-166092000D01*
X63444777Y-166239026D01*
X63423178Y-166384635D01*
X63387411Y-166527427D01*
X63337819Y-166666025D01*
X63274882Y-166799095D01*
X63199204Y-166925355D01*
X63111516Y-167043590D01*
X63012660Y-167152660D01*
X62903590Y-167251516D01*
X62785355Y-167339204D01*
X62659095Y-167414882D01*
X62526025Y-167477819D01*
X62387427Y-167527411D01*
X62244635Y-167563178D01*
X62099026Y-167584777D01*
X61952000Y-167592000D01*
X58952000Y-167592000D01*
X58804974Y-167584777D01*
X58659365Y-167563178D01*
X58516573Y-167527411D01*
X58377975Y-167477819D01*
X58244905Y-167414882D01*
X58118645Y-167339204D01*
X58000410Y-167251516D01*
X57891340Y-167152660D01*
X57792484Y-167043590D01*
X57704796Y-166925355D01*
X57629118Y-166799095D01*
X57566181Y-166666025D01*
X57516589Y-166527427D01*
X57480822Y-166384635D01*
X57459223Y-166239026D01*
X57452000Y-166092000D01*
X57452000Y-163092000D01*
X57459223Y-162944974D01*
X57480822Y-162799365D01*
X57516589Y-162656573D01*
X57566181Y-162517975D01*
X57629118Y-162384905D01*
X57704796Y-162258645D01*
X57792484Y-162140410D01*
X57891340Y-162031340D01*
X58000410Y-161932484D01*
X58118645Y-161844796D01*
X58244905Y-161769118D01*
X58377975Y-161706181D01*
X58516573Y-161656589D01*
X58659365Y-161620822D01*
X58804974Y-161599223D01*
X58952000Y-161592000D01*
X61952000Y-161592000D01*
X62099026Y-161599223D01*
X62099026Y-161599223D01*
G37*
D18*
X60452000Y-164592000D03*
X53252000Y-164592000D03*
D19*
X35814000Y-138938000D02*
X35814000Y-58928000D01*
X56134000Y-58928000D02*
X56134000Y-138938000D01*
D20*
X56134000Y-138938000D02*
X56134000Y-140988000D01*
D19*
X56134000Y-144526000D02*
X35814000Y-144526000D01*
X56134000Y-148336000D02*
X56134000Y-123698000D01*
X35814000Y-148336000D02*
X35814000Y-123698000D01*
X56134000Y-148336000D02*
X54046000Y-148336000D01*
D21*
X46228000Y-155536000D02*
X46228000Y-148336000D01*
D19*
X54046000Y-148336000D02*
X46228000Y-148336000D01*
X46228000Y-148336000D02*
X35814000Y-148336000D01*
D21*
X46228000Y-157568000D02*
X46228000Y-155536000D01*
X53252000Y-164592000D02*
X46228000Y-157568000D01*
D19*
X43434000Y-138938000D02*
X43434000Y-58928000D01*
X63754000Y-58928000D02*
X63754000Y-56642000D01*
X43434000Y-59690000D02*
X43434000Y-56642000D01*
X63754000Y-58928000D02*
X63754000Y-138938000D01*
D22*
X60452000Y-161492000D02*
X60452000Y-164592000D01*
D21*
X63754000Y-164338000D02*
X60960000Y-164338000D01*
D22*
X60452000Y-164592000D02*
X60452000Y-167692000D01*
D23*
G36*
X73752592Y-35587590D02*
G01*
X74085979Y-35688246D01*
X74393469Y-35851740D01*
X74663343Y-36071844D01*
X74885328Y-36340179D01*
X75050967Y-36646519D01*
X75153949Y-36979199D01*
X75194000Y-37360265D01*
X75194001Y-170651210D01*
X75156410Y-171034592D01*
X75055756Y-171367977D01*
X74892257Y-171675472D01*
X74672156Y-171945343D01*
X74403822Y-172167328D01*
X74097476Y-172332968D01*
X73764805Y-172435947D01*
X73383736Y-172476000D01*
X28230780Y-172476000D01*
X27847408Y-172438410D01*
X27514023Y-172337756D01*
X27206528Y-172174257D01*
X26936657Y-171954156D01*
X26714672Y-171685822D01*
X26549032Y-171379476D01*
X26446053Y-171046805D01*
X26406000Y-170665736D01*
X26406000Y-167253224D01*
X26553000Y-167253224D01*
X26553000Y-168026776D01*
X26703912Y-168785464D01*
X26999938Y-169500132D01*
X27429700Y-170143317D01*
X27976683Y-170690300D01*
X28619868Y-171120062D01*
X29334536Y-171416088D01*
X30093224Y-171567000D01*
X30866776Y-171567000D01*
X31625464Y-171416088D01*
X32340132Y-171120062D01*
X32983317Y-170690300D01*
X33530300Y-170143317D01*
X33960062Y-169500132D01*
X34256088Y-168785464D01*
X34407000Y-168026776D01*
X34407000Y-167253224D01*
X34256088Y-166494536D01*
X34168053Y-166282000D01*
X37027483Y-166282000D01*
X37027483Y-167982000D01*
X37041520Y-168124517D01*
X37083090Y-168261557D01*
X37150597Y-168387853D01*
X37241446Y-168498554D01*
X37352147Y-168589403D01*
X37478443Y-168656910D01*
X37615483Y-168698480D01*
X37758000Y-168712517D01*
X39458000Y-168712517D01*
X39600517Y-168698480D01*
X39737557Y-168656910D01*
X39863853Y-168589403D01*
X39974554Y-168498554D01*
X40065403Y-168387853D01*
X40104132Y-168315396D01*
X40267627Y-168449572D01*
X40541588Y-168596007D01*
X40838854Y-168686182D01*
X41070531Y-168709000D01*
X41225469Y-168709000D01*
X41457146Y-168686182D01*
X41754412Y-168596007D01*
X42028373Y-168449572D01*
X42268503Y-168252503D01*
X42465572Y-168012373D01*
X42478183Y-167988779D01*
X42492822Y-168013355D01*
X42687731Y-168229588D01*
X42921080Y-168403641D01*
X43183901Y-168528825D01*
X43331110Y-168573476D01*
X43561000Y-168452155D01*
X43561000Y-167259000D01*
X43815000Y-167259000D01*
X43815000Y-168452155D01*
X44044890Y-168573476D01*
X44192099Y-168528825D01*
X44454920Y-168403641D01*
X44688269Y-168229588D01*
X44883178Y-168013355D01*
X45032157Y-167763252D01*
X45129481Y-167488891D01*
X45008814Y-167259000D01*
X43815000Y-167259000D01*
X43561000Y-167259000D01*
X43541000Y-167259000D01*
X43541000Y-167005000D01*
X43561000Y-167005000D01*
X43561000Y-165811845D01*
X43815000Y-165811845D01*
X43815000Y-167005000D01*
X45008814Y-167005000D01*
X45129481Y-166775109D01*
X45032157Y-166500748D01*
X44883178Y-166250645D01*
X44688269Y-166034412D01*
X44454920Y-165860359D01*
X44192099Y-165735175D01*
X44044890Y-165690524D01*
X43815000Y-165811845D01*
X43561000Y-165811845D01*
X43331110Y-165690524D01*
X43183901Y-165735175D01*
X42921080Y-165860359D01*
X42687731Y-166034412D01*
X42492822Y-166250645D01*
X42478183Y-166275221D01*
X42465572Y-166251627D01*
X42268503Y-166011497D01*
X42028373Y-165814428D01*
X41754412Y-165667993D01*
X41457146Y-165577818D01*
X41225469Y-165555000D01*
X41070531Y-165555000D01*
X40838854Y-165577818D01*
X40541588Y-165667993D01*
X40267627Y-165814428D01*
X40104132Y-165948604D01*
X40065403Y-165876147D01*
X39974554Y-165765446D01*
X39863853Y-165674597D01*
X39737557Y-165607090D01*
X39600517Y-165565520D01*
X39458000Y-165551483D01*
X37758000Y-165551483D01*
X37615483Y-165565520D01*
X37478443Y-165607090D01*
X37352147Y-165674597D01*
X37241446Y-165765446D01*
X37150597Y-165876147D01*
X37083090Y-166002443D01*
X37041520Y-166139483D01*
X37027483Y-166282000D01*
X34168053Y-166282000D01*
X33960062Y-165779868D01*
X33530300Y-165136683D01*
X32983317Y-164589700D01*
X32340132Y-164159938D01*
X31625464Y-163863912D01*
X30866776Y-163713000D01*
X30093224Y-163713000D01*
X29334536Y-163863912D01*
X28619868Y-164159938D01*
X27976683Y-164589700D01*
X27429700Y-165136683D01*
X26999938Y-165779868D01*
X26703912Y-166494536D01*
X26553000Y-167253224D01*
X26406000Y-167253224D01*
X26406000Y-154033413D01*
X38414192Y-154033413D01*
X38509956Y-154297814D01*
X38799571Y-154438704D01*
X39111108Y-154520384D01*
X39432595Y-154539718D01*
X39751675Y-154495961D01*
X40056088Y-154390795D01*
X40230044Y-154297814D01*
X40325808Y-154033413D01*
X39370000Y-153077605D01*
X38414192Y-154033413D01*
X26406000Y-154033413D01*
X26406000Y-152960595D01*
X37728282Y-152960595D01*
X37772039Y-153279675D01*
X37877205Y-153584088D01*
X37970186Y-153758044D01*
X38234587Y-153853808D01*
X39190395Y-152898000D01*
X39549605Y-152898000D01*
X40505413Y-153853808D01*
X40769814Y-153758044D01*
X40910704Y-153468429D01*
X40992384Y-153156892D01*
X41011718Y-152835405D01*
X40967961Y-152516325D01*
X40862795Y-152211912D01*
X40769814Y-152037956D01*
X40505413Y-151942192D01*
X39549605Y-152898000D01*
X39190395Y-152898000D01*
X38234587Y-151942192D01*
X37970186Y-152037956D01*
X37829296Y-152327571D01*
X37747616Y-152639108D01*
X37728282Y-152960595D01*
X26406000Y-152960595D01*
X26406000Y-151762587D01*
X38414192Y-151762587D01*
X39370000Y-152718395D01*
X40325808Y-151762587D01*
X40230044Y-151498186D01*
X39940429Y-151357296D01*
X39628892Y-151275616D01*
X39307405Y-151256282D01*
X38988325Y-151300039D01*
X38683912Y-151405205D01*
X38509956Y-151498186D01*
X38414192Y-151762587D01*
X26406000Y-151762587D01*
X26406000Y-144526000D01*
X33073806Y-144526000D01*
X33087000Y-144659963D01*
X33087000Y-148202039D01*
X33073806Y-148336000D01*
X33126458Y-148870585D01*
X33282391Y-149384627D01*
X33535612Y-149858370D01*
X33876390Y-150273610D01*
X34291630Y-150614388D01*
X34765373Y-150867609D01*
X35279415Y-151023542D01*
X35814000Y-151076194D01*
X35947961Y-151063000D01*
X42001000Y-151063000D01*
X42001000Y-157360356D01*
X41980549Y-157568000D01*
X42001000Y-157775644D01*
X42001000Y-157775651D01*
X42062162Y-158396636D01*
X42303866Y-159193429D01*
X42696373Y-159927758D01*
X43224598Y-160571402D01*
X43385895Y-160703775D01*
X50409891Y-167727772D01*
X50892242Y-168123627D01*
X51626570Y-168516134D01*
X52423363Y-168757838D01*
X53251999Y-168839451D01*
X54080636Y-168757838D01*
X54877429Y-168516134D01*
X55611757Y-168123627D01*
X56255402Y-167595402D01*
X56783627Y-166951757D01*
X56814718Y-166893589D01*
X56813928Y-167592000D01*
X56826188Y-167716482D01*
X56862498Y-167836180D01*
X56921463Y-167946494D01*
X57000815Y-168043185D01*
X57097506Y-168122537D01*
X57207820Y-168181502D01*
X57327518Y-168217812D01*
X57452000Y-168230072D01*
X60166250Y-168227000D01*
X60325000Y-168068250D01*
X60325000Y-164719000D01*
X60579000Y-164719000D01*
X60579000Y-168068250D01*
X60737750Y-168227000D01*
X63452000Y-168230072D01*
X63576482Y-168217812D01*
X63696180Y-168181502D01*
X63806494Y-168122537D01*
X63903185Y-168043185D01*
X63982537Y-167946494D01*
X64041502Y-167836180D01*
X64077812Y-167716482D01*
X64090072Y-167592000D01*
X64089689Y-167253224D01*
X67193000Y-167253224D01*
X67193000Y-168026776D01*
X67343912Y-168785464D01*
X67639938Y-169500132D01*
X68069700Y-170143317D01*
X68616683Y-170690300D01*
X69259868Y-171120062D01*
X69974536Y-171416088D01*
X70733224Y-171567000D01*
X71506776Y-171567000D01*
X72265464Y-171416088D01*
X72980132Y-171120062D01*
X73623317Y-170690300D01*
X74170300Y-170143317D01*
X74600062Y-169500132D01*
X74896088Y-168785464D01*
X75047000Y-168026776D01*
X75047000Y-167253224D01*
X74896088Y-166494536D01*
X74600062Y-165779868D01*
X74170300Y-165136683D01*
X73623317Y-164589700D01*
X72980132Y-164159938D01*
X72265464Y-163863912D01*
X71506776Y-163713000D01*
X70733224Y-163713000D01*
X69974536Y-163863912D01*
X69259868Y-164159938D01*
X68616683Y-164589700D01*
X68069700Y-165136683D01*
X67639938Y-165779868D01*
X67343912Y-166494536D01*
X67193000Y-167253224D01*
X64089689Y-167253224D01*
X64087000Y-164877750D01*
X63928250Y-164719000D01*
X60579000Y-164719000D01*
X60325000Y-164719000D01*
X60305000Y-164719000D01*
X60305000Y-164465000D01*
X60325000Y-164465000D01*
X60325000Y-161115750D01*
X60579000Y-161115750D01*
X60579000Y-164465000D01*
X63928250Y-164465000D01*
X64087000Y-164306250D01*
X64090072Y-161592000D01*
X64077812Y-161467518D01*
X64041502Y-161347820D01*
X63982537Y-161237506D01*
X63903185Y-161140815D01*
X63806494Y-161061463D01*
X63696180Y-161002498D01*
X63576482Y-160966188D01*
X63452000Y-160953928D01*
X60737750Y-160957000D01*
X60579000Y-161115750D01*
X60325000Y-161115750D01*
X60166250Y-160957000D01*
X57452000Y-160953928D01*
X57327518Y-160966188D01*
X57207820Y-161002498D01*
X57097506Y-161061463D01*
X57000815Y-161140815D01*
X56921463Y-161237506D01*
X56862498Y-161347820D01*
X56826188Y-161467518D01*
X56813928Y-161592000D01*
X56814718Y-162290410D01*
X56783627Y-162232242D01*
X56387772Y-161749891D01*
X50455000Y-155817120D01*
X50455000Y-154033413D01*
X51876192Y-154033413D01*
X51971956Y-154297814D01*
X52261571Y-154438704D01*
X52573108Y-154520384D01*
X52894595Y-154539718D01*
X53213675Y-154495961D01*
X53518088Y-154390795D01*
X53692044Y-154297814D01*
X53787808Y-154033413D01*
X52832000Y-153077605D01*
X51876192Y-154033413D01*
X50455000Y-154033413D01*
X50455000Y-152960595D01*
X51190282Y-152960595D01*
X51234039Y-153279675D01*
X51339205Y-153584088D01*
X51432186Y-153758044D01*
X51696587Y-153853808D01*
X52652395Y-152898000D01*
X53011605Y-152898000D01*
X53967413Y-153853808D01*
X54231814Y-153758044D01*
X54372704Y-153468429D01*
X54454384Y-153156892D01*
X54473718Y-152835405D01*
X54429961Y-152516325D01*
X54324795Y-152211912D01*
X54231814Y-152037956D01*
X53967413Y-151942192D01*
X53011605Y-152898000D01*
X52652395Y-152898000D01*
X51696587Y-151942192D01*
X51432186Y-152037956D01*
X51291296Y-152327571D01*
X51209616Y-152639108D01*
X51190282Y-152960595D01*
X50455000Y-152960595D01*
X50455000Y-151762587D01*
X51876192Y-151762587D01*
X52832000Y-152718395D01*
X53787808Y-151762587D01*
X53692044Y-151498186D01*
X53402429Y-151357296D01*
X53090892Y-151275616D01*
X52769405Y-151256282D01*
X52450325Y-151300039D01*
X52145912Y-151405205D01*
X51971956Y-151498186D01*
X51876192Y-151762587D01*
X50455000Y-151762587D01*
X50455000Y-151063000D01*
X56000039Y-151063000D01*
X56134000Y-151076194D01*
X56267961Y-151063000D01*
X56668585Y-151023542D01*
X57182627Y-150867609D01*
X57656370Y-150614388D01*
X58071610Y-150273610D01*
X58412388Y-149858370D01*
X58665609Y-149384627D01*
X58821542Y-148870585D01*
X58874194Y-148336000D01*
X58861000Y-148202039D01*
X58861000Y-144659961D01*
X58874194Y-144526000D01*
X58861000Y-144392039D01*
X58861000Y-141053961D01*
X59035715Y-141197346D01*
X59318363Y-141348425D01*
X59625053Y-141441458D01*
X59944000Y-141472872D01*
X60262948Y-141441458D01*
X60569638Y-141348425D01*
X60852286Y-141197346D01*
X61100029Y-140994029D01*
X61303346Y-140746286D01*
X61454425Y-140463638D01*
X61547458Y-140156948D01*
X61571000Y-139917925D01*
X61571000Y-139065000D01*
X62219000Y-139065000D01*
X62219000Y-139965000D01*
X62273271Y-140262023D01*
X62384446Y-140542751D01*
X62548252Y-140796396D01*
X62758394Y-141013210D01*
X63006796Y-141184862D01*
X63283913Y-141304755D01*
X63389260Y-141329036D01*
X63627000Y-141208378D01*
X63627000Y-139065000D01*
X63881000Y-139065000D01*
X63881000Y-141208378D01*
X64118740Y-141329036D01*
X64224087Y-141304755D01*
X64501204Y-141184862D01*
X64749606Y-141013210D01*
X64959748Y-140796396D01*
X65123554Y-140542751D01*
X65234729Y-140262023D01*
X65289000Y-139965000D01*
X65289000Y-139065000D01*
X63881000Y-139065000D01*
X63627000Y-139065000D01*
X62219000Y-139065000D01*
X61571000Y-139065000D01*
X61571000Y-137958075D01*
X61566364Y-137911000D01*
X62219000Y-137911000D01*
X62219000Y-138811000D01*
X63627000Y-138811000D01*
X63627000Y-136667622D01*
X63881000Y-136667622D01*
X63881000Y-138811000D01*
X65289000Y-138811000D01*
X65289000Y-137911000D01*
X65234729Y-137613977D01*
X65123554Y-137333249D01*
X64959748Y-137079604D01*
X64749606Y-136862790D01*
X64501204Y-136691138D01*
X64224087Y-136571245D01*
X64118740Y-136546964D01*
X63881000Y-136667622D01*
X63627000Y-136667622D01*
X63389260Y-136546964D01*
X63283913Y-136571245D01*
X63006796Y-136691138D01*
X62758394Y-136862790D01*
X62548252Y-137079604D01*
X62384446Y-137333249D01*
X62273271Y-137613977D01*
X62219000Y-137911000D01*
X61566364Y-137911000D01*
X61547458Y-137719052D01*
X61454425Y-137412362D01*
X61303346Y-137129714D01*
X61100029Y-136881971D01*
X60852285Y-136678654D01*
X60569637Y-136527575D01*
X60262947Y-136434542D01*
X59944000Y-136403128D01*
X59625052Y-136434542D01*
X59318362Y-136527575D01*
X59035714Y-136678654D01*
X58861000Y-136822038D01*
X58861000Y-125813961D01*
X59035715Y-125957346D01*
X59318363Y-126108425D01*
X59625053Y-126201458D01*
X59944000Y-126232872D01*
X60262948Y-126201458D01*
X60569638Y-126108425D01*
X60852286Y-125957346D01*
X61100029Y-125754029D01*
X61303346Y-125506286D01*
X61454425Y-125223638D01*
X61547458Y-124916948D01*
X61571000Y-124677925D01*
X61571000Y-123825000D01*
X62219000Y-123825000D01*
X62219000Y-124725000D01*
X62273271Y-125022023D01*
X62384446Y-125302751D01*
X62548252Y-125556396D01*
X62758394Y-125773210D01*
X63006796Y-125944862D01*
X63283913Y-126064755D01*
X63389260Y-126089036D01*
X63627000Y-125968378D01*
X63627000Y-123825000D01*
X63881000Y-123825000D01*
X63881000Y-125968378D01*
X64118740Y-126089036D01*
X64224087Y-126064755D01*
X64501204Y-125944862D01*
X64749606Y-125773210D01*
X64959748Y-125556396D01*
X65123554Y-125302751D01*
X65234729Y-125022023D01*
X65289000Y-124725000D01*
X65289000Y-123825000D01*
X63881000Y-123825000D01*
X63627000Y-123825000D01*
X62219000Y-123825000D01*
X61571000Y-123825000D01*
X61571000Y-122718075D01*
X61566364Y-122671000D01*
X62219000Y-122671000D01*
X62219000Y-123571000D01*
X63627000Y-123571000D01*
X63627000Y-121427622D01*
X63881000Y-121427622D01*
X63881000Y-123571000D01*
X65289000Y-123571000D01*
X65289000Y-122671000D01*
X65234729Y-122373977D01*
X65123554Y-122093249D01*
X64959748Y-121839604D01*
X64749606Y-121622790D01*
X64501204Y-121451138D01*
X64224087Y-121331245D01*
X64118740Y-121306964D01*
X63881000Y-121427622D01*
X63627000Y-121427622D01*
X63389260Y-121306964D01*
X63283913Y-121331245D01*
X63006796Y-121451138D01*
X62758394Y-121622790D01*
X62548252Y-121839604D01*
X62384446Y-122093249D01*
X62273271Y-122373977D01*
X62219000Y-122671000D01*
X61566364Y-122671000D01*
X61547458Y-122479052D01*
X61454425Y-122172362D01*
X61303346Y-121889714D01*
X61100029Y-121641971D01*
X60852285Y-121438654D01*
X60569637Y-121287575D01*
X60262947Y-121194542D01*
X59944000Y-121163128D01*
X59625052Y-121194542D01*
X59318362Y-121287575D01*
X59035714Y-121438654D01*
X58861000Y-121582038D01*
X58861000Y-110573961D01*
X59035715Y-110717346D01*
X59318363Y-110868425D01*
X59625053Y-110961458D01*
X59944000Y-110992872D01*
X60262948Y-110961458D01*
X60569638Y-110868425D01*
X60852286Y-110717346D01*
X61100029Y-110514029D01*
X61303346Y-110266286D01*
X61454425Y-109983638D01*
X61547458Y-109676948D01*
X61571000Y-109437925D01*
X61571000Y-108585000D01*
X62219000Y-108585000D01*
X62219000Y-109485000D01*
X62273271Y-109782023D01*
X62384446Y-110062751D01*
X62548252Y-110316396D01*
X62758394Y-110533210D01*
X63006796Y-110704862D01*
X63283913Y-110824755D01*
X63389260Y-110849036D01*
X63627000Y-110728378D01*
X63627000Y-108585000D01*
X63881000Y-108585000D01*
X63881000Y-110728378D01*
X64118740Y-110849036D01*
X64224087Y-110824755D01*
X64501204Y-110704862D01*
X64749606Y-110533210D01*
X64959748Y-110316396D01*
X65123554Y-110062751D01*
X65234729Y-109782023D01*
X65289000Y-109485000D01*
X65289000Y-108585000D01*
X63881000Y-108585000D01*
X63627000Y-108585000D01*
X62219000Y-108585000D01*
X61571000Y-108585000D01*
X61571000Y-107478075D01*
X61566364Y-107431000D01*
X62219000Y-107431000D01*
X62219000Y-108331000D01*
X63627000Y-108331000D01*
X63627000Y-106187622D01*
X63881000Y-106187622D01*
X63881000Y-108331000D01*
X65289000Y-108331000D01*
X65289000Y-107431000D01*
X65234729Y-107133977D01*
X65123554Y-106853249D01*
X64959748Y-106599604D01*
X64749606Y-106382790D01*
X64501204Y-106211138D01*
X64224087Y-106091245D01*
X64118740Y-106066964D01*
X63881000Y-106187622D01*
X63627000Y-106187622D01*
X63389260Y-106066964D01*
X63283913Y-106091245D01*
X63006796Y-106211138D01*
X62758394Y-106382790D01*
X62548252Y-106599604D01*
X62384446Y-106853249D01*
X62273271Y-107133977D01*
X62219000Y-107431000D01*
X61566364Y-107431000D01*
X61547458Y-107239052D01*
X61454425Y-106932362D01*
X61303346Y-106649714D01*
X61100029Y-106401971D01*
X60852285Y-106198654D01*
X60569637Y-106047575D01*
X60262947Y-105954542D01*
X59944000Y-105923128D01*
X59625052Y-105954542D01*
X59318362Y-106047575D01*
X59035714Y-106198654D01*
X58861000Y-106342038D01*
X58861000Y-94063961D01*
X59035715Y-94207346D01*
X59318363Y-94358425D01*
X59625053Y-94451458D01*
X59944000Y-94482872D01*
X60262948Y-94451458D01*
X60569638Y-94358425D01*
X60852286Y-94207346D01*
X61100029Y-94004029D01*
X61303346Y-93756286D01*
X61454425Y-93473638D01*
X61547458Y-93166948D01*
X61571000Y-92927925D01*
X61571000Y-92075000D01*
X62219000Y-92075000D01*
X62219000Y-92975000D01*
X62273271Y-93272023D01*
X62384446Y-93552751D01*
X62548252Y-93806396D01*
X62758394Y-94023210D01*
X63006796Y-94194862D01*
X63283913Y-94314755D01*
X63389260Y-94339036D01*
X63627000Y-94218378D01*
X63627000Y-92075000D01*
X63881000Y-92075000D01*
X63881000Y-94218378D01*
X64118740Y-94339036D01*
X64224087Y-94314755D01*
X64501204Y-94194862D01*
X64749606Y-94023210D01*
X64959748Y-93806396D01*
X65123554Y-93552751D01*
X65234729Y-93272023D01*
X65289000Y-92975000D01*
X65289000Y-92075000D01*
X63881000Y-92075000D01*
X63627000Y-92075000D01*
X62219000Y-92075000D01*
X61571000Y-92075000D01*
X61571000Y-90968075D01*
X61566364Y-90921000D01*
X62219000Y-90921000D01*
X62219000Y-91821000D01*
X63627000Y-91821000D01*
X63627000Y-89677622D01*
X63881000Y-89677622D01*
X63881000Y-91821000D01*
X65289000Y-91821000D01*
X65289000Y-90921000D01*
X65234729Y-90623977D01*
X65123554Y-90343249D01*
X64959748Y-90089604D01*
X64749606Y-89872790D01*
X64501204Y-89701138D01*
X64224087Y-89581245D01*
X64118740Y-89556964D01*
X63881000Y-89677622D01*
X63627000Y-89677622D01*
X63389260Y-89556964D01*
X63283913Y-89581245D01*
X63006796Y-89701138D01*
X62758394Y-89872790D01*
X62548252Y-90089604D01*
X62384446Y-90343249D01*
X62273271Y-90623977D01*
X62219000Y-90921000D01*
X61566364Y-90921000D01*
X61547458Y-90729052D01*
X61454425Y-90422362D01*
X61303346Y-90139714D01*
X61100029Y-89891971D01*
X60852285Y-89688654D01*
X60569637Y-89537575D01*
X60262947Y-89444542D01*
X59944000Y-89413128D01*
X59625052Y-89444542D01*
X59318362Y-89537575D01*
X59035714Y-89688654D01*
X58861000Y-89832038D01*
X58861000Y-77553961D01*
X59035715Y-77697346D01*
X59318363Y-77848425D01*
X59625053Y-77941458D01*
X59944000Y-77972872D01*
X60262948Y-77941458D01*
X60569638Y-77848425D01*
X60852286Y-77697346D01*
X61100029Y-77494029D01*
X61303346Y-77246286D01*
X61454425Y-76963638D01*
X61547458Y-76656948D01*
X61571000Y-76417925D01*
X61571000Y-75565000D01*
X62219000Y-75565000D01*
X62219000Y-76465000D01*
X62273271Y-76762023D01*
X62384446Y-77042751D01*
X62548252Y-77296396D01*
X62758394Y-77513210D01*
X63006796Y-77684862D01*
X63283913Y-77804755D01*
X63389260Y-77829036D01*
X63627000Y-77708378D01*
X63627000Y-75565000D01*
X63881000Y-75565000D01*
X63881000Y-77708378D01*
X64118740Y-77829036D01*
X64224087Y-77804755D01*
X64501204Y-77684862D01*
X64749606Y-77513210D01*
X64959748Y-77296396D01*
X65123554Y-77042751D01*
X65234729Y-76762023D01*
X65289000Y-76465000D01*
X65289000Y-75565000D01*
X63881000Y-75565000D01*
X63627000Y-75565000D01*
X62219000Y-75565000D01*
X61571000Y-75565000D01*
X61571000Y-74458075D01*
X61566364Y-74411000D01*
X62219000Y-74411000D01*
X62219000Y-75311000D01*
X63627000Y-75311000D01*
X63627000Y-73167622D01*
X63881000Y-73167622D01*
X63881000Y-75311000D01*
X65289000Y-75311000D01*
X65289000Y-74411000D01*
X65234729Y-74113977D01*
X65123554Y-73833249D01*
X64959748Y-73579604D01*
X64749606Y-73362790D01*
X64501204Y-73191138D01*
X64224087Y-73071245D01*
X64118740Y-73046964D01*
X63881000Y-73167622D01*
X63627000Y-73167622D01*
X63389260Y-73046964D01*
X63283913Y-73071245D01*
X63006796Y-73191138D01*
X62758394Y-73362790D01*
X62548252Y-73579604D01*
X62384446Y-73833249D01*
X62273271Y-74113977D01*
X62219000Y-74411000D01*
X61566364Y-74411000D01*
X61547458Y-74219052D01*
X61454425Y-73912362D01*
X61303346Y-73629714D01*
X61100029Y-73381971D01*
X60852285Y-73178654D01*
X60569637Y-73027575D01*
X60262947Y-72934542D01*
X59944000Y-72903128D01*
X59625052Y-72934542D01*
X59318362Y-73027575D01*
X59035714Y-73178654D01*
X58861000Y-73322038D01*
X58861000Y-61043961D01*
X59035715Y-61187346D01*
X59318363Y-61338425D01*
X59625053Y-61431458D01*
X59944000Y-61462872D01*
X60262948Y-61431458D01*
X60569638Y-61338425D01*
X60852286Y-61187346D01*
X61100029Y-60984029D01*
X61303346Y-60736286D01*
X61454425Y-60453638D01*
X61547458Y-60146948D01*
X61571000Y-59907925D01*
X61571000Y-59055000D01*
X62219000Y-59055000D01*
X62219000Y-59955000D01*
X62273271Y-60252023D01*
X62384446Y-60532751D01*
X62548252Y-60786396D01*
X62758394Y-61003210D01*
X63006796Y-61174862D01*
X63283913Y-61294755D01*
X63389260Y-61319036D01*
X63627000Y-61198378D01*
X63627000Y-59055000D01*
X63881000Y-59055000D01*
X63881000Y-61198378D01*
X64118740Y-61319036D01*
X64224087Y-61294755D01*
X64501204Y-61174862D01*
X64749606Y-61003210D01*
X64959748Y-60786396D01*
X65123554Y-60532751D01*
X65234729Y-60252023D01*
X65289000Y-59955000D01*
X65289000Y-59055000D01*
X63881000Y-59055000D01*
X63627000Y-59055000D01*
X62219000Y-59055000D01*
X61571000Y-59055000D01*
X61571000Y-57948075D01*
X61566364Y-57901000D01*
X62219000Y-57901000D01*
X62219000Y-58801000D01*
X63627000Y-58801000D01*
X63627000Y-56657622D01*
X63881000Y-56657622D01*
X63881000Y-58801000D01*
X65289000Y-58801000D01*
X65289000Y-57901000D01*
X65234729Y-57603977D01*
X65123554Y-57323249D01*
X64959748Y-57069604D01*
X64749606Y-56852790D01*
X64501204Y-56681138D01*
X64224087Y-56561245D01*
X64118740Y-56536964D01*
X63881000Y-56657622D01*
X63627000Y-56657622D01*
X63389260Y-56536964D01*
X63283913Y-56561245D01*
X63006796Y-56681138D01*
X62758394Y-56852790D01*
X62548252Y-57069604D01*
X62384446Y-57323249D01*
X62273271Y-57603977D01*
X62219000Y-57901000D01*
X61566364Y-57901000D01*
X61547458Y-57709052D01*
X61454425Y-57402362D01*
X61303346Y-57119714D01*
X61100029Y-56871971D01*
X60852285Y-56668654D01*
X60569637Y-56517575D01*
X60262947Y-56424542D01*
X59944000Y-56393128D01*
X59625052Y-56424542D01*
X59318362Y-56517575D01*
X59035714Y-56668654D01*
X58787971Y-56871971D01*
X58584654Y-57119715D01*
X58433575Y-57402363D01*
X58425272Y-57429734D01*
X58412388Y-57405630D01*
X58071609Y-56990390D01*
X57656369Y-56649612D01*
X57486277Y-56558696D01*
X57439853Y-56520597D01*
X57313557Y-56453090D01*
X57256088Y-56435657D01*
X57182626Y-56396391D01*
X56668584Y-56240458D01*
X56134000Y-56187806D01*
X55599415Y-56240458D01*
X55085373Y-56396391D01*
X55011910Y-56435658D01*
X54954443Y-56453090D01*
X54828147Y-56520597D01*
X54781724Y-56558695D01*
X54611630Y-56649612D01*
X54196390Y-56990391D01*
X53855612Y-57405631D01*
X53602391Y-57879374D01*
X53446458Y-58393416D01*
X53407000Y-58794040D01*
X53407001Y-123564039D01*
X53407000Y-141799000D01*
X38541000Y-141799000D01*
X38541000Y-141053961D01*
X38715715Y-141197346D01*
X38998363Y-141348425D01*
X39305053Y-141441458D01*
X39624000Y-141472872D01*
X39942948Y-141441458D01*
X40249638Y-141348425D01*
X40532286Y-141197346D01*
X40780029Y-140994029D01*
X40983346Y-140746286D01*
X41134425Y-140463638D01*
X41227458Y-140156948D01*
X41251000Y-139917925D01*
X41251000Y-139065000D01*
X41899000Y-139065000D01*
X41899000Y-139965000D01*
X41953271Y-140262023D01*
X42064446Y-140542751D01*
X42228252Y-140796396D01*
X42438394Y-141013210D01*
X42686796Y-141184862D01*
X42963913Y-141304755D01*
X43069260Y-141329036D01*
X43307000Y-141208378D01*
X43307000Y-139065000D01*
X43561000Y-139065000D01*
X43561000Y-141208378D01*
X43798740Y-141329036D01*
X43904087Y-141304755D01*
X44181204Y-141184862D01*
X44429606Y-141013210D01*
X44639748Y-140796396D01*
X44803554Y-140542751D01*
X44914729Y-140262023D01*
X44969000Y-139965000D01*
X44969000Y-139065000D01*
X43561000Y-139065000D01*
X43307000Y-139065000D01*
X41899000Y-139065000D01*
X41251000Y-139065000D01*
X41251000Y-137958075D01*
X41246364Y-137911000D01*
X41899000Y-137911000D01*
X41899000Y-138811000D01*
X43307000Y-138811000D01*
X43307000Y-136667622D01*
X43561000Y-136667622D01*
X43561000Y-138811000D01*
X44969000Y-138811000D01*
X44969000Y-137911000D01*
X44914729Y-137613977D01*
X44803554Y-137333249D01*
X44639748Y-137079604D01*
X44429606Y-136862790D01*
X44181204Y-136691138D01*
X43904087Y-136571245D01*
X43798740Y-136546964D01*
X43561000Y-136667622D01*
X43307000Y-136667622D01*
X43069260Y-136546964D01*
X42963913Y-136571245D01*
X42686796Y-136691138D01*
X42438394Y-136862790D01*
X42228252Y-137079604D01*
X42064446Y-137333249D01*
X41953271Y-137613977D01*
X41899000Y-137911000D01*
X41246364Y-137911000D01*
X41227458Y-137719052D01*
X41134425Y-137412362D01*
X40983346Y-137129714D01*
X40780029Y-136881971D01*
X40532285Y-136678654D01*
X40249637Y-136527575D01*
X39942947Y-136434542D01*
X39624000Y-136403128D01*
X39305052Y-136434542D01*
X38998362Y-136527575D01*
X38715714Y-136678654D01*
X38541000Y-136822038D01*
X38541000Y-125813961D01*
X38715715Y-125957346D01*
X38998363Y-126108425D01*
X39305053Y-126201458D01*
X39624000Y-126232872D01*
X39942948Y-126201458D01*
X40249638Y-126108425D01*
X40532286Y-125957346D01*
X40780029Y-125754029D01*
X40983346Y-125506286D01*
X41134425Y-125223638D01*
X41227458Y-124916948D01*
X41251000Y-124677925D01*
X41251000Y-123825000D01*
X41899000Y-123825000D01*
X41899000Y-124725000D01*
X41953271Y-125022023D01*
X42064446Y-125302751D01*
X42228252Y-125556396D01*
X42438394Y-125773210D01*
X42686796Y-125944862D01*
X42963913Y-126064755D01*
X43069260Y-126089036D01*
X43307000Y-125968378D01*
X43307000Y-123825000D01*
X43561000Y-123825000D01*
X43561000Y-125968378D01*
X43798740Y-126089036D01*
X43904087Y-126064755D01*
X44181204Y-125944862D01*
X44429606Y-125773210D01*
X44639748Y-125556396D01*
X44803554Y-125302751D01*
X44914729Y-125022023D01*
X44969000Y-124725000D01*
X44969000Y-123825000D01*
X43561000Y-123825000D01*
X43307000Y-123825000D01*
X41899000Y-123825000D01*
X41251000Y-123825000D01*
X41251000Y-122718075D01*
X41246364Y-122671000D01*
X41899000Y-122671000D01*
X41899000Y-123571000D01*
X43307000Y-123571000D01*
X43307000Y-121427622D01*
X43561000Y-121427622D01*
X43561000Y-123571000D01*
X44969000Y-123571000D01*
X44969000Y-122671000D01*
X44914729Y-122373977D01*
X44803554Y-122093249D01*
X44639748Y-121839604D01*
X44429606Y-121622790D01*
X44181204Y-121451138D01*
X43904087Y-121331245D01*
X43798740Y-121306964D01*
X43561000Y-121427622D01*
X43307000Y-121427622D01*
X43069260Y-121306964D01*
X42963913Y-121331245D01*
X42686796Y-121451138D01*
X42438394Y-121622790D01*
X42228252Y-121839604D01*
X42064446Y-122093249D01*
X41953271Y-122373977D01*
X41899000Y-122671000D01*
X41246364Y-122671000D01*
X41227458Y-122479052D01*
X41134425Y-122172362D01*
X40983346Y-121889714D01*
X40780029Y-121641971D01*
X40532285Y-121438654D01*
X40249637Y-121287575D01*
X39942947Y-121194542D01*
X39624000Y-121163128D01*
X39305052Y-121194542D01*
X38998362Y-121287575D01*
X38715714Y-121438654D01*
X38541000Y-121582038D01*
X38541000Y-110573961D01*
X38715715Y-110717346D01*
X38998363Y-110868425D01*
X39305053Y-110961458D01*
X39624000Y-110992872D01*
X39942948Y-110961458D01*
X40249638Y-110868425D01*
X40532286Y-110717346D01*
X40780029Y-110514029D01*
X40983346Y-110266286D01*
X41134425Y-109983638D01*
X41227458Y-109676948D01*
X41251000Y-109437925D01*
X41251000Y-108585000D01*
X41899000Y-108585000D01*
X41899000Y-109485000D01*
X41953271Y-109782023D01*
X42064446Y-110062751D01*
X42228252Y-110316396D01*
X42438394Y-110533210D01*
X42686796Y-110704862D01*
X42963913Y-110824755D01*
X43069260Y-110849036D01*
X43307000Y-110728378D01*
X43307000Y-108585000D01*
X43561000Y-108585000D01*
X43561000Y-110728378D01*
X43798740Y-110849036D01*
X43904087Y-110824755D01*
X44181204Y-110704862D01*
X44429606Y-110533210D01*
X44639748Y-110316396D01*
X44803554Y-110062751D01*
X44914729Y-109782023D01*
X44969000Y-109485000D01*
X44969000Y-108585000D01*
X43561000Y-108585000D01*
X43307000Y-108585000D01*
X41899000Y-108585000D01*
X41251000Y-108585000D01*
X41251000Y-107478075D01*
X41246364Y-107431000D01*
X41899000Y-107431000D01*
X41899000Y-108331000D01*
X43307000Y-108331000D01*
X43307000Y-106187622D01*
X43561000Y-106187622D01*
X43561000Y-108331000D01*
X44969000Y-108331000D01*
X44969000Y-107431000D01*
X44914729Y-107133977D01*
X44803554Y-106853249D01*
X44639748Y-106599604D01*
X44429606Y-106382790D01*
X44181204Y-106211138D01*
X43904087Y-106091245D01*
X43798740Y-106066964D01*
X43561000Y-106187622D01*
X43307000Y-106187622D01*
X43069260Y-106066964D01*
X42963913Y-106091245D01*
X42686796Y-106211138D01*
X42438394Y-106382790D01*
X42228252Y-106599604D01*
X42064446Y-106853249D01*
X41953271Y-107133977D01*
X41899000Y-107431000D01*
X41246364Y-107431000D01*
X41227458Y-107239052D01*
X41134425Y-106932362D01*
X40983346Y-106649714D01*
X40780029Y-106401971D01*
X40532285Y-106198654D01*
X40249637Y-106047575D01*
X39942947Y-105954542D01*
X39624000Y-105923128D01*
X39305052Y-105954542D01*
X38998362Y-106047575D01*
X38715714Y-106198654D01*
X38541000Y-106342038D01*
X38541000Y-94063961D01*
X38715715Y-94207346D01*
X38998363Y-94358425D01*
X39305053Y-94451458D01*
X39624000Y-94482872D01*
X39942948Y-94451458D01*
X40249638Y-94358425D01*
X40532286Y-94207346D01*
X40780029Y-94004029D01*
X40983346Y-93756286D01*
X41134425Y-93473638D01*
X41227458Y-93166948D01*
X41251000Y-92927925D01*
X41251000Y-92075000D01*
X41899000Y-92075000D01*
X41899000Y-92975000D01*
X41953271Y-93272023D01*
X42064446Y-93552751D01*
X42228252Y-93806396D01*
X42438394Y-94023210D01*
X42686796Y-94194862D01*
X42963913Y-94314755D01*
X43069260Y-94339036D01*
X43307000Y-94218378D01*
X43307000Y-92075000D01*
X43561000Y-92075000D01*
X43561000Y-94218378D01*
X43798740Y-94339036D01*
X43904087Y-94314755D01*
X44181204Y-94194862D01*
X44429606Y-94023210D01*
X44639748Y-93806396D01*
X44803554Y-93552751D01*
X44914729Y-93272023D01*
X44969000Y-92975000D01*
X44969000Y-92075000D01*
X43561000Y-92075000D01*
X43307000Y-92075000D01*
X41899000Y-92075000D01*
X41251000Y-92075000D01*
X41251000Y-90968075D01*
X41246364Y-90921000D01*
X41899000Y-90921000D01*
X41899000Y-91821000D01*
X43307000Y-91821000D01*
X43307000Y-89677622D01*
X43561000Y-89677622D01*
X43561000Y-91821000D01*
X44969000Y-91821000D01*
X44969000Y-90921000D01*
X44914729Y-90623977D01*
X44803554Y-90343249D01*
X44639748Y-90089604D01*
X44429606Y-89872790D01*
X44181204Y-89701138D01*
X43904087Y-89581245D01*
X43798740Y-89556964D01*
X43561000Y-89677622D01*
X43307000Y-89677622D01*
X43069260Y-89556964D01*
X42963913Y-89581245D01*
X42686796Y-89701138D01*
X42438394Y-89872790D01*
X42228252Y-90089604D01*
X42064446Y-90343249D01*
X41953271Y-90623977D01*
X41899000Y-90921000D01*
X41246364Y-90921000D01*
X41227458Y-90729052D01*
X41134425Y-90422362D01*
X40983346Y-90139714D01*
X40780029Y-89891971D01*
X40532285Y-89688654D01*
X40249637Y-89537575D01*
X39942947Y-89444542D01*
X39624000Y-89413128D01*
X39305052Y-89444542D01*
X38998362Y-89537575D01*
X38715714Y-89688654D01*
X38541000Y-89832038D01*
X38541000Y-77553961D01*
X38715715Y-77697346D01*
X38998363Y-77848425D01*
X39305053Y-77941458D01*
X39624000Y-77972872D01*
X39942948Y-77941458D01*
X40249638Y-77848425D01*
X40532286Y-77697346D01*
X40780029Y-77494029D01*
X40983346Y-77246286D01*
X41134425Y-76963638D01*
X41227458Y-76656948D01*
X41251000Y-76417925D01*
X41251000Y-75565000D01*
X41899000Y-75565000D01*
X41899000Y-76465000D01*
X41953271Y-76762023D01*
X42064446Y-77042751D01*
X42228252Y-77296396D01*
X42438394Y-77513210D01*
X42686796Y-77684862D01*
X42963913Y-77804755D01*
X43069260Y-77829036D01*
X43307000Y-77708378D01*
X43307000Y-75565000D01*
X43561000Y-75565000D01*
X43561000Y-77708378D01*
X43798740Y-77829036D01*
X43904087Y-77804755D01*
X44181204Y-77684862D01*
X44429606Y-77513210D01*
X44639748Y-77296396D01*
X44803554Y-77042751D01*
X44914729Y-76762023D01*
X44969000Y-76465000D01*
X44969000Y-75565000D01*
X43561000Y-75565000D01*
X43307000Y-75565000D01*
X41899000Y-75565000D01*
X41251000Y-75565000D01*
X41251000Y-74458075D01*
X41246364Y-74411000D01*
X41899000Y-74411000D01*
X41899000Y-75311000D01*
X43307000Y-75311000D01*
X43307000Y-73167622D01*
X43561000Y-73167622D01*
X43561000Y-75311000D01*
X44969000Y-75311000D01*
X44969000Y-74411000D01*
X44914729Y-74113977D01*
X44803554Y-73833249D01*
X44639748Y-73579604D01*
X44429606Y-73362790D01*
X44181204Y-73191138D01*
X43904087Y-73071245D01*
X43798740Y-73046964D01*
X43561000Y-73167622D01*
X43307000Y-73167622D01*
X43069260Y-73046964D01*
X42963913Y-73071245D01*
X42686796Y-73191138D01*
X42438394Y-73362790D01*
X42228252Y-73579604D01*
X42064446Y-73833249D01*
X41953271Y-74113977D01*
X41899000Y-74411000D01*
X41246364Y-74411000D01*
X41227458Y-74219052D01*
X41134425Y-73912362D01*
X40983346Y-73629714D01*
X40780029Y-73381971D01*
X40532285Y-73178654D01*
X40249637Y-73027575D01*
X39942947Y-72934542D01*
X39624000Y-72903128D01*
X39305052Y-72934542D01*
X38998362Y-73027575D01*
X38715714Y-73178654D01*
X38541000Y-73322038D01*
X38541000Y-61043961D01*
X38715715Y-61187346D01*
X38998363Y-61338425D01*
X39305053Y-61431458D01*
X39624000Y-61462872D01*
X39942948Y-61431458D01*
X40249638Y-61338425D01*
X40532286Y-61187346D01*
X40780029Y-60984029D01*
X40983346Y-60736286D01*
X41134425Y-60453638D01*
X41227458Y-60146948D01*
X41251000Y-59907925D01*
X41251000Y-59055000D01*
X41899000Y-59055000D01*
X41899000Y-59955000D01*
X41953271Y-60252023D01*
X42064446Y-60532751D01*
X42228252Y-60786396D01*
X42438394Y-61003210D01*
X42686796Y-61174862D01*
X42963913Y-61294755D01*
X43069260Y-61319036D01*
X43307000Y-61198378D01*
X43307000Y-59055000D01*
X43561000Y-59055000D01*
X43561000Y-61198378D01*
X43798740Y-61319036D01*
X43904087Y-61294755D01*
X44181204Y-61174862D01*
X44429606Y-61003210D01*
X44639748Y-60786396D01*
X44803554Y-60532751D01*
X44914729Y-60252023D01*
X44969000Y-59955000D01*
X44969000Y-59055000D01*
X43561000Y-59055000D01*
X43307000Y-59055000D01*
X41899000Y-59055000D01*
X41251000Y-59055000D01*
X41251000Y-57948075D01*
X41246364Y-57901000D01*
X41899000Y-57901000D01*
X41899000Y-58801000D01*
X43307000Y-58801000D01*
X43307000Y-56657622D01*
X43561000Y-56657622D01*
X43561000Y-58801000D01*
X44969000Y-58801000D01*
X44969000Y-57901000D01*
X44914729Y-57603977D01*
X44803554Y-57323249D01*
X44639748Y-57069604D01*
X44429606Y-56852790D01*
X44181204Y-56681138D01*
X43904087Y-56561245D01*
X43798740Y-56536964D01*
X43561000Y-56657622D01*
X43307000Y-56657622D01*
X43069260Y-56536964D01*
X42963913Y-56561245D01*
X42686796Y-56681138D01*
X42438394Y-56852790D01*
X42228252Y-57069604D01*
X42064446Y-57323249D01*
X41953271Y-57603977D01*
X41899000Y-57901000D01*
X41246364Y-57901000D01*
X41227458Y-57709052D01*
X41134425Y-57402362D01*
X40983346Y-57119714D01*
X40780029Y-56871971D01*
X40532285Y-56668654D01*
X40249637Y-56517575D01*
X39942947Y-56424542D01*
X39624000Y-56393128D01*
X39305052Y-56424542D01*
X38998362Y-56517575D01*
X38715714Y-56668654D01*
X38467971Y-56871971D01*
X38264654Y-57119715D01*
X38113575Y-57402363D01*
X38105272Y-57429734D01*
X38092388Y-57405630D01*
X37751610Y-56990390D01*
X37336370Y-56649612D01*
X37166276Y-56558695D01*
X37119853Y-56520597D01*
X36993557Y-56453090D01*
X36936090Y-56435658D01*
X36862627Y-56396391D01*
X36348585Y-56240458D01*
X35814000Y-56187806D01*
X35279416Y-56240458D01*
X34765374Y-56396391D01*
X34691912Y-56435657D01*
X34634443Y-56453090D01*
X34508147Y-56520597D01*
X34461723Y-56558696D01*
X34291631Y-56649612D01*
X33876391Y-56990390D01*
X33535613Y-57405630D01*
X33282392Y-57879373D01*
X33126459Y-58393415D01*
X33087001Y-58794039D01*
X33087000Y-136403128D01*
X33087000Y-144392037D01*
X33073806Y-144526000D01*
X26406000Y-144526000D01*
X26406000Y-40253224D01*
X26553000Y-40253224D01*
X26553000Y-41026776D01*
X26703912Y-41785464D01*
X26999938Y-42500132D01*
X27429700Y-43143317D01*
X27976683Y-43690300D01*
X28619868Y-44120062D01*
X29334536Y-44416088D01*
X30093224Y-44567000D01*
X30866776Y-44567000D01*
X31625464Y-44416088D01*
X32340132Y-44120062D01*
X32983317Y-43690300D01*
X33530300Y-43143317D01*
X33960062Y-42500132D01*
X34256088Y-41785464D01*
X34299344Y-41568000D01*
X36773483Y-41568000D01*
X36773483Y-43268000D01*
X36787520Y-43410517D01*
X36829090Y-43547557D01*
X36896597Y-43673853D01*
X36987446Y-43784554D01*
X37098147Y-43875403D01*
X37224443Y-43942910D01*
X37361483Y-43984480D01*
X37504000Y-43998517D01*
X39204000Y-43998517D01*
X39346517Y-43984480D01*
X39483557Y-43942910D01*
X39609853Y-43875403D01*
X39720554Y-43784554D01*
X39811403Y-43673853D01*
X39850132Y-43601396D01*
X40013627Y-43735572D01*
X40287588Y-43882007D01*
X40584854Y-43972182D01*
X40816531Y-43995000D01*
X40971469Y-43995000D01*
X41203146Y-43972182D01*
X41500412Y-43882007D01*
X41774373Y-43735572D01*
X42014503Y-43538503D01*
X42211572Y-43298373D01*
X42224183Y-43274779D01*
X42238822Y-43299355D01*
X42433731Y-43515588D01*
X42667080Y-43689641D01*
X42929901Y-43814825D01*
X43077110Y-43859476D01*
X43307000Y-43738155D01*
X43307000Y-42545000D01*
X43561000Y-42545000D01*
X43561000Y-43738155D01*
X43790890Y-43859476D01*
X43938099Y-43814825D01*
X44200920Y-43689641D01*
X44434269Y-43515588D01*
X44629178Y-43299355D01*
X44778157Y-43049252D01*
X44875481Y-42774891D01*
X44754814Y-42545000D01*
X43561000Y-42545000D01*
X43307000Y-42545000D01*
X43287000Y-42545000D01*
X43287000Y-42291000D01*
X43307000Y-42291000D01*
X43307000Y-41097845D01*
X43561000Y-41097845D01*
X43561000Y-42291000D01*
X44754814Y-42291000D01*
X44875481Y-42061109D01*
X44778157Y-41786748D01*
X44629178Y-41536645D01*
X44434269Y-41320412D01*
X44200920Y-41146359D01*
X43938099Y-41021175D01*
X43790890Y-40976524D01*
X43561000Y-41097845D01*
X43307000Y-41097845D01*
X43077110Y-40976524D01*
X42929901Y-41021175D01*
X42667080Y-41146359D01*
X42433731Y-41320412D01*
X42238822Y-41536645D01*
X42224183Y-41561221D01*
X42211572Y-41537627D01*
X42014503Y-41297497D01*
X41774373Y-41100428D01*
X41500412Y-40953993D01*
X41203146Y-40863818D01*
X40971469Y-40841000D01*
X40816531Y-40841000D01*
X40584854Y-40863818D01*
X40287588Y-40953993D01*
X40013627Y-41100428D01*
X39850132Y-41234604D01*
X39811403Y-41162147D01*
X39720554Y-41051446D01*
X39609853Y-40960597D01*
X39483557Y-40893090D01*
X39346517Y-40851520D01*
X39204000Y-40837483D01*
X37504000Y-40837483D01*
X37361483Y-40851520D01*
X37224443Y-40893090D01*
X37098147Y-40960597D01*
X36987446Y-41051446D01*
X36896597Y-41162147D01*
X36829090Y-41288443D01*
X36787520Y-41425483D01*
X36773483Y-41568000D01*
X34299344Y-41568000D01*
X34407000Y-41026776D01*
X34407000Y-40253224D01*
X67193000Y-40253224D01*
X67193000Y-41026776D01*
X67343912Y-41785464D01*
X67639938Y-42500132D01*
X68069700Y-43143317D01*
X68616683Y-43690300D01*
X69259868Y-44120062D01*
X69974536Y-44416088D01*
X70733224Y-44567000D01*
X71506776Y-44567000D01*
X72265464Y-44416088D01*
X72980132Y-44120062D01*
X73623317Y-43690300D01*
X74170300Y-43143317D01*
X74600062Y-42500132D01*
X74896088Y-41785464D01*
X75047000Y-41026776D01*
X75047000Y-40253224D01*
X74896088Y-39494536D01*
X74600062Y-38779868D01*
X74170300Y-38136683D01*
X73623317Y-37589700D01*
X72980132Y-37159938D01*
X72265464Y-36863912D01*
X71506776Y-36713000D01*
X70733224Y-36713000D01*
X69974536Y-36863912D01*
X69259868Y-37159938D01*
X68616683Y-37589700D01*
X68069700Y-38136683D01*
X67639938Y-38779868D01*
X67343912Y-39494536D01*
X67193000Y-40253224D01*
X34407000Y-40253224D01*
X34256088Y-39494536D01*
X33960062Y-38779868D01*
X33530300Y-38136683D01*
X32983317Y-37589700D01*
X32340132Y-37159938D01*
X31625464Y-36863912D01*
X30866776Y-36713000D01*
X30093224Y-36713000D01*
X29334536Y-36863912D01*
X28619868Y-37159938D01*
X27976683Y-37589700D01*
X27429700Y-38136683D01*
X26999938Y-38779868D01*
X26703912Y-39494536D01*
X26553000Y-40253224D01*
X26406000Y-40253224D01*
X26406000Y-37374780D01*
X26443590Y-36991408D01*
X26544246Y-36658021D01*
X26707740Y-36350531D01*
X26927844Y-36080657D01*
X27196179Y-35858672D01*
X27502519Y-35693033D01*
X27835199Y-35590051D01*
X28216265Y-35550000D01*
X73369220Y-35550000D01*
X73752592Y-35587590D01*
X73752592Y-35587590D01*
G37*
X73752592Y-35587590D02*
X74085979Y-35688246D01*
X74393469Y-35851740D01*
X74663343Y-36071844D01*
X74885328Y-36340179D01*
X75050967Y-36646519D01*
X75153949Y-36979199D01*
X75194000Y-37360265D01*
X75194001Y-170651210D01*
X75156410Y-171034592D01*
X75055756Y-171367977D01*
X74892257Y-171675472D01*
X74672156Y-171945343D01*
X74403822Y-172167328D01*
X74097476Y-172332968D01*
X73764805Y-172435947D01*
X73383736Y-172476000D01*
X28230780Y-172476000D01*
X27847408Y-172438410D01*
X27514023Y-172337756D01*
X27206528Y-172174257D01*
X26936657Y-171954156D01*
X26714672Y-171685822D01*
X26549032Y-171379476D01*
X26446053Y-171046805D01*
X26406000Y-170665736D01*
X26406000Y-167253224D01*
X26553000Y-167253224D01*
X26553000Y-168026776D01*
X26703912Y-168785464D01*
X26999938Y-169500132D01*
X27429700Y-170143317D01*
X27976683Y-170690300D01*
X28619868Y-171120062D01*
X29334536Y-171416088D01*
X30093224Y-171567000D01*
X30866776Y-171567000D01*
X31625464Y-171416088D01*
X32340132Y-171120062D01*
X32983317Y-170690300D01*
X33530300Y-170143317D01*
X33960062Y-169500132D01*
X34256088Y-168785464D01*
X34407000Y-168026776D01*
X34407000Y-167253224D01*
X34256088Y-166494536D01*
X34168053Y-166282000D01*
X37027483Y-166282000D01*
X37027483Y-167982000D01*
X37041520Y-168124517D01*
X37083090Y-168261557D01*
X37150597Y-168387853D01*
X37241446Y-168498554D01*
X37352147Y-168589403D01*
X37478443Y-168656910D01*
X37615483Y-168698480D01*
X37758000Y-168712517D01*
X39458000Y-168712517D01*
X39600517Y-168698480D01*
X39737557Y-168656910D01*
X39863853Y-168589403D01*
X39974554Y-168498554D01*
X40065403Y-168387853D01*
X40104132Y-168315396D01*
X40267627Y-168449572D01*
X40541588Y-168596007D01*
X40838854Y-168686182D01*
X41070531Y-168709000D01*
X41225469Y-168709000D01*
X41457146Y-168686182D01*
X41754412Y-168596007D01*
X42028373Y-168449572D01*
X42268503Y-168252503D01*
X42465572Y-168012373D01*
X42478183Y-167988779D01*
X42492822Y-168013355D01*
X42687731Y-168229588D01*
X42921080Y-168403641D01*
X43183901Y-168528825D01*
X43331110Y-168573476D01*
X43561000Y-168452155D01*
X43561000Y-167259000D01*
X43815000Y-167259000D01*
X43815000Y-168452155D01*
X44044890Y-168573476D01*
X44192099Y-168528825D01*
X44454920Y-168403641D01*
X44688269Y-168229588D01*
X44883178Y-168013355D01*
X45032157Y-167763252D01*
X45129481Y-167488891D01*
X45008814Y-167259000D01*
X43815000Y-167259000D01*
X43561000Y-167259000D01*
X43541000Y-167259000D01*
X43541000Y-167005000D01*
X43561000Y-167005000D01*
X43561000Y-165811845D01*
X43815000Y-165811845D01*
X43815000Y-167005000D01*
X45008814Y-167005000D01*
X45129481Y-166775109D01*
X45032157Y-166500748D01*
X44883178Y-166250645D01*
X44688269Y-166034412D01*
X44454920Y-165860359D01*
X44192099Y-165735175D01*
X44044890Y-165690524D01*
X43815000Y-165811845D01*
X43561000Y-165811845D01*
X43331110Y-165690524D01*
X43183901Y-165735175D01*
X42921080Y-165860359D01*
X42687731Y-166034412D01*
X42492822Y-166250645D01*
X42478183Y-166275221D01*
X42465572Y-166251627D01*
X42268503Y-166011497D01*
X42028373Y-165814428D01*
X41754412Y-165667993D01*
X41457146Y-165577818D01*
X41225469Y-165555000D01*
X41070531Y-165555000D01*
X40838854Y-165577818D01*
X40541588Y-165667993D01*
X40267627Y-165814428D01*
X40104132Y-165948604D01*
X40065403Y-165876147D01*
X39974554Y-165765446D01*
X39863853Y-165674597D01*
X39737557Y-165607090D01*
X39600517Y-165565520D01*
X39458000Y-165551483D01*
X37758000Y-165551483D01*
X37615483Y-165565520D01*
X37478443Y-165607090D01*
X37352147Y-165674597D01*
X37241446Y-165765446D01*
X37150597Y-165876147D01*
X37083090Y-166002443D01*
X37041520Y-166139483D01*
X37027483Y-166282000D01*
X34168053Y-166282000D01*
X33960062Y-165779868D01*
X33530300Y-165136683D01*
X32983317Y-164589700D01*
X32340132Y-164159938D01*
X31625464Y-163863912D01*
X30866776Y-163713000D01*
X30093224Y-163713000D01*
X29334536Y-163863912D01*
X28619868Y-164159938D01*
X27976683Y-164589700D01*
X27429700Y-165136683D01*
X26999938Y-165779868D01*
X26703912Y-166494536D01*
X26553000Y-167253224D01*
X26406000Y-167253224D01*
X26406000Y-154033413D01*
X38414192Y-154033413D01*
X38509956Y-154297814D01*
X38799571Y-154438704D01*
X39111108Y-154520384D01*
X39432595Y-154539718D01*
X39751675Y-154495961D01*
X40056088Y-154390795D01*
X40230044Y-154297814D01*
X40325808Y-154033413D01*
X39370000Y-153077605D01*
X38414192Y-154033413D01*
X26406000Y-154033413D01*
X26406000Y-152960595D01*
X37728282Y-152960595D01*
X37772039Y-153279675D01*
X37877205Y-153584088D01*
X37970186Y-153758044D01*
X38234587Y-153853808D01*
X39190395Y-152898000D01*
X39549605Y-152898000D01*
X40505413Y-153853808D01*
X40769814Y-153758044D01*
X40910704Y-153468429D01*
X40992384Y-153156892D01*
X41011718Y-152835405D01*
X40967961Y-152516325D01*
X40862795Y-152211912D01*
X40769814Y-152037956D01*
X40505413Y-151942192D01*
X39549605Y-152898000D01*
X39190395Y-152898000D01*
X38234587Y-151942192D01*
X37970186Y-152037956D01*
X37829296Y-152327571D01*
X37747616Y-152639108D01*
X37728282Y-152960595D01*
X26406000Y-152960595D01*
X26406000Y-151762587D01*
X38414192Y-151762587D01*
X39370000Y-152718395D01*
X40325808Y-151762587D01*
X40230044Y-151498186D01*
X39940429Y-151357296D01*
X39628892Y-151275616D01*
X39307405Y-151256282D01*
X38988325Y-151300039D01*
X38683912Y-151405205D01*
X38509956Y-151498186D01*
X38414192Y-151762587D01*
X26406000Y-151762587D01*
X26406000Y-144526000D01*
X33073806Y-144526000D01*
X33087000Y-144659963D01*
X33087000Y-148202039D01*
X33073806Y-148336000D01*
X33126458Y-148870585D01*
X33282391Y-149384627D01*
X33535612Y-149858370D01*
X33876390Y-150273610D01*
X34291630Y-150614388D01*
X34765373Y-150867609D01*
X35279415Y-151023542D01*
X35814000Y-151076194D01*
X35947961Y-151063000D01*
X42001000Y-151063000D01*
X42001000Y-157360356D01*
X41980549Y-157568000D01*
X42001000Y-157775644D01*
X42001000Y-157775651D01*
X42062162Y-158396636D01*
X42303866Y-159193429D01*
X42696373Y-159927758D01*
X43224598Y-160571402D01*
X43385895Y-160703775D01*
X50409891Y-167727772D01*
X50892242Y-168123627D01*
X51626570Y-168516134D01*
X52423363Y-168757838D01*
X53251999Y-168839451D01*
X54080636Y-168757838D01*
X54877429Y-168516134D01*
X55611757Y-168123627D01*
X56255402Y-167595402D01*
X56783627Y-166951757D01*
X56814718Y-166893589D01*
X56813928Y-167592000D01*
X56826188Y-167716482D01*
X56862498Y-167836180D01*
X56921463Y-167946494D01*
X57000815Y-168043185D01*
X57097506Y-168122537D01*
X57207820Y-168181502D01*
X57327518Y-168217812D01*
X57452000Y-168230072D01*
X60166250Y-168227000D01*
X60325000Y-168068250D01*
X60325000Y-164719000D01*
X60579000Y-164719000D01*
X60579000Y-168068250D01*
X60737750Y-168227000D01*
X63452000Y-168230072D01*
X63576482Y-168217812D01*
X63696180Y-168181502D01*
X63806494Y-168122537D01*
X63903185Y-168043185D01*
X63982537Y-167946494D01*
X64041502Y-167836180D01*
X64077812Y-167716482D01*
X64090072Y-167592000D01*
X64089689Y-167253224D01*
X67193000Y-167253224D01*
X67193000Y-168026776D01*
X67343912Y-168785464D01*
X67639938Y-169500132D01*
X68069700Y-170143317D01*
X68616683Y-170690300D01*
X69259868Y-171120062D01*
X69974536Y-171416088D01*
X70733224Y-171567000D01*
X71506776Y-171567000D01*
X72265464Y-171416088D01*
X72980132Y-171120062D01*
X73623317Y-170690300D01*
X74170300Y-170143317D01*
X74600062Y-169500132D01*
X74896088Y-168785464D01*
X75047000Y-168026776D01*
X75047000Y-167253224D01*
X74896088Y-166494536D01*
X74600062Y-165779868D01*
X74170300Y-165136683D01*
X73623317Y-164589700D01*
X72980132Y-164159938D01*
X72265464Y-163863912D01*
X71506776Y-163713000D01*
X70733224Y-163713000D01*
X69974536Y-163863912D01*
X69259868Y-164159938D01*
X68616683Y-164589700D01*
X68069700Y-165136683D01*
X67639938Y-165779868D01*
X67343912Y-166494536D01*
X67193000Y-167253224D01*
X64089689Y-167253224D01*
X64087000Y-164877750D01*
X63928250Y-164719000D01*
X60579000Y-164719000D01*
X60325000Y-164719000D01*
X60305000Y-164719000D01*
X60305000Y-164465000D01*
X60325000Y-164465000D01*
X60325000Y-161115750D01*
X60579000Y-161115750D01*
X60579000Y-164465000D01*
X63928250Y-164465000D01*
X64087000Y-164306250D01*
X64090072Y-161592000D01*
X64077812Y-161467518D01*
X64041502Y-161347820D01*
X63982537Y-161237506D01*
X63903185Y-161140815D01*
X63806494Y-161061463D01*
X63696180Y-161002498D01*
X63576482Y-160966188D01*
X63452000Y-160953928D01*
X60737750Y-160957000D01*
X60579000Y-161115750D01*
X60325000Y-161115750D01*
X60166250Y-160957000D01*
X57452000Y-160953928D01*
X57327518Y-160966188D01*
X57207820Y-161002498D01*
X57097506Y-161061463D01*
X57000815Y-161140815D01*
X56921463Y-161237506D01*
X56862498Y-161347820D01*
X56826188Y-161467518D01*
X56813928Y-161592000D01*
X56814718Y-162290410D01*
X56783627Y-162232242D01*
X56387772Y-161749891D01*
X50455000Y-155817120D01*
X50455000Y-154033413D01*
X51876192Y-154033413D01*
X51971956Y-154297814D01*
X52261571Y-154438704D01*
X52573108Y-154520384D01*
X52894595Y-154539718D01*
X53213675Y-154495961D01*
X53518088Y-154390795D01*
X53692044Y-154297814D01*
X53787808Y-154033413D01*
X52832000Y-153077605D01*
X51876192Y-154033413D01*
X50455000Y-154033413D01*
X50455000Y-152960595D01*
X51190282Y-152960595D01*
X51234039Y-153279675D01*
X51339205Y-153584088D01*
X51432186Y-153758044D01*
X51696587Y-153853808D01*
X52652395Y-152898000D01*
X53011605Y-152898000D01*
X53967413Y-153853808D01*
X54231814Y-153758044D01*
X54372704Y-153468429D01*
X54454384Y-153156892D01*
X54473718Y-152835405D01*
X54429961Y-152516325D01*
X54324795Y-152211912D01*
X54231814Y-152037956D01*
X53967413Y-151942192D01*
X53011605Y-152898000D01*
X52652395Y-152898000D01*
X51696587Y-151942192D01*
X51432186Y-152037956D01*
X51291296Y-152327571D01*
X51209616Y-152639108D01*
X51190282Y-152960595D01*
X50455000Y-152960595D01*
X50455000Y-151762587D01*
X51876192Y-151762587D01*
X52832000Y-152718395D01*
X53787808Y-151762587D01*
X53692044Y-151498186D01*
X53402429Y-151357296D01*
X53090892Y-151275616D01*
X52769405Y-151256282D01*
X52450325Y-151300039D01*
X52145912Y-151405205D01*
X51971956Y-151498186D01*
X51876192Y-151762587D01*
X50455000Y-151762587D01*
X50455000Y-151063000D01*
X56000039Y-151063000D01*
X56134000Y-151076194D01*
X56267961Y-151063000D01*
X56668585Y-151023542D01*
X57182627Y-150867609D01*
X57656370Y-150614388D01*
X58071610Y-150273610D01*
X58412388Y-149858370D01*
X58665609Y-149384627D01*
X58821542Y-148870585D01*
X58874194Y-148336000D01*
X58861000Y-148202039D01*
X58861000Y-144659961D01*
X58874194Y-144526000D01*
X58861000Y-144392039D01*
X58861000Y-141053961D01*
X59035715Y-141197346D01*
X59318363Y-141348425D01*
X59625053Y-141441458D01*
X59944000Y-141472872D01*
X60262948Y-141441458D01*
X60569638Y-141348425D01*
X60852286Y-141197346D01*
X61100029Y-140994029D01*
X61303346Y-140746286D01*
X61454425Y-140463638D01*
X61547458Y-140156948D01*
X61571000Y-139917925D01*
X61571000Y-139065000D01*
X62219000Y-139065000D01*
X62219000Y-139965000D01*
X62273271Y-140262023D01*
X62384446Y-140542751D01*
X62548252Y-140796396D01*
X62758394Y-141013210D01*
X63006796Y-141184862D01*
X63283913Y-141304755D01*
X63389260Y-141329036D01*
X63627000Y-141208378D01*
X63627000Y-139065000D01*
X63881000Y-139065000D01*
X63881000Y-141208378D01*
X64118740Y-141329036D01*
X64224087Y-141304755D01*
X64501204Y-141184862D01*
X64749606Y-141013210D01*
X64959748Y-140796396D01*
X65123554Y-140542751D01*
X65234729Y-140262023D01*
X65289000Y-139965000D01*
X65289000Y-139065000D01*
X63881000Y-139065000D01*
X63627000Y-139065000D01*
X62219000Y-139065000D01*
X61571000Y-139065000D01*
X61571000Y-137958075D01*
X61566364Y-137911000D01*
X62219000Y-137911000D01*
X62219000Y-138811000D01*
X63627000Y-138811000D01*
X63627000Y-136667622D01*
X63881000Y-136667622D01*
X63881000Y-138811000D01*
X65289000Y-138811000D01*
X65289000Y-137911000D01*
X65234729Y-137613977D01*
X65123554Y-137333249D01*
X64959748Y-137079604D01*
X64749606Y-136862790D01*
X64501204Y-136691138D01*
X64224087Y-136571245D01*
X64118740Y-136546964D01*
X63881000Y-136667622D01*
X63627000Y-136667622D01*
X63389260Y-136546964D01*
X63283913Y-136571245D01*
X63006796Y-136691138D01*
X62758394Y-136862790D01*
X62548252Y-137079604D01*
X62384446Y-137333249D01*
X62273271Y-137613977D01*
X62219000Y-137911000D01*
X61566364Y-137911000D01*
X61547458Y-137719052D01*
X61454425Y-137412362D01*
X61303346Y-137129714D01*
X61100029Y-136881971D01*
X60852285Y-136678654D01*
X60569637Y-136527575D01*
X60262947Y-136434542D01*
X59944000Y-136403128D01*
X59625052Y-136434542D01*
X59318362Y-136527575D01*
X59035714Y-136678654D01*
X58861000Y-136822038D01*
X58861000Y-125813961D01*
X59035715Y-125957346D01*
X59318363Y-126108425D01*
X59625053Y-126201458D01*
X59944000Y-126232872D01*
X60262948Y-126201458D01*
X60569638Y-126108425D01*
X60852286Y-125957346D01*
X61100029Y-125754029D01*
X61303346Y-125506286D01*
X61454425Y-125223638D01*
X61547458Y-124916948D01*
X61571000Y-124677925D01*
X61571000Y-123825000D01*
X62219000Y-123825000D01*
X62219000Y-124725000D01*
X62273271Y-125022023D01*
X62384446Y-125302751D01*
X62548252Y-125556396D01*
X62758394Y-125773210D01*
X63006796Y-125944862D01*
X63283913Y-126064755D01*
X63389260Y-126089036D01*
X63627000Y-125968378D01*
X63627000Y-123825000D01*
X63881000Y-123825000D01*
X63881000Y-125968378D01*
X64118740Y-126089036D01*
X64224087Y-126064755D01*
X64501204Y-125944862D01*
X64749606Y-125773210D01*
X64959748Y-125556396D01*
X65123554Y-125302751D01*
X65234729Y-125022023D01*
X65289000Y-124725000D01*
X65289000Y-123825000D01*
X63881000Y-123825000D01*
X63627000Y-123825000D01*
X62219000Y-123825000D01*
X61571000Y-123825000D01*
X61571000Y-122718075D01*
X61566364Y-122671000D01*
X62219000Y-122671000D01*
X62219000Y-123571000D01*
X63627000Y-123571000D01*
X63627000Y-121427622D01*
X63881000Y-121427622D01*
X63881000Y-123571000D01*
X65289000Y-123571000D01*
X65289000Y-122671000D01*
X65234729Y-122373977D01*
X65123554Y-122093249D01*
X64959748Y-121839604D01*
X64749606Y-121622790D01*
X64501204Y-121451138D01*
X64224087Y-121331245D01*
X64118740Y-121306964D01*
X63881000Y-121427622D01*
X63627000Y-121427622D01*
X63389260Y-121306964D01*
X63283913Y-121331245D01*
X63006796Y-121451138D01*
X62758394Y-121622790D01*
X62548252Y-121839604D01*
X62384446Y-122093249D01*
X62273271Y-122373977D01*
X62219000Y-122671000D01*
X61566364Y-122671000D01*
X61547458Y-122479052D01*
X61454425Y-122172362D01*
X61303346Y-121889714D01*
X61100029Y-121641971D01*
X60852285Y-121438654D01*
X60569637Y-121287575D01*
X60262947Y-121194542D01*
X59944000Y-121163128D01*
X59625052Y-121194542D01*
X59318362Y-121287575D01*
X59035714Y-121438654D01*
X58861000Y-121582038D01*
X58861000Y-110573961D01*
X59035715Y-110717346D01*
X59318363Y-110868425D01*
X59625053Y-110961458D01*
X59944000Y-110992872D01*
X60262948Y-110961458D01*
X60569638Y-110868425D01*
X60852286Y-110717346D01*
X61100029Y-110514029D01*
X61303346Y-110266286D01*
X61454425Y-109983638D01*
X61547458Y-109676948D01*
X61571000Y-109437925D01*
X61571000Y-108585000D01*
X62219000Y-108585000D01*
X62219000Y-109485000D01*
X62273271Y-109782023D01*
X62384446Y-110062751D01*
X62548252Y-110316396D01*
X62758394Y-110533210D01*
X63006796Y-110704862D01*
X63283913Y-110824755D01*
X63389260Y-110849036D01*
X63627000Y-110728378D01*
X63627000Y-108585000D01*
X63881000Y-108585000D01*
X63881000Y-110728378D01*
X64118740Y-110849036D01*
X64224087Y-110824755D01*
X64501204Y-110704862D01*
X64749606Y-110533210D01*
X64959748Y-110316396D01*
X65123554Y-110062751D01*
X65234729Y-109782023D01*
X65289000Y-109485000D01*
X65289000Y-108585000D01*
X63881000Y-108585000D01*
X63627000Y-108585000D01*
X62219000Y-108585000D01*
X61571000Y-108585000D01*
X61571000Y-107478075D01*
X61566364Y-107431000D01*
X62219000Y-107431000D01*
X62219000Y-108331000D01*
X63627000Y-108331000D01*
X63627000Y-106187622D01*
X63881000Y-106187622D01*
X63881000Y-108331000D01*
X65289000Y-108331000D01*
X65289000Y-107431000D01*
X65234729Y-107133977D01*
X65123554Y-106853249D01*
X64959748Y-106599604D01*
X64749606Y-106382790D01*
X64501204Y-106211138D01*
X64224087Y-106091245D01*
X64118740Y-106066964D01*
X63881000Y-106187622D01*
X63627000Y-106187622D01*
X63389260Y-106066964D01*
X63283913Y-106091245D01*
X63006796Y-106211138D01*
X62758394Y-106382790D01*
X62548252Y-106599604D01*
X62384446Y-106853249D01*
X62273271Y-107133977D01*
X62219000Y-107431000D01*
X61566364Y-107431000D01*
X61547458Y-107239052D01*
X61454425Y-106932362D01*
X61303346Y-106649714D01*
X61100029Y-106401971D01*
X60852285Y-106198654D01*
X60569637Y-106047575D01*
X60262947Y-105954542D01*
X59944000Y-105923128D01*
X59625052Y-105954542D01*
X59318362Y-106047575D01*
X59035714Y-106198654D01*
X58861000Y-106342038D01*
X58861000Y-94063961D01*
X59035715Y-94207346D01*
X59318363Y-94358425D01*
X59625053Y-94451458D01*
X59944000Y-94482872D01*
X60262948Y-94451458D01*
X60569638Y-94358425D01*
X60852286Y-94207346D01*
X61100029Y-94004029D01*
X61303346Y-93756286D01*
X61454425Y-93473638D01*
X61547458Y-93166948D01*
X61571000Y-92927925D01*
X61571000Y-92075000D01*
X62219000Y-92075000D01*
X62219000Y-92975000D01*
X62273271Y-93272023D01*
X62384446Y-93552751D01*
X62548252Y-93806396D01*
X62758394Y-94023210D01*
X63006796Y-94194862D01*
X63283913Y-94314755D01*
X63389260Y-94339036D01*
X63627000Y-94218378D01*
X63627000Y-92075000D01*
X63881000Y-92075000D01*
X63881000Y-94218378D01*
X64118740Y-94339036D01*
X64224087Y-94314755D01*
X64501204Y-94194862D01*
X64749606Y-94023210D01*
X64959748Y-93806396D01*
X65123554Y-93552751D01*
X65234729Y-93272023D01*
X65289000Y-92975000D01*
X65289000Y-92075000D01*
X63881000Y-92075000D01*
X63627000Y-92075000D01*
X62219000Y-92075000D01*
X61571000Y-92075000D01*
X61571000Y-90968075D01*
X61566364Y-90921000D01*
X62219000Y-90921000D01*
X62219000Y-91821000D01*
X63627000Y-91821000D01*
X63627000Y-89677622D01*
X63881000Y-89677622D01*
X63881000Y-91821000D01*
X65289000Y-91821000D01*
X65289000Y-90921000D01*
X65234729Y-90623977D01*
X65123554Y-90343249D01*
X64959748Y-90089604D01*
X64749606Y-89872790D01*
X64501204Y-89701138D01*
X64224087Y-89581245D01*
X64118740Y-89556964D01*
X63881000Y-89677622D01*
X63627000Y-89677622D01*
X63389260Y-89556964D01*
X63283913Y-89581245D01*
X63006796Y-89701138D01*
X62758394Y-89872790D01*
X62548252Y-90089604D01*
X62384446Y-90343249D01*
X62273271Y-90623977D01*
X62219000Y-90921000D01*
X61566364Y-90921000D01*
X61547458Y-90729052D01*
X61454425Y-90422362D01*
X61303346Y-90139714D01*
X61100029Y-89891971D01*
X60852285Y-89688654D01*
X60569637Y-89537575D01*
X60262947Y-89444542D01*
X59944000Y-89413128D01*
X59625052Y-89444542D01*
X59318362Y-89537575D01*
X59035714Y-89688654D01*
X58861000Y-89832038D01*
X58861000Y-77553961D01*
X59035715Y-77697346D01*
X59318363Y-77848425D01*
X59625053Y-77941458D01*
X59944000Y-77972872D01*
X60262948Y-77941458D01*
X60569638Y-77848425D01*
X60852286Y-77697346D01*
X61100029Y-77494029D01*
X61303346Y-77246286D01*
X61454425Y-76963638D01*
X61547458Y-76656948D01*
X61571000Y-76417925D01*
X61571000Y-75565000D01*
X62219000Y-75565000D01*
X62219000Y-76465000D01*
X62273271Y-76762023D01*
X62384446Y-77042751D01*
X62548252Y-77296396D01*
X62758394Y-77513210D01*
X63006796Y-77684862D01*
X63283913Y-77804755D01*
X63389260Y-77829036D01*
X63627000Y-77708378D01*
X63627000Y-75565000D01*
X63881000Y-75565000D01*
X63881000Y-77708378D01*
X64118740Y-77829036D01*
X64224087Y-77804755D01*
X64501204Y-77684862D01*
X64749606Y-77513210D01*
X64959748Y-77296396D01*
X65123554Y-77042751D01*
X65234729Y-76762023D01*
X65289000Y-76465000D01*
X65289000Y-75565000D01*
X63881000Y-75565000D01*
X63627000Y-75565000D01*
X62219000Y-75565000D01*
X61571000Y-75565000D01*
X61571000Y-74458075D01*
X61566364Y-74411000D01*
X62219000Y-74411000D01*
X62219000Y-75311000D01*
X63627000Y-75311000D01*
X63627000Y-73167622D01*
X63881000Y-73167622D01*
X63881000Y-75311000D01*
X65289000Y-75311000D01*
X65289000Y-74411000D01*
X65234729Y-74113977D01*
X65123554Y-73833249D01*
X64959748Y-73579604D01*
X64749606Y-73362790D01*
X64501204Y-73191138D01*
X64224087Y-73071245D01*
X64118740Y-73046964D01*
X63881000Y-73167622D01*
X63627000Y-73167622D01*
X63389260Y-73046964D01*
X63283913Y-73071245D01*
X63006796Y-73191138D01*
X62758394Y-73362790D01*
X62548252Y-73579604D01*
X62384446Y-73833249D01*
X62273271Y-74113977D01*
X62219000Y-74411000D01*
X61566364Y-74411000D01*
X61547458Y-74219052D01*
X61454425Y-73912362D01*
X61303346Y-73629714D01*
X61100029Y-73381971D01*
X60852285Y-73178654D01*
X60569637Y-73027575D01*
X60262947Y-72934542D01*
X59944000Y-72903128D01*
X59625052Y-72934542D01*
X59318362Y-73027575D01*
X59035714Y-73178654D01*
X58861000Y-73322038D01*
X58861000Y-61043961D01*
X59035715Y-61187346D01*
X59318363Y-61338425D01*
X59625053Y-61431458D01*
X59944000Y-61462872D01*
X60262948Y-61431458D01*
X60569638Y-61338425D01*
X60852286Y-61187346D01*
X61100029Y-60984029D01*
X61303346Y-60736286D01*
X61454425Y-60453638D01*
X61547458Y-60146948D01*
X61571000Y-59907925D01*
X61571000Y-59055000D01*
X62219000Y-59055000D01*
X62219000Y-59955000D01*
X62273271Y-60252023D01*
X62384446Y-60532751D01*
X62548252Y-60786396D01*
X62758394Y-61003210D01*
X63006796Y-61174862D01*
X63283913Y-61294755D01*
X63389260Y-61319036D01*
X63627000Y-61198378D01*
X63627000Y-59055000D01*
X63881000Y-59055000D01*
X63881000Y-61198378D01*
X64118740Y-61319036D01*
X64224087Y-61294755D01*
X64501204Y-61174862D01*
X64749606Y-61003210D01*
X64959748Y-60786396D01*
X65123554Y-60532751D01*
X65234729Y-60252023D01*
X65289000Y-59955000D01*
X65289000Y-59055000D01*
X63881000Y-59055000D01*
X63627000Y-59055000D01*
X62219000Y-59055000D01*
X61571000Y-59055000D01*
X61571000Y-57948075D01*
X61566364Y-57901000D01*
X62219000Y-57901000D01*
X62219000Y-58801000D01*
X63627000Y-58801000D01*
X63627000Y-56657622D01*
X63881000Y-56657622D01*
X63881000Y-58801000D01*
X65289000Y-58801000D01*
X65289000Y-57901000D01*
X65234729Y-57603977D01*
X65123554Y-57323249D01*
X64959748Y-57069604D01*
X64749606Y-56852790D01*
X64501204Y-56681138D01*
X64224087Y-56561245D01*
X64118740Y-56536964D01*
X63881000Y-56657622D01*
X63627000Y-56657622D01*
X63389260Y-56536964D01*
X63283913Y-56561245D01*
X63006796Y-56681138D01*
X62758394Y-56852790D01*
X62548252Y-57069604D01*
X62384446Y-57323249D01*
X62273271Y-57603977D01*
X62219000Y-57901000D01*
X61566364Y-57901000D01*
X61547458Y-57709052D01*
X61454425Y-57402362D01*
X61303346Y-57119714D01*
X61100029Y-56871971D01*
X60852285Y-56668654D01*
X60569637Y-56517575D01*
X60262947Y-56424542D01*
X59944000Y-56393128D01*
X59625052Y-56424542D01*
X59318362Y-56517575D01*
X59035714Y-56668654D01*
X58787971Y-56871971D01*
X58584654Y-57119715D01*
X58433575Y-57402363D01*
X58425272Y-57429734D01*
X58412388Y-57405630D01*
X58071609Y-56990390D01*
X57656369Y-56649612D01*
X57486277Y-56558696D01*
X57439853Y-56520597D01*
X57313557Y-56453090D01*
X57256088Y-56435657D01*
X57182626Y-56396391D01*
X56668584Y-56240458D01*
X56134000Y-56187806D01*
X55599415Y-56240458D01*
X55085373Y-56396391D01*
X55011910Y-56435658D01*
X54954443Y-56453090D01*
X54828147Y-56520597D01*
X54781724Y-56558695D01*
X54611630Y-56649612D01*
X54196390Y-56990391D01*
X53855612Y-57405631D01*
X53602391Y-57879374D01*
X53446458Y-58393416D01*
X53407000Y-58794040D01*
X53407001Y-123564039D01*
X53407000Y-141799000D01*
X38541000Y-141799000D01*
X38541000Y-141053961D01*
X38715715Y-141197346D01*
X38998363Y-141348425D01*
X39305053Y-141441458D01*
X39624000Y-141472872D01*
X39942948Y-141441458D01*
X40249638Y-141348425D01*
X40532286Y-141197346D01*
X40780029Y-140994029D01*
X40983346Y-140746286D01*
X41134425Y-140463638D01*
X41227458Y-140156948D01*
X41251000Y-139917925D01*
X41251000Y-139065000D01*
X41899000Y-139065000D01*
X41899000Y-139965000D01*
X41953271Y-140262023D01*
X42064446Y-140542751D01*
X42228252Y-140796396D01*
X42438394Y-141013210D01*
X42686796Y-141184862D01*
X42963913Y-141304755D01*
X43069260Y-141329036D01*
X43307000Y-141208378D01*
X43307000Y-139065000D01*
X43561000Y-139065000D01*
X43561000Y-141208378D01*
X43798740Y-141329036D01*
X43904087Y-141304755D01*
X44181204Y-141184862D01*
X44429606Y-141013210D01*
X44639748Y-140796396D01*
X44803554Y-140542751D01*
X44914729Y-140262023D01*
X44969000Y-139965000D01*
X44969000Y-139065000D01*
X43561000Y-139065000D01*
X43307000Y-139065000D01*
X41899000Y-139065000D01*
X41251000Y-139065000D01*
X41251000Y-137958075D01*
X41246364Y-137911000D01*
X41899000Y-137911000D01*
X41899000Y-138811000D01*
X43307000Y-138811000D01*
X43307000Y-136667622D01*
X43561000Y-136667622D01*
X43561000Y-138811000D01*
X44969000Y-138811000D01*
X44969000Y-137911000D01*
X44914729Y-137613977D01*
X44803554Y-137333249D01*
X44639748Y-137079604D01*
X44429606Y-136862790D01*
X44181204Y-136691138D01*
X43904087Y-136571245D01*
X43798740Y-136546964D01*
X43561000Y-136667622D01*
X43307000Y-136667622D01*
X43069260Y-136546964D01*
X42963913Y-136571245D01*
X42686796Y-136691138D01*
X42438394Y-136862790D01*
X42228252Y-137079604D01*
X42064446Y-137333249D01*
X41953271Y-137613977D01*
X41899000Y-137911000D01*
X41246364Y-137911000D01*
X41227458Y-137719052D01*
X41134425Y-137412362D01*
X40983346Y-137129714D01*
X40780029Y-136881971D01*
X40532285Y-136678654D01*
X40249637Y-136527575D01*
X39942947Y-136434542D01*
X39624000Y-136403128D01*
X39305052Y-136434542D01*
X38998362Y-136527575D01*
X38715714Y-136678654D01*
X38541000Y-136822038D01*
X38541000Y-125813961D01*
X38715715Y-125957346D01*
X38998363Y-126108425D01*
X39305053Y-126201458D01*
X39624000Y-126232872D01*
X39942948Y-126201458D01*
X40249638Y-126108425D01*
X40532286Y-125957346D01*
X40780029Y-125754029D01*
X40983346Y-125506286D01*
X41134425Y-125223638D01*
X41227458Y-124916948D01*
X41251000Y-124677925D01*
X41251000Y-123825000D01*
X41899000Y-123825000D01*
X41899000Y-124725000D01*
X41953271Y-125022023D01*
X42064446Y-125302751D01*
X42228252Y-125556396D01*
X42438394Y-125773210D01*
X42686796Y-125944862D01*
X42963913Y-126064755D01*
X43069260Y-126089036D01*
X43307000Y-125968378D01*
X43307000Y-123825000D01*
X43561000Y-123825000D01*
X43561000Y-125968378D01*
X43798740Y-126089036D01*
X43904087Y-126064755D01*
X44181204Y-125944862D01*
X44429606Y-125773210D01*
X44639748Y-125556396D01*
X44803554Y-125302751D01*
X44914729Y-125022023D01*
X44969000Y-124725000D01*
X44969000Y-123825000D01*
X43561000Y-123825000D01*
X43307000Y-123825000D01*
X41899000Y-123825000D01*
X41251000Y-123825000D01*
X41251000Y-122718075D01*
X41246364Y-122671000D01*
X41899000Y-122671000D01*
X41899000Y-123571000D01*
X43307000Y-123571000D01*
X43307000Y-121427622D01*
X43561000Y-121427622D01*
X43561000Y-123571000D01*
X44969000Y-123571000D01*
X44969000Y-122671000D01*
X44914729Y-122373977D01*
X44803554Y-122093249D01*
X44639748Y-121839604D01*
X44429606Y-121622790D01*
X44181204Y-121451138D01*
X43904087Y-121331245D01*
X43798740Y-121306964D01*
X43561000Y-121427622D01*
X43307000Y-121427622D01*
X43069260Y-121306964D01*
X42963913Y-121331245D01*
X42686796Y-121451138D01*
X42438394Y-121622790D01*
X42228252Y-121839604D01*
X42064446Y-122093249D01*
X41953271Y-122373977D01*
X41899000Y-122671000D01*
X41246364Y-122671000D01*
X41227458Y-122479052D01*
X41134425Y-122172362D01*
X40983346Y-121889714D01*
X40780029Y-121641971D01*
X40532285Y-121438654D01*
X40249637Y-121287575D01*
X39942947Y-121194542D01*
X39624000Y-121163128D01*
X39305052Y-121194542D01*
X38998362Y-121287575D01*
X38715714Y-121438654D01*
X38541000Y-121582038D01*
X38541000Y-110573961D01*
X38715715Y-110717346D01*
X38998363Y-110868425D01*
X39305053Y-110961458D01*
X39624000Y-110992872D01*
X39942948Y-110961458D01*
X40249638Y-110868425D01*
X40532286Y-110717346D01*
X40780029Y-110514029D01*
X40983346Y-110266286D01*
X41134425Y-109983638D01*
X41227458Y-109676948D01*
X41251000Y-109437925D01*
X41251000Y-108585000D01*
X41899000Y-108585000D01*
X41899000Y-109485000D01*
X41953271Y-109782023D01*
X42064446Y-110062751D01*
X42228252Y-110316396D01*
X42438394Y-110533210D01*
X42686796Y-110704862D01*
X42963913Y-110824755D01*
X43069260Y-110849036D01*
X43307000Y-110728378D01*
X43307000Y-108585000D01*
X43561000Y-108585000D01*
X43561000Y-110728378D01*
X43798740Y-110849036D01*
X43904087Y-110824755D01*
X44181204Y-110704862D01*
X44429606Y-110533210D01*
X44639748Y-110316396D01*
X44803554Y-110062751D01*
X44914729Y-109782023D01*
X44969000Y-109485000D01*
X44969000Y-108585000D01*
X43561000Y-108585000D01*
X43307000Y-108585000D01*
X41899000Y-108585000D01*
X41251000Y-108585000D01*
X41251000Y-107478075D01*
X41246364Y-107431000D01*
X41899000Y-107431000D01*
X41899000Y-108331000D01*
X43307000Y-108331000D01*
X43307000Y-106187622D01*
X43561000Y-106187622D01*
X43561000Y-108331000D01*
X44969000Y-108331000D01*
X44969000Y-107431000D01*
X44914729Y-107133977D01*
X44803554Y-106853249D01*
X44639748Y-106599604D01*
X44429606Y-106382790D01*
X44181204Y-106211138D01*
X43904087Y-106091245D01*
X43798740Y-106066964D01*
X43561000Y-106187622D01*
X43307000Y-106187622D01*
X43069260Y-106066964D01*
X42963913Y-106091245D01*
X42686796Y-106211138D01*
X42438394Y-106382790D01*
X42228252Y-106599604D01*
X42064446Y-106853249D01*
X41953271Y-107133977D01*
X41899000Y-107431000D01*
X41246364Y-107431000D01*
X41227458Y-107239052D01*
X41134425Y-106932362D01*
X40983346Y-106649714D01*
X40780029Y-106401971D01*
X40532285Y-106198654D01*
X40249637Y-106047575D01*
X39942947Y-105954542D01*
X39624000Y-105923128D01*
X39305052Y-105954542D01*
X38998362Y-106047575D01*
X38715714Y-106198654D01*
X38541000Y-106342038D01*
X38541000Y-94063961D01*
X38715715Y-94207346D01*
X38998363Y-94358425D01*
X39305053Y-94451458D01*
X39624000Y-94482872D01*
X39942948Y-94451458D01*
X40249638Y-94358425D01*
X40532286Y-94207346D01*
X40780029Y-94004029D01*
X40983346Y-93756286D01*
X41134425Y-93473638D01*
X41227458Y-93166948D01*
X41251000Y-92927925D01*
X41251000Y-92075000D01*
X41899000Y-92075000D01*
X41899000Y-92975000D01*
X41953271Y-93272023D01*
X42064446Y-93552751D01*
X42228252Y-93806396D01*
X42438394Y-94023210D01*
X42686796Y-94194862D01*
X42963913Y-94314755D01*
X43069260Y-94339036D01*
X43307000Y-94218378D01*
X43307000Y-92075000D01*
X43561000Y-92075000D01*
X43561000Y-94218378D01*
X43798740Y-94339036D01*
X43904087Y-94314755D01*
X44181204Y-94194862D01*
X44429606Y-94023210D01*
X44639748Y-93806396D01*
X44803554Y-93552751D01*
X44914729Y-93272023D01*
X44969000Y-92975000D01*
X44969000Y-92075000D01*
X43561000Y-92075000D01*
X43307000Y-92075000D01*
X41899000Y-92075000D01*
X41251000Y-92075000D01*
X41251000Y-90968075D01*
X41246364Y-90921000D01*
X41899000Y-90921000D01*
X41899000Y-91821000D01*
X43307000Y-91821000D01*
X43307000Y-89677622D01*
X43561000Y-89677622D01*
X43561000Y-91821000D01*
X44969000Y-91821000D01*
X44969000Y-90921000D01*
X44914729Y-90623977D01*
X44803554Y-90343249D01*
X44639748Y-90089604D01*
X44429606Y-89872790D01*
X44181204Y-89701138D01*
X43904087Y-89581245D01*
X43798740Y-89556964D01*
X43561000Y-89677622D01*
X43307000Y-89677622D01*
X43069260Y-89556964D01*
X42963913Y-89581245D01*
X42686796Y-89701138D01*
X42438394Y-89872790D01*
X42228252Y-90089604D01*
X42064446Y-90343249D01*
X41953271Y-90623977D01*
X41899000Y-90921000D01*
X41246364Y-90921000D01*
X41227458Y-90729052D01*
X41134425Y-90422362D01*
X40983346Y-90139714D01*
X40780029Y-89891971D01*
X40532285Y-89688654D01*
X40249637Y-89537575D01*
X39942947Y-89444542D01*
X39624000Y-89413128D01*
X39305052Y-89444542D01*
X38998362Y-89537575D01*
X38715714Y-89688654D01*
X38541000Y-89832038D01*
X38541000Y-77553961D01*
X38715715Y-77697346D01*
X38998363Y-77848425D01*
X39305053Y-77941458D01*
X39624000Y-77972872D01*
X39942948Y-77941458D01*
X40249638Y-77848425D01*
X40532286Y-77697346D01*
X40780029Y-77494029D01*
X40983346Y-77246286D01*
X41134425Y-76963638D01*
X41227458Y-76656948D01*
X41251000Y-76417925D01*
X41251000Y-75565000D01*
X41899000Y-75565000D01*
X41899000Y-76465000D01*
X41953271Y-76762023D01*
X42064446Y-77042751D01*
X42228252Y-77296396D01*
X42438394Y-77513210D01*
X42686796Y-77684862D01*
X42963913Y-77804755D01*
X43069260Y-77829036D01*
X43307000Y-77708378D01*
X43307000Y-75565000D01*
X43561000Y-75565000D01*
X43561000Y-77708378D01*
X43798740Y-77829036D01*
X43904087Y-77804755D01*
X44181204Y-77684862D01*
X44429606Y-77513210D01*
X44639748Y-77296396D01*
X44803554Y-77042751D01*
X44914729Y-76762023D01*
X44969000Y-76465000D01*
X44969000Y-75565000D01*
X43561000Y-75565000D01*
X43307000Y-75565000D01*
X41899000Y-75565000D01*
X41251000Y-75565000D01*
X41251000Y-74458075D01*
X41246364Y-74411000D01*
X41899000Y-74411000D01*
X41899000Y-75311000D01*
X43307000Y-75311000D01*
X43307000Y-73167622D01*
X43561000Y-73167622D01*
X43561000Y-75311000D01*
X44969000Y-75311000D01*
X44969000Y-74411000D01*
X44914729Y-74113977D01*
X44803554Y-73833249D01*
X44639748Y-73579604D01*
X44429606Y-73362790D01*
X44181204Y-73191138D01*
X43904087Y-73071245D01*
X43798740Y-73046964D01*
X43561000Y-73167622D01*
X43307000Y-73167622D01*
X43069260Y-73046964D01*
X42963913Y-73071245D01*
X42686796Y-73191138D01*
X42438394Y-73362790D01*
X42228252Y-73579604D01*
X42064446Y-73833249D01*
X41953271Y-74113977D01*
X41899000Y-74411000D01*
X41246364Y-74411000D01*
X41227458Y-74219052D01*
X41134425Y-73912362D01*
X40983346Y-73629714D01*
X40780029Y-73381971D01*
X40532285Y-73178654D01*
X40249637Y-73027575D01*
X39942947Y-72934542D01*
X39624000Y-72903128D01*
X39305052Y-72934542D01*
X38998362Y-73027575D01*
X38715714Y-73178654D01*
X38541000Y-73322038D01*
X38541000Y-61043961D01*
X38715715Y-61187346D01*
X38998363Y-61338425D01*
X39305053Y-61431458D01*
X39624000Y-61462872D01*
X39942948Y-61431458D01*
X40249638Y-61338425D01*
X40532286Y-61187346D01*
X40780029Y-60984029D01*
X40983346Y-60736286D01*
X41134425Y-60453638D01*
X41227458Y-60146948D01*
X41251000Y-59907925D01*
X41251000Y-59055000D01*
X41899000Y-59055000D01*
X41899000Y-59955000D01*
X41953271Y-60252023D01*
X42064446Y-60532751D01*
X42228252Y-60786396D01*
X42438394Y-61003210D01*
X42686796Y-61174862D01*
X42963913Y-61294755D01*
X43069260Y-61319036D01*
X43307000Y-61198378D01*
X43307000Y-59055000D01*
X43561000Y-59055000D01*
X43561000Y-61198378D01*
X43798740Y-61319036D01*
X43904087Y-61294755D01*
X44181204Y-61174862D01*
X44429606Y-61003210D01*
X44639748Y-60786396D01*
X44803554Y-60532751D01*
X44914729Y-60252023D01*
X44969000Y-59955000D01*
X44969000Y-59055000D01*
X43561000Y-59055000D01*
X43307000Y-59055000D01*
X41899000Y-59055000D01*
X41251000Y-59055000D01*
X41251000Y-57948075D01*
X41246364Y-57901000D01*
X41899000Y-57901000D01*
X41899000Y-58801000D01*
X43307000Y-58801000D01*
X43307000Y-56657622D01*
X43561000Y-56657622D01*
X43561000Y-58801000D01*
X44969000Y-58801000D01*
X44969000Y-57901000D01*
X44914729Y-57603977D01*
X44803554Y-57323249D01*
X44639748Y-57069604D01*
X44429606Y-56852790D01*
X44181204Y-56681138D01*
X43904087Y-56561245D01*
X43798740Y-56536964D01*
X43561000Y-56657622D01*
X43307000Y-56657622D01*
X43069260Y-56536964D01*
X42963913Y-56561245D01*
X42686796Y-56681138D01*
X42438394Y-56852790D01*
X42228252Y-57069604D01*
X42064446Y-57323249D01*
X41953271Y-57603977D01*
X41899000Y-57901000D01*
X41246364Y-57901000D01*
X41227458Y-57709052D01*
X41134425Y-57402362D01*
X40983346Y-57119714D01*
X40780029Y-56871971D01*
X40532285Y-56668654D01*
X40249637Y-56517575D01*
X39942947Y-56424542D01*
X39624000Y-56393128D01*
X39305052Y-56424542D01*
X38998362Y-56517575D01*
X38715714Y-56668654D01*
X38467971Y-56871971D01*
X38264654Y-57119715D01*
X38113575Y-57402363D01*
X38105272Y-57429734D01*
X38092388Y-57405630D01*
X37751610Y-56990390D01*
X37336370Y-56649612D01*
X37166276Y-56558695D01*
X37119853Y-56520597D01*
X36993557Y-56453090D01*
X36936090Y-56435658D01*
X36862627Y-56396391D01*
X36348585Y-56240458D01*
X35814000Y-56187806D01*
X35279416Y-56240458D01*
X34765374Y-56396391D01*
X34691912Y-56435657D01*
X34634443Y-56453090D01*
X34508147Y-56520597D01*
X34461723Y-56558696D01*
X34291631Y-56649612D01*
X33876391Y-56990390D01*
X33535613Y-57405630D01*
X33282392Y-57879373D01*
X33126459Y-58393415D01*
X33087001Y-58794039D01*
X33087000Y-136403128D01*
X33087000Y-144392037D01*
X33073806Y-144526000D01*
X26406000Y-144526000D01*
X26406000Y-40253224D01*
X26553000Y-40253224D01*
X26553000Y-41026776D01*
X26703912Y-41785464D01*
X26999938Y-42500132D01*
X27429700Y-43143317D01*
X27976683Y-43690300D01*
X28619868Y-44120062D01*
X29334536Y-44416088D01*
X30093224Y-44567000D01*
X30866776Y-44567000D01*
X31625464Y-44416088D01*
X32340132Y-44120062D01*
X32983317Y-43690300D01*
X33530300Y-43143317D01*
X33960062Y-42500132D01*
X34256088Y-41785464D01*
X34299344Y-41568000D01*
X36773483Y-41568000D01*
X36773483Y-43268000D01*
X36787520Y-43410517D01*
X36829090Y-43547557D01*
X36896597Y-43673853D01*
X36987446Y-43784554D01*
X37098147Y-43875403D01*
X37224443Y-43942910D01*
X37361483Y-43984480D01*
X37504000Y-43998517D01*
X39204000Y-43998517D01*
X39346517Y-43984480D01*
X39483557Y-43942910D01*
X39609853Y-43875403D01*
X39720554Y-43784554D01*
X39811403Y-43673853D01*
X39850132Y-43601396D01*
X40013627Y-43735572D01*
X40287588Y-43882007D01*
X40584854Y-43972182D01*
X40816531Y-43995000D01*
X40971469Y-43995000D01*
X41203146Y-43972182D01*
X41500412Y-43882007D01*
X41774373Y-43735572D01*
X42014503Y-43538503D01*
X42211572Y-43298373D01*
X42224183Y-43274779D01*
X42238822Y-43299355D01*
X42433731Y-43515588D01*
X42667080Y-43689641D01*
X42929901Y-43814825D01*
X43077110Y-43859476D01*
X43307000Y-43738155D01*
X43307000Y-42545000D01*
X43561000Y-42545000D01*
X43561000Y-43738155D01*
X43790890Y-43859476D01*
X43938099Y-43814825D01*
X44200920Y-43689641D01*
X44434269Y-43515588D01*
X44629178Y-43299355D01*
X44778157Y-43049252D01*
X44875481Y-42774891D01*
X44754814Y-42545000D01*
X43561000Y-42545000D01*
X43307000Y-42545000D01*
X43287000Y-42545000D01*
X43287000Y-42291000D01*
X43307000Y-42291000D01*
X43307000Y-41097845D01*
X43561000Y-41097845D01*
X43561000Y-42291000D01*
X44754814Y-42291000D01*
X44875481Y-42061109D01*
X44778157Y-41786748D01*
X44629178Y-41536645D01*
X44434269Y-41320412D01*
X44200920Y-41146359D01*
X43938099Y-41021175D01*
X43790890Y-40976524D01*
X43561000Y-41097845D01*
X43307000Y-41097845D01*
X43077110Y-40976524D01*
X42929901Y-41021175D01*
X42667080Y-41146359D01*
X42433731Y-41320412D01*
X42238822Y-41536645D01*
X42224183Y-41561221D01*
X42211572Y-41537627D01*
X42014503Y-41297497D01*
X41774373Y-41100428D01*
X41500412Y-40953993D01*
X41203146Y-40863818D01*
X40971469Y-40841000D01*
X40816531Y-40841000D01*
X40584854Y-40863818D01*
X40287588Y-40953993D01*
X40013627Y-41100428D01*
X39850132Y-41234604D01*
X39811403Y-41162147D01*
X39720554Y-41051446D01*
X39609853Y-40960597D01*
X39483557Y-40893090D01*
X39346517Y-40851520D01*
X39204000Y-40837483D01*
X37504000Y-40837483D01*
X37361483Y-40851520D01*
X37224443Y-40893090D01*
X37098147Y-40960597D01*
X36987446Y-41051446D01*
X36896597Y-41162147D01*
X36829090Y-41288443D01*
X36787520Y-41425483D01*
X36773483Y-41568000D01*
X34299344Y-41568000D01*
X34407000Y-41026776D01*
X34407000Y-40253224D01*
X67193000Y-40253224D01*
X67193000Y-41026776D01*
X67343912Y-41785464D01*
X67639938Y-42500132D01*
X68069700Y-43143317D01*
X68616683Y-43690300D01*
X69259868Y-44120062D01*
X69974536Y-44416088D01*
X70733224Y-44567000D01*
X71506776Y-44567000D01*
X72265464Y-44416088D01*
X72980132Y-44120062D01*
X73623317Y-43690300D01*
X74170300Y-43143317D01*
X74600062Y-42500132D01*
X74896088Y-41785464D01*
X75047000Y-41026776D01*
X75047000Y-40253224D01*
X74896088Y-39494536D01*
X74600062Y-38779868D01*
X74170300Y-38136683D01*
X73623317Y-37589700D01*
X72980132Y-37159938D01*
X72265464Y-36863912D01*
X71506776Y-36713000D01*
X70733224Y-36713000D01*
X69974536Y-36863912D01*
X69259868Y-37159938D01*
X68616683Y-37589700D01*
X68069700Y-38136683D01*
X67639938Y-38779868D01*
X67343912Y-39494536D01*
X67193000Y-40253224D01*
X34407000Y-40253224D01*
X34256088Y-39494536D01*
X33960062Y-38779868D01*
X33530300Y-38136683D01*
X32983317Y-37589700D01*
X32340132Y-37159938D01*
X31625464Y-36863912D01*
X30866776Y-36713000D01*
X30093224Y-36713000D01*
X29334536Y-36863912D01*
X28619868Y-37159938D01*
X27976683Y-37589700D01*
X27429700Y-38136683D01*
X26999938Y-38779868D01*
X26703912Y-39494536D01*
X26553000Y-40253224D01*
X26406000Y-40253224D01*
X26406000Y-37374780D01*
X26443590Y-36991408D01*
X26544246Y-36658021D01*
X26707740Y-36350531D01*
X26927844Y-36080657D01*
X27196179Y-35858672D01*
X27502519Y-35693033D01*
X27835199Y-35590051D01*
X28216265Y-35550000D01*
X73369220Y-35550000D01*
X73752592Y-35587590D01*
M02*
